%TF.GenerationSoftware,KiCad,Pcbnew,8.0.8*%
%TF.CreationDate,2025-02-10T12:16:24+01:00*%
%TF.ProjectId,HUB75Adapter,48554237-3541-4646-9170-7465722e6b69,V1.0*%
%TF.SameCoordinates,Original*%
%TF.FileFunction,Soldermask,Bot*%
%TF.FilePolarity,Negative*%
%FSLAX46Y46*%
G04 Gerber Fmt 4.6, Leading zero omitted, Abs format (unit mm)*
G04 Created by KiCad (PCBNEW 8.0.8) date 2025-02-10 12:16:24*
%MOMM*%
%LPD*%
G01*
G04 APERTURE LIST*
G04 Aperture macros list*
%AMRoundRect*
0 Rectangle with rounded corners*
0 $1 Rounding radius*
0 $2 $3 $4 $5 $6 $7 $8 $9 X,Y pos of 4 corners*
0 Add a 4 corners polygon primitive as box body*
4,1,4,$2,$3,$4,$5,$6,$7,$8,$9,$2,$3,0*
0 Add four circle primitives for the rounded corners*
1,1,$1+$1,$2,$3*
1,1,$1+$1,$4,$5*
1,1,$1+$1,$6,$7*
1,1,$1+$1,$8,$9*
0 Add four rect primitives between the rounded corners*
20,1,$1+$1,$2,$3,$4,$5,0*
20,1,$1+$1,$4,$5,$6,$7,0*
20,1,$1+$1,$6,$7,$8,$9,0*
20,1,$1+$1,$8,$9,$2,$3,0*%
G04 Aperture macros list end*
%ADD10RoundRect,0.250000X-0.600000X0.600000X-0.600000X-0.600000X0.600000X-0.600000X0.600000X0.600000X0*%
%ADD11C,1.700000*%
%ADD12C,2.750000*%
%ADD13RoundRect,0.102000X0.800000X0.754000X-0.800000X0.754000X-0.800000X-0.754000X0.800000X-0.754000X0*%
%ADD14C,1.804000*%
%ADD15R,1.700000X1.700000*%
%ADD16O,1.700000X1.700000*%
%ADD17R,2.000000X2.000000*%
%ADD18C,2.000000*%
%ADD19R,1.600000X2.400000*%
%ADD20O,1.600000X2.400000*%
%ADD21RoundRect,0.250000X0.600000X0.600000X-0.600000X0.600000X-0.600000X-0.600000X0.600000X-0.600000X0*%
%ADD22R,2.600000X2.600000*%
%ADD23C,2.600000*%
%ADD24R,1.800000X1.400000*%
%ADD25O,1.800000X1.400000*%
%ADD26RoundRect,0.750000X1.000000X-0.750000X1.000000X0.750000X-1.000000X0.750000X-1.000000X-0.750000X0*%
%ADD27RoundRect,0.750000X0.750000X-1.000000X0.750000X1.000000X-0.750000X1.000000X-0.750000X-1.000000X0*%
G04 APERTURE END LIST*
D10*
%TO.C,J6*%
X123890000Y-111247500D03*
D11*
X123890000Y-113787500D03*
X121350000Y-111247500D03*
X121350000Y-113787500D03*
X118810000Y-111247500D03*
X118810000Y-113787500D03*
X116270000Y-111247500D03*
X116270000Y-113787500D03*
X113730000Y-111247500D03*
X113730000Y-113787500D03*
X111190000Y-111247500D03*
X111190000Y-113787500D03*
X108650000Y-111247500D03*
X108650000Y-113787500D03*
X106110000Y-111247500D03*
X106110000Y-113787500D03*
%TD*%
D12*
%TO.C,U1*%
X127000000Y-79270000D03*
X127000000Y-56270000D03*
X69000000Y-79270000D03*
X69000000Y-56270000D03*
D13*
X122130000Y-78000000D03*
D14*
X122130000Y-80540000D03*
X119590000Y-78000000D03*
X119590000Y-80540000D03*
X117050000Y-78000000D03*
X117050000Y-80540000D03*
X114510000Y-78000000D03*
X114510000Y-80540000D03*
X111970000Y-78000000D03*
X111970000Y-80540000D03*
X109430000Y-78000000D03*
X109430000Y-80540000D03*
X106890000Y-78000000D03*
X106890000Y-80540000D03*
X104350000Y-78000000D03*
X104350000Y-80540000D03*
X101810000Y-78000000D03*
X101810000Y-80540000D03*
X99270000Y-78000000D03*
X99270000Y-80540000D03*
X96730000Y-78000000D03*
X96730000Y-80540000D03*
X94190000Y-78000000D03*
X94190000Y-80540000D03*
X91650000Y-78000000D03*
X91650000Y-80540000D03*
X89110000Y-78000000D03*
X89110000Y-80540000D03*
X86570000Y-78000000D03*
X86570000Y-80540000D03*
X84030000Y-78000000D03*
X84030000Y-80540000D03*
X81490000Y-78000000D03*
X81490000Y-80540000D03*
X78950000Y-78000000D03*
X78950000Y-80540000D03*
X76410000Y-78000000D03*
X76410000Y-80540000D03*
X73870000Y-78000000D03*
X73870000Y-80540000D03*
%TD*%
D15*
%TO.C,J10*%
X86750000Y-120475000D03*
D16*
X86750000Y-123015000D03*
X86750000Y-125555000D03*
%TD*%
D17*
%TO.C,C4*%
X142367677Y-73000000D03*
D18*
X137367677Y-73000000D03*
%TD*%
D19*
%TO.C,U3*%
X109395000Y-90175000D03*
D20*
X106855000Y-90175000D03*
X104315000Y-90175000D03*
X101775000Y-90175000D03*
X99235000Y-90175000D03*
X96695000Y-90175000D03*
X94155000Y-90175000D03*
X91615000Y-90175000D03*
X89075000Y-90175000D03*
X86535000Y-90175000D03*
X86535000Y-97795000D03*
X89075000Y-97795000D03*
X91615000Y-97795000D03*
X94155000Y-97795000D03*
X96695000Y-97795000D03*
X99235000Y-97795000D03*
X101775000Y-97795000D03*
X104315000Y-97795000D03*
X106855000Y-97795000D03*
X109395000Y-97795000D03*
%TD*%
D15*
%TO.C,J8*%
X117250000Y-120475000D03*
D16*
X117250000Y-123015000D03*
X117250000Y-125555000D03*
%TD*%
D15*
%TO.C,J9*%
X112000000Y-120475000D03*
D16*
X112000000Y-123015000D03*
X112000000Y-125555000D03*
%TD*%
D21*
%TO.C,J3*%
X56502500Y-81330000D03*
D11*
X53962500Y-81330000D03*
X56502500Y-78790000D03*
X53962500Y-78790000D03*
X56502500Y-76250000D03*
X53962500Y-76250000D03*
%TD*%
D17*
%TO.C,C5*%
X142367677Y-62000000D03*
D18*
X137367677Y-62000000D03*
%TD*%
D15*
%TO.C,J11*%
X81500000Y-120475000D03*
D16*
X81500000Y-123015000D03*
X81500000Y-125555000D03*
%TD*%
D22*
%TO.C,J5*%
X54695000Y-107500000D03*
D23*
X54695000Y-112500000D03*
X54695000Y-117500000D03*
X54695000Y-122500000D03*
%TD*%
D10*
%TO.C,J7*%
X93890000Y-111247500D03*
D11*
X93890000Y-113787500D03*
X91350000Y-111247500D03*
X91350000Y-113787500D03*
X88810000Y-111247500D03*
X88810000Y-113787500D03*
X86270000Y-111247500D03*
X86270000Y-113787500D03*
X83730000Y-111247500D03*
X83730000Y-113787500D03*
X81190000Y-111247500D03*
X81190000Y-113787500D03*
X78650000Y-111247500D03*
X78650000Y-113787500D03*
X76110000Y-111247500D03*
X76110000Y-113787500D03*
%TD*%
D19*
%TO.C,U2*%
X76750000Y-90175000D03*
D20*
X74210000Y-90175000D03*
X71670000Y-90175000D03*
X69130000Y-90175000D03*
X66590000Y-90175000D03*
X64050000Y-90175000D03*
X61510000Y-90175000D03*
X58970000Y-90175000D03*
X56430000Y-90175000D03*
X53890000Y-90175000D03*
X53890000Y-97795000D03*
X56430000Y-97795000D03*
X58970000Y-97795000D03*
X61510000Y-97795000D03*
X64050000Y-97795000D03*
X66590000Y-97795000D03*
X69130000Y-97795000D03*
X71670000Y-97795000D03*
X74210000Y-97795000D03*
X76750000Y-97795000D03*
%TD*%
D24*
%TO.C,LED1*%
X55250000Y-58225000D03*
D25*
X55250000Y-60765000D03*
%TD*%
D19*
%TO.C,U4*%
X142395000Y-90175000D03*
D20*
X139855000Y-90175000D03*
X137315000Y-90175000D03*
X134775000Y-90175000D03*
X132235000Y-90175000D03*
X129695000Y-90175000D03*
X127155000Y-90175000D03*
X124615000Y-90175000D03*
X122075000Y-90175000D03*
X119535000Y-90175000D03*
X119535000Y-97795000D03*
X122075000Y-97795000D03*
X124615000Y-97795000D03*
X127155000Y-97795000D03*
X129695000Y-97795000D03*
X132235000Y-97795000D03*
X134775000Y-97795000D03*
X137315000Y-97795000D03*
X139855000Y-97795000D03*
X142395000Y-97795000D03*
%TD*%
D22*
%TO.C,J4*%
X145305000Y-122500000D03*
D23*
X145305000Y-117500000D03*
X145305000Y-112500000D03*
X145305000Y-107500000D03*
%TD*%
D22*
%TO.C,J2*%
X92000000Y-138305000D03*
D23*
X97000000Y-138305000D03*
X102000000Y-138305000D03*
X107000000Y-138305000D03*
%TD*%
D17*
%TO.C,C11*%
X60750000Y-128500000D03*
D18*
X60750000Y-133500000D03*
%TD*%
D17*
%TO.C,C10*%
X139250000Y-128632323D03*
D18*
X139250000Y-133632323D03*
%TD*%
D26*
%TO.C,J1*%
X126250000Y-129250000D03*
X126250000Y-135250000D03*
D27*
X130950000Y-132250000D03*
%TD*%
M02*
