%TF.GenerationSoftware,KiCad,Pcbnew,8.0.8*%
%TF.CreationDate,2025-02-10T12:16:24+01:00*%
%TF.ProjectId,HUB75Adapter,48554237-3541-4646-9170-7465722e6b69,V1.0*%
%TF.SameCoordinates,Original*%
%TF.FileFunction,Legend,Bot*%
%TF.FilePolarity,Positive*%
%FSLAX46Y46*%
G04 Gerber Fmt 4.6, Leading zero omitted, Abs format (unit mm)*
G04 Created by KiCad (PCBNEW 8.0.8) date 2025-02-10 12:16:24*
%MOMM*%
%LPD*%
G01*
G04 APERTURE LIST*
%ADD10C,0.250000*%
%ADD11C,0.000000*%
G04 APERTURE END LIST*
D10*
G36*
X107882828Y-56887707D02*
G01*
X108075557Y-57003346D01*
X108191197Y-57196078D01*
X108229667Y-57388428D01*
X108191197Y-57580777D01*
X108075558Y-57773510D01*
X107882826Y-57889149D01*
X107690476Y-57927619D01*
X107498126Y-57889149D01*
X107305394Y-57773510D01*
X107189755Y-57580777D01*
X107151286Y-57388428D01*
X107189755Y-57196078D01*
X107255154Y-57087080D01*
X107375981Y-57087080D01*
X107379439Y-57135729D01*
X107401250Y-57179353D01*
X107438095Y-57211309D01*
X107484366Y-57226733D01*
X107533015Y-57223275D01*
X107555901Y-57214518D01*
X107624748Y-57180095D01*
X107756207Y-57180095D01*
X107806909Y-57205446D01*
X107873458Y-57271995D01*
X107898810Y-57322698D01*
X107898810Y-57454157D01*
X107873458Y-57504860D01*
X107806909Y-57571410D01*
X107756207Y-57596761D01*
X107624748Y-57596761D01*
X107555901Y-57562338D01*
X107533015Y-57553581D01*
X107484366Y-57550123D01*
X107438095Y-57565547D01*
X107401250Y-57597503D01*
X107379439Y-57641127D01*
X107375981Y-57689776D01*
X107391405Y-57736047D01*
X107423361Y-57772892D01*
X107444099Y-57785946D01*
X107539338Y-57833565D01*
X107562223Y-57842322D01*
X107566703Y-57842640D01*
X107570853Y-57844359D01*
X107595239Y-57846761D01*
X107785715Y-57846761D01*
X107810101Y-57844359D01*
X107814249Y-57842640D01*
X107818731Y-57842322D01*
X107841617Y-57833564D01*
X107936854Y-57785946D01*
X107947352Y-57779336D01*
X107950399Y-57778075D01*
X107953830Y-57775259D01*
X107957592Y-57772891D01*
X107959755Y-57770396D01*
X107969341Y-57762530D01*
X108064579Y-57667292D01*
X108072445Y-57657706D01*
X108074940Y-57655543D01*
X108077307Y-57651781D01*
X108080124Y-57648350D01*
X108081386Y-57645302D01*
X108087994Y-57634806D01*
X108135613Y-57539568D01*
X108144371Y-57516682D01*
X108144689Y-57512201D01*
X108146408Y-57508052D01*
X108148810Y-57483666D01*
X108148810Y-57293190D01*
X108146408Y-57268804D01*
X108144689Y-57264654D01*
X108144371Y-57260174D01*
X108135613Y-57237288D01*
X108087994Y-57142050D01*
X108081386Y-57131553D01*
X108080124Y-57128506D01*
X108077307Y-57125074D01*
X108074940Y-57121313D01*
X108072445Y-57119149D01*
X108064579Y-57109564D01*
X107969341Y-57014326D01*
X107959755Y-57006459D01*
X107957592Y-57003965D01*
X107953830Y-57001596D01*
X107950399Y-56998781D01*
X107947352Y-56997519D01*
X107936854Y-56990910D01*
X107841617Y-56943292D01*
X107818731Y-56934534D01*
X107814249Y-56934215D01*
X107810101Y-56932497D01*
X107785715Y-56930095D01*
X107595239Y-56930095D01*
X107570853Y-56932497D01*
X107566703Y-56934215D01*
X107562223Y-56934534D01*
X107539338Y-56943291D01*
X107444099Y-56990910D01*
X107423361Y-57003964D01*
X107391405Y-57040809D01*
X107375981Y-57087080D01*
X107255154Y-57087080D01*
X107305395Y-57003345D01*
X107498126Y-56887706D01*
X107690476Y-56849236D01*
X107882828Y-56887707D01*
G37*
G36*
X92187858Y-57348302D02*
G01*
X92206790Y-57367235D01*
X92232141Y-57417936D01*
X92232141Y-57644633D01*
X92206789Y-57695336D01*
X92187858Y-57714268D01*
X92137157Y-57739619D01*
X92053317Y-57739619D01*
X92002615Y-57714268D01*
X91983683Y-57695336D01*
X91958332Y-57644634D01*
X91958332Y-57417936D01*
X91983682Y-57367234D01*
X92002615Y-57348302D01*
X92053317Y-57322952D01*
X92137157Y-57322952D01*
X92187858Y-57348302D01*
G37*
G36*
X93092620Y-57348302D02*
G01*
X93111552Y-57367235D01*
X93136903Y-57417936D01*
X93136903Y-57644633D01*
X93111551Y-57695336D01*
X93092620Y-57714268D01*
X93041919Y-57739619D01*
X92910713Y-57739619D01*
X92910713Y-57322952D01*
X93041919Y-57322952D01*
X93092620Y-57348302D01*
G37*
G36*
X94902144Y-57348302D02*
G01*
X94921076Y-57367235D01*
X94946427Y-57417936D01*
X94946427Y-57644633D01*
X94921075Y-57695336D01*
X94902144Y-57714268D01*
X94851443Y-57739619D01*
X94767603Y-57739619D01*
X94716901Y-57714268D01*
X94697969Y-57695336D01*
X94672618Y-57644634D01*
X94672618Y-57417936D01*
X94697968Y-57367234D01*
X94716901Y-57348302D01*
X94767603Y-57322952D01*
X94851443Y-57322952D01*
X94902144Y-57348302D01*
G37*
G36*
X100787782Y-57624454D02*
G01*
X100803571Y-57656031D01*
X100803571Y-57692252D01*
X100787781Y-57723831D01*
X100756206Y-57739619D01*
X100577381Y-57739619D01*
X100577381Y-57608666D01*
X100756206Y-57608666D01*
X100787782Y-57624454D01*
G37*
G36*
X105473574Y-57014969D02*
G01*
X105492506Y-57033902D01*
X105524916Y-57098723D01*
X105565476Y-57260960D01*
X105565476Y-57468277D01*
X105524916Y-57630513D01*
X105492505Y-57695336D01*
X105473574Y-57714268D01*
X105422873Y-57739619D01*
X105386652Y-57739619D01*
X105335950Y-57714268D01*
X105317018Y-57695336D01*
X105284607Y-57630515D01*
X105244048Y-57468277D01*
X105244048Y-57260960D01*
X105284607Y-57098722D01*
X105317017Y-57033901D01*
X105335950Y-57014969D01*
X105386652Y-56989619D01*
X105422873Y-56989619D01*
X105473574Y-57014969D01*
G37*
G36*
X98425954Y-55405025D02*
G01*
X98444886Y-55423958D01*
X98477296Y-55488779D01*
X98517856Y-55651016D01*
X98517856Y-55858333D01*
X98477296Y-56020569D01*
X98444885Y-56085392D01*
X98425954Y-56104324D01*
X98375253Y-56129675D01*
X98339032Y-56129675D01*
X98288330Y-56104324D01*
X98269398Y-56085392D01*
X98236987Y-56020571D01*
X98196428Y-55858333D01*
X98196428Y-55651016D01*
X98236987Y-55488778D01*
X98269397Y-55423957D01*
X98288330Y-55405025D01*
X98339032Y-55379675D01*
X98375253Y-55379675D01*
X98425954Y-55405025D01*
G37*
G36*
X92930637Y-54118852D02*
G01*
X92946426Y-54150429D01*
X92946426Y-54158921D01*
X92738898Y-54117415D01*
X92767602Y-54103064D01*
X92899061Y-54103064D01*
X92930637Y-54118852D01*
G37*
G36*
X94854525Y-54128414D02*
G01*
X94873457Y-54147347D01*
X94898808Y-54198048D01*
X94898808Y-54424745D01*
X94873456Y-54475448D01*
X94854525Y-54494380D01*
X94803824Y-54519731D01*
X94719984Y-54519731D01*
X94669282Y-54494380D01*
X94650350Y-54475448D01*
X94624999Y-54424746D01*
X94624999Y-54198048D01*
X94650349Y-54147346D01*
X94669282Y-54128414D01*
X94719984Y-54103064D01*
X94803824Y-54103064D01*
X94854525Y-54128414D01*
G37*
G36*
X97854526Y-54128414D02*
G01*
X97873458Y-54147347D01*
X97898809Y-54198048D01*
X97898809Y-54424745D01*
X97873457Y-54475448D01*
X97854526Y-54494380D01*
X97803825Y-54519731D01*
X97719985Y-54519731D01*
X97669283Y-54494380D01*
X97650351Y-54475448D01*
X97625000Y-54424746D01*
X97625000Y-54198048D01*
X97650350Y-54147346D01*
X97669283Y-54128414D01*
X97719985Y-54103064D01*
X97803825Y-54103064D01*
X97854526Y-54128414D01*
G37*
G36*
X104755953Y-54519731D02*
G01*
X104529510Y-54519731D01*
X104478808Y-54494380D01*
X104459876Y-54475448D01*
X104434525Y-54424746D01*
X104434525Y-54340905D01*
X104459875Y-54290203D01*
X104472286Y-54277793D01*
X104567906Y-54245921D01*
X104755953Y-54245921D01*
X104755953Y-54519731D01*
G37*
G36*
X104755953Y-53995921D02*
G01*
X104577129Y-53995921D01*
X104526427Y-53970570D01*
X104507494Y-53951638D01*
X104482144Y-53900937D01*
X104482144Y-53864715D01*
X104507494Y-53814013D01*
X104526427Y-53795081D01*
X104577129Y-53769731D01*
X104755953Y-53769731D01*
X104755953Y-53995921D01*
G37*
G36*
X108607143Y-58305095D02*
G01*
X90300019Y-58305095D01*
X90300019Y-56840233D01*
X90425019Y-56840233D01*
X90425019Y-56889005D01*
X90443683Y-56934065D01*
X90478171Y-56968553D01*
X90523231Y-56987217D01*
X90547617Y-56989619D01*
X90613347Y-56989619D01*
X90644923Y-57005407D01*
X90660712Y-57036984D01*
X90660712Y-57072952D01*
X90547617Y-57072952D01*
X90523231Y-57075354D01*
X90478171Y-57094018D01*
X90443683Y-57128506D01*
X90425019Y-57173566D01*
X90425019Y-57222338D01*
X90443683Y-57267398D01*
X90478171Y-57301886D01*
X90523231Y-57320550D01*
X90547617Y-57322952D01*
X90660712Y-57322952D01*
X90660712Y-57864619D01*
X90663114Y-57889005D01*
X90681778Y-57934065D01*
X90716266Y-57968553D01*
X90761326Y-57987217D01*
X90810098Y-57987217D01*
X90855158Y-57968553D01*
X90889646Y-57934065D01*
X90908310Y-57889005D01*
X90910712Y-57864619D01*
X90910712Y-57322952D01*
X90928569Y-57322952D01*
X90952955Y-57320550D01*
X90998015Y-57301886D01*
X91023807Y-57276093D01*
X91049600Y-57301886D01*
X91094660Y-57320550D01*
X91119046Y-57322952D01*
X91184776Y-57322952D01*
X91235477Y-57348302D01*
X91254409Y-57367235D01*
X91279760Y-57417936D01*
X91279760Y-57864619D01*
X91282162Y-57889005D01*
X91300826Y-57934065D01*
X91335314Y-57968553D01*
X91380374Y-57987217D01*
X91429146Y-57987217D01*
X91474206Y-57968553D01*
X91508694Y-57934065D01*
X91527358Y-57889005D01*
X91529760Y-57864619D01*
X91529760Y-57388428D01*
X91708332Y-57388428D01*
X91708332Y-57674142D01*
X91710734Y-57698528D01*
X91712452Y-57702676D01*
X91712771Y-57707158D01*
X91721529Y-57730044D01*
X91769147Y-57825281D01*
X91775754Y-57835777D01*
X91777017Y-57838825D01*
X91779834Y-57842258D01*
X91782202Y-57846019D01*
X91784696Y-57848182D01*
X91792562Y-57857767D01*
X91840181Y-57905387D01*
X91849769Y-57913256D01*
X91851931Y-57915749D01*
X91855685Y-57918112D01*
X91859122Y-57920933D01*
X91862175Y-57922197D01*
X91872668Y-57928803D01*
X91967906Y-57976422D01*
X91990792Y-57985180D01*
X91995272Y-57985498D01*
X91999422Y-57987217D01*
X92023808Y-57989619D01*
X92166665Y-57989619D01*
X92191051Y-57987217D01*
X92195199Y-57985498D01*
X92199681Y-57985180D01*
X92222567Y-57976422D01*
X92317804Y-57928804D01*
X92328300Y-57922196D01*
X92331350Y-57920933D01*
X92334783Y-57918114D01*
X92338542Y-57915749D01*
X92340704Y-57913255D01*
X92350292Y-57905387D01*
X92397911Y-57857768D01*
X92405778Y-57848180D01*
X92408271Y-57846019D01*
X92410637Y-57842259D01*
X92413456Y-57838825D01*
X92414718Y-57835776D01*
X92421325Y-57825282D01*
X92468944Y-57730044D01*
X92477702Y-57707158D01*
X92478020Y-57702677D01*
X92479739Y-57698528D01*
X92482141Y-57674142D01*
X92482141Y-57388428D01*
X92479739Y-57364042D01*
X92478020Y-57359892D01*
X92477702Y-57355412D01*
X92468944Y-57332526D01*
X92421325Y-57237288D01*
X92414718Y-57226793D01*
X92413455Y-57223743D01*
X92410636Y-57220308D01*
X92408271Y-57216551D01*
X92405779Y-57214389D01*
X92397910Y-57204801D01*
X92350291Y-57157183D01*
X92340705Y-57149316D01*
X92338542Y-57146822D01*
X92334780Y-57144453D01*
X92331349Y-57141638D01*
X92328302Y-57140376D01*
X92317804Y-57133767D01*
X92222567Y-57086149D01*
X92199681Y-57077391D01*
X92195199Y-57077072D01*
X92191051Y-57075354D01*
X92166665Y-57072952D01*
X92023808Y-57072952D01*
X91999422Y-57075354D01*
X91995272Y-57077072D01*
X91990792Y-57077391D01*
X91967906Y-57086149D01*
X91872668Y-57133768D01*
X91862173Y-57140374D01*
X91859123Y-57141638D01*
X91855688Y-57144456D01*
X91851931Y-57146822D01*
X91849769Y-57149313D01*
X91840181Y-57157183D01*
X91792563Y-57204802D01*
X91784696Y-57214387D01*
X91782202Y-57216551D01*
X91779833Y-57220312D01*
X91777018Y-57223744D01*
X91775756Y-57226790D01*
X91769147Y-57237289D01*
X91721529Y-57332526D01*
X91712771Y-57355412D01*
X91712452Y-57359893D01*
X91710734Y-57364042D01*
X91708332Y-57388428D01*
X91529760Y-57388428D01*
X91529760Y-57197952D01*
X91527358Y-57173566D01*
X91508694Y-57128506D01*
X91474206Y-57094018D01*
X91429146Y-57075354D01*
X91380374Y-57075354D01*
X91335314Y-57094018D01*
X91318850Y-57110481D01*
X91270186Y-57086149D01*
X91247300Y-57077391D01*
X91242818Y-57077072D01*
X91238670Y-57075354D01*
X91214284Y-57072952D01*
X91119046Y-57072952D01*
X91094660Y-57075354D01*
X91049600Y-57094018D01*
X91023807Y-57119810D01*
X90998015Y-57094018D01*
X90952955Y-57075354D01*
X90928569Y-57072952D01*
X90910712Y-57072952D01*
X90910712Y-57007476D01*
X90908310Y-56983090D01*
X90906591Y-56978940D01*
X90906273Y-56974460D01*
X90897515Y-56951574D01*
X90854037Y-56864619D01*
X92660713Y-56864619D01*
X92660713Y-57864619D01*
X92663115Y-57889005D01*
X92681779Y-57934065D01*
X92716267Y-57968553D01*
X92761327Y-57987217D01*
X92810099Y-57987217D01*
X92830824Y-57978632D01*
X92847935Y-57985180D01*
X92852415Y-57985498D01*
X92856565Y-57987217D01*
X92880951Y-57989619D01*
X93071427Y-57989619D01*
X93095813Y-57987217D01*
X93099961Y-57985498D01*
X93104443Y-57985180D01*
X93127329Y-57976422D01*
X93222566Y-57928804D01*
X93233062Y-57922196D01*
X93236112Y-57920933D01*
X93239545Y-57918114D01*
X93243304Y-57915749D01*
X93245466Y-57913255D01*
X93255054Y-57905387D01*
X93302673Y-57857768D01*
X93310540Y-57848180D01*
X93313033Y-57846019D01*
X93315399Y-57842259D01*
X93318218Y-57838825D01*
X93319480Y-57835776D01*
X93326087Y-57825282D01*
X93373706Y-57730044D01*
X93382464Y-57707158D01*
X93382782Y-57702677D01*
X93384501Y-57698528D01*
X93386903Y-57674142D01*
X93386903Y-57388428D01*
X93384501Y-57364042D01*
X93382782Y-57359892D01*
X93382464Y-57355412D01*
X93376876Y-57340809D01*
X93565475Y-57340809D01*
X93565475Y-57864619D01*
X93567877Y-57889005D01*
X93586541Y-57934065D01*
X93621029Y-57968553D01*
X93666089Y-57987217D01*
X93714861Y-57987217D01*
X93759921Y-57968553D01*
X93794409Y-57934065D01*
X93813073Y-57889005D01*
X93815475Y-57864619D01*
X93815475Y-57370317D01*
X93831263Y-57338740D01*
X93862841Y-57322952D01*
X93946681Y-57322952D01*
X93994046Y-57346634D01*
X93994046Y-57864619D01*
X93996448Y-57889005D01*
X94015112Y-57934065D01*
X94049600Y-57968553D01*
X94094660Y-57987217D01*
X94143432Y-57987217D01*
X94188492Y-57968553D01*
X94222980Y-57934065D01*
X94241644Y-57889005D01*
X94244046Y-57864619D01*
X94244046Y-57388428D01*
X94422618Y-57388428D01*
X94422618Y-57674142D01*
X94425020Y-57698528D01*
X94426738Y-57702676D01*
X94427057Y-57707158D01*
X94435815Y-57730044D01*
X94483433Y-57825281D01*
X94490040Y-57835777D01*
X94491303Y-57838825D01*
X94494120Y-57842258D01*
X94496488Y-57846019D01*
X94498982Y-57848182D01*
X94506848Y-57857767D01*
X94554467Y-57905387D01*
X94564055Y-57913256D01*
X94566217Y-57915749D01*
X94569971Y-57918112D01*
X94573408Y-57920933D01*
X94576461Y-57922197D01*
X94586954Y-57928803D01*
X94682192Y-57976422D01*
X94705078Y-57985180D01*
X94709558Y-57985498D01*
X94713708Y-57987217D01*
X94738094Y-57989619D01*
X94880951Y-57989619D01*
X94905337Y-57987217D01*
X94909485Y-57985498D01*
X94913967Y-57985180D01*
X94936853Y-57976422D01*
X95032090Y-57928804D01*
X95042586Y-57922196D01*
X95045636Y-57920933D01*
X95049069Y-57918114D01*
X95052828Y-57915749D01*
X95054990Y-57913255D01*
X95064578Y-57905387D01*
X95112197Y-57857768D01*
X95120064Y-57848180D01*
X95122557Y-57846019D01*
X95124923Y-57842259D01*
X95127742Y-57838825D01*
X95129004Y-57835776D01*
X95135611Y-57825282D01*
X95183230Y-57730044D01*
X95191988Y-57707158D01*
X95192306Y-57702677D01*
X95194025Y-57698528D01*
X95196427Y-57674142D01*
X95196427Y-57388428D01*
X95194025Y-57364042D01*
X95192306Y-57359892D01*
X95191988Y-57355412D01*
X95186400Y-57340809D01*
X95374999Y-57340809D01*
X95374999Y-57864619D01*
X95377401Y-57889005D01*
X95396065Y-57934065D01*
X95430553Y-57968553D01*
X95475613Y-57987217D01*
X95524385Y-57987217D01*
X95569445Y-57968553D01*
X95603933Y-57934065D01*
X95622597Y-57889005D01*
X95624999Y-57864619D01*
X95624999Y-57370317D01*
X95640787Y-57338740D01*
X95672365Y-57322952D01*
X95756205Y-57322952D01*
X95803570Y-57346634D01*
X95803570Y-57864619D01*
X95805972Y-57889005D01*
X95824636Y-57934065D01*
X95859124Y-57968553D01*
X95904184Y-57987217D01*
X95952956Y-57987217D01*
X95998016Y-57968553D01*
X96032504Y-57934065D01*
X96051168Y-57889005D01*
X96053570Y-57864619D01*
X96053570Y-57229937D01*
X96233123Y-57229937D01*
X96236581Y-57278587D01*
X96258393Y-57322210D01*
X96295238Y-57354166D01*
X96341508Y-57369590D01*
X96390158Y-57366132D01*
X96413044Y-57357374D01*
X96481889Y-57322952D01*
X96613348Y-57322952D01*
X96664049Y-57348302D01*
X96682981Y-57367235D01*
X96708332Y-57417936D01*
X96708332Y-57644633D01*
X96682980Y-57695336D01*
X96664049Y-57714268D01*
X96613348Y-57739619D01*
X96481889Y-57739619D01*
X96413044Y-57705197D01*
X96390158Y-57696439D01*
X96341508Y-57692981D01*
X96295238Y-57708405D01*
X96258393Y-57740361D01*
X96236581Y-57783984D01*
X96233123Y-57832634D01*
X96248547Y-57878904D01*
X96280503Y-57915749D01*
X96301240Y-57928803D01*
X96396478Y-57976422D01*
X96419364Y-57985180D01*
X96423844Y-57985498D01*
X96427994Y-57987217D01*
X96452380Y-57989619D01*
X96642856Y-57989619D01*
X96667242Y-57987217D01*
X96671390Y-57985498D01*
X96675872Y-57985180D01*
X96698758Y-57976422D01*
X96793995Y-57928804D01*
X96804491Y-57922196D01*
X96807541Y-57920933D01*
X96810974Y-57918114D01*
X96814733Y-57915749D01*
X96816895Y-57913255D01*
X96826483Y-57905387D01*
X96874102Y-57857768D01*
X96881969Y-57848180D01*
X96884462Y-57846019D01*
X96886828Y-57842259D01*
X96889647Y-57838825D01*
X96890909Y-57835776D01*
X96897516Y-57825282D01*
X96945135Y-57730044D01*
X96953893Y-57707158D01*
X96954211Y-57702677D01*
X96955930Y-57698528D01*
X96958332Y-57674142D01*
X96958332Y-57578904D01*
X97089285Y-57578904D01*
X97089285Y-57674142D01*
X97091687Y-57698528D01*
X97093405Y-57702676D01*
X97093724Y-57707158D01*
X97102482Y-57730044D01*
X97150100Y-57825281D01*
X97156707Y-57835777D01*
X97157970Y-57838825D01*
X97160787Y-57842258D01*
X97163155Y-57846019D01*
X97165649Y-57848182D01*
X97173515Y-57857767D01*
X97221134Y-57905387D01*
X97230722Y-57913256D01*
X97232884Y-57915749D01*
X97236638Y-57918112D01*
X97240075Y-57920933D01*
X97243128Y-57922197D01*
X97253621Y-57928803D01*
X97348859Y-57976422D01*
X97371745Y-57985180D01*
X97376225Y-57985498D01*
X97380375Y-57987217D01*
X97404761Y-57989619D01*
X97642856Y-57989619D01*
X97655199Y-57988403D01*
X97658490Y-57988637D01*
X97662819Y-57987652D01*
X97667242Y-57987217D01*
X97670293Y-57985953D01*
X97682384Y-57983204D01*
X97825241Y-57935586D01*
X97847616Y-57925595D01*
X97884462Y-57893640D01*
X97906274Y-57850016D01*
X97909731Y-57801366D01*
X97894308Y-57755097D01*
X97862352Y-57718251D01*
X97818728Y-57696439D01*
X97770078Y-57692982D01*
X97746184Y-57698415D01*
X97622573Y-57739619D01*
X97434270Y-57739619D01*
X97383568Y-57714268D01*
X97364636Y-57695336D01*
X97339285Y-57644634D01*
X97339285Y-57608412D01*
X97364635Y-57557710D01*
X97383568Y-57538778D01*
X97448389Y-57506368D01*
X97625554Y-57462077D01*
X97627353Y-57461433D01*
X97628253Y-57461370D01*
X97638399Y-57457487D01*
X97648629Y-57453832D01*
X97649353Y-57453295D01*
X97651139Y-57452612D01*
X97746376Y-57404994D01*
X97756874Y-57398384D01*
X97759921Y-57397123D01*
X97763352Y-57394307D01*
X97767114Y-57391939D01*
X97769277Y-57389444D01*
X97778863Y-57381578D01*
X97826482Y-57333960D01*
X97834351Y-57324371D01*
X97836843Y-57322210D01*
X97839208Y-57318452D01*
X97842027Y-57315018D01*
X97843290Y-57311967D01*
X97849897Y-57301473D01*
X97885665Y-57229937D01*
X98804552Y-57229937D01*
X98808010Y-57278587D01*
X98829822Y-57322210D01*
X98866667Y-57354166D01*
X98912937Y-57369590D01*
X98961587Y-57366132D01*
X98984473Y-57357374D01*
X99053318Y-57322952D01*
X99184777Y-57322952D01*
X99235478Y-57348302D01*
X99254410Y-57367235D01*
X99279761Y-57417936D01*
X99279761Y-57644633D01*
X99254409Y-57695336D01*
X99235478Y-57714268D01*
X99184777Y-57739619D01*
X99053318Y-57739619D01*
X98984473Y-57705197D01*
X98961587Y-57696439D01*
X98912937Y-57692981D01*
X98866667Y-57708405D01*
X98829822Y-57740361D01*
X98808010Y-57783984D01*
X98804552Y-57832634D01*
X98819976Y-57878904D01*
X98851932Y-57915749D01*
X98872669Y-57928803D01*
X98967907Y-57976422D01*
X98990793Y-57985180D01*
X98995273Y-57985498D01*
X98999423Y-57987217D01*
X99023809Y-57989619D01*
X99214285Y-57989619D01*
X99238671Y-57987217D01*
X99242819Y-57985498D01*
X99247301Y-57985180D01*
X99270187Y-57976422D01*
X99365424Y-57928804D01*
X99375920Y-57922196D01*
X99378970Y-57920933D01*
X99382403Y-57918114D01*
X99386162Y-57915749D01*
X99388324Y-57913255D01*
X99397912Y-57905387D01*
X99445531Y-57857768D01*
X99453398Y-57848180D01*
X99455891Y-57846019D01*
X99458257Y-57842259D01*
X99461076Y-57838825D01*
X99462338Y-57835776D01*
X99468945Y-57825282D01*
X99516564Y-57730044D01*
X99525322Y-57707158D01*
X99525640Y-57702677D01*
X99527359Y-57698528D01*
X99529761Y-57674142D01*
X99529761Y-57388428D01*
X99527359Y-57364042D01*
X99525640Y-57359892D01*
X99525322Y-57355412D01*
X99516564Y-57332526D01*
X99468945Y-57237288D01*
X99462338Y-57226793D01*
X99461075Y-57223743D01*
X99458256Y-57220308D01*
X99455891Y-57216551D01*
X99453399Y-57214389D01*
X99445530Y-57204801D01*
X99414294Y-57173566D01*
X99567878Y-57173566D01*
X99567878Y-57222338D01*
X99586542Y-57267398D01*
X99621030Y-57301886D01*
X99666090Y-57320550D01*
X99690476Y-57322952D01*
X99756206Y-57322952D01*
X99806907Y-57348302D01*
X99825839Y-57367235D01*
X99851190Y-57417936D01*
X99851190Y-57864619D01*
X99853592Y-57889005D01*
X99872256Y-57934065D01*
X99906744Y-57968553D01*
X99951804Y-57987217D01*
X100000576Y-57987217D01*
X100045636Y-57968553D01*
X100080124Y-57934065D01*
X100098788Y-57889005D01*
X100101190Y-57864619D01*
X100101190Y-57340809D01*
X100327381Y-57340809D01*
X100327381Y-57864619D01*
X100329783Y-57889005D01*
X100348447Y-57934065D01*
X100382935Y-57968553D01*
X100427995Y-57987217D01*
X100476767Y-57987217D01*
X100497492Y-57978632D01*
X100514603Y-57985180D01*
X100519083Y-57985498D01*
X100523233Y-57987217D01*
X100547619Y-57989619D01*
X100785714Y-57989619D01*
X100810100Y-57987217D01*
X100814248Y-57985498D01*
X100818730Y-57985180D01*
X100841616Y-57976422D01*
X100936853Y-57928804D01*
X100940930Y-57926237D01*
X100942857Y-57925595D01*
X100945256Y-57923513D01*
X100957591Y-57915749D01*
X100967857Y-57903911D01*
X100979702Y-57893639D01*
X100987469Y-57881299D01*
X100989547Y-57878904D01*
X100990188Y-57876980D01*
X100992756Y-57872901D01*
X101040375Y-57777662D01*
X101049132Y-57754777D01*
X101049450Y-57750296D01*
X101051169Y-57746147D01*
X101053571Y-57721761D01*
X101053571Y-57626523D01*
X101051169Y-57602137D01*
X101049450Y-57597987D01*
X101049132Y-57593507D01*
X101040374Y-57570621D01*
X100992755Y-57475383D01*
X100990188Y-57471306D01*
X100989547Y-57469381D01*
X100987467Y-57466982D01*
X100979701Y-57454646D01*
X100967860Y-57444376D01*
X100957591Y-57432536D01*
X100945253Y-57424769D01*
X100942856Y-57422690D01*
X100940931Y-57422048D01*
X100936853Y-57419481D01*
X100841616Y-57371863D01*
X100818730Y-57363105D01*
X100814248Y-57362786D01*
X100810100Y-57361068D01*
X100785714Y-57358666D01*
X100583206Y-57358666D01*
X100593169Y-57338740D01*
X100624747Y-57322952D01*
X100756206Y-57322952D01*
X100825050Y-57357374D01*
X100847936Y-57366132D01*
X100896585Y-57369589D01*
X100942856Y-57354166D01*
X100979701Y-57322210D01*
X101001512Y-57278587D01*
X101004970Y-57229937D01*
X100989547Y-57183667D01*
X100957591Y-57146822D01*
X100936853Y-57133767D01*
X100841616Y-57086149D01*
X100818730Y-57077391D01*
X100814248Y-57077072D01*
X100810100Y-57075354D01*
X100785714Y-57072952D01*
X100595238Y-57072952D01*
X100570852Y-57075354D01*
X100566702Y-57077072D01*
X100562222Y-57077391D01*
X100539336Y-57086149D01*
X100444098Y-57133768D01*
X100440021Y-57136334D01*
X100438096Y-57136976D01*
X100435697Y-57139055D01*
X100423361Y-57146822D01*
X100413091Y-57158662D01*
X100401251Y-57168932D01*
X100393484Y-57181269D01*
X100391405Y-57183667D01*
X100390763Y-57185591D01*
X100388196Y-57189670D01*
X100340578Y-57284907D01*
X100331820Y-57307793D01*
X100331501Y-57312274D01*
X100329783Y-57316423D01*
X100327381Y-57340809D01*
X100101190Y-57340809D01*
X100101190Y-57197952D01*
X100098788Y-57173566D01*
X100080124Y-57128506D01*
X100045636Y-57094018D01*
X100000576Y-57075354D01*
X99951804Y-57075354D01*
X99906744Y-57094018D01*
X99890280Y-57110481D01*
X99841616Y-57086149D01*
X99818730Y-57077391D01*
X99814248Y-57077072D01*
X99810100Y-57075354D01*
X99785714Y-57072952D01*
X99690476Y-57072952D01*
X99666090Y-57075354D01*
X99621030Y-57094018D01*
X99586542Y-57128506D01*
X99567878Y-57173566D01*
X99414294Y-57173566D01*
X99397911Y-57157183D01*
X99388325Y-57149316D01*
X99386162Y-57146822D01*
X99382400Y-57144453D01*
X99378969Y-57141638D01*
X99375922Y-57140376D01*
X99365424Y-57133767D01*
X99270187Y-57086149D01*
X99247301Y-57077391D01*
X99242819Y-57077072D01*
X99238671Y-57075354D01*
X99214285Y-57072952D01*
X99023809Y-57072952D01*
X98999423Y-57075354D01*
X98995273Y-57077072D01*
X98990793Y-57077391D01*
X98967907Y-57086149D01*
X98872669Y-57133768D01*
X98851932Y-57146822D01*
X98819976Y-57183667D01*
X98804552Y-57229937D01*
X97885665Y-57229937D01*
X97897516Y-57206235D01*
X97906274Y-57183349D01*
X97906592Y-57178868D01*
X97908311Y-57174719D01*
X97910713Y-57150333D01*
X97910713Y-57055095D01*
X97908311Y-57030709D01*
X97906592Y-57026559D01*
X97906274Y-57022079D01*
X97897516Y-56999193D01*
X97849897Y-56903955D01*
X97843290Y-56893460D01*
X97842027Y-56890410D01*
X97839208Y-56886975D01*
X97836843Y-56883218D01*
X97834351Y-56881056D01*
X97826482Y-56871468D01*
X97819633Y-56864619D01*
X101232143Y-56864619D01*
X101232143Y-57864619D01*
X101234545Y-57889005D01*
X101253209Y-57934065D01*
X101287697Y-57968553D01*
X101332757Y-57987217D01*
X101381529Y-57987217D01*
X101426589Y-57968553D01*
X101461077Y-57934065D01*
X101479741Y-57889005D01*
X101482143Y-57864619D01*
X101482143Y-57428065D01*
X101577203Y-57631765D01*
X101582492Y-57640694D01*
X101583593Y-57643720D01*
X101585552Y-57645860D01*
X101589692Y-57652847D01*
X101603700Y-57665675D01*
X101616533Y-57679688D01*
X101621565Y-57682036D01*
X101625661Y-57685787D01*
X101643511Y-57692278D01*
X101660729Y-57700313D01*
X101666278Y-57700556D01*
X101671498Y-57702455D01*
X101690476Y-57701620D01*
X101709455Y-57702455D01*
X101714674Y-57700556D01*
X101720223Y-57700313D01*
X101737436Y-57692279D01*
X101755292Y-57685787D01*
X101759388Y-57682035D01*
X101764419Y-57679688D01*
X101777249Y-57665677D01*
X101791260Y-57652847D01*
X101795399Y-57645860D01*
X101797359Y-57643720D01*
X101798459Y-57640694D01*
X101803749Y-57631765D01*
X101898809Y-57428064D01*
X101898809Y-57864619D01*
X101901211Y-57889005D01*
X101919875Y-57934065D01*
X101954363Y-57968553D01*
X101999423Y-57987217D01*
X102048195Y-57987217D01*
X102093255Y-57968553D01*
X102127743Y-57934065D01*
X102146407Y-57889005D01*
X102148809Y-57864619D01*
X102148809Y-57436047D01*
X103089286Y-57436047D01*
X103089286Y-57674142D01*
X103091688Y-57698528D01*
X103093406Y-57702676D01*
X103093725Y-57707158D01*
X103102483Y-57730044D01*
X103150101Y-57825281D01*
X103156708Y-57835777D01*
X103157971Y-57838825D01*
X103160788Y-57842258D01*
X103163156Y-57846019D01*
X103165650Y-57848182D01*
X103173516Y-57857767D01*
X103221135Y-57905387D01*
X103230723Y-57913256D01*
X103232885Y-57915749D01*
X103236639Y-57918112D01*
X103240076Y-57920933D01*
X103243129Y-57922197D01*
X103253622Y-57928803D01*
X103348860Y-57976422D01*
X103371746Y-57985180D01*
X103376226Y-57985498D01*
X103380376Y-57987217D01*
X103404762Y-57989619D01*
X103642857Y-57989619D01*
X103667243Y-57987217D01*
X103671391Y-57985498D01*
X103675873Y-57985180D01*
X103698759Y-57976422D01*
X103793996Y-57928804D01*
X103804492Y-57922196D01*
X103807542Y-57920933D01*
X103810975Y-57918114D01*
X103814734Y-57915749D01*
X103816896Y-57913255D01*
X103826484Y-57905387D01*
X103874103Y-57857768D01*
X103889648Y-57838825D01*
X103908312Y-57793766D01*
X103908312Y-57744992D01*
X103889647Y-57699933D01*
X103855159Y-57665446D01*
X103810099Y-57646782D01*
X103761326Y-57646782D01*
X103716266Y-57665447D01*
X103697325Y-57680993D01*
X103664050Y-57714268D01*
X103613349Y-57739619D01*
X103434271Y-57739619D01*
X103383569Y-57714268D01*
X103364637Y-57695336D01*
X103339286Y-57644634D01*
X103339286Y-57465555D01*
X103364636Y-57414853D01*
X103383569Y-57395921D01*
X103434271Y-57370571D01*
X103613349Y-57370571D01*
X103664050Y-57395921D01*
X103697325Y-57429197D01*
X103716267Y-57444742D01*
X103722081Y-57447150D01*
X103726954Y-57451137D01*
X103744446Y-57456414D01*
X103761327Y-57463407D01*
X103767622Y-57463407D01*
X103773648Y-57465225D01*
X103791828Y-57463407D01*
X103810100Y-57463407D01*
X103815914Y-57460998D01*
X103822178Y-57460372D01*
X103838282Y-57451732D01*
X103855160Y-57444742D01*
X103859608Y-57440293D01*
X103865157Y-57437317D01*
X103876731Y-57423170D01*
X103889647Y-57410255D01*
X103892054Y-57404442D01*
X103896042Y-57399569D01*
X103901320Y-57382073D01*
X103908312Y-57365195D01*
X103908312Y-57358900D01*
X103910130Y-57352875D01*
X103910094Y-57328371D01*
X103882766Y-57055095D01*
X104041667Y-57055095D01*
X104041667Y-57150333D01*
X104042882Y-57162676D01*
X104042649Y-57165967D01*
X104043633Y-57170296D01*
X104044069Y-57174719D01*
X104045332Y-57177770D01*
X104048082Y-57189861D01*
X104095700Y-57332718D01*
X104105691Y-57355093D01*
X104108634Y-57358486D01*
X104110353Y-57362636D01*
X104125898Y-57381578D01*
X104483938Y-57739619D01*
X104166667Y-57739619D01*
X104142281Y-57742021D01*
X104097221Y-57760685D01*
X104062733Y-57795173D01*
X104044069Y-57840233D01*
X104044069Y-57889005D01*
X104062733Y-57934065D01*
X104097221Y-57968553D01*
X104142281Y-57987217D01*
X104166667Y-57989619D01*
X104785714Y-57989619D01*
X104810100Y-57987217D01*
X104810101Y-57987217D01*
X104823298Y-57981750D01*
X104855160Y-57968553D01*
X104889648Y-57934065D01*
X104903638Y-57900289D01*
X104908312Y-57889006D01*
X104908312Y-57840232D01*
X104900948Y-57822454D01*
X104889648Y-57795173D01*
X104889642Y-57795167D01*
X104874102Y-57776231D01*
X104343443Y-57245571D01*
X104994048Y-57245571D01*
X104994048Y-57483666D01*
X104994467Y-57487920D01*
X104994196Y-57489742D01*
X104995545Y-57498870D01*
X104996450Y-57508052D01*
X104997154Y-57509753D01*
X104997780Y-57513983D01*
X105045399Y-57704459D01*
X105046042Y-57706258D01*
X105046106Y-57707158D01*
X105049988Y-57717304D01*
X105053644Y-57727534D01*
X105054180Y-57728258D01*
X105054864Y-57730044D01*
X105102482Y-57825281D01*
X105109089Y-57835777D01*
X105110352Y-57838825D01*
X105113169Y-57842258D01*
X105115537Y-57846019D01*
X105118031Y-57848182D01*
X105125897Y-57857767D01*
X105173516Y-57905387D01*
X105183104Y-57913256D01*
X105185266Y-57915749D01*
X105189020Y-57918112D01*
X105192457Y-57920933D01*
X105195510Y-57922197D01*
X105206003Y-57928803D01*
X105301241Y-57976422D01*
X105324127Y-57985180D01*
X105328607Y-57985498D01*
X105332757Y-57987217D01*
X105357143Y-57989619D01*
X105452381Y-57989619D01*
X105476767Y-57987217D01*
X105480915Y-57985498D01*
X105485397Y-57985180D01*
X105508283Y-57976422D01*
X105603520Y-57928804D01*
X105614016Y-57922196D01*
X105617066Y-57920933D01*
X105620499Y-57918114D01*
X105624258Y-57915749D01*
X105626420Y-57913255D01*
X105636008Y-57905387D01*
X105683627Y-57857768D01*
X105691494Y-57848180D01*
X105693987Y-57846019D01*
X105696353Y-57842259D01*
X105699172Y-57838825D01*
X105700434Y-57835776D01*
X105707041Y-57825282D01*
X105754660Y-57730044D01*
X105755343Y-57728258D01*
X105755880Y-57727534D01*
X105759535Y-57717304D01*
X105763418Y-57707158D01*
X105763481Y-57706258D01*
X105764125Y-57704459D01*
X105811744Y-57513983D01*
X105812369Y-57509753D01*
X105813074Y-57508052D01*
X105813978Y-57498872D01*
X105815328Y-57489743D01*
X105815056Y-57487920D01*
X105815476Y-57483666D01*
X105815476Y-57245571D01*
X105815056Y-57241316D01*
X105815328Y-57239494D01*
X105813978Y-57230364D01*
X105813074Y-57221185D01*
X105812369Y-57219483D01*
X105811744Y-57215254D01*
X105771704Y-57055095D01*
X105946429Y-57055095D01*
X105946429Y-57150333D01*
X105947644Y-57162676D01*
X105947411Y-57165967D01*
X105948395Y-57170296D01*
X105948831Y-57174719D01*
X105950094Y-57177770D01*
X105952844Y-57189861D01*
X106000462Y-57332718D01*
X106010453Y-57355093D01*
X106013396Y-57358486D01*
X106015115Y-57362636D01*
X106030660Y-57381578D01*
X106388700Y-57739619D01*
X106071429Y-57739619D01*
X106047043Y-57742021D01*
X106001983Y-57760685D01*
X105967495Y-57795173D01*
X105948831Y-57840233D01*
X105948831Y-57889005D01*
X105967495Y-57934065D01*
X106001983Y-57968553D01*
X106047043Y-57987217D01*
X106071429Y-57989619D01*
X106690476Y-57989619D01*
X106714862Y-57987217D01*
X106714863Y-57987217D01*
X106728060Y-57981750D01*
X106759922Y-57968553D01*
X106794410Y-57934065D01*
X106808400Y-57900289D01*
X106813074Y-57889006D01*
X106813074Y-57840232D01*
X106805710Y-57822454D01*
X106794410Y-57795173D01*
X106794404Y-57795167D01*
X106778864Y-57776231D01*
X106390931Y-57388297D01*
X106898810Y-57388297D01*
X106898835Y-57388428D01*
X106898810Y-57388559D01*
X106901237Y-57412943D01*
X106948856Y-57651037D01*
X106953302Y-57665639D01*
X106953756Y-57668688D01*
X106955086Y-57671497D01*
X106955994Y-57674479D01*
X106957713Y-57677046D01*
X106964242Y-57690835D01*
X107107099Y-57928931D01*
X107121705Y-57948606D01*
X107126642Y-57952264D01*
X107130299Y-57957199D01*
X107149974Y-57971806D01*
X107388069Y-58114663D01*
X107401857Y-58121191D01*
X107404425Y-58122911D01*
X107407406Y-58123818D01*
X107410216Y-58125149D01*
X107413264Y-58125602D01*
X107427867Y-58130049D01*
X107665962Y-58177668D01*
X107690346Y-58180095D01*
X107690477Y-58180069D01*
X107690608Y-58180095D01*
X107714992Y-58177668D01*
X107953086Y-58130049D01*
X107967688Y-58125602D01*
X107970737Y-58125149D01*
X107973546Y-58123818D01*
X107976528Y-58122911D01*
X107979095Y-58121191D01*
X107992884Y-58114663D01*
X108230979Y-57971806D01*
X108250654Y-57957199D01*
X108254310Y-57952264D01*
X108259248Y-57948606D01*
X108273854Y-57928931D01*
X108416711Y-57690835D01*
X108423241Y-57677043D01*
X108424959Y-57674479D01*
X108425865Y-57671501D01*
X108427198Y-57668688D01*
X108427652Y-57665633D01*
X108432097Y-57651038D01*
X108479716Y-57412943D01*
X108482143Y-57388559D01*
X108482117Y-57388428D01*
X108482143Y-57388297D01*
X108479716Y-57363913D01*
X108432097Y-57125818D01*
X108427650Y-57111216D01*
X108427197Y-57108168D01*
X108425867Y-57105359D01*
X108424959Y-57102377D01*
X108423239Y-57099808D01*
X108416711Y-57086021D01*
X108273854Y-56847926D01*
X108259247Y-56828251D01*
X108254313Y-56824595D01*
X108250655Y-56819658D01*
X108230980Y-56805052D01*
X107992884Y-56662194D01*
X107979096Y-56655664D01*
X107976528Y-56653945D01*
X107973547Y-56653037D01*
X107970738Y-56651707D01*
X107967687Y-56651252D01*
X107953086Y-56646807D01*
X107714992Y-56599188D01*
X107690608Y-56596761D01*
X107690477Y-56596786D01*
X107690346Y-56596761D01*
X107665962Y-56599188D01*
X107427867Y-56646807D01*
X107413265Y-56651253D01*
X107410216Y-56651707D01*
X107407406Y-56653037D01*
X107404425Y-56653945D01*
X107401857Y-56655664D01*
X107388069Y-56662193D01*
X107149974Y-56805052D01*
X107130299Y-56819658D01*
X107126641Y-56824593D01*
X107121706Y-56828251D01*
X107107099Y-56847926D01*
X106964242Y-57086021D01*
X106957713Y-57099809D01*
X106955994Y-57102377D01*
X106955086Y-57105358D01*
X106953756Y-57108168D01*
X106953302Y-57111216D01*
X106948856Y-57125819D01*
X106901237Y-57363913D01*
X106898810Y-57388297D01*
X106390931Y-57388297D01*
X106228301Y-57225667D01*
X106196429Y-57130049D01*
X106196429Y-57084603D01*
X106221779Y-57033901D01*
X106240712Y-57014969D01*
X106291414Y-56989619D01*
X106470492Y-56989619D01*
X106521193Y-57014969D01*
X106554468Y-57048245D01*
X106573410Y-57063790D01*
X106618470Y-57082455D01*
X106667243Y-57082455D01*
X106712303Y-57063790D01*
X106746790Y-57029303D01*
X106765455Y-56984243D01*
X106765455Y-56935470D01*
X106746790Y-56890410D01*
X106731245Y-56871468D01*
X106683626Y-56823850D01*
X106674040Y-56815983D01*
X106671877Y-56813489D01*
X106668115Y-56811120D01*
X106664684Y-56808305D01*
X106661637Y-56807043D01*
X106651139Y-56800434D01*
X106555902Y-56752816D01*
X106533016Y-56744058D01*
X106528534Y-56743739D01*
X106524386Y-56742021D01*
X106500000Y-56739619D01*
X106261905Y-56739619D01*
X106237519Y-56742021D01*
X106233369Y-56743739D01*
X106228889Y-56744058D01*
X106206003Y-56752816D01*
X106110765Y-56800435D01*
X106100270Y-56807041D01*
X106097220Y-56808305D01*
X106093785Y-56811123D01*
X106090028Y-56813489D01*
X106087866Y-56815980D01*
X106078278Y-56823850D01*
X106030660Y-56871469D01*
X106022793Y-56881054D01*
X106020299Y-56883218D01*
X106017930Y-56886979D01*
X106015115Y-56890411D01*
X106013853Y-56893457D01*
X106007244Y-56903956D01*
X105959626Y-56999193D01*
X105950868Y-57022079D01*
X105950549Y-57026560D01*
X105948831Y-57030709D01*
X105946429Y-57055095D01*
X105771704Y-57055095D01*
X105764125Y-57024778D01*
X105763481Y-57022978D01*
X105763418Y-57022079D01*
X105759535Y-57011932D01*
X105755880Y-57001703D01*
X105755343Y-57000978D01*
X105754660Y-56999193D01*
X105707041Y-56903955D01*
X105700434Y-56893460D01*
X105699171Y-56890410D01*
X105696352Y-56886975D01*
X105693987Y-56883218D01*
X105691495Y-56881056D01*
X105683626Y-56871468D01*
X105636007Y-56823850D01*
X105626421Y-56815983D01*
X105624258Y-56813489D01*
X105620496Y-56811120D01*
X105617065Y-56808305D01*
X105614018Y-56807043D01*
X105603520Y-56800434D01*
X105508283Y-56752816D01*
X105485397Y-56744058D01*
X105480915Y-56743739D01*
X105476767Y-56742021D01*
X105452381Y-56739619D01*
X105357143Y-56739619D01*
X105332757Y-56742021D01*
X105328607Y-56743739D01*
X105324127Y-56744058D01*
X105301241Y-56752816D01*
X105206003Y-56800435D01*
X105195508Y-56807041D01*
X105192458Y-56808305D01*
X105189023Y-56811123D01*
X105185266Y-56813489D01*
X105183104Y-56815980D01*
X105173516Y-56823850D01*
X105125898Y-56871469D01*
X105118031Y-56881054D01*
X105115537Y-56883218D01*
X105113168Y-56886979D01*
X105110353Y-56890411D01*
X105109091Y-56893457D01*
X105102482Y-56903956D01*
X105054864Y-56999193D01*
X105054180Y-57000978D01*
X105053644Y-57001703D01*
X105049988Y-57011932D01*
X105046106Y-57022079D01*
X105046042Y-57022978D01*
X105045399Y-57024778D01*
X104997780Y-57215254D01*
X104997154Y-57219483D01*
X104996450Y-57221185D01*
X104995545Y-57230366D01*
X104994196Y-57239495D01*
X104994467Y-57241316D01*
X104994048Y-57245571D01*
X104343443Y-57245571D01*
X104323539Y-57225667D01*
X104291667Y-57130049D01*
X104291667Y-57084603D01*
X104317017Y-57033901D01*
X104335950Y-57014969D01*
X104386652Y-56989619D01*
X104565730Y-56989619D01*
X104616431Y-57014969D01*
X104649706Y-57048245D01*
X104668648Y-57063790D01*
X104713708Y-57082455D01*
X104762481Y-57082455D01*
X104807541Y-57063790D01*
X104842028Y-57029303D01*
X104860693Y-56984243D01*
X104860693Y-56935470D01*
X104842028Y-56890410D01*
X104826483Y-56871468D01*
X104778864Y-56823850D01*
X104769278Y-56815983D01*
X104767115Y-56813489D01*
X104763353Y-56811120D01*
X104759922Y-56808305D01*
X104756875Y-56807043D01*
X104746377Y-56800434D01*
X104651140Y-56752816D01*
X104628254Y-56744058D01*
X104623772Y-56743739D01*
X104619624Y-56742021D01*
X104595238Y-56739619D01*
X104357143Y-56739619D01*
X104332757Y-56742021D01*
X104328607Y-56743739D01*
X104324127Y-56744058D01*
X104301241Y-56752816D01*
X104206003Y-56800435D01*
X104195508Y-56807041D01*
X104192458Y-56808305D01*
X104189023Y-56811123D01*
X104185266Y-56813489D01*
X104183104Y-56815980D01*
X104173516Y-56823850D01*
X104125898Y-56871469D01*
X104118031Y-56881054D01*
X104115537Y-56883218D01*
X104113168Y-56886979D01*
X104110353Y-56890411D01*
X104109091Y-56893457D01*
X104102482Y-56903956D01*
X104054864Y-56999193D01*
X104046106Y-57022079D01*
X104045787Y-57026560D01*
X104044069Y-57030709D01*
X104041667Y-57055095D01*
X103882766Y-57055095D01*
X103862475Y-56852181D01*
X103860693Y-56843292D01*
X103860693Y-56840233D01*
X103859504Y-56837362D01*
X103857658Y-56828155D01*
X103849021Y-56812055D01*
X103842029Y-56795173D01*
X103837578Y-56790722D01*
X103834603Y-56785176D01*
X103820461Y-56773605D01*
X103807541Y-56760685D01*
X103801726Y-56758276D01*
X103796855Y-56754291D01*
X103779362Y-56749013D01*
X103762481Y-56742021D01*
X103753135Y-56741100D01*
X103750161Y-56740203D01*
X103747115Y-56740507D01*
X103738095Y-56739619D01*
X103261905Y-56739619D01*
X103237519Y-56742021D01*
X103192459Y-56760685D01*
X103157971Y-56795173D01*
X103139307Y-56840233D01*
X103139307Y-56889005D01*
X103157971Y-56934065D01*
X103192459Y-56968553D01*
X103237519Y-56987217D01*
X103261905Y-56989619D01*
X103624971Y-56989619D01*
X103638066Y-57120571D01*
X103404762Y-57120571D01*
X103380376Y-57122973D01*
X103376226Y-57124691D01*
X103371746Y-57125010D01*
X103348860Y-57133768D01*
X103253622Y-57181387D01*
X103243127Y-57187993D01*
X103240077Y-57189257D01*
X103236642Y-57192075D01*
X103232885Y-57194441D01*
X103230723Y-57196932D01*
X103221135Y-57204802D01*
X103173517Y-57252421D01*
X103165650Y-57262006D01*
X103163156Y-57264170D01*
X103160787Y-57267931D01*
X103157972Y-57271363D01*
X103156710Y-57274409D01*
X103150101Y-57284908D01*
X103102483Y-57380145D01*
X103093725Y-57403031D01*
X103093406Y-57407512D01*
X103091688Y-57411661D01*
X103089286Y-57436047D01*
X102148809Y-57436047D01*
X102148809Y-56864619D01*
X102147230Y-56848591D01*
X102147360Y-56845640D01*
X102146783Y-56844054D01*
X102146407Y-56840233D01*
X102138107Y-56820196D01*
X102130692Y-56799803D01*
X102128809Y-56797747D01*
X102127743Y-56795173D01*
X102112405Y-56779835D01*
X102097752Y-56763835D01*
X102095226Y-56762656D01*
X102093255Y-56760685D01*
X102073216Y-56752384D01*
X102053556Y-56743210D01*
X102050769Y-56743087D01*
X102048195Y-56742021D01*
X102026509Y-56742021D01*
X102004831Y-56741068D01*
X102002210Y-56742021D01*
X101999423Y-56742021D01*
X101979379Y-56750323D01*
X101958994Y-56757736D01*
X101956938Y-56759618D01*
X101954363Y-56760685D01*
X101939020Y-56776027D01*
X101923025Y-56790676D01*
X101921067Y-56793980D01*
X101919875Y-56795173D01*
X101918745Y-56797900D01*
X101910536Y-56811758D01*
X101690475Y-57283315D01*
X101470416Y-56811758D01*
X101462206Y-56797900D01*
X101461077Y-56795173D01*
X101459884Y-56793980D01*
X101457927Y-56790676D01*
X101441926Y-56776022D01*
X101426589Y-56760685D01*
X101424014Y-56759618D01*
X101421959Y-56757736D01*
X101401565Y-56750320D01*
X101381529Y-56742021D01*
X101378743Y-56742021D01*
X101376122Y-56741068D01*
X101354443Y-56742021D01*
X101332757Y-56742021D01*
X101330182Y-56743087D01*
X101327396Y-56743210D01*
X101307735Y-56752384D01*
X101287697Y-56760685D01*
X101285725Y-56762656D01*
X101283200Y-56763835D01*
X101268546Y-56779835D01*
X101253209Y-56795173D01*
X101252142Y-56797747D01*
X101250260Y-56799803D01*
X101242844Y-56820196D01*
X101234545Y-56840233D01*
X101234168Y-56844054D01*
X101233592Y-56845640D01*
X101233721Y-56848591D01*
X101232143Y-56864619D01*
X97819633Y-56864619D01*
X97778863Y-56823850D01*
X97769277Y-56815983D01*
X97767114Y-56813489D01*
X97763352Y-56811120D01*
X97759921Y-56808305D01*
X97756874Y-56807043D01*
X97746376Y-56800434D01*
X97651139Y-56752816D01*
X97628253Y-56744058D01*
X97623771Y-56743739D01*
X97619623Y-56742021D01*
X97595237Y-56739619D01*
X97357142Y-56739619D01*
X97344798Y-56740834D01*
X97341507Y-56740601D01*
X97337177Y-56741585D01*
X97332756Y-56742021D01*
X97329706Y-56743284D01*
X97317613Y-56746034D01*
X97174757Y-56793653D01*
X97152382Y-56803643D01*
X97115536Y-56835598D01*
X97093724Y-56879223D01*
X97090267Y-56927872D01*
X97105690Y-56974141D01*
X97137645Y-57010987D01*
X97181270Y-57032799D01*
X97229919Y-57036256D01*
X97253813Y-57030823D01*
X97377428Y-56989619D01*
X97565729Y-56989619D01*
X97616430Y-57014969D01*
X97635362Y-57033902D01*
X97660713Y-57084603D01*
X97660713Y-57120824D01*
X97635362Y-57171525D01*
X97616430Y-57190458D01*
X97551610Y-57222868D01*
X97374444Y-57267160D01*
X97372644Y-57267803D01*
X97371745Y-57267867D01*
X97361598Y-57271749D01*
X97351369Y-57275405D01*
X97350644Y-57275941D01*
X97348859Y-57276625D01*
X97253621Y-57324244D01*
X97243126Y-57330850D01*
X97240076Y-57332114D01*
X97236641Y-57334932D01*
X97232884Y-57337298D01*
X97230722Y-57339789D01*
X97221134Y-57347659D01*
X97173516Y-57395278D01*
X97165649Y-57404863D01*
X97163155Y-57407027D01*
X97160786Y-57410788D01*
X97157971Y-57414220D01*
X97156709Y-57417266D01*
X97150100Y-57427765D01*
X97102482Y-57523002D01*
X97093724Y-57545888D01*
X97093405Y-57550369D01*
X97091687Y-57554518D01*
X97089285Y-57578904D01*
X96958332Y-57578904D01*
X96958332Y-57388428D01*
X96955930Y-57364042D01*
X96954211Y-57359892D01*
X96953893Y-57355412D01*
X96945135Y-57332526D01*
X96897516Y-57237288D01*
X96890909Y-57226793D01*
X96889646Y-57223743D01*
X96886827Y-57220308D01*
X96884462Y-57216551D01*
X96881970Y-57214389D01*
X96874101Y-57204801D01*
X96826482Y-57157183D01*
X96816896Y-57149316D01*
X96814733Y-57146822D01*
X96810971Y-57144453D01*
X96807540Y-57141638D01*
X96804493Y-57140376D01*
X96793995Y-57133767D01*
X96698758Y-57086149D01*
X96675872Y-57077391D01*
X96671390Y-57077072D01*
X96667242Y-57075354D01*
X96642856Y-57072952D01*
X96452380Y-57072952D01*
X96427994Y-57075354D01*
X96423844Y-57077072D01*
X96419364Y-57077391D01*
X96396478Y-57086149D01*
X96301240Y-57133768D01*
X96280503Y-57146822D01*
X96248547Y-57183667D01*
X96233123Y-57229937D01*
X96053570Y-57229937D01*
X96053570Y-56864619D01*
X96051168Y-56840233D01*
X96032504Y-56795173D01*
X95998016Y-56760685D01*
X95952956Y-56742021D01*
X95904184Y-56742021D01*
X95859124Y-56760685D01*
X95824636Y-56795173D01*
X95805972Y-56840233D01*
X95803570Y-56864619D01*
X95803570Y-57074710D01*
X95785713Y-57072952D01*
X95642856Y-57072952D01*
X95618470Y-57075354D01*
X95614320Y-57077072D01*
X95609840Y-57077391D01*
X95586954Y-57086149D01*
X95491716Y-57133768D01*
X95487639Y-57136334D01*
X95485714Y-57136976D01*
X95483315Y-57139055D01*
X95470979Y-57146822D01*
X95460709Y-57158662D01*
X95448869Y-57168932D01*
X95441102Y-57181269D01*
X95439023Y-57183667D01*
X95438381Y-57185591D01*
X95435814Y-57189670D01*
X95388196Y-57284907D01*
X95379438Y-57307793D01*
X95379119Y-57312274D01*
X95377401Y-57316423D01*
X95374999Y-57340809D01*
X95186400Y-57340809D01*
X95183230Y-57332526D01*
X95135611Y-57237288D01*
X95129004Y-57226793D01*
X95127741Y-57223743D01*
X95124922Y-57220308D01*
X95122557Y-57216551D01*
X95120065Y-57214389D01*
X95112196Y-57204801D01*
X95064577Y-57157183D01*
X95054991Y-57149316D01*
X95052828Y-57146822D01*
X95049066Y-57144453D01*
X95045635Y-57141638D01*
X95042588Y-57140376D01*
X95032090Y-57133767D01*
X94936853Y-57086149D01*
X94913967Y-57077391D01*
X94909485Y-57077072D01*
X94905337Y-57075354D01*
X94880951Y-57072952D01*
X94738094Y-57072952D01*
X94713708Y-57075354D01*
X94709558Y-57077072D01*
X94705078Y-57077391D01*
X94682192Y-57086149D01*
X94586954Y-57133768D01*
X94576459Y-57140374D01*
X94573409Y-57141638D01*
X94569974Y-57144456D01*
X94566217Y-57146822D01*
X94564055Y-57149313D01*
X94554467Y-57157183D01*
X94506849Y-57204802D01*
X94498982Y-57214387D01*
X94496488Y-57216551D01*
X94494119Y-57220312D01*
X94491304Y-57223744D01*
X94490042Y-57226790D01*
X94483433Y-57237289D01*
X94435815Y-57332526D01*
X94427057Y-57355412D01*
X94426738Y-57359893D01*
X94425020Y-57364042D01*
X94422618Y-57388428D01*
X94244046Y-57388428D01*
X94244046Y-57197952D01*
X94241644Y-57173566D01*
X94222980Y-57128506D01*
X94188492Y-57094018D01*
X94143432Y-57075354D01*
X94094660Y-57075354D01*
X94049600Y-57094018D01*
X94049009Y-57094608D01*
X94032091Y-57086149D01*
X94009205Y-57077391D01*
X94004723Y-57077072D01*
X94000575Y-57075354D01*
X93976189Y-57072952D01*
X93833332Y-57072952D01*
X93808946Y-57075354D01*
X93804796Y-57077072D01*
X93800316Y-57077391D01*
X93777430Y-57086149D01*
X93682192Y-57133768D01*
X93678115Y-57136334D01*
X93676190Y-57136976D01*
X93673791Y-57139055D01*
X93661455Y-57146822D01*
X93651185Y-57158662D01*
X93639345Y-57168932D01*
X93631578Y-57181269D01*
X93629499Y-57183667D01*
X93628857Y-57185591D01*
X93626290Y-57189670D01*
X93578672Y-57284907D01*
X93569914Y-57307793D01*
X93569595Y-57312274D01*
X93567877Y-57316423D01*
X93565475Y-57340809D01*
X93376876Y-57340809D01*
X93373706Y-57332526D01*
X93326087Y-57237288D01*
X93319480Y-57226793D01*
X93318217Y-57223743D01*
X93315398Y-57220308D01*
X93313033Y-57216551D01*
X93310541Y-57214389D01*
X93302672Y-57204801D01*
X93255053Y-57157183D01*
X93245467Y-57149316D01*
X93243304Y-57146822D01*
X93239542Y-57144453D01*
X93236111Y-57141638D01*
X93233064Y-57140376D01*
X93222566Y-57133767D01*
X93127329Y-57086149D01*
X93104443Y-57077391D01*
X93099961Y-57077072D01*
X93095813Y-57075354D01*
X93071427Y-57072952D01*
X92910713Y-57072952D01*
X92910713Y-56887851D01*
X94425020Y-56887851D01*
X94425020Y-56936625D01*
X94443685Y-56981684D01*
X94459230Y-57000626D01*
X94506848Y-57048245D01*
X94525790Y-57063790D01*
X94525791Y-57063791D01*
X94547908Y-57072952D01*
X94570850Y-57082455D01*
X94570851Y-57082455D01*
X94619623Y-57082455D01*
X94619624Y-57082455D01*
X94632821Y-57076988D01*
X94664683Y-57063791D01*
X94664688Y-57063785D01*
X94683625Y-57048245D01*
X94731244Y-57000627D01*
X94746789Y-56981685D01*
X94765454Y-56936625D01*
X94765454Y-56887852D01*
X94765454Y-56887851D01*
X94805972Y-56887851D01*
X94805972Y-56936625D01*
X94824637Y-56981684D01*
X94840182Y-57000626D01*
X94887800Y-57048245D01*
X94906742Y-57063790D01*
X94906743Y-57063791D01*
X94928860Y-57072952D01*
X94951802Y-57082455D01*
X94951803Y-57082455D01*
X95000575Y-57082455D01*
X95000576Y-57082455D01*
X95013773Y-57076988D01*
X95045635Y-57063791D01*
X95045640Y-57063785D01*
X95064577Y-57048245D01*
X95112196Y-57000627D01*
X95127741Y-56981685D01*
X95146406Y-56936625D01*
X95146406Y-56887852D01*
X95145190Y-56884915D01*
X95127741Y-56842791D01*
X95112196Y-56823849D01*
X95064577Y-56776231D01*
X95045640Y-56760690D01*
X95045635Y-56760685D01*
X95013773Y-56747487D01*
X95000576Y-56742021D01*
X95000575Y-56742021D01*
X94951802Y-56742021D01*
X94933138Y-56749752D01*
X94906743Y-56760685D01*
X94906742Y-56760686D01*
X94887800Y-56776231D01*
X94840182Y-56823850D01*
X94824638Y-56842791D01*
X94824637Y-56842792D01*
X94805972Y-56887851D01*
X94765454Y-56887851D01*
X94764238Y-56884915D01*
X94746789Y-56842791D01*
X94731244Y-56823849D01*
X94683625Y-56776231D01*
X94664688Y-56760690D01*
X94664683Y-56760685D01*
X94632821Y-56747487D01*
X94619624Y-56742021D01*
X94619623Y-56742021D01*
X94570850Y-56742021D01*
X94552186Y-56749752D01*
X94525791Y-56760685D01*
X94525790Y-56760686D01*
X94506848Y-56776231D01*
X94459230Y-56823850D01*
X94443686Y-56842791D01*
X94443685Y-56842792D01*
X94425020Y-56887851D01*
X92910713Y-56887851D01*
X92910713Y-56864619D01*
X92908311Y-56840233D01*
X92889647Y-56795173D01*
X92855159Y-56760685D01*
X92810099Y-56742021D01*
X92761327Y-56742021D01*
X92716267Y-56760685D01*
X92681779Y-56795173D01*
X92663115Y-56840233D01*
X92660713Y-56864619D01*
X90854037Y-56864619D01*
X90849896Y-56856336D01*
X90847329Y-56852259D01*
X90846688Y-56850334D01*
X90844608Y-56847935D01*
X90836842Y-56835599D01*
X90825001Y-56825329D01*
X90814732Y-56813489D01*
X90802394Y-56805722D01*
X90799997Y-56803643D01*
X90798072Y-56803001D01*
X90793994Y-56800434D01*
X90698757Y-56752816D01*
X90675871Y-56744058D01*
X90671389Y-56743739D01*
X90667241Y-56742021D01*
X90642855Y-56739619D01*
X90547617Y-56739619D01*
X90523231Y-56742021D01*
X90478171Y-56760685D01*
X90443683Y-56795173D01*
X90425019Y-56840233D01*
X90300019Y-56840233D01*
X90300019Y-55635627D01*
X97946428Y-55635627D01*
X97946428Y-55873722D01*
X97946847Y-55877976D01*
X97946576Y-55879798D01*
X97947925Y-55888926D01*
X97948830Y-55898108D01*
X97949534Y-55899809D01*
X97950160Y-55904039D01*
X97997779Y-56094515D01*
X97998422Y-56096314D01*
X97998486Y-56097214D01*
X98002368Y-56107360D01*
X98006024Y-56117590D01*
X98006560Y-56118314D01*
X98007244Y-56120100D01*
X98054862Y-56215337D01*
X98061469Y-56225833D01*
X98062732Y-56228881D01*
X98065549Y-56232314D01*
X98067917Y-56236075D01*
X98070411Y-56238238D01*
X98078277Y-56247823D01*
X98125896Y-56295443D01*
X98135484Y-56303312D01*
X98137646Y-56305805D01*
X98141400Y-56308168D01*
X98144837Y-56310989D01*
X98147890Y-56312253D01*
X98158383Y-56318859D01*
X98253621Y-56366478D01*
X98276507Y-56375236D01*
X98280987Y-56375554D01*
X98285137Y-56377273D01*
X98309523Y-56379675D01*
X98404761Y-56379675D01*
X98429147Y-56377273D01*
X98433295Y-56375554D01*
X98437777Y-56375236D01*
X98460663Y-56366478D01*
X98555900Y-56318860D01*
X98566396Y-56312252D01*
X98569446Y-56310989D01*
X98572879Y-56308170D01*
X98576638Y-56305805D01*
X98578800Y-56303311D01*
X98588388Y-56295443D01*
X98636007Y-56247824D01*
X98643874Y-56238236D01*
X98646367Y-56236075D01*
X98648733Y-56232315D01*
X98651552Y-56228881D01*
X98652814Y-56225832D01*
X98659421Y-56215338D01*
X98675756Y-56182669D01*
X98901210Y-56182669D01*
X98901210Y-56182670D01*
X98901210Y-56182671D01*
X98901210Y-56231444D01*
X98919875Y-56276503D01*
X98919879Y-56276507D01*
X98935420Y-56295444D01*
X98983038Y-56343063D01*
X99001980Y-56358608D01*
X99001981Y-56358609D01*
X99020979Y-56366478D01*
X99047040Y-56377273D01*
X99047041Y-56377273D01*
X99095813Y-56377273D01*
X99095814Y-56377273D01*
X99109011Y-56371806D01*
X99140873Y-56358609D01*
X99140878Y-56358603D01*
X99159815Y-56343063D01*
X99207434Y-56295445D01*
X99222979Y-56276503D01*
X99238497Y-56239040D01*
X99241644Y-56231444D01*
X99241644Y-56230289D01*
X99377401Y-56230289D01*
X99377401Y-56279061D01*
X99396065Y-56324121D01*
X99430553Y-56358609D01*
X99475613Y-56377273D01*
X99499999Y-56379675D01*
X100071427Y-56379675D01*
X100095813Y-56377273D01*
X100140873Y-56358609D01*
X100175361Y-56324121D01*
X100194025Y-56279061D01*
X100194025Y-56230289D01*
X100175361Y-56185229D01*
X100140873Y-56150741D01*
X100095813Y-56132077D01*
X100071427Y-56129675D01*
X99910713Y-56129675D01*
X99910713Y-55598546D01*
X99920287Y-55604573D01*
X100015525Y-55652192D01*
X100038411Y-55660950D01*
X100087060Y-55664407D01*
X100133331Y-55648984D01*
X100170176Y-55617028D01*
X100191987Y-55573405D01*
X100195445Y-55524755D01*
X100180022Y-55478485D01*
X100148066Y-55441640D01*
X100127328Y-55428585D01*
X100050232Y-55390037D01*
X99978091Y-55317896D01*
X99946367Y-55270309D01*
X100233124Y-55270309D01*
X100238557Y-55294203D01*
X100571889Y-56294203D01*
X100581880Y-56316578D01*
X100587730Y-56323324D01*
X100591726Y-56331315D01*
X100603566Y-56341583D01*
X100613835Y-56353424D01*
X100621826Y-56357419D01*
X100628572Y-56363270D01*
X100643437Y-56368225D01*
X100657459Y-56375236D01*
X100666369Y-56375869D01*
X100674841Y-56378693D01*
X100690474Y-56377582D01*
X100706109Y-56378693D01*
X100714580Y-56375869D01*
X100723490Y-56375236D01*
X100737510Y-56368225D01*
X100752378Y-56363270D01*
X100759123Y-56357419D01*
X100767115Y-56353424D01*
X100777386Y-56341580D01*
X100789224Y-56331314D01*
X100793218Y-56323325D01*
X100799070Y-56316578D01*
X100809060Y-56294203D01*
X101142393Y-55294204D01*
X101147826Y-55270310D01*
X101144369Y-55221660D01*
X101122557Y-55178036D01*
X101085711Y-55146080D01*
X101039442Y-55130657D01*
X100990792Y-55134114D01*
X100947168Y-55155926D01*
X100915213Y-55192772D01*
X100905222Y-55215147D01*
X100690474Y-55859390D01*
X100475727Y-55215147D01*
X100465737Y-55192772D01*
X100433782Y-55155926D01*
X100390157Y-55134114D01*
X100341508Y-55130657D01*
X100295239Y-55146080D01*
X100258393Y-55178035D01*
X100236581Y-55221660D01*
X100233124Y-55270309D01*
X99946367Y-55270309D01*
X99889719Y-55185337D01*
X99889663Y-55185269D01*
X99889647Y-55185229D01*
X99889556Y-55185138D01*
X99874194Y-55166379D01*
X99863909Y-55159491D01*
X99855159Y-55150741D01*
X99843846Y-55146055D01*
X99833670Y-55139240D01*
X99821531Y-55136812D01*
X99810099Y-55132077D01*
X99797854Y-55132077D01*
X99785843Y-55129675D01*
X99773701Y-55132077D01*
X99761327Y-55132077D01*
X99750013Y-55136762D01*
X99737998Y-55139140D01*
X99727699Y-55146005D01*
X99716267Y-55150741D01*
X99707608Y-55159400D01*
X99697417Y-55166194D01*
X99690529Y-55176478D01*
X99681779Y-55185229D01*
X99677093Y-55196541D01*
X99670278Y-55206718D01*
X99667850Y-55218856D01*
X99663115Y-55230289D01*
X99660738Y-55254418D01*
X99660713Y-55254545D01*
X99660721Y-55254588D01*
X99660713Y-55254675D01*
X99660713Y-56129675D01*
X99499999Y-56129675D01*
X99475613Y-56132077D01*
X99430553Y-56150741D01*
X99396065Y-56185229D01*
X99377401Y-56230289D01*
X99241644Y-56230289D01*
X99241644Y-56182670D01*
X99222980Y-56137611D01*
X99207435Y-56118668D01*
X99159816Y-56071049D01*
X99140874Y-56055503D01*
X99140873Y-56055502D01*
X99122209Y-56047771D01*
X99095815Y-56036838D01*
X99095813Y-56036838D01*
X99095812Y-56036838D01*
X99047039Y-56036838D01*
X99001979Y-56055503D01*
X98983038Y-56071049D01*
X98935419Y-56118669D01*
X98919874Y-56137611D01*
X98917695Y-56142872D01*
X98901210Y-56182669D01*
X98675756Y-56182669D01*
X98707040Y-56120100D01*
X98707723Y-56118314D01*
X98708260Y-56117590D01*
X98711915Y-56107360D01*
X98715798Y-56097214D01*
X98715861Y-56096314D01*
X98716505Y-56094515D01*
X98764124Y-55904039D01*
X98764749Y-55899809D01*
X98765454Y-55898108D01*
X98766358Y-55888928D01*
X98767708Y-55879799D01*
X98767436Y-55877976D01*
X98767856Y-55873722D01*
X98767856Y-55635627D01*
X98767436Y-55631372D01*
X98767708Y-55629550D01*
X98766358Y-55620420D01*
X98765454Y-55611241D01*
X98764749Y-55609539D01*
X98764124Y-55605310D01*
X98716505Y-55414834D01*
X98715861Y-55413034D01*
X98715798Y-55412135D01*
X98711915Y-55401988D01*
X98708260Y-55391759D01*
X98707723Y-55391034D01*
X98707040Y-55389249D01*
X98659421Y-55294011D01*
X98652814Y-55283516D01*
X98651551Y-55280466D01*
X98648732Y-55277031D01*
X98646367Y-55273274D01*
X98643875Y-55271112D01*
X98636006Y-55261524D01*
X98588387Y-55213906D01*
X98578801Y-55206039D01*
X98576638Y-55203545D01*
X98572876Y-55201176D01*
X98569445Y-55198361D01*
X98566398Y-55197099D01*
X98555900Y-55190490D01*
X98460663Y-55142872D01*
X98437777Y-55134114D01*
X98433295Y-55133795D01*
X98429147Y-55132077D01*
X98404761Y-55129675D01*
X98309523Y-55129675D01*
X98285137Y-55132077D01*
X98280987Y-55133795D01*
X98276507Y-55134114D01*
X98253621Y-55142872D01*
X98158383Y-55190491D01*
X98147888Y-55197097D01*
X98144838Y-55198361D01*
X98141403Y-55201179D01*
X98137646Y-55203545D01*
X98135484Y-55206036D01*
X98125896Y-55213906D01*
X98078278Y-55261525D01*
X98070411Y-55271110D01*
X98067917Y-55273274D01*
X98065548Y-55277035D01*
X98062733Y-55280467D01*
X98061471Y-55283513D01*
X98054862Y-55294012D01*
X98007244Y-55389249D01*
X98006560Y-55391034D01*
X98006024Y-55391759D01*
X98002368Y-55401988D01*
X97998486Y-55412135D01*
X97998422Y-55413034D01*
X97997779Y-55414834D01*
X97950160Y-55605310D01*
X97949534Y-55609539D01*
X97948830Y-55611241D01*
X97947925Y-55620422D01*
X97946576Y-55629551D01*
X97946847Y-55631372D01*
X97946428Y-55635627D01*
X90300019Y-55635627D01*
X90300019Y-53953678D01*
X91758352Y-53953678D01*
X91758352Y-54002450D01*
X91777016Y-54047510D01*
X91811504Y-54081998D01*
X91856564Y-54100662D01*
X91880950Y-54103064D01*
X91946680Y-54103064D01*
X91997381Y-54128414D01*
X92016313Y-54147347D01*
X92041664Y-54198048D01*
X92041664Y-54644731D01*
X92044066Y-54669117D01*
X92062730Y-54714177D01*
X92097218Y-54748665D01*
X92142278Y-54767329D01*
X92191050Y-54767329D01*
X92236110Y-54748665D01*
X92270598Y-54714177D01*
X92289262Y-54669117D01*
X92291664Y-54644731D01*
X92291664Y-54120921D01*
X92470236Y-54120921D01*
X92470236Y-54216159D01*
X92472638Y-54240545D01*
X92477324Y-54251859D01*
X92479701Y-54263873D01*
X92486565Y-54274170D01*
X92491302Y-54285605D01*
X92499961Y-54294264D01*
X92506755Y-54304455D01*
X92517039Y-54311342D01*
X92525790Y-54320093D01*
X92537104Y-54324779D01*
X92547280Y-54331594D01*
X92570721Y-54338732D01*
X92946426Y-54413873D01*
X92946426Y-54472364D01*
X92930636Y-54503943D01*
X92899061Y-54519731D01*
X92767602Y-54519731D01*
X92698757Y-54485309D01*
X92675871Y-54476551D01*
X92627221Y-54473093D01*
X92580951Y-54488517D01*
X92544106Y-54520473D01*
X92522294Y-54564096D01*
X92518836Y-54612746D01*
X92534260Y-54659016D01*
X92566216Y-54695861D01*
X92586953Y-54708915D01*
X92682191Y-54756534D01*
X92705077Y-54765292D01*
X92709557Y-54765610D01*
X92713707Y-54767329D01*
X92738093Y-54769731D01*
X92928569Y-54769731D01*
X92952955Y-54767329D01*
X92957103Y-54765610D01*
X92961585Y-54765292D01*
X92984471Y-54756534D01*
X93079708Y-54708916D01*
X93083785Y-54706349D01*
X93085712Y-54705707D01*
X93088111Y-54703625D01*
X93100446Y-54695861D01*
X93110712Y-54684023D01*
X93122557Y-54673751D01*
X93130324Y-54661411D01*
X93132402Y-54659016D01*
X93133043Y-54657092D01*
X93135611Y-54653013D01*
X93147569Y-54629097D01*
X93280741Y-54629097D01*
X93284199Y-54677747D01*
X93306011Y-54721370D01*
X93342856Y-54753326D01*
X93389126Y-54768750D01*
X93437776Y-54765292D01*
X93460662Y-54756534D01*
X93555899Y-54708916D01*
X93559976Y-54706349D01*
X93561903Y-54705707D01*
X93564302Y-54703625D01*
X93576637Y-54695861D01*
X93586903Y-54684023D01*
X93598748Y-54673751D01*
X93606515Y-54661411D01*
X93608593Y-54659016D01*
X93609234Y-54657092D01*
X93611802Y-54653013D01*
X93623760Y-54629097D01*
X93804551Y-54629097D01*
X93808009Y-54677747D01*
X93829821Y-54721370D01*
X93866666Y-54753326D01*
X93912936Y-54768750D01*
X93961586Y-54765292D01*
X93984472Y-54756534D01*
X94079709Y-54708916D01*
X94083786Y-54706349D01*
X94085713Y-54705707D01*
X94088112Y-54703625D01*
X94100447Y-54695861D01*
X94110713Y-54684023D01*
X94122558Y-54673751D01*
X94130325Y-54661411D01*
X94132403Y-54659016D01*
X94133044Y-54657092D01*
X94135612Y-54653013D01*
X94183231Y-54557774D01*
X94191988Y-54534889D01*
X94192306Y-54530408D01*
X94194025Y-54526259D01*
X94196427Y-54501873D01*
X94196427Y-54168540D01*
X94374999Y-54168540D01*
X94374999Y-54454254D01*
X94377401Y-54478640D01*
X94379119Y-54482788D01*
X94379438Y-54487270D01*
X94388196Y-54510156D01*
X94435814Y-54605393D01*
X94442421Y-54615889D01*
X94443684Y-54618937D01*
X94446501Y-54622370D01*
X94448869Y-54626131D01*
X94451363Y-54628294D01*
X94459229Y-54637879D01*
X94506848Y-54685499D01*
X94516436Y-54693368D01*
X94518598Y-54695861D01*
X94522352Y-54698224D01*
X94525789Y-54701045D01*
X94528842Y-54702309D01*
X94539335Y-54708915D01*
X94634573Y-54756534D01*
X94657459Y-54765292D01*
X94661939Y-54765610D01*
X94666089Y-54767329D01*
X94690475Y-54769731D01*
X94833332Y-54769731D01*
X94857718Y-54767329D01*
X94861866Y-54765610D01*
X94866348Y-54765292D01*
X94889234Y-54756534D01*
X94984471Y-54708916D01*
X94994967Y-54702308D01*
X94998017Y-54701045D01*
X95001450Y-54698226D01*
X95005209Y-54695861D01*
X95007371Y-54693367D01*
X95016959Y-54685499D01*
X95064578Y-54637880D01*
X95072445Y-54628292D01*
X95074938Y-54626131D01*
X95077304Y-54622371D01*
X95080123Y-54618937D01*
X95081385Y-54615888D01*
X95087992Y-54605394D01*
X95135611Y-54510156D01*
X95144369Y-54487270D01*
X95144687Y-54482789D01*
X95146406Y-54478640D01*
X95148808Y-54454254D01*
X95148808Y-54168540D01*
X95146406Y-54144154D01*
X95144687Y-54140004D01*
X95144369Y-54135524D01*
X95135611Y-54112638D01*
X95087992Y-54017400D01*
X95081385Y-54006905D01*
X95080122Y-54003855D01*
X95077303Y-54000420D01*
X95074938Y-53996663D01*
X95072446Y-53994501D01*
X95064577Y-53984913D01*
X95033341Y-53953678D01*
X95186925Y-53953678D01*
X95186925Y-54002450D01*
X95205589Y-54047510D01*
X95240077Y-54081998D01*
X95285137Y-54100662D01*
X95309523Y-54103064D01*
X95375253Y-54103064D01*
X95425954Y-54128414D01*
X95444886Y-54147347D01*
X95470237Y-54198048D01*
X95470237Y-54644731D01*
X95472639Y-54669117D01*
X95491303Y-54714177D01*
X95525791Y-54748665D01*
X95570851Y-54767329D01*
X95619623Y-54767329D01*
X95664683Y-54748665D01*
X95699171Y-54714177D01*
X95717835Y-54669117D01*
X95720237Y-54644731D01*
X95720237Y-53978064D01*
X95717835Y-53953678D01*
X95805973Y-53953678D01*
X95805973Y-54002450D01*
X95824637Y-54047510D01*
X95859125Y-54081998D01*
X95904185Y-54100662D01*
X95928571Y-54103064D01*
X96041666Y-54103064D01*
X96041666Y-54472364D01*
X96025876Y-54503943D01*
X95994301Y-54519731D01*
X95928571Y-54519731D01*
X95904185Y-54522133D01*
X95859125Y-54540797D01*
X95824637Y-54575285D01*
X95805973Y-54620345D01*
X95805973Y-54669117D01*
X95824637Y-54714177D01*
X95859125Y-54748665D01*
X95904185Y-54767329D01*
X95928571Y-54769731D01*
X96023809Y-54769731D01*
X96048195Y-54767329D01*
X96052343Y-54765610D01*
X96056825Y-54765292D01*
X96079711Y-54756534D01*
X96174948Y-54708916D01*
X96179025Y-54706349D01*
X96180952Y-54705707D01*
X96183351Y-54703625D01*
X96195686Y-54695861D01*
X96205952Y-54684023D01*
X96217797Y-54673751D01*
X96225564Y-54661411D01*
X96227642Y-54659016D01*
X96228283Y-54657092D01*
X96230851Y-54653013D01*
X96278470Y-54557774D01*
X96287227Y-54534889D01*
X96287545Y-54530408D01*
X96289264Y-54526259D01*
X96291666Y-54501873D01*
X96291666Y-54120921D01*
X96517857Y-54120921D01*
X96517857Y-54644731D01*
X96520259Y-54669117D01*
X96538923Y-54714177D01*
X96573411Y-54748665D01*
X96618471Y-54767329D01*
X96667243Y-54767329D01*
X96712303Y-54748665D01*
X96746791Y-54714177D01*
X96765455Y-54669117D01*
X96767857Y-54644731D01*
X96767857Y-54150429D01*
X96783645Y-54118852D01*
X96815223Y-54103064D01*
X96899063Y-54103064D01*
X96946428Y-54126746D01*
X96946428Y-54644731D01*
X96948830Y-54669117D01*
X96967494Y-54714177D01*
X97001982Y-54748665D01*
X97047042Y-54767329D01*
X97095814Y-54767329D01*
X97140874Y-54748665D01*
X97175362Y-54714177D01*
X97194026Y-54669117D01*
X97196428Y-54644731D01*
X97196428Y-54168540D01*
X97375000Y-54168540D01*
X97375000Y-54454254D01*
X97377402Y-54478640D01*
X97379120Y-54482788D01*
X97379439Y-54487270D01*
X97388197Y-54510156D01*
X97435815Y-54605393D01*
X97442422Y-54615889D01*
X97443685Y-54618937D01*
X97446502Y-54622370D01*
X97448870Y-54626131D01*
X97451364Y-54628294D01*
X97459230Y-54637879D01*
X97506849Y-54685499D01*
X97516437Y-54693368D01*
X97518599Y-54695861D01*
X97522353Y-54698224D01*
X97525790Y-54701045D01*
X97528843Y-54702309D01*
X97539336Y-54708915D01*
X97634574Y-54756534D01*
X97657460Y-54765292D01*
X97661940Y-54765610D01*
X97666090Y-54767329D01*
X97690476Y-54769731D01*
X97833333Y-54769731D01*
X97857719Y-54767329D01*
X97861867Y-54765610D01*
X97866349Y-54765292D01*
X97889235Y-54756534D01*
X97984472Y-54708916D01*
X97994968Y-54702308D01*
X97998018Y-54701045D01*
X98001451Y-54698226D01*
X98005210Y-54695861D01*
X98007372Y-54693367D01*
X98016960Y-54685499D01*
X98064579Y-54637880D01*
X98072446Y-54628292D01*
X98074939Y-54626131D01*
X98077305Y-54622371D01*
X98080124Y-54618937D01*
X98081386Y-54615888D01*
X98087993Y-54605394D01*
X98135612Y-54510156D01*
X98144370Y-54487270D01*
X98144688Y-54482789D01*
X98146407Y-54478640D01*
X98148809Y-54454254D01*
X98148809Y-54168540D01*
X98146407Y-54144154D01*
X98144688Y-54140004D01*
X98144370Y-54135524D01*
X98135612Y-54112638D01*
X98087993Y-54017400D01*
X98081386Y-54006905D01*
X98080123Y-54003855D01*
X98077304Y-54000420D01*
X98074939Y-53996663D01*
X98072447Y-53994501D01*
X98064578Y-53984913D01*
X98016959Y-53937295D01*
X98007373Y-53929428D01*
X98005210Y-53926934D01*
X98001448Y-53924565D01*
X97998017Y-53921750D01*
X97994970Y-53920488D01*
X97984472Y-53913879D01*
X97889235Y-53866261D01*
X97866349Y-53857503D01*
X97861867Y-53857184D01*
X97857719Y-53855466D01*
X97833333Y-53853064D01*
X97690476Y-53853064D01*
X97666090Y-53855466D01*
X97661940Y-53857184D01*
X97657460Y-53857503D01*
X97634574Y-53866261D01*
X97539336Y-53913880D01*
X97528841Y-53920486D01*
X97525791Y-53921750D01*
X97522356Y-53924568D01*
X97518599Y-53926934D01*
X97516437Y-53929425D01*
X97506849Y-53937295D01*
X97459231Y-53984914D01*
X97451364Y-53994499D01*
X97448870Y-53996663D01*
X97446501Y-54000424D01*
X97443686Y-54003856D01*
X97442424Y-54006902D01*
X97435815Y-54017401D01*
X97388197Y-54112638D01*
X97379439Y-54135524D01*
X97379120Y-54140005D01*
X97377402Y-54144154D01*
X97375000Y-54168540D01*
X97196428Y-54168540D01*
X97196428Y-53978064D01*
X97194026Y-53953678D01*
X97175362Y-53908618D01*
X97140874Y-53874130D01*
X97095814Y-53855466D01*
X97047042Y-53855466D01*
X97001982Y-53874130D01*
X97001391Y-53874720D01*
X96984473Y-53866261D01*
X96961587Y-53857503D01*
X96957105Y-53857184D01*
X96952957Y-53855466D01*
X96928571Y-53853064D01*
X96785714Y-53853064D01*
X96761328Y-53855466D01*
X96757178Y-53857184D01*
X96752698Y-53857503D01*
X96729812Y-53866261D01*
X96634574Y-53913880D01*
X96630497Y-53916446D01*
X96628572Y-53917088D01*
X96626173Y-53919167D01*
X96613837Y-53926934D01*
X96603567Y-53938774D01*
X96591727Y-53949044D01*
X96583960Y-53961381D01*
X96581881Y-53963779D01*
X96581239Y-53965703D01*
X96578672Y-53969782D01*
X96531054Y-54065019D01*
X96522296Y-54087905D01*
X96521977Y-54092386D01*
X96520259Y-54096535D01*
X96517857Y-54120921D01*
X96291666Y-54120921D01*
X96291666Y-54103064D01*
X96309523Y-54103064D01*
X96333909Y-54100662D01*
X96378969Y-54081998D01*
X96413457Y-54047510D01*
X96432121Y-54002450D01*
X96432121Y-53953678D01*
X96413457Y-53908618D01*
X96378969Y-53874130D01*
X96333909Y-53855466D01*
X96309523Y-53853064D01*
X96291666Y-53853064D01*
X96291666Y-53715582D01*
X98282164Y-53715582D01*
X98282164Y-53764356D01*
X98300829Y-53809415D01*
X98335316Y-53843902D01*
X98380375Y-53862567D01*
X98429149Y-53862567D01*
X98474208Y-53843902D01*
X98493150Y-53828357D01*
X98519904Y-53801603D01*
X98615524Y-53769731D01*
X98670193Y-53769731D01*
X98765810Y-53801603D01*
X98825838Y-53861631D01*
X98858249Y-53926454D01*
X98898809Y-54088691D01*
X98898809Y-54200770D01*
X98858249Y-54363006D01*
X98825839Y-54427827D01*
X98765809Y-54487858D01*
X98670193Y-54519731D01*
X98615524Y-54519731D01*
X98519904Y-54487858D01*
X98493151Y-54461105D01*
X98474209Y-54445559D01*
X98429150Y-54426894D01*
X98380377Y-54426894D01*
X98335317Y-54445558D01*
X98300829Y-54480045D01*
X98282164Y-54525104D01*
X98282164Y-54573877D01*
X98300828Y-54618937D01*
X98316373Y-54637879D01*
X98363992Y-54685499D01*
X98382933Y-54701045D01*
X98387086Y-54702765D01*
X98390478Y-54705707D01*
X98412853Y-54715697D01*
X98555709Y-54763316D01*
X98567802Y-54766065D01*
X98570852Y-54767329D01*
X98575273Y-54767764D01*
X98579603Y-54768749D01*
X98582894Y-54768515D01*
X98595238Y-54769731D01*
X98690476Y-54769731D01*
X98702819Y-54768515D01*
X98706110Y-54768749D01*
X98710439Y-54767764D01*
X98714862Y-54767329D01*
X98717913Y-54766065D01*
X98730004Y-54763316D01*
X98872861Y-54715698D01*
X98895236Y-54705707D01*
X98898628Y-54702764D01*
X98902780Y-54701045D01*
X98921722Y-54685500D01*
X99016960Y-54590261D01*
X99024828Y-54580672D01*
X99027320Y-54578512D01*
X99029684Y-54574755D01*
X99032505Y-54571319D01*
X99033769Y-54568267D01*
X99040374Y-54557775D01*
X99087993Y-54462537D01*
X99088676Y-54460751D01*
X99089213Y-54460027D01*
X99092868Y-54449797D01*
X99096751Y-54439651D01*
X99096814Y-54438751D01*
X99097458Y-54436952D01*
X99145077Y-54246476D01*
X99145702Y-54242246D01*
X99146407Y-54240545D01*
X99147311Y-54231365D01*
X99148661Y-54222236D01*
X99148389Y-54220413D01*
X99148809Y-54216159D01*
X99148809Y-54168409D01*
X100089286Y-54168409D01*
X100089294Y-54168452D01*
X100089286Y-54168540D01*
X100089286Y-54359016D01*
X100089294Y-54359103D01*
X100089286Y-54359147D01*
X100090524Y-54371584D01*
X100091688Y-54383402D01*
X100091704Y-54383440D01*
X100091713Y-54383530D01*
X100139332Y-54621626D01*
X100141598Y-54629070D01*
X100143320Y-54636640D01*
X100190938Y-54779497D01*
X100194553Y-54787594D01*
X100197721Y-54795871D01*
X100245339Y-54891108D01*
X100249479Y-54897685D01*
X100253137Y-54904545D01*
X100348375Y-55047402D01*
X100348432Y-55047471D01*
X100348448Y-55047510D01*
X100355699Y-55056346D01*
X100363900Y-55066360D01*
X100363938Y-55066386D01*
X100363993Y-55066452D01*
X100411611Y-55114071D01*
X100430553Y-55129616D01*
X100475613Y-55148281D01*
X100524386Y-55148281D01*
X100569446Y-55129616D01*
X100603933Y-55095129D01*
X100622598Y-55050069D01*
X100622598Y-55001296D01*
X100603933Y-54956236D01*
X100588388Y-54937294D01*
X100549520Y-54898427D01*
X100465465Y-54772343D01*
X100425299Y-54692012D01*
X100382953Y-54564974D01*
X100339286Y-54346637D01*
X100339286Y-54180920D01*
X100382953Y-53962582D01*
X100425299Y-53835544D01*
X100465464Y-53755215D01*
X100549523Y-53629125D01*
X100558303Y-53620345D01*
X100710736Y-53620345D01*
X100710736Y-53669117D01*
X100729400Y-53714177D01*
X100763888Y-53748665D01*
X100808948Y-53767329D01*
X100833334Y-53769731D01*
X101184524Y-53769731D01*
X101184524Y-53995921D01*
X100976191Y-53995921D01*
X100951805Y-53998323D01*
X100906745Y-54016987D01*
X100872257Y-54051475D01*
X100853593Y-54096535D01*
X100853593Y-54145307D01*
X100872257Y-54190367D01*
X100906745Y-54224855D01*
X100951805Y-54243519D01*
X100976191Y-54245921D01*
X101184524Y-54245921D01*
X101184524Y-54519731D01*
X100833334Y-54519731D01*
X100808948Y-54522133D01*
X100763888Y-54540797D01*
X100729400Y-54575285D01*
X100710736Y-54620345D01*
X100710736Y-54669117D01*
X100729400Y-54714177D01*
X100763888Y-54748665D01*
X100808948Y-54767329D01*
X100833334Y-54769731D01*
X101309524Y-54769731D01*
X101333910Y-54767329D01*
X101378970Y-54748665D01*
X101413458Y-54714177D01*
X101432122Y-54669117D01*
X101434524Y-54644731D01*
X101434524Y-53644731D01*
X101432122Y-53620345D01*
X101413458Y-53575285D01*
X101378970Y-53540797D01*
X101333910Y-53522133D01*
X101309524Y-53519731D01*
X100833334Y-53519731D01*
X100808948Y-53522133D01*
X100763888Y-53540797D01*
X100729400Y-53575285D01*
X100710736Y-53620345D01*
X100558303Y-53620345D01*
X100588388Y-53590262D01*
X100603933Y-53571320D01*
X100622598Y-53526260D01*
X100622598Y-53477487D01*
X100622598Y-53477486D01*
X101567879Y-53477486D01*
X101567879Y-53526260D01*
X101586544Y-53571319D01*
X101602089Y-53590261D01*
X101640954Y-53629127D01*
X101725011Y-53755213D01*
X101765178Y-53835548D01*
X101807524Y-53962589D01*
X101851191Y-54180919D01*
X101851191Y-54346637D01*
X101807525Y-54564965D01*
X101765178Y-54692008D01*
X101725011Y-54772343D01*
X101640955Y-54898427D01*
X101602089Y-54937295D01*
X101586544Y-54956237D01*
X101567879Y-55001296D01*
X101567879Y-55050070D01*
X101586544Y-55095129D01*
X101621031Y-55129616D01*
X101666090Y-55148281D01*
X101714864Y-55148281D01*
X101759923Y-55129616D01*
X101778865Y-55114071D01*
X101826484Y-55066453D01*
X101826539Y-55066384D01*
X101826577Y-55066360D01*
X101834392Y-55056816D01*
X101842029Y-55047511D01*
X101842045Y-55047470D01*
X101842102Y-55047402D01*
X101937340Y-54904544D01*
X101940996Y-54897686D01*
X101945137Y-54891109D01*
X101992756Y-54795871D01*
X101995926Y-54787584D01*
X101999538Y-54779497D01*
X102047157Y-54636641D01*
X102048878Y-54629067D01*
X102051145Y-54621626D01*
X102098764Y-54383531D01*
X102098772Y-54383440D01*
X102098789Y-54383402D01*
X102099948Y-54371634D01*
X102101191Y-54359147D01*
X102101182Y-54359103D01*
X102101191Y-54359016D01*
X102101191Y-54216159D01*
X102279763Y-54216159D01*
X102279763Y-54454254D01*
X102282165Y-54478640D01*
X102283883Y-54482788D01*
X102284202Y-54487270D01*
X102292960Y-54510156D01*
X102340578Y-54605393D01*
X102347185Y-54615889D01*
X102348448Y-54618937D01*
X102351265Y-54622370D01*
X102353633Y-54626131D01*
X102356127Y-54628294D01*
X102363993Y-54637879D01*
X102411612Y-54685499D01*
X102421200Y-54693368D01*
X102423362Y-54695861D01*
X102427116Y-54698224D01*
X102430553Y-54701045D01*
X102433606Y-54702309D01*
X102444099Y-54708915D01*
X102539337Y-54756534D01*
X102562223Y-54765292D01*
X102566703Y-54765610D01*
X102570853Y-54767329D01*
X102595239Y-54769731D01*
X102833334Y-54769731D01*
X102857720Y-54767329D01*
X102861868Y-54765610D01*
X102866350Y-54765292D01*
X102889236Y-54756534D01*
X102984473Y-54708916D01*
X102994969Y-54702308D01*
X102998019Y-54701045D01*
X103001452Y-54698226D01*
X103005211Y-54695861D01*
X103007373Y-54693367D01*
X103016961Y-54685499D01*
X103064580Y-54637880D01*
X103080125Y-54618937D01*
X103098789Y-54573878D01*
X103098789Y-54525104D01*
X103080124Y-54480045D01*
X103045636Y-54445558D01*
X103000576Y-54426894D01*
X102951803Y-54426894D01*
X102906743Y-54445559D01*
X102887802Y-54461105D01*
X102854527Y-54494380D01*
X102803826Y-54519731D01*
X102624748Y-54519731D01*
X102574046Y-54494380D01*
X102555114Y-54475448D01*
X102529763Y-54424746D01*
X102529763Y-54245667D01*
X102555113Y-54194965D01*
X102574046Y-54176033D01*
X102624748Y-54150683D01*
X102803826Y-54150683D01*
X102854527Y-54176033D01*
X102887802Y-54209309D01*
X102906744Y-54224854D01*
X102912558Y-54227262D01*
X102917431Y-54231249D01*
X102934923Y-54236526D01*
X102951804Y-54243519D01*
X102958099Y-54243519D01*
X102964125Y-54245337D01*
X102982305Y-54243519D01*
X103000577Y-54243519D01*
X103006391Y-54241110D01*
X103012655Y-54240484D01*
X103028759Y-54231844D01*
X103045637Y-54224854D01*
X103050085Y-54220405D01*
X103055634Y-54217429D01*
X103067208Y-54203282D01*
X103080124Y-54190367D01*
X103082531Y-54184554D01*
X103086519Y-54179681D01*
X103091797Y-54162185D01*
X103098789Y-54145307D01*
X103098789Y-54139012D01*
X103100607Y-54132987D01*
X103100571Y-54108483D01*
X103052952Y-53632293D01*
X103051170Y-53623404D01*
X103051170Y-53621842D01*
X103186638Y-53621842D01*
X103186927Y-53645489D01*
X103186927Y-53669117D01*
X103187224Y-53669835D01*
X103187234Y-53670610D01*
X103194632Y-53693971D01*
X103623203Y-54693970D01*
X103635017Y-54715439D01*
X103669921Y-54749503D01*
X103715206Y-54767617D01*
X103763975Y-54767022D01*
X103808804Y-54747810D01*
X103842868Y-54712905D01*
X103860982Y-54667620D01*
X103860387Y-54618851D01*
X103852989Y-54595491D01*
X103731234Y-54311397D01*
X104184525Y-54311397D01*
X104184525Y-54454254D01*
X104186927Y-54478640D01*
X104188645Y-54482788D01*
X104188964Y-54487270D01*
X104197722Y-54510156D01*
X104245340Y-54605393D01*
X104251947Y-54615889D01*
X104253210Y-54618937D01*
X104256027Y-54622370D01*
X104258395Y-54626131D01*
X104260889Y-54628294D01*
X104268755Y-54637879D01*
X104316374Y-54685499D01*
X104325962Y-54693368D01*
X104328124Y-54695861D01*
X104331878Y-54698224D01*
X104335315Y-54701045D01*
X104338368Y-54702309D01*
X104348861Y-54708915D01*
X104444099Y-54756534D01*
X104466985Y-54765292D01*
X104471465Y-54765610D01*
X104475615Y-54767329D01*
X104500001Y-54769731D01*
X104880953Y-54769731D01*
X104905339Y-54767329D01*
X104950399Y-54748665D01*
X104984887Y-54714177D01*
X105003551Y-54669117D01*
X105005953Y-54644731D01*
X105005953Y-53644731D01*
X105232144Y-53644731D01*
X105232144Y-54454254D01*
X105234546Y-54478640D01*
X105236264Y-54482788D01*
X105236583Y-54487270D01*
X105245341Y-54510156D01*
X105292959Y-54605393D01*
X105299566Y-54615889D01*
X105300829Y-54618937D01*
X105303646Y-54622370D01*
X105306014Y-54626131D01*
X105308508Y-54628294D01*
X105316374Y-54637879D01*
X105363993Y-54685499D01*
X105373581Y-54693368D01*
X105375743Y-54695861D01*
X105379497Y-54698224D01*
X105382934Y-54701045D01*
X105385987Y-54702309D01*
X105396480Y-54708915D01*
X105491718Y-54756534D01*
X105514604Y-54765292D01*
X105519084Y-54765610D01*
X105523234Y-54767329D01*
X105547620Y-54769731D01*
X105738096Y-54769731D01*
X105762482Y-54767329D01*
X105766630Y-54765610D01*
X105771112Y-54765292D01*
X105793998Y-54756534D01*
X105889235Y-54708916D01*
X105899731Y-54702308D01*
X105902781Y-54701045D01*
X105906214Y-54698226D01*
X105909973Y-54695861D01*
X105912135Y-54693367D01*
X105921723Y-54685499D01*
X105969342Y-54637880D01*
X105977209Y-54628292D01*
X105979702Y-54626131D01*
X105982068Y-54622371D01*
X105984887Y-54618937D01*
X105986149Y-54615888D01*
X105992756Y-54605394D01*
X106040375Y-54510156D01*
X106049133Y-54487270D01*
X106049451Y-54482789D01*
X106051170Y-54478640D01*
X106053572Y-54454254D01*
X106053572Y-53644731D01*
X106279763Y-53644731D01*
X106279763Y-54644731D01*
X106282165Y-54669117D01*
X106300829Y-54714177D01*
X106335317Y-54748665D01*
X106380377Y-54767329D01*
X106429149Y-54767329D01*
X106474209Y-54748665D01*
X106508697Y-54714177D01*
X106527361Y-54669117D01*
X106529763Y-54644731D01*
X106529763Y-54245921D01*
X106851191Y-54245921D01*
X106851191Y-54644731D01*
X106853593Y-54669117D01*
X106872257Y-54714177D01*
X106906745Y-54748665D01*
X106951805Y-54767329D01*
X107000577Y-54767329D01*
X107045637Y-54748665D01*
X107080125Y-54714177D01*
X107098789Y-54669117D01*
X107101191Y-54644731D01*
X107101191Y-53644731D01*
X107098789Y-53620345D01*
X107080125Y-53575285D01*
X107045637Y-53540797D01*
X107000577Y-53522133D01*
X106951805Y-53522133D01*
X106906745Y-53540797D01*
X106872257Y-53575285D01*
X106853593Y-53620345D01*
X106851191Y-53644731D01*
X106851191Y-53995921D01*
X106529763Y-53995921D01*
X106529763Y-53644731D01*
X106527361Y-53620345D01*
X106508697Y-53575285D01*
X106474209Y-53540797D01*
X106429149Y-53522133D01*
X106380377Y-53522133D01*
X106335317Y-53540797D01*
X106300829Y-53575285D01*
X106282165Y-53620345D01*
X106279763Y-53644731D01*
X106053572Y-53644731D01*
X106051170Y-53620345D01*
X106032506Y-53575285D01*
X105998018Y-53540797D01*
X105952958Y-53522133D01*
X105904186Y-53522133D01*
X105859126Y-53540797D01*
X105824638Y-53575285D01*
X105805974Y-53620345D01*
X105803572Y-53644731D01*
X105803572Y-54424745D01*
X105778220Y-54475448D01*
X105759289Y-54494380D01*
X105708588Y-54519731D01*
X105577129Y-54519731D01*
X105526427Y-54494380D01*
X105507495Y-54475448D01*
X105482144Y-54424746D01*
X105482144Y-53644731D01*
X105479742Y-53620345D01*
X105461078Y-53575285D01*
X105426590Y-53540797D01*
X105381530Y-53522133D01*
X105332758Y-53522133D01*
X105287698Y-53540797D01*
X105253210Y-53575285D01*
X105234546Y-53620345D01*
X105232144Y-53644731D01*
X105005953Y-53644731D01*
X105003551Y-53620345D01*
X104984887Y-53575285D01*
X104950399Y-53540797D01*
X104905339Y-53522133D01*
X104880953Y-53519731D01*
X104547620Y-53519731D01*
X104523234Y-53522133D01*
X104519084Y-53523851D01*
X104514604Y-53524170D01*
X104491718Y-53532928D01*
X104396480Y-53580547D01*
X104385985Y-53587153D01*
X104382935Y-53588417D01*
X104379500Y-53591235D01*
X104375743Y-53593601D01*
X104373581Y-53596092D01*
X104363993Y-53603962D01*
X104316375Y-53651581D01*
X104308508Y-53661166D01*
X104306014Y-53663330D01*
X104303645Y-53667091D01*
X104300830Y-53670523D01*
X104299568Y-53673569D01*
X104292959Y-53684068D01*
X104245341Y-53779305D01*
X104236583Y-53802191D01*
X104236264Y-53806672D01*
X104234546Y-53810821D01*
X104232144Y-53835207D01*
X104232144Y-53930445D01*
X104234546Y-53954831D01*
X104236264Y-53958979D01*
X104236583Y-53963461D01*
X104245341Y-53986347D01*
X104292959Y-54081584D01*
X104299568Y-54092082D01*
X104300830Y-54095129D01*
X104301085Y-54095440D01*
X104268756Y-54127771D01*
X104260889Y-54137356D01*
X104258395Y-54139520D01*
X104256026Y-54143281D01*
X104253211Y-54146713D01*
X104251949Y-54149759D01*
X104245340Y-54160258D01*
X104197722Y-54255495D01*
X104188964Y-54278381D01*
X104188645Y-54282862D01*
X104186927Y-54287011D01*
X104184525Y-54311397D01*
X103731234Y-54311397D01*
X103499092Y-53769731D01*
X103976191Y-53769731D01*
X104000577Y-53767329D01*
X104045637Y-53748665D01*
X104080125Y-53714177D01*
X104098789Y-53669117D01*
X104098789Y-53620345D01*
X104080125Y-53575285D01*
X104045637Y-53540797D01*
X104000577Y-53522133D01*
X103976191Y-53519731D01*
X103309525Y-53519731D01*
X103285139Y-53522133D01*
X103284420Y-53522430D01*
X103283646Y-53522440D01*
X103261958Y-53531734D01*
X103240079Y-53540797D01*
X103239529Y-53541346D01*
X103238817Y-53541652D01*
X103222311Y-53558564D01*
X103205591Y-53575285D01*
X103205294Y-53576001D01*
X103204752Y-53576557D01*
X103195961Y-53598533D01*
X103186927Y-53620345D01*
X103186927Y-53621119D01*
X103186638Y-53621842D01*
X103051170Y-53621842D01*
X103051170Y-53620345D01*
X103049981Y-53617474D01*
X103048135Y-53608267D01*
X103039498Y-53592167D01*
X103032506Y-53575285D01*
X103028055Y-53570834D01*
X103025080Y-53565288D01*
X103010938Y-53553717D01*
X102998018Y-53540797D01*
X102992203Y-53538388D01*
X102987332Y-53534403D01*
X102969839Y-53529125D01*
X102952958Y-53522133D01*
X102943612Y-53521212D01*
X102940638Y-53520315D01*
X102937592Y-53520619D01*
X102928572Y-53519731D01*
X102452382Y-53519731D01*
X102427996Y-53522133D01*
X102382936Y-53540797D01*
X102348448Y-53575285D01*
X102329784Y-53620345D01*
X102329784Y-53669117D01*
X102348448Y-53714177D01*
X102382936Y-53748665D01*
X102427996Y-53767329D01*
X102452382Y-53769731D01*
X102815448Y-53769731D01*
X102828543Y-53900683D01*
X102595239Y-53900683D01*
X102570853Y-53903085D01*
X102566703Y-53904803D01*
X102562223Y-53905122D01*
X102539337Y-53913880D01*
X102444099Y-53961499D01*
X102433604Y-53968105D01*
X102430554Y-53969369D01*
X102427119Y-53972187D01*
X102423362Y-53974553D01*
X102421200Y-53977044D01*
X102411612Y-53984914D01*
X102363994Y-54032533D01*
X102356127Y-54042118D01*
X102353633Y-54044282D01*
X102351264Y-54048043D01*
X102348449Y-54051475D01*
X102347187Y-54054521D01*
X102340578Y-54065020D01*
X102292960Y-54160257D01*
X102284202Y-54183143D01*
X102283883Y-54187624D01*
X102282165Y-54191773D01*
X102279763Y-54216159D01*
X102101191Y-54216159D01*
X102101191Y-54168540D01*
X102101182Y-54168452D01*
X102101191Y-54168409D01*
X102099948Y-54155921D01*
X102098789Y-54144154D01*
X102098772Y-54144115D01*
X102098764Y-54144025D01*
X102051145Y-53905930D01*
X102048878Y-53898486D01*
X102047157Y-53890916D01*
X101999538Y-53748060D01*
X101995926Y-53739972D01*
X101992756Y-53731686D01*
X101945137Y-53636448D01*
X101940999Y-53629876D01*
X101937341Y-53623013D01*
X101842103Y-53480155D01*
X101842045Y-53480084D01*
X101842029Y-53480045D01*
X101834239Y-53470553D01*
X101826577Y-53461197D01*
X101826541Y-53461173D01*
X101826484Y-53461103D01*
X101778865Y-53413485D01*
X101759923Y-53397940D01*
X101714864Y-53379275D01*
X101666090Y-53379275D01*
X101621031Y-53397940D01*
X101586544Y-53432427D01*
X101567879Y-53477486D01*
X100622598Y-53477486D01*
X100603933Y-53432427D01*
X100569446Y-53397940D01*
X100524386Y-53379275D01*
X100475613Y-53379275D01*
X100430553Y-53397940D01*
X100411611Y-53413485D01*
X100363993Y-53461104D01*
X100363938Y-53461169D01*
X100363900Y-53461196D01*
X100355699Y-53471209D01*
X100348448Y-53480046D01*
X100348432Y-53480084D01*
X100348375Y-53480154D01*
X100253136Y-53623013D01*
X100249478Y-53629873D01*
X100245339Y-53636449D01*
X100197721Y-53731686D01*
X100194553Y-53739962D01*
X100190938Y-53748060D01*
X100143320Y-53890917D01*
X100141598Y-53898486D01*
X100139332Y-53905931D01*
X100091713Y-54144025D01*
X100091704Y-54144115D01*
X100091688Y-54144154D01*
X100090528Y-54155921D01*
X100089286Y-54168409D01*
X99148809Y-54168409D01*
X99148809Y-54073302D01*
X99148389Y-54069047D01*
X99148661Y-54067225D01*
X99147311Y-54058095D01*
X99146407Y-54048916D01*
X99145702Y-54047214D01*
X99145077Y-54042985D01*
X99097458Y-53852509D01*
X99096814Y-53850709D01*
X99096751Y-53849810D01*
X99092868Y-53839663D01*
X99089213Y-53829434D01*
X99088676Y-53828709D01*
X99087993Y-53826924D01*
X99040374Y-53731686D01*
X99033766Y-53721189D01*
X99032504Y-53718142D01*
X99029687Y-53714710D01*
X99027320Y-53710949D01*
X99024825Y-53708785D01*
X99016959Y-53699200D01*
X98921721Y-53603962D01*
X98902779Y-53588417D01*
X98898629Y-53586698D01*
X98895236Y-53583755D01*
X98872861Y-53573764D01*
X98730004Y-53526146D01*
X98717913Y-53523396D01*
X98714862Y-53522133D01*
X98710439Y-53521697D01*
X98706110Y-53520713D01*
X98702819Y-53520946D01*
X98690476Y-53519731D01*
X98595238Y-53519731D01*
X98582894Y-53520946D01*
X98579603Y-53520713D01*
X98575273Y-53521697D01*
X98570852Y-53522133D01*
X98567802Y-53523396D01*
X98555709Y-53526146D01*
X98412853Y-53573765D01*
X98390478Y-53583755D01*
X98387085Y-53586697D01*
X98382934Y-53588417D01*
X98363992Y-53603962D01*
X98316374Y-53651581D01*
X98300829Y-53670523D01*
X98282164Y-53715582D01*
X96291666Y-53715582D01*
X96291666Y-53644731D01*
X96289264Y-53620345D01*
X96270600Y-53575285D01*
X96236112Y-53540797D01*
X96191052Y-53522133D01*
X96142280Y-53522133D01*
X96097220Y-53540797D01*
X96062732Y-53575285D01*
X96044068Y-53620345D01*
X96041666Y-53644731D01*
X96041666Y-53853064D01*
X95928571Y-53853064D01*
X95904185Y-53855466D01*
X95859125Y-53874130D01*
X95824637Y-53908618D01*
X95805973Y-53953678D01*
X95717835Y-53953678D01*
X95699171Y-53908618D01*
X95664683Y-53874130D01*
X95619623Y-53855466D01*
X95570851Y-53855466D01*
X95525791Y-53874130D01*
X95509327Y-53890593D01*
X95460663Y-53866261D01*
X95437777Y-53857503D01*
X95433295Y-53857184D01*
X95429147Y-53855466D01*
X95404761Y-53853064D01*
X95309523Y-53853064D01*
X95285137Y-53855466D01*
X95240077Y-53874130D01*
X95205589Y-53908618D01*
X95186925Y-53953678D01*
X95033341Y-53953678D01*
X95016958Y-53937295D01*
X95007372Y-53929428D01*
X95005209Y-53926934D01*
X95001447Y-53924565D01*
X94998016Y-53921750D01*
X94994969Y-53920488D01*
X94984471Y-53913879D01*
X94889234Y-53866261D01*
X94866348Y-53857503D01*
X94861866Y-53857184D01*
X94857718Y-53855466D01*
X94833332Y-53853064D01*
X94690475Y-53853064D01*
X94666089Y-53855466D01*
X94661939Y-53857184D01*
X94657459Y-53857503D01*
X94634573Y-53866261D01*
X94539335Y-53913880D01*
X94528840Y-53920486D01*
X94525790Y-53921750D01*
X94522355Y-53924568D01*
X94518598Y-53926934D01*
X94516436Y-53929425D01*
X94506848Y-53937295D01*
X94459230Y-53984914D01*
X94451363Y-53994499D01*
X94448869Y-53996663D01*
X94446500Y-54000424D01*
X94443685Y-54003856D01*
X94442423Y-54006902D01*
X94435814Y-54017401D01*
X94388196Y-54112638D01*
X94379438Y-54135524D01*
X94379119Y-54140005D01*
X94377401Y-54144154D01*
X94374999Y-54168540D01*
X94196427Y-54168540D01*
X94196427Y-53644731D01*
X94194025Y-53620345D01*
X94175361Y-53575285D01*
X94140873Y-53540797D01*
X94095813Y-53522133D01*
X94047041Y-53522133D01*
X94001981Y-53540797D01*
X93967493Y-53575285D01*
X93948829Y-53620345D01*
X93946427Y-53644731D01*
X93946427Y-54472364D01*
X93930637Y-54503943D01*
X93872668Y-54532928D01*
X93851931Y-54545982D01*
X93819975Y-54582827D01*
X93804551Y-54629097D01*
X93623760Y-54629097D01*
X93659421Y-54557774D01*
X93668178Y-54534889D01*
X93668496Y-54530408D01*
X93670215Y-54526259D01*
X93672617Y-54501873D01*
X93672617Y-53644731D01*
X93670215Y-53620345D01*
X93651551Y-53575285D01*
X93617063Y-53540797D01*
X93572003Y-53522133D01*
X93523231Y-53522133D01*
X93478171Y-53540797D01*
X93443683Y-53575285D01*
X93425019Y-53620345D01*
X93422617Y-53644731D01*
X93422617Y-54472364D01*
X93406827Y-54503943D01*
X93348858Y-54532928D01*
X93328121Y-54545982D01*
X93296165Y-54582827D01*
X93280741Y-54629097D01*
X93147569Y-54629097D01*
X93183230Y-54557774D01*
X93191987Y-54534889D01*
X93192305Y-54530408D01*
X93194024Y-54526259D01*
X93196426Y-54501873D01*
X93196426Y-54120921D01*
X93194024Y-54096535D01*
X93192305Y-54092385D01*
X93191987Y-54087905D01*
X93183229Y-54065019D01*
X93135610Y-53969781D01*
X93133043Y-53965704D01*
X93132402Y-53963779D01*
X93130322Y-53961380D01*
X93122556Y-53949044D01*
X93110715Y-53938774D01*
X93100446Y-53926934D01*
X93088108Y-53919167D01*
X93085711Y-53917088D01*
X93083786Y-53916446D01*
X93079708Y-53913879D01*
X92984471Y-53866261D01*
X92961585Y-53857503D01*
X92957103Y-53857184D01*
X92952955Y-53855466D01*
X92928569Y-53853064D01*
X92738093Y-53853064D01*
X92713707Y-53855466D01*
X92709557Y-53857184D01*
X92705077Y-53857503D01*
X92682191Y-53866261D01*
X92586953Y-53913880D01*
X92582876Y-53916446D01*
X92580951Y-53917088D01*
X92578552Y-53919167D01*
X92566216Y-53926934D01*
X92555946Y-53938774D01*
X92544106Y-53949044D01*
X92536339Y-53961381D01*
X92534260Y-53963779D01*
X92533618Y-53965703D01*
X92531051Y-53969782D01*
X92483433Y-54065019D01*
X92474675Y-54087905D01*
X92474356Y-54092386D01*
X92472638Y-54096535D01*
X92470236Y-54120921D01*
X92291664Y-54120921D01*
X92291664Y-53978064D01*
X92289262Y-53953678D01*
X92270598Y-53908618D01*
X92236110Y-53874130D01*
X92191050Y-53855466D01*
X92142278Y-53855466D01*
X92097218Y-53874130D01*
X92080754Y-53890593D01*
X92032090Y-53866261D01*
X92009204Y-53857503D01*
X92004722Y-53857184D01*
X92000574Y-53855466D01*
X91976188Y-53853064D01*
X91880950Y-53853064D01*
X91856564Y-53855466D01*
X91811504Y-53874130D01*
X91777016Y-53908618D01*
X91758352Y-53953678D01*
X90300019Y-53953678D01*
X90300019Y-53254275D01*
X108607143Y-53254275D01*
X108607143Y-58305095D01*
G37*
D11*
%TO.C,G\u002A\u002A\u002A*%
G36*
X89578663Y-61446416D02*
G01*
X89605409Y-61481606D01*
X89649996Y-61514451D01*
X89717759Y-61551191D01*
X89756713Y-61572233D01*
X89861290Y-61644345D01*
X89949977Y-61728993D01*
X90015593Y-61819703D01*
X90019378Y-61826397D01*
X90044570Y-61868102D01*
X90063766Y-61888697D01*
X90065124Y-61890154D01*
X90089665Y-61898803D01*
X90126817Y-61900297D01*
X90144195Y-61900736D01*
X90181757Y-61905220D01*
X90200398Y-61912986D01*
X90205364Y-61929540D01*
X90210011Y-61970470D01*
X90212415Y-62024933D01*
X90212590Y-62084187D01*
X90210552Y-62139490D01*
X90206317Y-62182099D01*
X90199898Y-62203273D01*
X90197444Y-62205093D01*
X90169778Y-62213346D01*
X90122320Y-62219741D01*
X90063745Y-62223020D01*
X89944729Y-62225550D01*
X89934446Y-62391761D01*
X89931174Y-62449247D01*
X89928602Y-62506624D01*
X89927648Y-62546424D01*
X89928532Y-62562342D01*
X89932524Y-62558893D01*
X89954794Y-62536381D01*
X89995256Y-62494304D01*
X90052386Y-62434278D01*
X90124662Y-62357921D01*
X90210561Y-62266847D01*
X90308558Y-62162672D01*
X90417131Y-62047014D01*
X90534756Y-61921487D01*
X90659911Y-61787708D01*
X90791071Y-61647292D01*
X90865665Y-61567413D01*
X90994625Y-61429501D01*
X91117201Y-61298650D01*
X91231810Y-61176534D01*
X91336873Y-61064830D01*
X91430807Y-60965215D01*
X91512030Y-60879363D01*
X91578962Y-60808952D01*
X91630021Y-60755657D01*
X91663625Y-60721153D01*
X91678194Y-60707118D01*
X91679257Y-60706358D01*
X91692481Y-60698680D01*
X91700689Y-60701836D01*
X91705073Y-60720680D01*
X91706827Y-60760068D01*
X91707147Y-60824856D01*
X91707147Y-60963349D01*
X90827781Y-61904575D01*
X90735380Y-62003528D01*
X90605730Y-62142551D01*
X90482849Y-62274524D01*
X90368282Y-62397778D01*
X90263574Y-62510640D01*
X90170273Y-62611442D01*
X90089922Y-62698512D01*
X90024069Y-62770179D01*
X89974258Y-62824772D01*
X89942036Y-62860622D01*
X89928949Y-62876057D01*
X89927449Y-62879498D01*
X89924223Y-62894263D01*
X89920785Y-62920314D01*
X89917078Y-62958838D01*
X89913046Y-63011017D01*
X89908632Y-63078036D01*
X89906487Y-63114757D01*
X89903781Y-63161079D01*
X89898435Y-63261332D01*
X89892538Y-63379977D01*
X89886034Y-63518199D01*
X89878866Y-63677182D01*
X89870978Y-63858111D01*
X89862314Y-64062170D01*
X89852817Y-64290544D01*
X89842431Y-64544416D01*
X89831100Y-64824970D01*
X89818766Y-65133392D01*
X89805374Y-65470865D01*
X89804510Y-65493334D01*
X89802012Y-65577920D01*
X89802042Y-65638988D01*
X89804910Y-65681989D01*
X89810924Y-65712378D01*
X89820394Y-65735606D01*
X89829965Y-65749034D01*
X89859629Y-65784180D01*
X89883536Y-65810899D01*
X89905939Y-65835938D01*
X89966241Y-65901435D01*
X90037880Y-65977793D01*
X90118198Y-66062137D01*
X90204542Y-66151591D01*
X90275114Y-66224227D01*
X90471029Y-66425961D01*
X90647064Y-66607374D01*
X90804161Y-66769453D01*
X90943264Y-66913188D01*
X91065319Y-67039566D01*
X91171269Y-67149576D01*
X91262057Y-67244206D01*
X91338629Y-67324444D01*
X91401928Y-67391279D01*
X91452899Y-67445699D01*
X91492485Y-67488692D01*
X91521630Y-67521246D01*
X91541280Y-67544351D01*
X91552377Y-67558993D01*
X91555867Y-67566163D01*
X91553774Y-67574800D01*
X91536997Y-67604639D01*
X91508915Y-67640867D01*
X91493975Y-67656661D01*
X91461714Y-67683663D01*
X91438029Y-67694341D01*
X91437305Y-67694335D01*
X91431629Y-67693609D01*
X91424474Y-67690688D01*
X91414447Y-67684173D01*
X91400150Y-67672667D01*
X91380189Y-67654773D01*
X91353167Y-67629091D01*
X91317689Y-67594226D01*
X91272359Y-67548777D01*
X91215782Y-67491349D01*
X91146562Y-67420542D01*
X91063304Y-67334960D01*
X90964611Y-67233204D01*
X90849088Y-67113876D01*
X90715339Y-66975579D01*
X90561969Y-66816914D01*
X90482384Y-66734613D01*
X90371146Y-66619715D01*
X90265504Y-66510753D01*
X90167660Y-66409988D01*
X90079815Y-66319684D01*
X90004172Y-66242103D01*
X89942931Y-66179508D01*
X89898296Y-66134162D01*
X89872466Y-66108326D01*
X89789759Y-66027552D01*
X89781093Y-66078070D01*
X89779852Y-66087795D01*
X89776621Y-66129179D01*
X89772978Y-66193406D01*
X89769172Y-66275353D01*
X89765450Y-66369896D01*
X89762060Y-66471910D01*
X89761766Y-66481496D01*
X89757489Y-66595151D01*
X89752360Y-66692271D01*
X89746629Y-66769424D01*
X89740547Y-66823180D01*
X89734366Y-66850111D01*
X89725936Y-66863981D01*
X89710918Y-66875783D01*
X89684793Y-66883356D01*
X89641183Y-66888384D01*
X89573707Y-66892555D01*
X89430375Y-66900119D01*
X89426138Y-67093437D01*
X89421901Y-67286756D01*
X89221909Y-67282538D01*
X89021918Y-67278320D01*
X89014354Y-67089219D01*
X89006790Y-66900119D01*
X88454616Y-66895903D01*
X88330384Y-66895163D01*
X88211154Y-66894871D01*
X88104059Y-66895029D01*
X88012723Y-66895614D01*
X87940770Y-66896603D01*
X87891824Y-66897971D01*
X87869508Y-66899696D01*
X87854464Y-66907533D01*
X87823311Y-66939287D01*
X87790395Y-66988417D01*
X87761611Y-67035913D01*
X87688619Y-67131854D01*
X87605299Y-67206625D01*
X87505077Y-67266636D01*
X87498302Y-67269982D01*
X87451358Y-67292580D01*
X87413878Y-67307723D01*
X87377919Y-67316884D01*
X87335536Y-67321531D01*
X87278785Y-67323137D01*
X87199722Y-67323173D01*
X87160320Y-67322977D01*
X87089532Y-67321573D01*
X87037971Y-67317915D01*
X86997995Y-67310872D01*
X86961960Y-67299311D01*
X86922223Y-67282103D01*
X86835368Y-67229823D01*
X86747201Y-67153109D01*
X86669103Y-67061357D01*
X86608531Y-66962170D01*
X86604039Y-66952965D01*
X86579455Y-66897540D01*
X86564369Y-66848290D01*
X86555911Y-66793075D01*
X86551209Y-66719758D01*
X86550411Y-66695551D01*
X86550423Y-66692615D01*
X86894794Y-66692615D01*
X86909722Y-66774202D01*
X86945727Y-66849231D01*
X87002933Y-66912776D01*
X87081466Y-66959909D01*
X87134913Y-66974831D01*
X87209086Y-66981837D01*
X87282968Y-66977606D01*
X87342704Y-66962025D01*
X87354574Y-66956362D01*
X87423136Y-66906964D01*
X87479246Y-66838920D01*
X87517223Y-66760697D01*
X87531388Y-66680762D01*
X87531353Y-66674102D01*
X87516773Y-66581846D01*
X87478920Y-66500653D01*
X87422245Y-66433688D01*
X87351201Y-66384118D01*
X87270242Y-66355109D01*
X87183820Y-66349828D01*
X87096387Y-66371439D01*
X87043352Y-66399201D01*
X86975222Y-66457761D01*
X86927669Y-66529468D01*
X86900818Y-66609395D01*
X86894794Y-66692615D01*
X86550423Y-66692615D01*
X86550685Y-66626715D01*
X86554303Y-66566362D01*
X86560735Y-66525336D01*
X86563797Y-66513852D01*
X86570860Y-66481832D01*
X86571143Y-66468969D01*
X86567312Y-66472471D01*
X86545439Y-66494857D01*
X86505893Y-66536214D01*
X86450568Y-66594535D01*
X86381361Y-66667811D01*
X86300166Y-66754034D01*
X86208878Y-66851197D01*
X86109392Y-66957292D01*
X86003604Y-67070309D01*
X85928121Y-67150901D01*
X85804856Y-67281832D01*
X85700201Y-67391968D01*
X85613086Y-67482388D01*
X85542439Y-67554175D01*
X85487190Y-67608409D01*
X85446269Y-67646171D01*
X85418604Y-67668542D01*
X85403126Y-67676603D01*
X85399444Y-67676909D01*
X85361544Y-67666969D01*
X85321801Y-67640305D01*
X85290450Y-67605518D01*
X85277725Y-67571210D01*
X85282149Y-67563805D01*
X85305117Y-67535372D01*
X85346338Y-67487690D01*
X85404297Y-67422423D01*
X85477478Y-67341231D01*
X85564366Y-67245779D01*
X85663445Y-67137727D01*
X85773201Y-67018739D01*
X85892117Y-66890477D01*
X86018678Y-66754603D01*
X86151370Y-66612780D01*
X86237364Y-66520963D01*
X86366850Y-66382297D01*
X86489508Y-66250454D01*
X86603789Y-66127121D01*
X86666019Y-66059658D01*
X86959951Y-66059658D01*
X86961313Y-66059303D01*
X86981831Y-66052725D01*
X87017451Y-66040748D01*
X87033940Y-66034481D01*
X87063931Y-66013527D01*
X87075177Y-65981182D01*
X87073573Y-65954143D01*
X87058755Y-65947750D01*
X87031891Y-65966202D01*
X86994782Y-66008878D01*
X86984080Y-66023109D01*
X86965291Y-66049560D01*
X86959951Y-66059658D01*
X86666019Y-66059658D01*
X86708147Y-66013988D01*
X86801034Y-65912742D01*
X86870603Y-65836378D01*
X87259556Y-65836378D01*
X87261043Y-65870774D01*
X87278835Y-65943724D01*
X87306232Y-65981182D01*
X87318461Y-65997902D01*
X87382075Y-66036833D01*
X87407350Y-66047635D01*
X87468372Y-66073914D01*
X87527808Y-66099714D01*
X87603260Y-66143778D01*
X87681366Y-66210453D01*
X87749497Y-66289268D01*
X87798835Y-66371387D01*
X87817237Y-66418885D01*
X87841125Y-66500271D01*
X87862602Y-66594602D01*
X87877288Y-66680762D01*
X87879222Y-66692108D01*
X87885481Y-66692567D01*
X87918357Y-66693246D01*
X87977005Y-66693874D01*
X88058702Y-66694439D01*
X88160724Y-66694928D01*
X88280346Y-66695331D01*
X88414845Y-66695633D01*
X88561498Y-66695824D01*
X88717579Y-66695890D01*
X89555409Y-66695890D01*
X89564357Y-66586212D01*
X89565075Y-66576777D01*
X89568363Y-66521750D01*
X89572063Y-66444499D01*
X89575905Y-66351455D01*
X89579621Y-66249050D01*
X89582938Y-66143716D01*
X89592571Y-65810899D01*
X89240689Y-65447826D01*
X89225562Y-65432216D01*
X89124588Y-65327917D01*
X89017593Y-65217252D01*
X88909997Y-65105835D01*
X88807220Y-64999281D01*
X88714681Y-64903204D01*
X88637799Y-64823220D01*
X88628486Y-64813531D01*
X88543696Y-64726716D01*
X88473197Y-64657222D01*
X88418426Y-64606386D01*
X88380818Y-64575548D01*
X88361809Y-64566044D01*
X88349773Y-64575328D01*
X88318729Y-64604756D01*
X88271211Y-64652108D01*
X88209371Y-64715121D01*
X88135366Y-64791534D01*
X88051349Y-64879084D01*
X87959476Y-64975509D01*
X87861901Y-65078547D01*
X87760779Y-65185935D01*
X87658265Y-65295410D01*
X87556513Y-65404712D01*
X87457679Y-65511577D01*
X87363916Y-65613744D01*
X87330400Y-65651343D01*
X87293344Y-65698899D01*
X87271865Y-65739875D01*
X87261942Y-65782843D01*
X87259556Y-65836378D01*
X86870603Y-65836378D01*
X86880904Y-65825071D01*
X86946209Y-65752664D01*
X86995402Y-65697209D01*
X87026936Y-65660395D01*
X87039265Y-65643909D01*
X87040881Y-65633773D01*
X87041553Y-65596332D01*
X87039733Y-65532565D01*
X87035388Y-65441928D01*
X87028485Y-65323878D01*
X87018992Y-65177871D01*
X87006876Y-65003362D01*
X86992105Y-64799808D01*
X86974645Y-64566664D01*
X86967847Y-64476929D01*
X86954509Y-64300437D01*
X86941740Y-64130910D01*
X86929758Y-63971246D01*
X86918777Y-63824347D01*
X86909014Y-63693113D01*
X86900684Y-63580446D01*
X86894005Y-63489245D01*
X86889192Y-63422412D01*
X86886460Y-63382846D01*
X86883928Y-63348788D01*
X86877614Y-63286973D01*
X86870453Y-63238838D01*
X86863561Y-63212656D01*
X86863165Y-63211904D01*
X86855816Y-63203165D01*
X86847985Y-63199493D01*
X87064045Y-63199493D01*
X87071521Y-63272260D01*
X87072648Y-63284771D01*
X87076173Y-63328462D01*
X87081556Y-63398105D01*
X87088598Y-63491041D01*
X87097102Y-63604610D01*
X87106869Y-63736153D01*
X87117702Y-63883009D01*
X87129403Y-64042519D01*
X87141774Y-64212023D01*
X87154616Y-64388862D01*
X87162986Y-64504170D01*
X87175327Y-64673357D01*
X87186971Y-64832016D01*
X87197736Y-64977691D01*
X87207435Y-65107925D01*
X87215886Y-65220262D01*
X87222905Y-65312246D01*
X87228306Y-65381421D01*
X87231907Y-65425330D01*
X87233522Y-65441517D01*
X87239736Y-65436907D01*
X87264170Y-65413194D01*
X87304824Y-65371810D01*
X87359257Y-65315366D01*
X87425025Y-65246470D01*
X87499686Y-65167735D01*
X87580796Y-65081769D01*
X87665914Y-64991185D01*
X87752597Y-64898591D01*
X87838401Y-64806599D01*
X87920885Y-64717818D01*
X87997606Y-64634860D01*
X88066120Y-64560335D01*
X88123986Y-64496853D01*
X88168761Y-64447024D01*
X88198001Y-64413460D01*
X88209264Y-64398769D01*
X88209288Y-64398688D01*
X88201428Y-64384958D01*
X88522269Y-64384958D01*
X88524889Y-64390947D01*
X88530855Y-64398688D01*
X88544952Y-64416977D01*
X88582850Y-64460904D01*
X88636451Y-64520402D01*
X88703619Y-64593145D01*
X88782221Y-64676809D01*
X88870124Y-64769069D01*
X88965192Y-64867599D01*
X88978608Y-64881415D01*
X89119962Y-65026473D01*
X89244408Y-65153196D01*
X89351406Y-65261051D01*
X89440414Y-65349503D01*
X89510890Y-65418019D01*
X89562294Y-65466067D01*
X89594083Y-65493112D01*
X89605716Y-65498621D01*
X89606258Y-65490914D01*
X89607999Y-65456072D01*
X89610753Y-65395762D01*
X89614406Y-65312769D01*
X89618843Y-65209877D01*
X89623952Y-65089870D01*
X89629616Y-64955535D01*
X89635723Y-64809656D01*
X89642156Y-64655018D01*
X89648803Y-64494405D01*
X89655549Y-64330603D01*
X89662280Y-64166396D01*
X89668880Y-64004569D01*
X89675237Y-63847908D01*
X89681235Y-63699197D01*
X89686760Y-63561222D01*
X89691698Y-63436766D01*
X89695935Y-63328615D01*
X89699355Y-63239553D01*
X89701846Y-63172367D01*
X89703293Y-63129839D01*
X89703580Y-63114757D01*
X89701088Y-63116604D01*
X89681739Y-63135747D01*
X89645126Y-63173653D01*
X89593468Y-63227938D01*
X89528984Y-63296215D01*
X89453893Y-63376098D01*
X89370415Y-63465200D01*
X89280769Y-63561135D01*
X89187174Y-63661518D01*
X89091850Y-63763961D01*
X88997015Y-63866078D01*
X88904889Y-63965484D01*
X88817691Y-64059792D01*
X88737640Y-64146616D01*
X88666956Y-64223570D01*
X88607857Y-64288267D01*
X88562564Y-64338322D01*
X88533294Y-64371347D01*
X88522269Y-64384958D01*
X88201428Y-64384958D01*
X88200397Y-64383158D01*
X88172847Y-64349263D01*
X88129333Y-64299985D01*
X88072549Y-64238307D01*
X88005188Y-64167208D01*
X87929947Y-64089671D01*
X87893547Y-64052556D01*
X87790858Y-63947622D01*
X87677906Y-63831938D01*
X87562373Y-63713383D01*
X87451940Y-63599838D01*
X87354288Y-63499180D01*
X87064045Y-63199493D01*
X86847985Y-63199493D01*
X86841913Y-63196646D01*
X86817508Y-63192028D01*
X86778648Y-63188992D01*
X86721385Y-63187218D01*
X86641768Y-63186388D01*
X86535846Y-63186182D01*
X86528003Y-63186180D01*
X86411573Y-63185474D01*
X86323080Y-63183425D01*
X86260358Y-63179913D01*
X86221240Y-63174820D01*
X86203562Y-63168028D01*
X86196985Y-63151576D01*
X86191739Y-63113060D01*
X86188141Y-63050744D01*
X86186071Y-62962486D01*
X86185408Y-62846141D01*
X86185413Y-62828840D01*
X86185975Y-62717275D01*
X86187352Y-62664264D01*
X86359381Y-62664264D01*
X86359381Y-62813010D01*
X86359635Y-62860340D01*
X86361566Y-62914525D01*
X86366332Y-62948831D01*
X86375026Y-62969607D01*
X86388746Y-62983201D01*
X86404759Y-62990762D01*
X86448665Y-63000003D01*
X86506325Y-63004931D01*
X86568996Y-63005575D01*
X86627933Y-63001968D01*
X86674390Y-62994139D01*
X86699624Y-62982119D01*
X86703937Y-62976038D01*
X86713437Y-62934380D01*
X86703639Y-62879896D01*
X86677134Y-62818881D01*
X86636517Y-62757627D01*
X86584381Y-62702427D01*
X86563096Y-62684583D01*
X86532106Y-62665874D01*
X86497079Y-62658927D01*
X86445026Y-62659767D01*
X86359381Y-62664264D01*
X86187352Y-62664264D01*
X86188191Y-62631976D01*
X86193083Y-62569432D01*
X86201676Y-62526133D01*
X86214992Y-62498567D01*
X86234053Y-62483225D01*
X86259884Y-62476594D01*
X86293507Y-62475163D01*
X86354506Y-62475163D01*
X86313308Y-62425997D01*
X86309378Y-62421530D01*
X86284783Y-62395081D01*
X86241631Y-62349614D01*
X86181807Y-62287085D01*
X86107196Y-62209449D01*
X86019679Y-62118662D01*
X85921143Y-62016679D01*
X85813470Y-61905455D01*
X85698545Y-61786946D01*
X85578252Y-61663107D01*
X84884395Y-60949383D01*
X84884395Y-60819718D01*
X84884439Y-60808168D01*
X84886715Y-60745170D01*
X84892097Y-60704488D01*
X84900109Y-60690053D01*
X84901557Y-60690110D01*
X84906927Y-60691436D01*
X84914470Y-60695555D01*
X84925532Y-60703822D01*
X84941457Y-60717594D01*
X84963590Y-60738227D01*
X84993274Y-60767080D01*
X85031855Y-60805507D01*
X85080676Y-60854866D01*
X85141083Y-60916513D01*
X85214419Y-60991806D01*
X85302030Y-61082100D01*
X85405258Y-61188753D01*
X85525450Y-61313121D01*
X85663949Y-61456560D01*
X85822100Y-61620428D01*
X85825244Y-61623686D01*
X85952801Y-61755538D01*
X86074979Y-61881220D01*
X86190049Y-61998989D01*
X86296283Y-62107105D01*
X86391951Y-62203826D01*
X86475326Y-62287411D01*
X86544677Y-62356119D01*
X86598278Y-62408209D01*
X86634398Y-62441940D01*
X86651309Y-62455571D01*
X86653479Y-62456506D01*
X86698513Y-62468963D01*
X86748928Y-62474481D01*
X86805658Y-62475163D01*
X86805658Y-62376831D01*
X86803459Y-62315041D01*
X86793766Y-62271219D01*
X86772043Y-62242934D01*
X86733752Y-62226854D01*
X86674359Y-62219648D01*
X86589327Y-62217986D01*
X86576094Y-62217949D01*
X86572029Y-62217826D01*
X87002323Y-62217826D01*
X87002932Y-62289764D01*
X87003621Y-62313814D01*
X87006384Y-62369822D01*
X87010860Y-62444528D01*
X87016631Y-62531131D01*
X87023283Y-62622824D01*
X87043026Y-62883946D01*
X87097707Y-62934380D01*
X87162609Y-62994241D01*
X87201185Y-63029818D01*
X87274687Y-63097471D01*
X87329896Y-63147790D01*
X87369568Y-63182977D01*
X87396459Y-63205235D01*
X87413323Y-63216766D01*
X87422918Y-63219775D01*
X87427998Y-63216462D01*
X87431319Y-63209031D01*
X87434917Y-63204344D01*
X87445391Y-63199512D01*
X87464999Y-63195667D01*
X87496382Y-63192730D01*
X87542180Y-63190623D01*
X87605032Y-63189268D01*
X87687579Y-63188586D01*
X87792460Y-63188500D01*
X87922315Y-63188930D01*
X88079785Y-63189799D01*
X88719357Y-63193746D01*
X88719357Y-63382846D01*
X88719357Y-63571947D01*
X88222451Y-63579511D01*
X87725545Y-63587075D01*
X88032443Y-63904764D01*
X88052834Y-63925841D01*
X88130301Y-64005332D01*
X88200812Y-64076796D01*
X88261577Y-64137464D01*
X88309803Y-64184569D01*
X88342700Y-64215344D01*
X88357476Y-64227021D01*
X88361010Y-64225157D01*
X88382734Y-64205906D01*
X88421883Y-64167652D01*
X88476349Y-64112641D01*
X88544022Y-64043119D01*
X88622793Y-63961334D01*
X88710552Y-63869532D01*
X88805190Y-63769959D01*
X88904599Y-63664863D01*
X89006669Y-63556489D01*
X89109290Y-63447085D01*
X89210354Y-63338896D01*
X89307751Y-63234170D01*
X89399372Y-63135153D01*
X89483108Y-63044092D01*
X89556849Y-62963233D01*
X89618487Y-62894823D01*
X89665911Y-62841109D01*
X89697013Y-62804336D01*
X89709684Y-62786752D01*
X89713065Y-62768969D01*
X89717361Y-62723832D01*
X89721396Y-62658576D01*
X89724834Y-62578848D01*
X89727339Y-62490291D01*
X89732936Y-62225550D01*
X88367629Y-62221688D01*
X87002323Y-62217826D01*
X86572029Y-62217826D01*
X86495529Y-62215511D01*
X86441330Y-62209408D01*
X86415354Y-62199833D01*
X86409063Y-62188693D01*
X86400541Y-62152044D01*
X86397201Y-62103845D01*
X86395646Y-62064769D01*
X86386173Y-62024818D01*
X86365396Y-61997228D01*
X86333283Y-61961148D01*
X86303848Y-61900297D01*
X86786652Y-61900297D01*
X87958494Y-61900297D01*
X87999279Y-61900291D01*
X88183206Y-61900110D01*
X88357827Y-61899693D01*
X88520812Y-61899058D01*
X88669836Y-61898226D01*
X88802570Y-61897218D01*
X88916686Y-61896052D01*
X89009857Y-61894748D01*
X89079755Y-61893327D01*
X89124052Y-61891809D01*
X89140421Y-61890212D01*
X89143080Y-61882329D01*
X89146902Y-61849102D01*
X89149277Y-61801965D01*
X89566528Y-61801965D01*
X89566528Y-61892733D01*
X89683770Y-61897152D01*
X89697766Y-61897587D01*
X89750289Y-61897371D01*
X89787123Y-61894233D01*
X89801012Y-61888697D01*
X89801011Y-61888499D01*
X89789126Y-61864627D01*
X89758843Y-61830787D01*
X89717316Y-61793012D01*
X89671696Y-61757335D01*
X89629134Y-61729791D01*
X89596784Y-61716412D01*
X89582000Y-61715777D01*
X89571864Y-61725157D01*
X89570571Y-61732986D01*
X89567477Y-61751710D01*
X89566528Y-61801965D01*
X89149277Y-61801965D01*
X89149529Y-61796954D01*
X89150506Y-61732986D01*
X89150345Y-61695110D01*
X89148687Y-61638577D01*
X89144456Y-61603685D01*
X89136698Y-61584691D01*
X89124462Y-61575851D01*
X89102649Y-61570421D01*
X89056642Y-61562995D01*
X88995140Y-61555148D01*
X88924644Y-61547486D01*
X88851655Y-61540612D01*
X88782676Y-61535131D01*
X88724207Y-61531648D01*
X88682751Y-61530768D01*
X88664808Y-61533096D01*
X88663729Y-61534412D01*
X88654851Y-61558937D01*
X88648577Y-61597736D01*
X88643716Y-61650684D01*
X88152055Y-61650684D01*
X87660393Y-61650684D01*
X87655559Y-61608594D01*
X87650651Y-61583514D01*
X87636132Y-61571792D01*
X87602611Y-61574480D01*
X87589721Y-61576617D01*
X87543324Y-61584318D01*
X87481164Y-61594639D01*
X87413026Y-61605956D01*
X87316200Y-61624641D01*
X87183237Y-61659247D01*
X87063201Y-61701084D01*
X86960425Y-61748343D01*
X86879241Y-61799216D01*
X86823980Y-61851893D01*
X86786652Y-61900297D01*
X86303848Y-61900297D01*
X86301196Y-61894814D01*
X86292376Y-61823818D01*
X86306174Y-61754848D01*
X86341944Y-61694590D01*
X86399039Y-61649734D01*
X86425628Y-61639222D01*
X86493730Y-61631109D01*
X86564726Y-61642559D01*
X86625910Y-61672307D01*
X86669934Y-61704855D01*
X86765882Y-61636389D01*
X86868783Y-61569878D01*
X86993326Y-61507820D01*
X87128682Y-61460391D01*
X87280933Y-61425519D01*
X87456164Y-61401129D01*
X87520706Y-61393945D01*
X87580317Y-61386463D01*
X87622728Y-61380167D01*
X87630649Y-61378380D01*
X87826802Y-61378380D01*
X87826802Y-61431328D01*
X87826802Y-61484276D01*
X88155837Y-61488353D01*
X88484872Y-61492430D01*
X88484872Y-61431328D01*
X88484872Y-61370225D01*
X88155837Y-61374303D01*
X87826802Y-61378380D01*
X87630649Y-61378380D01*
X87641483Y-61375936D01*
X87644559Y-61371560D01*
X87650478Y-61344312D01*
X87652829Y-61302379D01*
X87653783Y-61275032D01*
X87662365Y-61239386D01*
X87682501Y-61219848D01*
X87691719Y-61217145D01*
X87732295Y-61212752D01*
X87801962Y-61209620D01*
X87899964Y-61207767D01*
X88025543Y-61207211D01*
X88177944Y-61207969D01*
X88643716Y-61211971D01*
X88651280Y-61272483D01*
X88658844Y-61332995D01*
X88855509Y-61342165D01*
X88861504Y-61342448D01*
X88939965Y-61346843D01*
X89010971Y-61351984D01*
X89066928Y-61357254D01*
X89100242Y-61362036D01*
X89131162Y-61366972D01*
X89147035Y-61358744D01*
X89153191Y-61330174D01*
X89158070Y-61287611D01*
X89354735Y-61287611D01*
X89551400Y-61287611D01*
X89559265Y-61365779D01*
X89564425Y-61402641D01*
X89573756Y-61431328D01*
X89578663Y-61446416D01*
G37*
G36*
X87619694Y-69043737D02*
G01*
X87962722Y-69044036D01*
X88335189Y-69044481D01*
X91200357Y-69048302D01*
X91204292Y-69740411D01*
X91208227Y-70432519D01*
X88318616Y-70432519D01*
X85429005Y-70432519D01*
X85429005Y-69753609D01*
X85429009Y-69723917D01*
X85429209Y-69562498D01*
X85429763Y-69428533D01*
X85430743Y-69319618D01*
X85432218Y-69233353D01*
X85434260Y-69167333D01*
X85436940Y-69119159D01*
X85440328Y-69086426D01*
X85444496Y-69066734D01*
X85449513Y-69057679D01*
X85451111Y-69056998D01*
X85467735Y-69054858D01*
X85502366Y-69052916D01*
X85555821Y-69051169D01*
X85628914Y-69049613D01*
X85722465Y-69048244D01*
X85837288Y-69047059D01*
X85974201Y-69046054D01*
X86134020Y-69045224D01*
X86317561Y-69044567D01*
X86525643Y-69044079D01*
X86759080Y-69043756D01*
X87018690Y-69043593D01*
X87305289Y-69043588D01*
X87619694Y-69043737D01*
G37*
G36*
X87275090Y-66471627D02*
G01*
X87333746Y-66498232D01*
X87340790Y-66503489D01*
X87390252Y-66558945D01*
X87418866Y-66627248D01*
X87424408Y-66699924D01*
X87404654Y-66768499D01*
X87403095Y-66771423D01*
X87370589Y-66817022D01*
X87329086Y-66857512D01*
X87289756Y-66881871D01*
X87267495Y-66887852D01*
X87204410Y-66891662D01*
X87138365Y-66882556D01*
X87085141Y-66862060D01*
X87084275Y-66861522D01*
X87030763Y-66811929D01*
X86998891Y-66748193D01*
X86988625Y-66677185D01*
X86999928Y-66605776D01*
X87032764Y-66540838D01*
X87087097Y-66489242D01*
X87136257Y-66468838D01*
X87205112Y-66461678D01*
X87275090Y-66471627D01*
G37*
G36*
X112062454Y-60767824D02*
G01*
X112167516Y-60767928D01*
X112252400Y-60768239D01*
X112319339Y-60768866D01*
X112370569Y-60769918D01*
X112408322Y-60771506D01*
X112434833Y-60773739D01*
X112452335Y-60776726D01*
X112463062Y-60780577D01*
X112469249Y-60785401D01*
X112473129Y-60791309D01*
X112473634Y-60792439D01*
X112479173Y-60812442D01*
X112488315Y-60852608D01*
X112500512Y-60910243D01*
X112515215Y-60982650D01*
X112531875Y-61067137D01*
X112549943Y-61161008D01*
X112568872Y-61261570D01*
X112572111Y-61278922D01*
X112590991Y-61378099D01*
X112609045Y-61469795D01*
X112625714Y-61551377D01*
X112640436Y-61620210D01*
X112652651Y-61673659D01*
X112661797Y-61709091D01*
X112667314Y-61723870D01*
X112670963Y-61726627D01*
X112694563Y-61739226D01*
X112735444Y-61758235D01*
X112790069Y-61782222D01*
X112854901Y-61809757D01*
X112926401Y-61839412D01*
X113001032Y-61869757D01*
X113075256Y-61899361D01*
X113145536Y-61926794D01*
X113208334Y-61950628D01*
X113260112Y-61969432D01*
X113297332Y-61981776D01*
X113316457Y-61986230D01*
X113328005Y-61983470D01*
X113353970Y-61971225D01*
X113393394Y-61948540D01*
X113447402Y-61914704D01*
X113517120Y-61869010D01*
X113603672Y-61810747D01*
X113708183Y-61739206D01*
X113722036Y-61729666D01*
X113818693Y-61663131D01*
X113897979Y-61608698D01*
X113961768Y-61565203D01*
X114011933Y-61531479D01*
X114050349Y-61506358D01*
X114078888Y-61488675D01*
X114099425Y-61477263D01*
X114113834Y-61470957D01*
X114123987Y-61468588D01*
X114131759Y-61468992D01*
X114139024Y-61471001D01*
X114149393Y-61477691D01*
X114175276Y-61499653D01*
X114213134Y-61534526D01*
X114260742Y-61580044D01*
X114315878Y-61633943D01*
X114376317Y-61693959D01*
X114439836Y-61757828D01*
X114504211Y-61823286D01*
X114567217Y-61888068D01*
X114626631Y-61949912D01*
X114680230Y-62006552D01*
X114725789Y-62055724D01*
X114761084Y-62095164D01*
X114783892Y-62122609D01*
X114791989Y-62135794D01*
X114791876Y-62136684D01*
X114783721Y-62153971D01*
X114763722Y-62188095D01*
X114733351Y-62236765D01*
X114694084Y-62297692D01*
X114647392Y-62368584D01*
X114594751Y-62447151D01*
X114537634Y-62531103D01*
X114489888Y-62601156D01*
X114431361Y-62688269D01*
X114380998Y-62764737D01*
X114339904Y-62828828D01*
X114309182Y-62878812D01*
X114289939Y-62912958D01*
X114283279Y-62929536D01*
X114285732Y-62942365D01*
X114296506Y-62975830D01*
X114314525Y-63024464D01*
X114338337Y-63084891D01*
X114366484Y-63153734D01*
X114397512Y-63227616D01*
X114429965Y-63303159D01*
X114462388Y-63376986D01*
X114493327Y-63445719D01*
X114521325Y-63505983D01*
X114544928Y-63554399D01*
X114562680Y-63587590D01*
X114573126Y-63602180D01*
X114588158Y-63607388D01*
X114624194Y-63616454D01*
X114678115Y-63628552D01*
X114747128Y-63643095D01*
X114828437Y-63659495D01*
X114919249Y-63677164D01*
X115016768Y-63695514D01*
X115107752Y-63712501D01*
X115199389Y-63729931D01*
X115281836Y-63745942D01*
X115352275Y-63759974D01*
X115407889Y-63771464D01*
X115445860Y-63779849D01*
X115463368Y-63784569D01*
X115489986Y-63795906D01*
X115489986Y-64268113D01*
X115489986Y-64283856D01*
X115489910Y-64399585D01*
X115489641Y-64494108D01*
X115489086Y-64569611D01*
X115488151Y-64628279D01*
X115486742Y-64672299D01*
X115484763Y-64703856D01*
X115482123Y-64725138D01*
X115478725Y-64738330D01*
X115474476Y-64745619D01*
X115469283Y-64749190D01*
X115453552Y-64753276D01*
X115417210Y-64761167D01*
X115363061Y-64772288D01*
X115293849Y-64786092D01*
X115212321Y-64802033D01*
X115121221Y-64819562D01*
X115023294Y-64838131D01*
X114973124Y-64847615D01*
X114863248Y-64868751D01*
X114774301Y-64886506D01*
X114704562Y-64901273D01*
X114652314Y-64913442D01*
X114615839Y-64923404D01*
X114593418Y-64931550D01*
X114583333Y-64938272D01*
X114574665Y-64954411D01*
X114558659Y-64989705D01*
X114537083Y-65040217D01*
X114511263Y-65102572D01*
X114482527Y-65173402D01*
X114452202Y-65249332D01*
X114421616Y-65326993D01*
X114392094Y-65403013D01*
X114364965Y-65474019D01*
X114341556Y-65536641D01*
X114323194Y-65587507D01*
X114311205Y-65623245D01*
X114306918Y-65640484D01*
X114308123Y-65645517D01*
X114320371Y-65670512D01*
X114345068Y-65712625D01*
X114381269Y-65770371D01*
X114428031Y-65842262D01*
X114484411Y-65926813D01*
X114549465Y-66022537D01*
X114603391Y-66101745D01*
X114654744Y-66178195D01*
X114700136Y-66246818D01*
X114738063Y-66305293D01*
X114767018Y-66351297D01*
X114785495Y-66382507D01*
X114791989Y-66396601D01*
X114791451Y-66398293D01*
X114779341Y-66414772D01*
X114752655Y-66445468D01*
X114713198Y-66488461D01*
X114662775Y-66541836D01*
X114603193Y-66603676D01*
X114536257Y-66672062D01*
X114463773Y-66745078D01*
X114444263Y-66764575D01*
X114372678Y-66835723D01*
X114306538Y-66900864D01*
X114247712Y-66958196D01*
X114198068Y-67005920D01*
X114159474Y-67042238D01*
X114133798Y-67065348D01*
X114122908Y-67073451D01*
X114111073Y-67067276D01*
X114081919Y-67049113D01*
X114037780Y-67020458D01*
X113980921Y-66982812D01*
X113913608Y-66937674D01*
X113838105Y-66886546D01*
X113756680Y-66830927D01*
X113677952Y-66777317D01*
X113601260Y-66725886D01*
X113532265Y-66680419D01*
X113473312Y-66642427D01*
X113426744Y-66613420D01*
X113394908Y-66594909D01*
X113380148Y-66588402D01*
X113374890Y-66589365D01*
X113349440Y-66598988D01*
X113309455Y-66617291D01*
X113259259Y-66642239D01*
X113203177Y-66671793D01*
X113179309Y-66684527D01*
X113125223Y-66711966D01*
X113078811Y-66733595D01*
X113044382Y-66747471D01*
X113026242Y-66751648D01*
X113025579Y-66751488D01*
X113019012Y-66745880D01*
X113009433Y-66731591D01*
X112996256Y-66707295D01*
X112978894Y-66671668D01*
X112956761Y-66623384D01*
X112929272Y-66561118D01*
X112895839Y-66483544D01*
X112855876Y-66389337D01*
X112808798Y-66277173D01*
X112754018Y-66145725D01*
X112690950Y-65993669D01*
X112657857Y-65913618D01*
X112607087Y-65790308D01*
X112559536Y-65674210D01*
X112515938Y-65567153D01*
X112477031Y-65470966D01*
X112443548Y-65387477D01*
X112416225Y-65318515D01*
X112395799Y-65265907D01*
X112383004Y-65231482D01*
X112378575Y-65217069D01*
X112382133Y-65207914D01*
X112404694Y-65183351D01*
X112448054Y-65147540D01*
X112512219Y-65100474D01*
X112532584Y-65085848D01*
X112655166Y-64985450D01*
X112756080Y-64878451D01*
X112836701Y-64762928D01*
X112898405Y-64636956D01*
X112942568Y-64498613D01*
X112953877Y-64435632D01*
X112961144Y-64356053D01*
X112963714Y-64269886D01*
X112961577Y-64184574D01*
X112954725Y-64107560D01*
X112943147Y-64046285D01*
X112943116Y-64046170D01*
X112901804Y-63919319D01*
X112850582Y-63808659D01*
X112785826Y-63707574D01*
X112703913Y-63609448D01*
X112684123Y-63588725D01*
X112573180Y-63491758D01*
X112452003Y-63414562D01*
X112322917Y-63357135D01*
X112188244Y-63319478D01*
X112050308Y-63301592D01*
X111911431Y-63303476D01*
X111773937Y-63325130D01*
X111640150Y-63366554D01*
X111512392Y-63427749D01*
X111392987Y-63508713D01*
X111284257Y-63609448D01*
X111284181Y-63609531D01*
X111202284Y-63707656D01*
X111137540Y-63808746D01*
X111086328Y-63919418D01*
X111045023Y-64046285D01*
X111033869Y-64104378D01*
X111026802Y-64180839D01*
X111024452Y-64265935D01*
X111026808Y-64352225D01*
X111033861Y-64432265D01*
X111045602Y-64498613D01*
X111051169Y-64520253D01*
X111097879Y-64656616D01*
X111162336Y-64780895D01*
X111245916Y-64895016D01*
X111349996Y-65000901D01*
X111475951Y-65100474D01*
X111516014Y-65129375D01*
X111568007Y-65169856D01*
X111599199Y-65199086D01*
X111609595Y-65217069D01*
X111607842Y-65223651D01*
X111598089Y-65250806D01*
X111580430Y-65296828D01*
X111555601Y-65359888D01*
X111524336Y-65438159D01*
X111487371Y-65529811D01*
X111445441Y-65633016D01*
X111399283Y-65745947D01*
X111349630Y-65866774D01*
X111297220Y-65993669D01*
X111288523Y-66014670D01*
X111226566Y-66163970D01*
X111172822Y-66292833D01*
X111126703Y-66402585D01*
X111087623Y-66494552D01*
X111054997Y-66570059D01*
X111028238Y-66630431D01*
X111006759Y-66676993D01*
X110989975Y-66711070D01*
X110977299Y-66733989D01*
X110968146Y-66747073D01*
X110961928Y-66751648D01*
X110956599Y-66751206D01*
X110931122Y-66742735D01*
X110891157Y-66725380D01*
X110841011Y-66701085D01*
X110784993Y-66671793D01*
X110761384Y-66659153D01*
X110707210Y-66631256D01*
X110660709Y-66608807D01*
X110626205Y-66593843D01*
X110608022Y-66588402D01*
X110594185Y-66594414D01*
X110562979Y-66612479D01*
X110516950Y-66641100D01*
X110458441Y-66678765D01*
X110389799Y-66723965D01*
X110313367Y-66775189D01*
X110231490Y-66830927D01*
X110151957Y-66885262D01*
X110076300Y-66936513D01*
X110008785Y-66981811D01*
X109951675Y-67019653D01*
X109907234Y-67048541D01*
X109877727Y-67066974D01*
X109865419Y-67073451D01*
X109864518Y-67073226D01*
X109850041Y-67062470D01*
X109821762Y-67037195D01*
X109781872Y-66999621D01*
X109732566Y-66951964D01*
X109676038Y-66896444D01*
X109614482Y-66835278D01*
X109550091Y-66770685D01*
X109485060Y-66704883D01*
X109421581Y-66640091D01*
X109361850Y-66578526D01*
X109308059Y-66522408D01*
X109262403Y-66473953D01*
X109227076Y-66435381D01*
X109204270Y-66408910D01*
X109196181Y-66396758D01*
X109202262Y-66383378D01*
X109220369Y-66352660D01*
X109249005Y-66307075D01*
X109286662Y-66248946D01*
X109331835Y-66180598D01*
X109383018Y-66104354D01*
X109438705Y-66022537D01*
X109467002Y-65981100D01*
X109528530Y-65889884D01*
X109580989Y-65810465D01*
X109623434Y-65744329D01*
X109654922Y-65692963D01*
X109674509Y-65657852D01*
X109681252Y-65640484D01*
X109677604Y-65625334D01*
X109666179Y-65590941D01*
X109648274Y-65541153D01*
X109625216Y-65479341D01*
X109598334Y-65408877D01*
X109568954Y-65333132D01*
X109538404Y-65255478D01*
X109508009Y-65179287D01*
X109479099Y-65107930D01*
X109452999Y-65044778D01*
X109431038Y-64993203D01*
X109414541Y-64956578D01*
X109404837Y-64938272D01*
X109402175Y-64935730D01*
X109387364Y-64928486D01*
X109359531Y-64919661D01*
X109316955Y-64908863D01*
X109257921Y-64895703D01*
X109180708Y-64879788D01*
X109083599Y-64860728D01*
X108964876Y-64838131D01*
X108868134Y-64819788D01*
X108776932Y-64802243D01*
X108695268Y-64786279D01*
X108625885Y-64772445D01*
X108571531Y-64761287D01*
X108534950Y-64753352D01*
X108518887Y-64749190D01*
X108518197Y-64748878D01*
X108513124Y-64744969D01*
X108508985Y-64737075D01*
X108505685Y-64723010D01*
X108503131Y-64700586D01*
X108501227Y-64667619D01*
X108499881Y-64621923D01*
X108498997Y-64561310D01*
X108498483Y-64483594D01*
X108498243Y-64386591D01*
X108498184Y-64268113D01*
X108498184Y-63795906D01*
X108524802Y-63784569D01*
X108540382Y-63780306D01*
X108577009Y-63772160D01*
X108631477Y-63760869D01*
X108700969Y-63746998D01*
X108782666Y-63731106D01*
X108873750Y-63713758D01*
X108971402Y-63695514D01*
X109062641Y-63678364D01*
X109153983Y-63660632D01*
X109236008Y-63644130D01*
X109305922Y-63629446D01*
X109360929Y-63617167D01*
X109398235Y-63607883D01*
X109415045Y-63602180D01*
X109421795Y-63593651D01*
X109437664Y-63565287D01*
X109459788Y-63520759D01*
X109486712Y-63463447D01*
X109516980Y-63396726D01*
X109549137Y-63323975D01*
X109581728Y-63248570D01*
X109613297Y-63173889D01*
X109642390Y-63103308D01*
X109667551Y-63040205D01*
X109687325Y-62987957D01*
X109700257Y-62949942D01*
X109704891Y-62929536D01*
X109701242Y-62919082D01*
X109685196Y-62889380D01*
X109657381Y-62843386D01*
X109618902Y-62782831D01*
X109570865Y-62709444D01*
X109514375Y-62624958D01*
X109450536Y-62531103D01*
X109442922Y-62519984D01*
X109386303Y-62436602D01*
X109334351Y-62358902D01*
X109288540Y-62289173D01*
X109250343Y-62229708D01*
X109221236Y-62182796D01*
X109202690Y-62150728D01*
X109196181Y-62135794D01*
X109201031Y-62126989D01*
X109220650Y-62102625D01*
X109253269Y-62065744D01*
X109296663Y-62018611D01*
X109348609Y-61963489D01*
X109406882Y-61902642D01*
X109469259Y-61838335D01*
X109533515Y-61772832D01*
X109597428Y-61708397D01*
X109658773Y-61647294D01*
X109715326Y-61591786D01*
X109764864Y-61544140D01*
X109805163Y-61506617D01*
X109833998Y-61481483D01*
X109849147Y-61471001D01*
X109850122Y-61470692D01*
X109857347Y-61468825D01*
X109865321Y-61468713D01*
X109875919Y-61471525D01*
X109891014Y-61478426D01*
X109912479Y-61490582D01*
X109942189Y-61509160D01*
X109982018Y-61535327D01*
X110033838Y-61570249D01*
X110099524Y-61615091D01*
X110180949Y-61671021D01*
X110279987Y-61739206D01*
X110321552Y-61767763D01*
X110422506Y-61836410D01*
X110505412Y-61891577D01*
X110570973Y-61933709D01*
X110619892Y-61963253D01*
X110652873Y-61980652D01*
X110670620Y-61986353D01*
X110675860Y-61985492D01*
X110701880Y-61977641D01*
X110744615Y-61962740D01*
X110800496Y-61942189D01*
X110865957Y-61917388D01*
X110937427Y-61889737D01*
X111011341Y-61860634D01*
X111084130Y-61831480D01*
X111152226Y-61803674D01*
X111212060Y-61778616D01*
X111260067Y-61757705D01*
X111292676Y-61742341D01*
X111294933Y-61741181D01*
X111304876Y-61735444D01*
X111313547Y-61727946D01*
X111321501Y-61716537D01*
X111329297Y-61699065D01*
X111337490Y-61673381D01*
X111346635Y-61637333D01*
X111357291Y-61588771D01*
X111370012Y-61525543D01*
X111385356Y-61445498D01*
X111403878Y-61346487D01*
X111426134Y-61226359D01*
X111441695Y-61143168D01*
X111459103Y-61052297D01*
X111475198Y-60970563D01*
X111489401Y-60900796D01*
X111501137Y-60845824D01*
X111509826Y-60808479D01*
X111514891Y-60791589D01*
X111517087Y-60787842D01*
X111522011Y-60782540D01*
X111530480Y-60778267D01*
X111544730Y-60774912D01*
X111566996Y-60772364D01*
X111599513Y-60770512D01*
X111644516Y-60769246D01*
X111704239Y-60768454D01*
X111780919Y-60768025D01*
X111876789Y-60767849D01*
X111994085Y-60767816D01*
X112062454Y-60767824D01*
G37*
G36*
X115560969Y-69007732D02*
G01*
X115560969Y-70220354D01*
X115467031Y-70220354D01*
X115373093Y-70220354D01*
X115369430Y-69903889D01*
X115369211Y-69885250D01*
X115367985Y-69793485D01*
X115366600Y-69721862D01*
X115364827Y-69667395D01*
X115362435Y-69627096D01*
X115359197Y-69597980D01*
X115354882Y-69577058D01*
X115349261Y-69561343D01*
X115342106Y-69547849D01*
X115329449Y-69529555D01*
X115285599Y-69490961D01*
X115232516Y-69469387D01*
X115175405Y-69464766D01*
X115119468Y-69477029D01*
X115069909Y-69506107D01*
X115031929Y-69551933D01*
X115027346Y-69560284D01*
X115020306Y-69575279D01*
X115014948Y-69592288D01*
X115011039Y-69614402D01*
X115008348Y-69644716D01*
X115006643Y-69686320D01*
X115005693Y-69742308D01*
X115005267Y-69815772D01*
X115005132Y-69909804D01*
X115004937Y-70220354D01*
X114904378Y-70220354D01*
X114803820Y-70220354D01*
X114803888Y-69921635D01*
X114803908Y-69898550D01*
X114804663Y-69783497D01*
X114806879Y-69688816D01*
X114811064Y-69611734D01*
X114817723Y-69549477D01*
X114827364Y-69499272D01*
X114840493Y-69458346D01*
X114857618Y-69423923D01*
X114879245Y-69393232D01*
X114905882Y-69363499D01*
X114925624Y-69344326D01*
X114975348Y-69308032D01*
X115030979Y-69286676D01*
X115100771Y-69276578D01*
X115170799Y-69276759D01*
X115243785Y-69292605D01*
X115306614Y-69326499D01*
X115310524Y-69329350D01*
X115337813Y-69348655D01*
X115356894Y-69361224D01*
X115358458Y-69361653D01*
X115362469Y-69356156D01*
X115365633Y-69338998D01*
X115368034Y-69308180D01*
X115369756Y-69261701D01*
X115370882Y-69197563D01*
X115371496Y-69113765D01*
X115371682Y-69008309D01*
X115371682Y-68646661D01*
X115309572Y-68687654D01*
X115280304Y-68705150D01*
X115201533Y-68736177D01*
X115122194Y-68746711D01*
X115045559Y-68737832D01*
X114974902Y-68710623D01*
X114913494Y-68666163D01*
X114864610Y-68605532D01*
X114831520Y-68529811D01*
X114822895Y-68485243D01*
X114816697Y-68422831D01*
X114812976Y-68348631D01*
X114811731Y-68268530D01*
X114811734Y-68268328D01*
X115010853Y-68268328D01*
X115011664Y-68332638D01*
X115015743Y-68399078D01*
X115024228Y-68448530D01*
X115038189Y-68484707D01*
X115058693Y-68511318D01*
X115086810Y-68532075D01*
X115093190Y-68535372D01*
X115132689Y-68546486D01*
X115182602Y-68551376D01*
X115232666Y-68549571D01*
X115272618Y-68540601D01*
X115275797Y-68539239D01*
X115312158Y-68510254D01*
X115340243Y-68461358D01*
X115359360Y-68394887D01*
X115368817Y-68313179D01*
X115367924Y-68218569D01*
X115364608Y-68179573D01*
X115350795Y-68104560D01*
X115327263Y-68049342D01*
X115292599Y-68012117D01*
X115245389Y-67991084D01*
X115184220Y-67984441D01*
X115172380Y-67984641D01*
X115110710Y-67995002D01*
X115064580Y-68021949D01*
X115031747Y-68066690D01*
X115024458Y-68084083D01*
X115017780Y-68111029D01*
X115013609Y-68147606D01*
X115011461Y-68198483D01*
X115010853Y-68268328D01*
X114811734Y-68268328D01*
X114812963Y-68188415D01*
X114816672Y-68114171D01*
X114822858Y-68051685D01*
X114831520Y-68006844D01*
X114835789Y-67993429D01*
X114871820Y-67921959D01*
X114924717Y-67861845D01*
X114989826Y-67818620D01*
X115058820Y-67796966D01*
X115136422Y-67791632D01*
X115214400Y-67802440D01*
X115286111Y-67828452D01*
X115344916Y-67868732D01*
X115371682Y-67893878D01*
X115371682Y-67844493D01*
X115371682Y-67795109D01*
X115466325Y-67795109D01*
X115560969Y-67795109D01*
X115560969Y-68313179D01*
X115560969Y-69007732D01*
G37*
G36*
X111564990Y-69288153D02*
G01*
X111637714Y-69291663D01*
X111733599Y-69587424D01*
X111757277Y-69660281D01*
X111781705Y-69735052D01*
X111803176Y-69800357D01*
X111820611Y-69852933D01*
X111832934Y-69889517D01*
X111839068Y-69906847D01*
X111839386Y-69907549D01*
X111844573Y-69907240D01*
X111853037Y-69890917D01*
X111865245Y-69857187D01*
X111881661Y-69804654D01*
X111902752Y-69731924D01*
X111928984Y-69637601D01*
X111947319Y-69570685D01*
X111968134Y-69494552D01*
X111986415Y-69427508D01*
X112001228Y-69372983D01*
X112011639Y-69334410D01*
X112016715Y-69315221D01*
X112020758Y-69302419D01*
X112028854Y-69293054D01*
X112045470Y-69288074D01*
X112075651Y-69286099D01*
X112124446Y-69285747D01*
X112142787Y-69285862D01*
X112184713Y-69287117D01*
X112213856Y-69289463D01*
X112224779Y-69292533D01*
X112224702Y-69292948D01*
X112220275Y-69307978D01*
X112209709Y-69342201D01*
X112193932Y-69392697D01*
X112173867Y-69456551D01*
X112150441Y-69530844D01*
X112124579Y-69612659D01*
X112097207Y-69699079D01*
X112069251Y-69787185D01*
X112041635Y-69874061D01*
X112015287Y-69956788D01*
X111991131Y-70032450D01*
X111970092Y-70098128D01*
X111953098Y-70150905D01*
X111941073Y-70187864D01*
X111934942Y-70206088D01*
X111934648Y-70206799D01*
X111922355Y-70214891D01*
X111893069Y-70218460D01*
X111843601Y-70217918D01*
X111757843Y-70214439D01*
X111663479Y-69898817D01*
X111660042Y-69887342D01*
X111635518Y-69806558D01*
X111613029Y-69734338D01*
X111593498Y-69673509D01*
X111577849Y-69626901D01*
X111567005Y-69597342D01*
X111561891Y-69587661D01*
X111561661Y-69587897D01*
X111555935Y-69602095D01*
X111544606Y-69635765D01*
X111528601Y-69685961D01*
X111508845Y-69749736D01*
X111486263Y-69824145D01*
X111461783Y-69906240D01*
X111368899Y-70220354D01*
X111282721Y-70220354D01*
X111196543Y-70220354D01*
X111125670Y-69998533D01*
X111112011Y-69955783D01*
X111082476Y-69863324D01*
X111052340Y-69768966D01*
X111022578Y-69675765D01*
X110994164Y-69586774D01*
X110968075Y-69505048D01*
X110945286Y-69433642D01*
X110926771Y-69375611D01*
X110913506Y-69334009D01*
X110906465Y-69311892D01*
X110905970Y-69310327D01*
X110903110Y-69297943D01*
X110906965Y-69290599D01*
X110921769Y-69287238D01*
X110951754Y-69286801D01*
X111001154Y-69288231D01*
X111104436Y-69291663D01*
X111188624Y-69601419D01*
X111189451Y-69604460D01*
X111211812Y-69686093D01*
X111232361Y-69759967D01*
X111250231Y-69823063D01*
X111264560Y-69872362D01*
X111274482Y-69904846D01*
X111279134Y-69917497D01*
X111279611Y-69917387D01*
X111286029Y-69904086D01*
X111298452Y-69871548D01*
X111315914Y-69822532D01*
X111337448Y-69759800D01*
X111362085Y-69686112D01*
X111388861Y-69604231D01*
X111492266Y-69284644D01*
X111564990Y-69288153D01*
G37*
G36*
X110880385Y-69999777D02*
G01*
X110857752Y-70065322D01*
X110818320Y-70124687D01*
X110762306Y-70174400D01*
X110689930Y-70210989D01*
X110688988Y-70211324D01*
X110631695Y-70224719D01*
X110563029Y-70230858D01*
X110494043Y-70229358D01*
X110435789Y-70219833D01*
X110432988Y-70219016D01*
X110392539Y-70201461D01*
X110355934Y-70177441D01*
X110320075Y-70147268D01*
X110320075Y-70183811D01*
X110320075Y-70220354D01*
X110225431Y-70220354D01*
X110130787Y-70220354D01*
X110131047Y-69856567D01*
X110131059Y-69842063D01*
X110131089Y-69829949D01*
X110320075Y-69829949D01*
X110320075Y-69888331D01*
X110320075Y-69889097D01*
X110325256Y-69951036D01*
X110341423Y-69994843D01*
X110369826Y-70023923D01*
X110373518Y-70026021D01*
X110403742Y-70035849D01*
X110447430Y-70043910D01*
X110496099Y-70049219D01*
X110541260Y-70050792D01*
X110574430Y-70047646D01*
X110592015Y-70043548D01*
X110625010Y-70036220D01*
X110661254Y-70019896D01*
X110688669Y-69985775D01*
X110698273Y-69939380D01*
X110698036Y-69929773D01*
X110692560Y-69893641D01*
X110677767Y-69867108D01*
X110650823Y-69848824D01*
X110608892Y-69837437D01*
X110549140Y-69831596D01*
X110468733Y-69829949D01*
X110320075Y-69829949D01*
X110131089Y-69829949D01*
X110131326Y-69733359D01*
X110132266Y-69645249D01*
X110134395Y-69574994D01*
X110138231Y-69519854D01*
X110144290Y-69477092D01*
X110153089Y-69443968D01*
X110165143Y-69417742D01*
X110180970Y-69395675D01*
X110201086Y-69375030D01*
X110226009Y-69353065D01*
X110231585Y-69348353D01*
X110267800Y-69321637D01*
X110305279Y-69302824D01*
X110349613Y-69290252D01*
X110406394Y-69282258D01*
X110481211Y-69277179D01*
X110506480Y-69276204D01*
X110596663Y-69278408D01*
X110670019Y-69291229D01*
X110730474Y-69315653D01*
X110781952Y-69352664D01*
X110799877Y-69369606D01*
X110820680Y-69391943D01*
X110828785Y-69404737D01*
X110828599Y-69405595D01*
X110817570Y-69418666D01*
X110792883Y-69440899D01*
X110759252Y-69468004D01*
X110734445Y-69486958D01*
X110707946Y-69505595D01*
X110691614Y-69512548D01*
X110680274Y-69509551D01*
X110668750Y-69498338D01*
X110661772Y-69491554D01*
X110623189Y-69469697D01*
X110572207Y-69456460D01*
X110514646Y-69451612D01*
X110456328Y-69454924D01*
X110403073Y-69466165D01*
X110360703Y-69485106D01*
X110335037Y-69511517D01*
X110330424Y-69523646D01*
X110323182Y-69559609D01*
X110320249Y-69601127D01*
X110320075Y-69662152D01*
X110494574Y-69666399D01*
X110513944Y-69666896D01*
X110581404Y-69669312D01*
X110631164Y-69672746D01*
X110668031Y-69677804D01*
X110696811Y-69685095D01*
X110722310Y-69695228D01*
X110733935Y-69700876D01*
X110798567Y-69745240D01*
X110845310Y-69800783D01*
X110874382Y-69864036D01*
X110886001Y-69931524D01*
X110885355Y-69939380D01*
X110880385Y-69999777D01*
G37*
G36*
X114675262Y-69989119D02*
G01*
X114654025Y-70061885D01*
X114612496Y-70125383D01*
X114552024Y-70177432D01*
X114473959Y-70215852D01*
X114441760Y-70223430D01*
X114394965Y-70229248D01*
X114345009Y-70231665D01*
X114262565Y-70225571D01*
X114196262Y-70205414D01*
X114144433Y-70170405D01*
X114117653Y-70145247D01*
X114117653Y-70182800D01*
X114117653Y-70220354D01*
X114017094Y-70220354D01*
X113916535Y-70220354D01*
X113916624Y-69909804D01*
X113916936Y-69840268D01*
X113917101Y-69828115D01*
X114117653Y-69828115D01*
X114117653Y-69894687D01*
X114118747Y-69921521D01*
X114128439Y-69974587D01*
X114146625Y-70014224D01*
X114171445Y-70035558D01*
X114176563Y-70037239D01*
X114210653Y-70043344D01*
X114257966Y-70047355D01*
X114310077Y-70048964D01*
X114358562Y-70047861D01*
X114394997Y-70043740D01*
X114441838Y-70025434D01*
X114475870Y-69993859D01*
X114492822Y-69954156D01*
X114490748Y-69910998D01*
X114467704Y-69869057D01*
X114463498Y-69864199D01*
X114451721Y-69852309D01*
X114438145Y-69844169D01*
X114418397Y-69838923D01*
X114388107Y-69835715D01*
X114342904Y-69833689D01*
X114278417Y-69831990D01*
X114117653Y-69828115D01*
X113917101Y-69828115D01*
X113918101Y-69754556D01*
X113920004Y-69675710D01*
X113922514Y-69607930D01*
X113925498Y-69555412D01*
X113928824Y-69522357D01*
X113938911Y-69475234D01*
X113966915Y-69409365D01*
X114011063Y-69357732D01*
X114074173Y-69316339D01*
X114099674Y-69303959D01*
X114131343Y-69291899D01*
X114165568Y-69284230D01*
X114209384Y-69279512D01*
X114269825Y-69276306D01*
X114323185Y-69275130D01*
X114404889Y-69279344D01*
X114471258Y-69292694D01*
X114526895Y-69316304D01*
X114576401Y-69351300D01*
X114596697Y-69369467D01*
X114618070Y-69391090D01*
X114626363Y-69403229D01*
X114626096Y-69404238D01*
X114614697Y-69417437D01*
X114589844Y-69439952D01*
X114556168Y-69467540D01*
X114485974Y-69522688D01*
X114455441Y-69494391D01*
X114450025Y-69489733D01*
X114405990Y-69466386D01*
X114349772Y-69453350D01*
X114288135Y-69450475D01*
X114227844Y-69457614D01*
X114175662Y-69474618D01*
X114138356Y-69501338D01*
X114131418Y-69511170D01*
X114120906Y-69544032D01*
X114117653Y-69594650D01*
X114117653Y-69664322D01*
X114269302Y-69664322D01*
X114273373Y-69664325D01*
X114366325Y-69666780D01*
X114440095Y-69674419D01*
X114498623Y-69688155D01*
X114545854Y-69708901D01*
X114585727Y-69737569D01*
X114622008Y-69774945D01*
X114653518Y-69828142D01*
X114672545Y-69895178D01*
X114674856Y-69909264D01*
X114675084Y-69954156D01*
X114675262Y-69989119D01*
G37*
G36*
X112134425Y-67789194D02*
G01*
X112185556Y-67799218D01*
X112272141Y-67829380D01*
X112339506Y-67873237D01*
X112387587Y-67930725D01*
X112416319Y-68001778D01*
X112425637Y-68086328D01*
X112425015Y-68100575D01*
X112417260Y-68149029D01*
X112403537Y-68191430D01*
X112394606Y-68209215D01*
X112360756Y-68256441D01*
X112315308Y-68292925D01*
X112255380Y-68320103D01*
X112178089Y-68339408D01*
X112080553Y-68352278D01*
X112050101Y-68355338D01*
X111984532Y-68364539D01*
X111938278Y-68376491D01*
X111908192Y-68392655D01*
X111891130Y-68414488D01*
X111883944Y-68443450D01*
X111884039Y-68470253D01*
X111899967Y-68511316D01*
X111936420Y-68540638D01*
X111993408Y-68558228D01*
X112070940Y-68564089D01*
X112155282Y-68557066D01*
X112230142Y-68533782D01*
X112301891Y-68491682D01*
X112354191Y-68454123D01*
X112419620Y-68510021D01*
X112423340Y-68513215D01*
X112454571Y-68541426D01*
X112476667Y-68563835D01*
X112485049Y-68575840D01*
X112483600Y-68581973D01*
X112466141Y-68603152D01*
X112432451Y-68628826D01*
X112387014Y-68656593D01*
X112334312Y-68684052D01*
X112278830Y-68708802D01*
X112225051Y-68728443D01*
X112177457Y-68740572D01*
X112154552Y-68744118D01*
X112059117Y-68748787D01*
X111967303Y-68738018D01*
X111882792Y-68713172D01*
X111809265Y-68675610D01*
X111750404Y-68626693D01*
X111709891Y-68567780D01*
X111705638Y-68557503D01*
X111694266Y-68508424D01*
X111689995Y-68449800D01*
X111693104Y-68391971D01*
X111703873Y-68345278D01*
X111720835Y-68308080D01*
X111752711Y-68262561D01*
X111795060Y-68228081D01*
X111851095Y-68202874D01*
X111924027Y-68185176D01*
X112017070Y-68173220D01*
X112035307Y-68171463D01*
X112108785Y-68162379D01*
X112162217Y-68151335D01*
X112198581Y-68137257D01*
X112220857Y-68119069D01*
X112232024Y-68095699D01*
X112234311Y-68061566D01*
X112219477Y-68025632D01*
X112187979Y-67998205D01*
X112143107Y-67980066D01*
X112088147Y-67971993D01*
X112026389Y-67974767D01*
X111961122Y-67989165D01*
X111895635Y-68015969D01*
X111823522Y-68053161D01*
X111769796Y-67990273D01*
X111768594Y-67988865D01*
X111742099Y-67956407D01*
X111723283Y-67930787D01*
X111716150Y-67917442D01*
X111717089Y-67914168D01*
X111732495Y-67897968D01*
X111762840Y-67876499D01*
X111802969Y-67853139D01*
X111847729Y-67831261D01*
X111890868Y-67816228D01*
X111953377Y-67801689D01*
X112020830Y-67791454D01*
X112084192Y-67786846D01*
X112134425Y-67789194D01*
G37*
G36*
X113070657Y-69758966D02*
G01*
X113070642Y-69793533D01*
X113070354Y-69867675D01*
X113069427Y-69923394D01*
X113067513Y-69964461D01*
X113064263Y-69994649D01*
X113059326Y-70017729D01*
X113052355Y-70037473D01*
X113042998Y-70057653D01*
X113037297Y-70068516D01*
X112993036Y-70128583D01*
X112934938Y-70179389D01*
X112870896Y-70213774D01*
X112843367Y-70221767D01*
X112780700Y-70228689D01*
X112713996Y-70224357D01*
X112649964Y-70210003D01*
X112595312Y-70186858D01*
X112556750Y-70156151D01*
X112553330Y-70152180D01*
X112535013Y-70138701D01*
X112524134Y-70147592D01*
X112520541Y-70178947D01*
X112520541Y-70220354D01*
X112425897Y-70220354D01*
X112331253Y-70220354D01*
X112331253Y-69747473D01*
X112526456Y-69747473D01*
X112526559Y-69768729D01*
X112529711Y-69849024D01*
X112537983Y-69910091D01*
X112552350Y-69955276D01*
X112573784Y-69987925D01*
X112603260Y-70011383D01*
X112603513Y-70011533D01*
X112662823Y-70033871D01*
X112727157Y-70037225D01*
X112787623Y-70021125D01*
X112805158Y-70011987D01*
X112835525Y-69988338D01*
X112857161Y-69956120D01*
X112871499Y-69911607D01*
X112879975Y-69851074D01*
X112884023Y-69770796D01*
X112884413Y-69750160D01*
X112881744Y-69659103D01*
X112870559Y-69588201D01*
X112849784Y-69535472D01*
X112818347Y-69498937D01*
X112775174Y-69476613D01*
X112719191Y-69466521D01*
X112697805Y-69465720D01*
X112635604Y-69475205D01*
X112586962Y-69503782D01*
X112550929Y-69551933D01*
X112540378Y-69575559D01*
X112533289Y-69601672D01*
X112529049Y-69635485D01*
X112526993Y-69682314D01*
X112526456Y-69747473D01*
X112331253Y-69747473D01*
X112331253Y-69557350D01*
X112331253Y-68894347D01*
X112422939Y-68897802D01*
X112514625Y-68901258D01*
X112517833Y-69134909D01*
X112518013Y-69147051D01*
X112519618Y-69217290D01*
X112521940Y-69278125D01*
X112524775Y-69325991D01*
X112527920Y-69357324D01*
X112531173Y-69368561D01*
X112540208Y-69364814D01*
X112557541Y-69348932D01*
X112562942Y-69343094D01*
X112599127Y-69317634D01*
X112648845Y-69295553D01*
X112703819Y-69279977D01*
X112755777Y-69274033D01*
X112773459Y-69274281D01*
X112847600Y-69283835D01*
X112910759Y-69309275D01*
X112970450Y-69353378D01*
X113000566Y-69382167D01*
X113024354Y-69410596D01*
X113042108Y-69441653D01*
X113054694Y-69478842D01*
X113062976Y-69525664D01*
X113067820Y-69585624D01*
X113070092Y-69662223D01*
X113070606Y-69750160D01*
X113070657Y-69758966D01*
G37*
G36*
X111576005Y-68323642D02*
G01*
X111569341Y-68406230D01*
X111557287Y-68478610D01*
X111539902Y-68534352D01*
X111499624Y-68602177D01*
X111438032Y-68665084D01*
X111362225Y-68712412D01*
X111276033Y-68741160D01*
X111238707Y-68746144D01*
X111166361Y-68745794D01*
X111092830Y-68735400D01*
X111029902Y-68716159D01*
X110987135Y-68692194D01*
X110933739Y-68650159D01*
X110886281Y-68600993D01*
X110852927Y-68552259D01*
X110846855Y-68539641D01*
X110823486Y-68468343D01*
X110809668Y-68378454D01*
X110805124Y-68268328D01*
X111000326Y-68268328D01*
X111000987Y-68322403D01*
X111005137Y-68386265D01*
X111014434Y-68434058D01*
X111030406Y-68470240D01*
X111054581Y-68499268D01*
X111088486Y-68525600D01*
X111119175Y-68540651D01*
X111175326Y-68551726D01*
X111235414Y-68548779D01*
X111290173Y-68531537D01*
X111291942Y-68530642D01*
X111328429Y-68505094D01*
X111354816Y-68469272D01*
X111372246Y-68419992D01*
X111381864Y-68354072D01*
X111384816Y-68268328D01*
X111384382Y-68212765D01*
X111382335Y-68166399D01*
X111377842Y-68132647D01*
X111370072Y-68105630D01*
X111358198Y-68079465D01*
X111350510Y-68065704D01*
X111310513Y-68020063D01*
X111256960Y-67993196D01*
X111188590Y-67984397D01*
X111187236Y-67984401D01*
X111121601Y-67995270D01*
X111067255Y-68026912D01*
X111024627Y-68079081D01*
X111023489Y-68081038D01*
X111013403Y-68101823D01*
X111006699Y-68125841D01*
X111002722Y-68158194D01*
X111000816Y-68203989D01*
X111000326Y-68268328D01*
X110805124Y-68268328D01*
X110805563Y-68228262D01*
X110811516Y-68134762D01*
X110825498Y-68058431D01*
X110848871Y-67995137D01*
X110882993Y-67940746D01*
X110929226Y-67891125D01*
X110936660Y-67884416D01*
X111015722Y-67828941D01*
X111101210Y-67796103D01*
X111192105Y-67786163D01*
X111287388Y-67799382D01*
X111357661Y-67823666D01*
X111436803Y-67870845D01*
X111499658Y-67934269D01*
X111544771Y-68012732D01*
X111547556Y-68019796D01*
X111563054Y-68078923D01*
X111572922Y-68153559D01*
X111577219Y-68237275D01*
X111576783Y-68268328D01*
X111576005Y-68323642D01*
G37*
G36*
X108260978Y-68208867D02*
G01*
X108263404Y-68293177D01*
X108259435Y-68373318D01*
X108248816Y-68440202D01*
X108224528Y-68515150D01*
X108178569Y-68598331D01*
X108116943Y-68663953D01*
X108039993Y-68711673D01*
X107948067Y-68741143D01*
X107942431Y-68742254D01*
X107840288Y-68750070D01*
X107739334Y-68735615D01*
X107643832Y-68699951D01*
X107558046Y-68644136D01*
X107545781Y-68633604D01*
X107524625Y-68612761D01*
X107516256Y-68600157D01*
X107516314Y-68599701D01*
X107525948Y-68586856D01*
X107548881Y-68563994D01*
X107580494Y-68535744D01*
X107644732Y-68480864D01*
X107687550Y-68509921D01*
X107694270Y-68514323D01*
X107734317Y-68536604D01*
X107772446Y-68552865D01*
X107791105Y-68557726D01*
X107842983Y-68562888D01*
X107898870Y-68559942D01*
X107949766Y-68549720D01*
X107986675Y-68533054D01*
X108016134Y-68502854D01*
X108043941Y-68459392D01*
X108064353Y-68412690D01*
X108072287Y-68372295D01*
X108072287Y-68339311D01*
X107781164Y-68339311D01*
X107490041Y-68339311D01*
X107494770Y-68206218D01*
X107495054Y-68198485D01*
X107495769Y-68185515D01*
X107680810Y-68185515D01*
X107876549Y-68185515D01*
X108072287Y-68185515D01*
X108072287Y-68153758D01*
X108068099Y-68125256D01*
X108050261Y-68078764D01*
X108023293Y-68034474D01*
X107992546Y-68002533D01*
X107992153Y-68002250D01*
X107950141Y-67983997D01*
X107889202Y-67974878D01*
X107875291Y-67974131D01*
X107835092Y-67974673D01*
X107805670Y-67982009D01*
X107777165Y-67998189D01*
X107752298Y-68018016D01*
X107711271Y-68072316D01*
X107688595Y-68141150D01*
X107680810Y-68185515D01*
X107495769Y-68185515D01*
X107498615Y-68133919D01*
X107504294Y-68085924D01*
X107513141Y-68048082D01*
X107526206Y-68013973D01*
X107556647Y-67959119D01*
X107615788Y-67890281D01*
X107688645Y-67837865D01*
X107771822Y-67803593D01*
X107861923Y-67789184D01*
X107955552Y-67796362D01*
X107995232Y-67806460D01*
X108076394Y-67843899D01*
X108145030Y-67900461D01*
X108199504Y-67974596D01*
X108238183Y-68064751D01*
X108252416Y-68129473D01*
X108255035Y-68153758D01*
X108260978Y-68208867D01*
G37*
G36*
X116491776Y-68372427D02*
G01*
X116479504Y-68458560D01*
X116457607Y-68529633D01*
X116424932Y-68589378D01*
X116380328Y-68641528D01*
X116353354Y-68665558D01*
X116275272Y-68714627D01*
X116188925Y-68741978D01*
X116113032Y-68748913D01*
X116020910Y-68739059D01*
X115935911Y-68709931D01*
X115861225Y-68663142D01*
X115800042Y-68600302D01*
X115755552Y-68523024D01*
X115749328Y-68505598D01*
X115736533Y-68447352D01*
X115728300Y-68374621D01*
X115726892Y-68343586D01*
X115916921Y-68343586D01*
X115918499Y-68381584D01*
X115922741Y-68409484D01*
X115930289Y-68432723D01*
X115941786Y-68456740D01*
X115971997Y-68499903D01*
X116010342Y-68530680D01*
X116045456Y-68544270D01*
X116104626Y-68552436D01*
X116163310Y-68546134D01*
X116212213Y-68525600D01*
X116236108Y-68508014D01*
X116263317Y-68480365D01*
X116281821Y-68447030D01*
X116293146Y-68403551D01*
X116298821Y-68345469D01*
X116300373Y-68268328D01*
X116299712Y-68214253D01*
X116295563Y-68150390D01*
X116286266Y-68102597D01*
X116270293Y-68066416D01*
X116246118Y-68037388D01*
X116212213Y-68011056D01*
X116181203Y-67995772D01*
X116124616Y-67984650D01*
X116064568Y-67988135D01*
X116010342Y-68006438D01*
X115987752Y-68020020D01*
X115960512Y-68044312D01*
X115941411Y-68076087D01*
X115928968Y-68119364D01*
X115921700Y-68178161D01*
X115918125Y-68256497D01*
X115917365Y-68290054D01*
X115916921Y-68343586D01*
X115726892Y-68343586D01*
X115724628Y-68293691D01*
X115725517Y-68210843D01*
X115730967Y-68132361D01*
X115740979Y-68064530D01*
X115755552Y-68013632D01*
X115761621Y-68000603D01*
X115784362Y-67961142D01*
X115810994Y-67923243D01*
X115831405Y-67899810D01*
X115898239Y-67845637D01*
X115975707Y-67809048D01*
X116059769Y-67790234D01*
X116146382Y-67789385D01*
X116231505Y-67806688D01*
X116311097Y-67842334D01*
X116381116Y-67896513D01*
X116384671Y-67900086D01*
X116427875Y-67952388D01*
X116459339Y-68011369D01*
X116480290Y-68081024D01*
X116491959Y-68165345D01*
X116495575Y-68268328D01*
X116491776Y-68372427D01*
G37*
G36*
X109280407Y-69688456D02*
G01*
X109280924Y-69752842D01*
X109279578Y-69810674D01*
X109272581Y-69890023D01*
X109258333Y-69955947D01*
X109235342Y-70014482D01*
X109202115Y-70071664D01*
X109156134Y-70127652D01*
X109088609Y-70178581D01*
X109003510Y-70215700D01*
X108966235Y-70224477D01*
X108896501Y-70230174D01*
X108820553Y-70226733D01*
X108747620Y-70214761D01*
X108686931Y-70194865D01*
X108675405Y-70189302D01*
X108635441Y-70166630D01*
X108596670Y-70140419D01*
X108563958Y-70114436D01*
X108542175Y-70092447D01*
X108536186Y-70078220D01*
X108536324Y-70077918D01*
X108547357Y-70065672D01*
X108571380Y-70043222D01*
X108603454Y-70015194D01*
X108667318Y-69960932D01*
X108701842Y-69989982D01*
X108742598Y-70015491D01*
X108799837Y-70037149D01*
X108859907Y-70049215D01*
X108912410Y-70048785D01*
X108975083Y-70028181D01*
X109028454Y-69990275D01*
X109066852Y-69939296D01*
X109086216Y-69879204D01*
X109092822Y-69829949D01*
X108800141Y-69829949D01*
X108507461Y-69829949D01*
X108511695Y-69696607D01*
X108512111Y-69683901D01*
X108513001Y-69664322D01*
X108699893Y-69664322D01*
X108896358Y-69664322D01*
X109092822Y-69664322D01*
X109086216Y-69615067D01*
X109078573Y-69580954D01*
X109050078Y-69525952D01*
X109006445Y-69485061D01*
X108951536Y-69460432D01*
X108889210Y-69454216D01*
X108823329Y-69468564D01*
X108811576Y-69473673D01*
X108764179Y-69509046D01*
X108728165Y-69561316D01*
X108706945Y-69625873D01*
X108699893Y-69664322D01*
X108513001Y-69664322D01*
X108514694Y-69627082D01*
X108518876Y-69585615D01*
X108526093Y-69552481D01*
X108537779Y-69520665D01*
X108555370Y-69483150D01*
X108597592Y-69414093D01*
X108660223Y-69349761D01*
X108735750Y-69305120D01*
X108823558Y-69280517D01*
X108923036Y-69276295D01*
X109008023Y-69289289D01*
X109088759Y-69321798D01*
X109156065Y-69373639D01*
X109210291Y-69445089D01*
X109251792Y-69536428D01*
X109258428Y-69556119D01*
X109270247Y-69598177D01*
X109277210Y-69639595D01*
X109278828Y-69664322D01*
X109280407Y-69688456D01*
G37*
G36*
X114680400Y-68197303D02*
G01*
X114683742Y-68297363D01*
X114673639Y-68395944D01*
X114650066Y-68488566D01*
X114612997Y-68570748D01*
X114562408Y-68638011D01*
X114543981Y-68655884D01*
X114500729Y-68689529D01*
X114451326Y-68714531D01*
X114387031Y-68735763D01*
X114383535Y-68736723D01*
X114299764Y-68748909D01*
X114210813Y-68744023D01*
X114123203Y-68723563D01*
X114043455Y-68689025D01*
X113978089Y-68641906D01*
X113926598Y-68593256D01*
X113995259Y-68537622D01*
X114010391Y-68525437D01*
X114040691Y-68502491D01*
X114060207Y-68491986D01*
X114074174Y-68491780D01*
X114087829Y-68499728D01*
X114093746Y-68504018D01*
X114164755Y-68542312D01*
X114240134Y-68561607D01*
X114314842Y-68561210D01*
X114383840Y-68540427D01*
X114384572Y-68540071D01*
X114432979Y-68503634D01*
X114468400Y-68450097D01*
X114488033Y-68383675D01*
X114494740Y-68339311D01*
X114199722Y-68339311D01*
X113904705Y-68339311D01*
X113904705Y-68258670D01*
X113904705Y-68257928D01*
X113911306Y-68151884D01*
X114105822Y-68151884D01*
X114105822Y-68185515D01*
X114300729Y-68185515D01*
X114495636Y-68185515D01*
X114488694Y-68147066D01*
X114475655Y-68098960D01*
X114444962Y-68040742D01*
X114402792Y-67999341D01*
X114372378Y-67984342D01*
X114315363Y-67972888D01*
X114254968Y-67976204D01*
X114200576Y-67994516D01*
X114172116Y-68016247D01*
X114139052Y-68057845D01*
X114115071Y-68106184D01*
X114105822Y-68151884D01*
X113911306Y-68151884D01*
X113911335Y-68151412D01*
X113930480Y-68057585D01*
X113961289Y-67980625D01*
X113968216Y-67968435D01*
X114021432Y-67900254D01*
X114088165Y-67847831D01*
X114164591Y-67811714D01*
X114246885Y-67792452D01*
X114331223Y-67790595D01*
X114413780Y-67806691D01*
X114490732Y-67841288D01*
X114558253Y-67894938D01*
X114589952Y-67933054D01*
X114633480Y-68010669D01*
X114663638Y-68100245D01*
X114678364Y-68185515D01*
X114680400Y-68197303D01*
G37*
G36*
X108742432Y-67797788D02*
G01*
X108828007Y-67826057D01*
X108905802Y-67870248D01*
X108971299Y-67928465D01*
X109019981Y-67998812D01*
X109043456Y-68055022D01*
X109066387Y-68149425D01*
X109075477Y-68251703D01*
X109070729Y-68355124D01*
X109052147Y-68452951D01*
X109019733Y-68538450D01*
X108972261Y-68607651D01*
X108906363Y-68667517D01*
X108827556Y-68713227D01*
X108740708Y-68741244D01*
X108676828Y-68750391D01*
X108608523Y-68748277D01*
X108536513Y-68731512D01*
X108514160Y-68723790D01*
X108447776Y-68693009D01*
X108386533Y-68654166D01*
X108339597Y-68612788D01*
X108325543Y-68595617D01*
X108324506Y-68581811D01*
X108339597Y-68562786D01*
X108346129Y-68555936D01*
X108373680Y-68530213D01*
X108405671Y-68503295D01*
X108449208Y-68468767D01*
X108503725Y-68507194D01*
X108518650Y-68517345D01*
X108552558Y-68535582D01*
X108588655Y-68545280D01*
X108637644Y-68549850D01*
X108703218Y-68547823D01*
X108765569Y-68529895D01*
X108814442Y-68494072D01*
X108852105Y-68439185D01*
X108857223Y-68428813D01*
X108869865Y-68397934D01*
X108877258Y-68365882D01*
X108880689Y-68325174D01*
X108881441Y-68268328D01*
X108880392Y-68213780D01*
X108876441Y-68169368D01*
X108868450Y-68134757D01*
X108855275Y-68102701D01*
X108845832Y-68085047D01*
X108803444Y-68033760D01*
X108747126Y-68001211D01*
X108675789Y-67986698D01*
X108602670Y-67988417D01*
X108539141Y-68007145D01*
X108487731Y-68043992D01*
X108453639Y-68078083D01*
X108384225Y-68014746D01*
X108314812Y-67951409D01*
X108343705Y-67920354D01*
X108352544Y-67911338D01*
X108408462Y-67867144D01*
X108476936Y-67828596D01*
X108548720Y-67801072D01*
X108566007Y-67796597D01*
X108653593Y-67787336D01*
X108742432Y-67797788D01*
G37*
G36*
X113341503Y-67792071D02*
G01*
X113409630Y-67804454D01*
X113469645Y-67827620D01*
X113514579Y-67860475D01*
X113532190Y-67877810D01*
X113550165Y-67887643D01*
X113559163Y-67876162D01*
X113561621Y-67842431D01*
X113561621Y-67795109D01*
X113656265Y-67795109D01*
X113750909Y-67795109D01*
X113750909Y-68268328D01*
X113750909Y-68741546D01*
X113657123Y-68741546D01*
X113563338Y-68741546D01*
X113559522Y-68425081D01*
X113558662Y-68356009D01*
X113557454Y-68275947D01*
X113556023Y-68214385D01*
X113554106Y-68168296D01*
X113551436Y-68134653D01*
X113547750Y-68110426D01*
X113542783Y-68092587D01*
X113536270Y-68078110D01*
X113527945Y-68063966D01*
X113518642Y-68050070D01*
X113480644Y-68011988D01*
X113432007Y-67990895D01*
X113367914Y-67984397D01*
X113326569Y-67986588D01*
X113294994Y-67995806D01*
X113266501Y-68015249D01*
X113261199Y-68019726D01*
X113243518Y-68035621D01*
X113229637Y-68051713D01*
X113219032Y-68070935D01*
X113211180Y-68096219D01*
X113205558Y-68130497D01*
X113201640Y-68176702D01*
X113198903Y-68237768D01*
X113196823Y-68316626D01*
X113194877Y-68416209D01*
X113188962Y-68735631D01*
X113090566Y-68739080D01*
X112992170Y-68742529D01*
X112995922Y-68390081D01*
X112996070Y-68376297D01*
X112997200Y-68278138D01*
X112998396Y-68200305D01*
X112999885Y-68139835D01*
X113001894Y-68093763D01*
X113004652Y-68059125D01*
X113008384Y-68032956D01*
X113013320Y-68012292D01*
X113019685Y-67994169D01*
X113027707Y-67975623D01*
X113034596Y-67961532D01*
X113077065Y-67899597D01*
X113132379Y-67846617D01*
X113193226Y-67809912D01*
X113208771Y-67804043D01*
X113272227Y-67791569D01*
X113341503Y-67792071D01*
G37*
G36*
X110547811Y-67797589D02*
G01*
X110645412Y-67801025D01*
X110645351Y-68150023D01*
X110645349Y-68162186D01*
X110645252Y-68260052D01*
X110644884Y-68337545D01*
X110644047Y-68397623D01*
X110642543Y-68443248D01*
X110640174Y-68477379D01*
X110636743Y-68502977D01*
X110632051Y-68523002D01*
X110625903Y-68540414D01*
X110618099Y-68558174D01*
X110601975Y-68589357D01*
X110548897Y-68658516D01*
X110480324Y-68709876D01*
X110396973Y-68742838D01*
X110355659Y-68748397D01*
X110290174Y-68743895D01*
X110221774Y-68727501D01*
X110158959Y-68701437D01*
X110110231Y-68667923D01*
X110083466Y-68642778D01*
X110083466Y-68692162D01*
X110083466Y-68741546D01*
X109988822Y-68741546D01*
X109894178Y-68741546D01*
X109894178Y-68268328D01*
X109894178Y-67795109D01*
X109988116Y-67795109D01*
X110082054Y-67795109D01*
X110085718Y-68111574D01*
X110085952Y-68131412D01*
X110087423Y-68230997D01*
X110089541Y-68310214D01*
X110092870Y-68371866D01*
X110097973Y-68418754D01*
X110105413Y-68453678D01*
X110115754Y-68479440D01*
X110129558Y-68498840D01*
X110147389Y-68514681D01*
X110169811Y-68529763D01*
X110190851Y-68539957D01*
X110241097Y-68550713D01*
X110296302Y-68549976D01*
X110347640Y-68538299D01*
X110386285Y-68516231D01*
X110401948Y-68500951D01*
X110416970Y-68482516D01*
X110428515Y-68461001D01*
X110437037Y-68433466D01*
X110442991Y-68396972D01*
X110446831Y-68348579D01*
X110449011Y-68285346D01*
X110449986Y-68204334D01*
X110450210Y-68102603D01*
X110450210Y-67794152D01*
X110547811Y-67797589D01*
G37*
G36*
X113336396Y-69277180D02*
G01*
X113412348Y-69299784D01*
X113478898Y-69341806D01*
X113526130Y-69382235D01*
X113526130Y-69333991D01*
X113526130Y-69285747D01*
X113620773Y-69285747D01*
X113715417Y-69285747D01*
X113715417Y-69753051D01*
X113715417Y-70220354D01*
X113620773Y-70220354D01*
X113526130Y-70220354D01*
X113526130Y-69915269D01*
X113526119Y-69874082D01*
X113525930Y-69789706D01*
X113525318Y-69724507D01*
X113524046Y-69675309D01*
X113521878Y-69638940D01*
X113518577Y-69612226D01*
X113513907Y-69591993D01*
X113507631Y-69575066D01*
X113499511Y-69558273D01*
X113472786Y-69519876D01*
X113426035Y-69483657D01*
X113370970Y-69464942D01*
X113312988Y-69465333D01*
X113257486Y-69486432D01*
X113219537Y-69509571D01*
X113153970Y-69430578D01*
X113141691Y-69415612D01*
X113114433Y-69380950D01*
X113095497Y-69354752D01*
X113088403Y-69341783D01*
X113094500Y-69334722D01*
X113117049Y-69320199D01*
X113150513Y-69303065D01*
X113175934Y-69292545D01*
X113255953Y-69274574D01*
X113336396Y-69277180D01*
G37*
G36*
X109369452Y-67810288D02*
G01*
X109438291Y-67848644D01*
X109490585Y-67888561D01*
X109494222Y-67844793D01*
X109497858Y-67801025D01*
X109595459Y-67797589D01*
X109693060Y-67794152D01*
X109693060Y-68268328D01*
X109693060Y-68742503D01*
X109595459Y-68739067D01*
X109497858Y-68735631D01*
X109491943Y-68410293D01*
X109491022Y-68360231D01*
X109489097Y-68269282D01*
X109486772Y-68197840D01*
X109483493Y-68143077D01*
X109478706Y-68102166D01*
X109471857Y-68072280D01*
X109462389Y-68050591D01*
X109449750Y-68034271D01*
X109433385Y-68020495D01*
X109412738Y-68006433D01*
X109381333Y-67992741D01*
X109330029Y-67985074D01*
X109275737Y-67988698D01*
X109228547Y-68003759D01*
X109191105Y-68023121D01*
X109145664Y-67971225D01*
X109127168Y-67949732D01*
X109098232Y-67914817D01*
X109077138Y-67887811D01*
X109054051Y-67856293D01*
X109093458Y-67831938D01*
X109135050Y-67810930D01*
X109212012Y-67791149D01*
X109292086Y-67791028D01*
X109369452Y-67810288D01*
G37*
G36*
X109534566Y-69276159D02*
G01*
X109615490Y-69297674D01*
X109689466Y-69339953D01*
X109728552Y-69369765D01*
X109728552Y-69327756D01*
X109728552Y-69285747D01*
X109823195Y-69285747D01*
X109917839Y-69285747D01*
X109917839Y-69753051D01*
X109917839Y-70220354D01*
X109823195Y-70220354D01*
X109728552Y-70220354D01*
X109728533Y-69909804D01*
X109728472Y-69847706D01*
X109728054Y-69765028D01*
X109727086Y-69701147D01*
X109725394Y-69653062D01*
X109722799Y-69617775D01*
X109719125Y-69592283D01*
X109714194Y-69573588D01*
X109707830Y-69558689D01*
X109689081Y-69529485D01*
X109644166Y-69489749D01*
X109589302Y-69467912D01*
X109529649Y-69465589D01*
X109470366Y-69484394D01*
X109424044Y-69508539D01*
X109355737Y-69425509D01*
X109354262Y-69423714D01*
X109322150Y-69383207D01*
X109304284Y-69356500D01*
X109298820Y-69340231D01*
X109303916Y-69331041D01*
X109369945Y-69295840D01*
X109451212Y-69275513D01*
X109534566Y-69276159D01*
G37*
G36*
X102548807Y-62688005D02*
G01*
X102727396Y-62942465D01*
X102883578Y-63209377D01*
X103017108Y-63488305D01*
X103127741Y-63778810D01*
X103215230Y-64080456D01*
X103255575Y-64259299D01*
X103286604Y-64436555D01*
X103307558Y-64613540D01*
X103319413Y-64798579D01*
X103323148Y-65000000D01*
X103322734Y-65018504D01*
X103318411Y-65211502D01*
X103297763Y-65470980D01*
X103259771Y-65721503D01*
X103203392Y-65969593D01*
X103127581Y-66221772D01*
X103073891Y-66371403D01*
X102952846Y-66652504D01*
X102810173Y-66921594D01*
X102647073Y-67177556D01*
X102464747Y-67419271D01*
X102264396Y-67645623D01*
X102047221Y-67855494D01*
X101814423Y-68047765D01*
X101567203Y-68221320D01*
X101306762Y-68375040D01*
X101034302Y-68507807D01*
X100751023Y-68618504D01*
X100458126Y-68706014D01*
X100295632Y-68743558D01*
X99991098Y-68794903D01*
X99673620Y-68824617D01*
X99663225Y-68825145D01*
X99601167Y-68826460D01*
X99521586Y-68826050D01*
X99431171Y-68824133D01*
X99336606Y-68820926D01*
X99244579Y-68816648D01*
X99161777Y-68811517D01*
X99094886Y-68805750D01*
X99088197Y-68805035D01*
X98788211Y-68760347D01*
X98491916Y-68691847D01*
X98202065Y-68600521D01*
X97921411Y-68487351D01*
X97652708Y-68353322D01*
X97398709Y-68199418D01*
X97178163Y-68041632D01*
X96937887Y-67841476D01*
X96716075Y-67624699D01*
X96520845Y-67400873D01*
X97555794Y-67400873D01*
X97643719Y-67465826D01*
X97733090Y-67529649D01*
X97976690Y-67682609D01*
X98229565Y-67811846D01*
X98491031Y-67917073D01*
X98760408Y-67998002D01*
X99037012Y-68054344D01*
X99076197Y-68059546D01*
X99156764Y-68066963D01*
X99253227Y-68073002D01*
X99359656Y-68077528D01*
X99470120Y-68080404D01*
X99578690Y-68081493D01*
X99679434Y-68080660D01*
X99766424Y-68077766D01*
X99833728Y-68072677D01*
X99913218Y-68062696D01*
X100185992Y-68012199D01*
X100451251Y-67938023D01*
X100707567Y-67841166D01*
X100953516Y-67722628D01*
X101187671Y-67583407D01*
X101408607Y-67424503D01*
X101614897Y-67246912D01*
X101805116Y-67051635D01*
X101977839Y-66839670D01*
X102131638Y-66612016D01*
X102265089Y-66369671D01*
X102322007Y-66249021D01*
X102396818Y-66068084D01*
X102458075Y-65886484D01*
X102508416Y-65696076D01*
X102550480Y-65488717D01*
X102551305Y-65483995D01*
X102563901Y-65389735D01*
X102573177Y-65276570D01*
X102579094Y-65150744D01*
X102581607Y-65018504D01*
X102580677Y-64886097D01*
X102576259Y-64759769D01*
X102568314Y-64645765D01*
X102556797Y-64550332D01*
X102541722Y-64462663D01*
X102477049Y-64182965D01*
X102388813Y-63913349D01*
X102277193Y-63654251D01*
X102142372Y-63406110D01*
X101984531Y-63169363D01*
X101901151Y-63055638D01*
X101639280Y-63317262D01*
X101377409Y-63578886D01*
X101679768Y-63582334D01*
X101982126Y-63585782D01*
X101982126Y-64693639D01*
X101982126Y-64935929D01*
X101982126Y-66286076D01*
X101560936Y-66286083D01*
X101139747Y-66286090D01*
X101143312Y-65882413D01*
X101146877Y-65478736D01*
X100783210Y-65472021D01*
X100750833Y-65471401D01*
X100631882Y-65468541D01*
X100533806Y-65464860D01*
X100452702Y-65459904D01*
X100384669Y-65453220D01*
X100325806Y-65444352D01*
X100272210Y-65432849D01*
X100219982Y-65418254D01*
X100165219Y-65400115D01*
X100131505Y-65387587D01*
X99992301Y-65319989D01*
X99864520Y-65232035D01*
X99787001Y-65169311D01*
X99631315Y-65325151D01*
X99540614Y-65415941D01*
X99294228Y-65662571D01*
X99294228Y-65974323D01*
X99294228Y-66286076D01*
X98982299Y-66286076D01*
X98670370Y-66286076D01*
X98113082Y-66843475D01*
X97555794Y-67400873D01*
X96520845Y-67400873D01*
X96513495Y-67392446D01*
X96330918Y-67145859D01*
X96169110Y-66886084D01*
X96028842Y-66614264D01*
X95910881Y-66331543D01*
X95815995Y-66039066D01*
X95744955Y-65737976D01*
X95700625Y-65445865D01*
X95678424Y-65141595D01*
X95678896Y-65000000D01*
X96420224Y-65000000D01*
X96420991Y-65120117D01*
X96424484Y-65239886D01*
X96431499Y-65346175D01*
X96442795Y-65445488D01*
X96459136Y-65544327D01*
X96481283Y-65649197D01*
X96509997Y-65766600D01*
X96551849Y-65914112D01*
X96646637Y-66175640D01*
X96765410Y-66429050D01*
X96907514Y-66673021D01*
X97072300Y-66906233D01*
X97093790Y-66933308D01*
X97125765Y-66970860D01*
X97150583Y-66996625D01*
X97164164Y-67006165D01*
X97172987Y-67000031D01*
X97197843Y-66978053D01*
X97235976Y-66942420D01*
X97284944Y-66895560D01*
X97342306Y-66839902D01*
X97405621Y-66777873D01*
X97472446Y-66711902D01*
X97540341Y-66644417D01*
X97606864Y-66577845D01*
X97669573Y-66514615D01*
X97726028Y-66457154D01*
X97773787Y-66407892D01*
X97810408Y-66369254D01*
X97833451Y-66343671D01*
X97840472Y-66333569D01*
X97834512Y-66330840D01*
X97809118Y-66322906D01*
X97771979Y-66313141D01*
X97716988Y-66296965D01*
X97602169Y-66244104D01*
X97496680Y-66168472D01*
X97401599Y-66071275D01*
X97318004Y-65953715D01*
X97246973Y-65816999D01*
X97189583Y-65662329D01*
X97186216Y-65651326D01*
X97174809Y-65612026D01*
X97166455Y-65576891D01*
X97160676Y-65540941D01*
X97156991Y-65499195D01*
X97154923Y-65446672D01*
X97153992Y-65378389D01*
X97153779Y-65308659D01*
X97905265Y-65308659D01*
X97905777Y-65348112D01*
X97915564Y-65470298D01*
X97938156Y-65571369D01*
X97974034Y-65652517D01*
X98023681Y-65714934D01*
X98087579Y-65759812D01*
X98128781Y-65775405D01*
X98191758Y-65788113D01*
X98256395Y-65792141D01*
X98310379Y-65786038D01*
X98372720Y-65763431D01*
X98437264Y-65720216D01*
X98487330Y-65659235D01*
X98523681Y-65579169D01*
X98547077Y-65478699D01*
X98558280Y-65356507D01*
X98559246Y-65325151D01*
X98555397Y-65191432D01*
X98537614Y-65079111D01*
X98505713Y-64987887D01*
X98459508Y-64917459D01*
X98398813Y-64867526D01*
X98323444Y-64837787D01*
X98233215Y-64827941D01*
X98152984Y-64835571D01*
X98076197Y-64862814D01*
X98013961Y-64910185D01*
X97966013Y-64978070D01*
X97932089Y-65066854D01*
X97911928Y-65176922D01*
X97905265Y-65308659D01*
X97153779Y-65308659D01*
X97153720Y-65289367D01*
X97153759Y-65231277D01*
X97154450Y-65152691D01*
X97156272Y-65091716D01*
X97159627Y-65043297D01*
X97164918Y-65002381D01*
X97172548Y-64963912D01*
X97182919Y-64922836D01*
X97218624Y-64810883D01*
X97281842Y-64672681D01*
X97360827Y-64554582D01*
X97455448Y-64456739D01*
X97565578Y-64379303D01*
X97691086Y-64322429D01*
X97708307Y-64316809D01*
X97792936Y-64297198D01*
X97889225Y-64284944D01*
X97988264Y-64280528D01*
X98081140Y-64284432D01*
X98158940Y-64297138D01*
X98272420Y-64336613D01*
X98378085Y-64394535D01*
X98466776Y-64466669D01*
X98535443Y-64535335D01*
X98535443Y-64060326D01*
X98535443Y-63585317D01*
X98914835Y-63585317D01*
X99294228Y-63585317D01*
X99294228Y-64228355D01*
X99294236Y-64256149D01*
X99294502Y-64380455D01*
X99295109Y-64496075D01*
X99296020Y-64600573D01*
X99297200Y-64691517D01*
X99298612Y-64766474D01*
X99300219Y-64823010D01*
X99301985Y-64858691D01*
X99303873Y-64871084D01*
X99305945Y-64870135D01*
X99323087Y-64856286D01*
X99353610Y-64828498D01*
X99393949Y-64790077D01*
X99440542Y-64744327D01*
X99567565Y-64617880D01*
X99567683Y-64614313D01*
X100377246Y-64614313D01*
X100379792Y-64631754D01*
X100387755Y-64660833D01*
X100422151Y-64718755D01*
X100478058Y-64765320D01*
X100553890Y-64799418D01*
X100648060Y-64819935D01*
X100692108Y-64824561D01*
X100757131Y-64828887D01*
X100828835Y-64831618D01*
X100902597Y-64832787D01*
X100973792Y-64832427D01*
X101037796Y-64830572D01*
X101089987Y-64827256D01*
X101125740Y-64822511D01*
X101140432Y-64816372D01*
X101140740Y-64815242D01*
X101142422Y-64794188D01*
X101143556Y-64752258D01*
X101144099Y-64693639D01*
X101144009Y-64622517D01*
X101143243Y-64543081D01*
X101139747Y-64286228D01*
X100908253Y-64282761D01*
X100676759Y-64279293D01*
X100523963Y-64432539D01*
X100470135Y-64486720D01*
X100429410Y-64528767D01*
X100402179Y-64559207D01*
X100386020Y-64581382D01*
X100378516Y-64598637D01*
X100377246Y-64614313D01*
X99567683Y-64614313D01*
X99571562Y-64497067D01*
X99573721Y-64455849D01*
X99596651Y-64301686D01*
X99641657Y-64158231D01*
X99707336Y-64027185D01*
X99792288Y-63910247D01*
X99895108Y-63809119D01*
X100014395Y-63725501D01*
X100148748Y-63661093D01*
X100296762Y-63617596D01*
X100298232Y-63617289D01*
X100357447Y-63606849D01*
X100427133Y-63597276D01*
X100492516Y-63590607D01*
X100599595Y-63582271D01*
X101052936Y-63130619D01*
X101069441Y-63114166D01*
X101157626Y-63025922D01*
X101239695Y-62943249D01*
X101313907Y-62867935D01*
X101378524Y-62801767D01*
X101431809Y-62746535D01*
X101472022Y-62704026D01*
X101497424Y-62676029D01*
X101506278Y-62664331D01*
X101502537Y-62657479D01*
X101482437Y-62636431D01*
X101448854Y-62606675D01*
X101406232Y-62572300D01*
X101263871Y-62468130D01*
X101021646Y-62316144D01*
X100768544Y-62187413D01*
X100505134Y-62082182D01*
X100231986Y-62000697D01*
X99949668Y-61943203D01*
X99944786Y-61942442D01*
X99848114Y-61931132D01*
X99733231Y-61923391D01*
X99606383Y-61919175D01*
X99473816Y-61918444D01*
X99341776Y-61921155D01*
X99216510Y-61927266D01*
X99104264Y-61936735D01*
X99011283Y-61949520D01*
X98750861Y-62005472D01*
X98479448Y-62086790D01*
X98222143Y-62189353D01*
X97978220Y-62313534D01*
X97746957Y-62459705D01*
X97527627Y-62628238D01*
X97319507Y-62819505D01*
X97147679Y-63005092D01*
X96974903Y-63226383D01*
X96824629Y-63460065D01*
X96696975Y-63705932D01*
X96592058Y-63963779D01*
X96509997Y-64233401D01*
X96486203Y-64329862D01*
X96462995Y-64436686D01*
X96445681Y-64536842D01*
X96433503Y-64636791D01*
X96425705Y-64742993D01*
X96421531Y-64861910D01*
X96420224Y-65000000D01*
X95678896Y-65000000D01*
X95679444Y-64835285D01*
X95703664Y-64531340D01*
X95751069Y-64234167D01*
X95758413Y-64198618D01*
X95834391Y-63899172D01*
X95933818Y-63609293D01*
X96057091Y-63328063D01*
X96204606Y-63054565D01*
X96376761Y-62787880D01*
X96466735Y-62665591D01*
X96578154Y-62529348D01*
X96703318Y-62391513D01*
X96846737Y-62246893D01*
X97075448Y-62041450D01*
X97321864Y-61853705D01*
X97581228Y-61688061D01*
X97853083Y-61544736D01*
X98136975Y-61423945D01*
X98432446Y-61325906D01*
X98739041Y-61250833D01*
X99056303Y-61198944D01*
X99077070Y-61196499D01*
X99186201Y-61187141D01*
X99311718Y-61180989D01*
X99446636Y-61178046D01*
X99583972Y-61178317D01*
X99716742Y-61181804D01*
X99837962Y-61188513D01*
X99940648Y-61198446D01*
X100028844Y-61210514D01*
X100346066Y-61269327D01*
X100650940Y-61350701D01*
X100943500Y-61454652D01*
X101223782Y-61581199D01*
X101491820Y-61730358D01*
X101747651Y-61902147D01*
X101991309Y-62096582D01*
X102222829Y-62313681D01*
X102348058Y-62446435D01*
X102529133Y-62664331D01*
X102548807Y-62688005D01*
G37*
%TD*%
G36*
X78943039Y-61019685D02*
G01*
X78988794Y-61072489D01*
X79000000Y-61124000D01*
X79000000Y-68876000D01*
X78980315Y-68943039D01*
X78927511Y-68988794D01*
X78876000Y-69000000D01*
X71124000Y-69000000D01*
X71056961Y-68980315D01*
X71011206Y-68927511D01*
X71000000Y-68876000D01*
X71000000Y-61124000D01*
X71019685Y-61056961D01*
X71072489Y-61011206D01*
X71124000Y-61000000D01*
X78876000Y-61000000D01*
X78943039Y-61019685D01*
G37*
M02*
