M48
; DRILL file {KiCad 8.0.8} date 2025-02-10T12:15:57+0100
; FORMAT={-:-/ absolute / metric / decimal}
; #@! TF.CreationDate,2025-02-10T12:15:57+01:00
; #@! TF.GenerationSoftware,Kicad,Pcbnew,8.0.8
; #@! TF.FileFunction,Plated,1,2,PTH
FMAT,2
METRIC
; #@! TA.AperFunction,Plated,PTH,ViaDrill
T1C0.300
; #@! TA.AperFunction,Plated,PTH,ComponentDrill
T2C0.800
; #@! TA.AperFunction,Plated,PTH,ComponentDrill
T3C1.000
; #@! TA.AperFunction,Plated,PTH,ComponentDrill
T4C1.300
%
G90
G05
T1
X58.8Y-65.1
X66.75Y-66.75
X68.0Y-66.75
X75.25Y-132.5
X79.5Y-89.0
X79.5Y-98.0
X80.4Y-101.3
X87.125Y-84.875
X87.75Y-85.75
X92.25Y-82.5
X94.25Y-86.0
X97.0Y-114.25
X97.0Y-119.25
X98.75Y-114.25
X98.75Y-119.25
X100.5Y-114.25
X100.5Y-118.25
X101.25Y-70.25
X102.25Y-114.25
X102.25Y-117.25
X109.4Y-117.4
X110.7Y-117.4
X112.0Y-98.0
X113.1Y-134.2
X113.1Y-135.0
X113.1Y-135.8
X113.9Y-134.2
X113.9Y-135.0
X113.9Y-135.8
X114.0Y-71.25
X114.7Y-134.2
X114.7Y-135.0
X114.7Y-135.8
X116.75Y-70.75
X117.75Y-84.5
X119.59Y-70.25
X120.5Y-69.25
X122.0Y-69.75
X129.0Y-76.75
X134.75Y-77.25
X139.25Y-84.125
X139.25Y-84.875
X139.4Y-86.4
X140.0Y-84.125
X140.0Y-84.875
X145.5Y-77.0
T2
X53.89Y-90.175
X53.89Y-97.795
X55.25Y-58.225
X55.25Y-60.765
X56.43Y-90.175
X56.43Y-97.795
X58.97Y-90.175
X58.97Y-97.795
X61.51Y-90.175
X61.51Y-97.795
X64.05Y-90.175
X64.05Y-97.795
X66.59Y-90.175
X66.59Y-97.795
X69.13Y-90.175
X69.13Y-97.795
X71.67Y-90.175
X71.67Y-97.795
X74.21Y-90.175
X74.21Y-97.795
X76.75Y-90.175
X76.75Y-97.795
X86.535Y-90.175
X86.535Y-97.795
X89.075Y-90.175
X89.075Y-97.795
X91.615Y-90.175
X91.615Y-97.795
X94.155Y-90.175
X94.155Y-97.795
X96.695Y-90.175
X96.695Y-97.795
X99.235Y-90.175
X99.235Y-97.795
X101.775Y-90.175
X101.775Y-97.795
X104.315Y-90.175
X104.315Y-97.795
X106.855Y-90.175
X106.855Y-97.795
X109.395Y-90.175
X109.395Y-97.795
X119.535Y-90.175
X119.535Y-97.795
X122.075Y-90.175
X122.075Y-97.795
X124.615Y-90.175
X124.615Y-97.795
X127.155Y-90.175
X127.155Y-97.795
X129.695Y-90.175
X129.695Y-97.795
X132.235Y-90.175
X132.235Y-97.795
X134.775Y-90.175
X134.775Y-97.795
X137.315Y-90.175
X137.315Y-97.795
X139.855Y-90.175
X139.855Y-97.795
X142.395Y-90.175
X142.395Y-97.795
T3
X53.962Y-76.25
X53.962Y-78.79
X53.962Y-81.33
X56.502Y-76.25
X56.502Y-78.79
X56.502Y-81.33
X60.75Y-128.5
X60.75Y-133.5
X73.87Y-78.0
X73.87Y-80.54
X76.11Y-111.247
X76.11Y-113.787
X76.41Y-78.0
X76.41Y-80.54
X78.65Y-111.247
X78.65Y-113.787
X78.95Y-78.0
X78.95Y-80.54
X81.19Y-111.247
X81.19Y-113.787
X81.49Y-78.0
X81.49Y-80.54
X81.5Y-120.475
X81.5Y-123.015
X81.5Y-125.555
X83.73Y-111.247
X83.73Y-113.787
X84.03Y-78.0
X84.03Y-80.54
X86.27Y-111.247
X86.27Y-113.787
X86.57Y-78.0
X86.57Y-80.54
X86.75Y-120.475
X86.75Y-123.015
X86.75Y-125.555
X88.81Y-111.247
X88.81Y-113.787
X89.11Y-78.0
X89.11Y-80.54
X91.35Y-111.247
X91.35Y-113.787
X91.65Y-78.0
X91.65Y-80.54
X93.89Y-111.247
X93.89Y-113.787
X94.19Y-78.0
X94.19Y-80.54
X96.73Y-78.0
X96.73Y-80.54
X99.27Y-78.0
X99.27Y-80.54
X101.81Y-78.0
X101.81Y-80.54
X104.35Y-78.0
X104.35Y-80.54
X106.11Y-111.247
X106.11Y-113.787
X106.89Y-78.0
X106.89Y-80.54
X108.65Y-111.247
X108.65Y-113.787
X109.43Y-78.0
X109.43Y-80.54
X111.19Y-111.247
X111.19Y-113.787
X111.97Y-78.0
X111.97Y-80.54
X112.0Y-120.475
X112.0Y-123.015
X112.0Y-125.555
X113.73Y-111.247
X113.73Y-113.787
X114.51Y-78.0
X114.51Y-80.54
X116.27Y-111.247
X116.27Y-113.787
X117.05Y-78.0
X117.05Y-80.54
X117.25Y-120.475
X117.25Y-123.015
X117.25Y-125.555
X118.81Y-111.247
X118.81Y-113.787
X119.59Y-78.0
X119.59Y-80.54
X121.35Y-111.247
X121.35Y-113.787
X122.13Y-78.0
X122.13Y-80.54
X123.89Y-111.247
X123.89Y-113.787
X137.368Y-62.0
X137.368Y-73.0
X139.25Y-128.632
X139.25Y-133.632
X142.368Y-62.0
X142.368Y-73.0
T4
X54.695Y-107.5
X54.695Y-112.5
X54.695Y-117.5
X54.695Y-122.5
X92.0Y-138.305
X97.0Y-138.305
X102.0Y-138.305
X107.0Y-138.305
X145.305Y-107.5
X145.305Y-112.5
X145.305Y-117.5
X145.305Y-122.5
T3
G00X125.25Y-129.25
M15
G01X127.25Y-129.25
M16
G05
G00X125.25Y-135.25
M15
G01X127.25Y-135.25
M16
G05
G00X130.95Y-133.25
M15
G01X130.95Y-131.25
M16
G05
M30
