%TF.GenerationSoftware,KiCad,Pcbnew,8.0.8*%
%TF.CreationDate,2025-02-10T12:16:24+01:00*%
%TF.ProjectId,HUB75Adapter,48554237-3541-4646-9170-7465722e6b69,V1.0*%
%TF.SameCoordinates,Original*%
%TF.FileFunction,Copper,L1,Top*%
%TF.FilePolarity,Positive*%
%FSLAX46Y46*%
G04 Gerber Fmt 4.6, Leading zero omitted, Abs format (unit mm)*
G04 Created by KiCad (PCBNEW 8.0.8) date 2025-02-10 12:16:24*
%MOMM*%
%LPD*%
G01*
G04 APERTURE LIST*
G04 Aperture macros list*
%AMRoundRect*
0 Rectangle with rounded corners*
0 $1 Rounding radius*
0 $2 $3 $4 $5 $6 $7 $8 $9 X,Y pos of 4 corners*
0 Add a 4 corners polygon primitive as box body*
4,1,4,$2,$3,$4,$5,$6,$7,$8,$9,$2,$3,0*
0 Add four circle primitives for the rounded corners*
1,1,$1+$1,$2,$3*
1,1,$1+$1,$4,$5*
1,1,$1+$1,$6,$7*
1,1,$1+$1,$8,$9*
0 Add four rect primitives between the rounded corners*
20,1,$1+$1,$2,$3,$4,$5,0*
20,1,$1+$1,$4,$5,$6,$7,0*
20,1,$1+$1,$6,$7,$8,$9,0*
20,1,$1+$1,$8,$9,$2,$3,0*%
G04 Aperture macros list end*
%TA.AperFunction,SMDPad,CuDef*%
%ADD10RoundRect,0.250000X-0.350000X0.850000X-0.350000X-0.850000X0.350000X-0.850000X0.350000X0.850000X0*%
%TD*%
%TA.AperFunction,SMDPad,CuDef*%
%ADD11RoundRect,0.250000X-2.650000X2.950000X-2.650000X-2.950000X2.650000X-2.950000X2.650000X2.950000X0*%
%TD*%
%TA.AperFunction,SMDPad,CuDef*%
%ADD12RoundRect,0.250001X-0.624999X0.462499X-0.624999X-0.462499X0.624999X-0.462499X0.624999X0.462499X0*%
%TD*%
%TA.AperFunction,ComponentPad*%
%ADD13RoundRect,0.250000X-0.600000X0.600000X-0.600000X-0.600000X0.600000X-0.600000X0.600000X0.600000X0*%
%TD*%
%TA.AperFunction,ComponentPad*%
%ADD14C,1.700000*%
%TD*%
%TA.AperFunction,ComponentPad*%
%ADD15R,1.600000X1.508000*%
%TD*%
%TA.AperFunction,ComponentPad*%
%ADD16C,1.600000*%
%TD*%
%TA.AperFunction,ComponentPad*%
%ADD17R,1.700000X1.700000*%
%TD*%
%TA.AperFunction,ComponentPad*%
%ADD18O,1.700000X1.700000*%
%TD*%
%TA.AperFunction,ComponentPad*%
%ADD19R,2.000000X2.000000*%
%TD*%
%TA.AperFunction,ComponentPad*%
%ADD20C,2.000000*%
%TD*%
%TA.AperFunction,SMDPad,CuDef*%
%ADD21RoundRect,0.250001X-0.462499X-0.624999X0.462499X-0.624999X0.462499X0.624999X-0.462499X0.624999X0*%
%TD*%
%TA.AperFunction,ComponentPad*%
%ADD22R,1.600000X2.400000*%
%TD*%
%TA.AperFunction,ComponentPad*%
%ADD23O,1.600000X2.400000*%
%TD*%
%TA.AperFunction,SMDPad,CuDef*%
%ADD24RoundRect,0.250001X0.624999X-0.462499X0.624999X0.462499X-0.624999X0.462499X-0.624999X-0.462499X0*%
%TD*%
%TA.AperFunction,SMDPad,CuDef*%
%ADD25C,1.000000*%
%TD*%
%TA.AperFunction,SMDPad,CuDef*%
%ADD26R,4.240000X3.810000*%
%TD*%
%TA.AperFunction,ComponentPad*%
%ADD27RoundRect,0.250000X0.600000X0.600000X-0.600000X0.600000X-0.600000X-0.600000X0.600000X-0.600000X0*%
%TD*%
%TA.AperFunction,ComponentPad*%
%ADD28R,2.600000X2.600000*%
%TD*%
%TA.AperFunction,ComponentPad*%
%ADD29C,2.600000*%
%TD*%
%TA.AperFunction,ComponentPad*%
%ADD30R,1.800000X1.400000*%
%TD*%
%TA.AperFunction,ComponentPad*%
%ADD31O,1.800000X1.400000*%
%TD*%
%TA.AperFunction,SMDPad,CuDef*%
%ADD32RoundRect,0.250001X0.462499X0.624999X-0.462499X0.624999X-0.462499X-0.624999X0.462499X-0.624999X0*%
%TD*%
%TA.AperFunction,ComponentPad*%
%ADD33RoundRect,0.750000X1.000000X-0.750000X1.000000X0.750000X-1.000000X0.750000X-1.000000X-0.750000X0*%
%TD*%
%TA.AperFunction,ComponentPad*%
%ADD34RoundRect,0.750000X0.750000X-1.000000X0.750000X1.000000X-0.750000X1.000000X-0.750000X-1.000000X0*%
%TD*%
%TA.AperFunction,ViaPad*%
%ADD35C,0.600000*%
%TD*%
%TA.AperFunction,Conductor*%
%ADD36C,0.317500*%
%TD*%
%TA.AperFunction,Conductor*%
%ADD37C,0.635000*%
%TD*%
%TA.AperFunction,Conductor*%
%ADD38C,1.270000*%
%TD*%
%TA.AperFunction,Conductor*%
%ADD39C,1.905000*%
%TD*%
G04 APERTURE END LIST*
D10*
%TO.P,Q1,1,G*%
%TO.N,GND*%
X72780000Y-132050000D03*
D11*
%TO.P,Q1,2,D*%
%TO.N,Net-(Q1-D)*%
X70500000Y-138350000D03*
D10*
%TO.P,Q1,3,S*%
%TO.N,+5V*%
X68220000Y-132050000D03*
%TD*%
D12*
%TO.P,R2,1*%
%TO.N,SCL*%
X132250000Y-67262500D03*
%TO.P,R2,2*%
%TO.N,+3.3V_2*%
X132250000Y-70237500D03*
%TD*%
D13*
%TO.P,J6,1,Pin_1*%
%TO.N,BUF_P0_R1*%
X123890000Y-111247500D03*
D14*
%TO.P,J6,2,Pin_2*%
%TO.N,BUF_P0_G1*%
X123890000Y-113787500D03*
%TO.P,J6,3,Pin_3*%
%TO.N,BUF_P0_B1*%
X121350000Y-111247500D03*
%TO.P,J6,4,Pin_4*%
%TO.N,Net-(J6-Pin_4)*%
X121350000Y-113787500D03*
%TO.P,J6,5,Pin_5*%
%TO.N,BUF_P0_R2*%
X118810000Y-111247500D03*
%TO.P,J6,6,Pin_6*%
%TO.N,BUF_P0_G2*%
X118810000Y-113787500D03*
%TO.P,J6,7,Pin_7*%
%TO.N,BUF_P0_B2*%
X116270000Y-111247500D03*
%TO.P,J6,8,Pin_8*%
%TO.N,Net-(J6-Pin_8)*%
X116270000Y-113787500D03*
%TO.P,J6,9,Pin_9*%
%TO.N,BUF_ROW_A*%
X113730000Y-111247500D03*
%TO.P,J6,10,Pin_10*%
%TO.N,BUF_ROW_B*%
X113730000Y-113787500D03*
%TO.P,J6,11,Pin_11*%
%TO.N,BUF_ROW_C*%
X111190000Y-111247500D03*
%TO.P,J6,12,Pin_12*%
%TO.N,BUF_ROW_D*%
X111190000Y-113787500D03*
%TO.P,J6,13,Pin_13*%
%TO.N,BUF_P0_CLOCK*%
X108650000Y-111247500D03*
%TO.P,J6,14,Pin_14*%
%TO.N,BUF_P0_STROBE*%
X108650000Y-113787500D03*
%TO.P,J6,15,Pin_15*%
%TO.N,BUF_P0_OE*%
X106110000Y-111247500D03*
%TO.P,J6,16,Pin_16*%
%TO.N,GND*%
X106110000Y-113787500D03*
%TD*%
D15*
%TO.P,U1,1,3V3_1*%
%TO.N,+3.3V_2*%
X122130000Y-78000000D03*
D16*
%TO.P,U1,2,5V_2*%
%TO.N,+5V*%
X122130000Y-80540000D03*
%TO.P,U1,3,GPIO2/SDA1*%
%TO.N,SDA*%
X119590000Y-78000000D03*
%TO.P,U1,4,5V_4*%
%TO.N,+5V*%
X119590000Y-80540000D03*
%TO.P,U1,5,GPIO3/SCL*%
%TO.N,SCL*%
X117050000Y-78000000D03*
%TO.P,U1,6,GND_6*%
%TO.N,GND*%
X117050000Y-80540000D03*
%TO.P,U1,7,GPIO4/GPIO_GCLK*%
%TO.N,STROBE*%
X114510000Y-78000000D03*
%TO.P,U1,8,GPIO14/TXD0*%
%TO.N,unconnected-(U1-GPIO14{slash}TXD0-Pad8)*%
X114510000Y-80540000D03*
%TO.P,U1,9,GND_9*%
%TO.N,GND*%
X111970000Y-78000000D03*
%TO.P,U1,10,GPIO15/RXD0*%
%TO.N,ROW_E*%
X111970000Y-80540000D03*
%TO.P,U1,11,GPIO17/GPIO_GEN0*%
%TO.N,CLOCK*%
X109430000Y-78000000D03*
%TO.P,U1,12,GPIO18/GPIO_GEN1*%
%TO.N,OE*%
X109430000Y-80540000D03*
%TO.P,U1,13,GPIO27/GPIO_GEN2*%
%TO.N,P0_G1*%
X106890000Y-78000000D03*
%TO.P,U1,14,GND_14*%
%TO.N,GND*%
X106890000Y-80540000D03*
%TO.P,U1,15,GPIO22/GPIO_GEN3*%
%TO.N,ROW_A*%
X104350000Y-78000000D03*
%TO.P,U1,16,GPIO23/GPIO_GEN4*%
%TO.N,ROW_B*%
X104350000Y-80540000D03*
%TO.P,U1,17,3V3_17*%
%TO.N,+3.3V_1*%
X101810000Y-78000000D03*
%TO.P,U1,18,GPIO24/GPIO_GEN5*%
%TO.N,ROW_C*%
X101810000Y-80540000D03*
%TO.P,U1,19,GPIO10/SPI_MOSI*%
%TO.N,P0_B2*%
X99270000Y-78000000D03*
%TO.P,U1,20,GND_20*%
%TO.N,GND*%
X99270000Y-80540000D03*
%TO.P,U1,21,GPIO9/SPI_MISO*%
%TO.N,P0_G2*%
X96730000Y-78000000D03*
%TO.P,U1,22,GPIO25/GPIO_GEN6*%
%TO.N,ROW_D*%
X96730000Y-80540000D03*
%TO.P,U1,23,GPIO11/SPI_SCLK*%
%TO.N,P0_R1*%
X94190000Y-78000000D03*
%TO.P,U1,24,GPIO8/SPI_~{CE0}*%
%TO.N,P0_R2*%
X94190000Y-80540000D03*
%TO.P,U1,25,GND_25*%
%TO.N,GND*%
X91650000Y-78000000D03*
%TO.P,U1,26,GPIO7/SPI_~{CE1}*%
%TO.N,P0_B1*%
X91650000Y-80540000D03*
%TO.P,U1,27,ID_SD*%
%TO.N,unconnected-(U1-ID_SD-Pad27)*%
X89110000Y-78000000D03*
%TO.P,U1,28,ID_SC*%
%TO.N,unconnected-(U1-ID_SC-Pad28)*%
X89110000Y-80540000D03*
%TO.P,U1,29,GPIO5*%
%TO.N,P1_G1*%
X86570000Y-78000000D03*
%TO.P,U1,30,GND_30*%
%TO.N,GND*%
X86570000Y-80540000D03*
%TO.P,U1,31,GPIO6*%
%TO.N,P1_B1*%
X84030000Y-78000000D03*
%TO.P,U1,32,GPIO12*%
%TO.N,P1_R1*%
X84030000Y-80540000D03*
%TO.P,U1,33,GPIO13*%
%TO.N,P1_G2*%
X81490000Y-78000000D03*
%TO.P,U1,34,GND_34*%
%TO.N,GND*%
X81490000Y-80540000D03*
%TO.P,U1,35,GPIO19*%
%TO.N,P1_R2*%
X78950000Y-78000000D03*
%TO.P,U1,36,GPIO16*%
%TO.N,LED2*%
X78950000Y-80540000D03*
%TO.P,U1,37,GPIO26*%
%TO.N,LED1*%
X76410000Y-78000000D03*
%TO.P,U1,38,GPIO20*%
%TO.N,P1_B2*%
X76410000Y-80540000D03*
%TO.P,U1,39,GND_39*%
%TO.N,GND*%
X73870000Y-78000000D03*
%TO.P,U1,40,GPIO21*%
%TO.N,unconnected-(U1-GPIO21-Pad40)*%
X73870000Y-80540000D03*
%TD*%
D12*
%TO.P,C8,1*%
%TO.N,+5V*%
X114470000Y-95512500D03*
%TO.P,C8,2*%
%TO.N,GND*%
X114470000Y-98487500D03*
%TD*%
D17*
%TO.P,J10,1*%
%TO.N,BUF_ROW_E*%
X86750000Y-120475000D03*
D18*
%TO.P,J10,2*%
%TO.N,Net-(J7-Pin_4)*%
X86750000Y-123015000D03*
%TO.P,J10,3*%
%TO.N,GND*%
X86750000Y-125555000D03*
%TD*%
D19*
%TO.P,C4,1*%
%TO.N,+5V*%
X142367677Y-73000000D03*
D20*
%TO.P,C4,2*%
%TO.N,GND*%
X137367677Y-73000000D03*
%TD*%
D21*
%TO.P,C2,1*%
%TO.N,GND*%
X119262500Y-84500000D03*
%TO.P,C2,2*%
%TO.N,+5V*%
X122237500Y-84500000D03*
%TD*%
D22*
%TO.P,U3,1,A->B*%
%TO.N,+5V*%
X109395000Y-90175000D03*
D23*
%TO.P,U3,2,A0*%
%TO.N,OE*%
X106855000Y-90175000D03*
%TO.P,U3,3,A1*%
%TO.N,ROW_A*%
X104315000Y-90175000D03*
%TO.P,U3,4,A2*%
%TO.N,ROW_B*%
X101775000Y-90175000D03*
%TO.P,U3,5,A3*%
%TO.N,ROW_C*%
X99235000Y-90175000D03*
%TO.P,U3,6,A4*%
%TO.N,ROW_D*%
X96695000Y-90175000D03*
%TO.P,U3,7,A5*%
%TO.N,ROW_E*%
X94155000Y-90175000D03*
%TO.P,U3,8,A6*%
%TO.N,Net-(U3-A6)*%
X91615000Y-90175000D03*
%TO.P,U3,9,A7*%
%TO.N,STROBE*%
X89075000Y-90175000D03*
%TO.P,U3,10,GND*%
%TO.N,GND*%
X86535000Y-90175000D03*
%TO.P,U3,11,B7*%
%TO.N,BUF_P1_STROBE*%
X86535000Y-97795000D03*
%TO.P,U3,12,B6*%
%TO.N,unconnected-(U3-B6-Pad12)*%
X89075000Y-97795000D03*
%TO.P,U3,13,B5*%
%TO.N,BUF_ROW_E*%
X91615000Y-97795000D03*
%TO.P,U3,14,B4*%
%TO.N,BUF_ROW_D*%
X94155000Y-97795000D03*
%TO.P,U3,15,B3*%
%TO.N,BUF_ROW_C*%
X96695000Y-97795000D03*
%TO.P,U3,16,B2*%
%TO.N,BUF_ROW_B*%
X99235000Y-97795000D03*
%TO.P,U3,17,B1*%
%TO.N,BUF_ROW_A*%
X101775000Y-97795000D03*
%TO.P,U3,18,B0*%
%TO.N,BUF_P0_OE*%
X104315000Y-97795000D03*
%TO.P,U3,19,CE*%
%TO.N,GND*%
X106855000Y-97795000D03*
%TO.P,U3,20,VCC*%
%TO.N,+5V*%
X109395000Y-97795000D03*
%TD*%
D24*
%TO.P,R1,1*%
%TO.N,SDA*%
X132250000Y-64237500D03*
%TO.P,R1,2*%
%TO.N,+3.3V_2*%
X132250000Y-61262500D03*
%TD*%
%TO.P,C6,1*%
%TO.N,+5V*%
X81750000Y-92487500D03*
%TO.P,C6,2*%
%TO.N,GND*%
X81750000Y-89512500D03*
%TD*%
D17*
%TO.P,J8,1*%
%TO.N,BUF_ROW_E*%
X117250000Y-120475000D03*
D18*
%TO.P,J8,2*%
%TO.N,Net-(J6-Pin_4)*%
X117250000Y-123015000D03*
%TO.P,J8,3*%
%TO.N,GND*%
X117250000Y-125555000D03*
%TD*%
D25*
%TO.P,TP2,1,1*%
%TO.N,GND*%
X145500000Y-78750000D03*
%TD*%
%TO.P,TP1,1,1*%
%TO.N,+5V*%
X145500000Y-82000000D03*
%TD*%
D17*
%TO.P,J9,1*%
%TO.N,BUF_ROW_E*%
X112000000Y-120475000D03*
D18*
%TO.P,J9,2*%
%TO.N,Net-(J6-Pin_8)*%
X112000000Y-123015000D03*
%TO.P,J9,3*%
%TO.N,GND*%
X112000000Y-125555000D03*
%TD*%
D26*
%TO.P,F1,1*%
%TO.N,Net-(J2-Pin_1)*%
X84185000Y-138250000D03*
%TO.P,F1,2*%
%TO.N,Net-(Q1-D)*%
X77815000Y-138250000D03*
%TD*%
D27*
%TO.P,J3,1,Pin_1*%
%TO.N,SDA*%
X56502500Y-81330000D03*
D14*
%TO.P,J3,2,Pin_2*%
%TO.N,SCL*%
X53962500Y-81330000D03*
%TO.P,J3,3,Pin_3*%
%TO.N,GND*%
X56502500Y-78790000D03*
%TO.P,J3,4,Pin_4*%
X53962500Y-78790000D03*
%TO.P,J3,5,Pin_5*%
%TO.N,+5V*%
X56502500Y-76250000D03*
%TO.P,J3,6,Pin_6*%
%TO.N,+3.3V_1*%
X53962500Y-76250000D03*
%TD*%
D19*
%TO.P,C5,1*%
%TO.N,+5V*%
X142367677Y-62000000D03*
D20*
%TO.P,C5,2*%
%TO.N,GND*%
X137367677Y-62000000D03*
%TD*%
D12*
%TO.P,C3,1*%
%TO.N,GND*%
X53500000Y-65512500D03*
%TO.P,C3,2*%
%TO.N,+3.3V_1*%
X53500000Y-68487500D03*
%TD*%
D17*
%TO.P,J11,1*%
%TO.N,BUF_ROW_E*%
X81500000Y-120475000D03*
D18*
%TO.P,J11,2*%
%TO.N,Net-(J7-Pin_8)*%
X81500000Y-123015000D03*
%TO.P,J11,3*%
%TO.N,GND*%
X81500000Y-125555000D03*
%TD*%
D28*
%TO.P,J5,1,Pin_1*%
%TO.N,GND*%
X54695000Y-107500000D03*
D29*
%TO.P,J5,2,Pin_2*%
X54695000Y-112500000D03*
%TO.P,J5,3,Pin_3*%
%TO.N,+5V*%
X54695000Y-117500000D03*
%TO.P,J5,4,Pin_4*%
X54695000Y-122500000D03*
%TD*%
D13*
%TO.P,J7,1,Pin_1*%
%TO.N,BUF_P1_R1*%
X93890000Y-111247500D03*
D14*
%TO.P,J7,2,Pin_2*%
%TO.N,BUF_P1_G1*%
X93890000Y-113787500D03*
%TO.P,J7,3,Pin_3*%
%TO.N,BUF_P1_B1*%
X91350000Y-111247500D03*
%TO.P,J7,4,Pin_4*%
%TO.N,Net-(J7-Pin_4)*%
X91350000Y-113787500D03*
%TO.P,J7,5,Pin_5*%
%TO.N,BUF_P1_R2*%
X88810000Y-111247500D03*
%TO.P,J7,6,Pin_6*%
%TO.N,BUF_P1_G2*%
X88810000Y-113787500D03*
%TO.P,J7,7,Pin_7*%
%TO.N,BUF_P1_B2*%
X86270000Y-111247500D03*
%TO.P,J7,8,Pin_8*%
%TO.N,Net-(J7-Pin_8)*%
X86270000Y-113787500D03*
%TO.P,J7,9,Pin_9*%
%TO.N,BUF_ROW_A*%
X83730000Y-111247500D03*
%TO.P,J7,10,Pin_10*%
%TO.N,BUF_ROW_B*%
X83730000Y-113787500D03*
%TO.P,J7,11,Pin_11*%
%TO.N,BUF_ROW_C*%
X81190000Y-111247500D03*
%TO.P,J7,12,Pin_12*%
%TO.N,BUF_ROW_D*%
X81190000Y-113787500D03*
%TO.P,J7,13,Pin_13*%
%TO.N,BUF_P1_CLOCK*%
X78650000Y-111247500D03*
%TO.P,J7,14,Pin_14*%
%TO.N,BUF_P1_STROBE*%
X78650000Y-113787500D03*
%TO.P,J7,15,Pin_15*%
%TO.N,BUF_P1_OE*%
X76110000Y-111247500D03*
%TO.P,J7,16,Pin_16*%
%TO.N,GND*%
X76110000Y-113787500D03*
%TD*%
D22*
%TO.P,U2,1,A->B*%
%TO.N,+5V*%
X76750000Y-90175000D03*
D23*
%TO.P,U2,2,A0*%
%TO.N,CLOCK*%
X74210000Y-90175000D03*
%TO.P,U2,3,A1*%
%TO.N,OE*%
X71670000Y-90175000D03*
%TO.P,U2,4,A2*%
%TO.N,P1_G1*%
X69130000Y-90175000D03*
%TO.P,U2,5,A3*%
%TO.N,P1_R1*%
X66590000Y-90175000D03*
%TO.P,U2,6,A4*%
%TO.N,P1_B1*%
X64050000Y-90175000D03*
%TO.P,U2,7,A5*%
%TO.N,P1_G2*%
X61510000Y-90175000D03*
%TO.P,U2,8,A6*%
%TO.N,P1_R2*%
X58970000Y-90175000D03*
%TO.P,U2,9,A7*%
%TO.N,P1_B2*%
X56430000Y-90175000D03*
%TO.P,U2,10,GND*%
%TO.N,GND*%
X53890000Y-90175000D03*
%TO.P,U2,11,B7*%
%TO.N,BUF_P1_B2*%
X53890000Y-97795000D03*
%TO.P,U2,12,B6*%
%TO.N,BUF_P1_R2*%
X56430000Y-97795000D03*
%TO.P,U2,13,B5*%
%TO.N,BUF_P1_G2*%
X58970000Y-97795000D03*
%TO.P,U2,14,B4*%
%TO.N,BUF_P1_B1*%
X61510000Y-97795000D03*
%TO.P,U2,15,B3*%
%TO.N,BUF_P1_R1*%
X64050000Y-97795000D03*
%TO.P,U2,16,B2*%
%TO.N,BUF_P1_G1*%
X66590000Y-97795000D03*
%TO.P,U2,17,B1*%
%TO.N,BUF_P1_OE*%
X69130000Y-97795000D03*
%TO.P,U2,18,B0*%
%TO.N,BUF_P1_CLOCK*%
X71670000Y-97795000D03*
%TO.P,U2,19,CE*%
%TO.N,GND*%
X74210000Y-97795000D03*
%TO.P,U2,20,VCC*%
%TO.N,+5V*%
X76750000Y-97795000D03*
%TD*%
D30*
%TO.P,LED1,1,KA*%
%TO.N,LED2*%
X55250000Y-58225000D03*
D31*
%TO.P,LED1,2,AK*%
%TO.N,Net-(LED1-AK)*%
X55250000Y-60765000D03*
%TD*%
D22*
%TO.P,U4,1,A->B*%
%TO.N,+5V*%
X142395000Y-90175000D03*
D23*
%TO.P,U4,2,A0*%
%TO.N,P0_G1*%
X139855000Y-90175000D03*
%TO.P,U4,3,A1*%
%TO.N,P0_R1*%
X137315000Y-90175000D03*
%TO.P,U4,4,A2*%
%TO.N,P0_B1*%
X134775000Y-90175000D03*
%TO.P,U4,5,A3*%
%TO.N,P0_G2*%
X132235000Y-90175000D03*
%TO.P,U4,6,A4*%
%TO.N,P0_R2*%
X129695000Y-90175000D03*
%TO.P,U4,7,A5*%
%TO.N,P0_B2*%
X127155000Y-90175000D03*
%TO.P,U4,8,A6*%
%TO.N,STROBE*%
X124615000Y-90175000D03*
%TO.P,U4,9,A7*%
%TO.N,CLOCK*%
X122075000Y-90175000D03*
%TO.P,U4,10,GND*%
%TO.N,GND*%
X119535000Y-90175000D03*
%TO.P,U4,11,B7*%
%TO.N,BUF_P0_CLOCK*%
X119535000Y-97795000D03*
%TO.P,U4,12,B6*%
%TO.N,BUF_P0_STROBE*%
X122075000Y-97795000D03*
%TO.P,U4,13,B5*%
%TO.N,BUF_P0_B2*%
X124615000Y-97795000D03*
%TO.P,U4,14,B4*%
%TO.N,BUF_P0_R2*%
X127155000Y-97795000D03*
%TO.P,U4,15,B3*%
%TO.N,BUF_P0_G2*%
X129695000Y-97795000D03*
%TO.P,U4,16,B2*%
%TO.N,BUF_P0_B1*%
X132235000Y-97795000D03*
%TO.P,U4,17,B1*%
%TO.N,BUF_P0_R1*%
X134775000Y-97795000D03*
%TO.P,U4,18,B0*%
%TO.N,BUF_P0_G1*%
X137315000Y-97795000D03*
%TO.P,U4,19,CE*%
%TO.N,GND*%
X139855000Y-97795000D03*
%TO.P,U4,20,VCC*%
%TO.N,+5V*%
X142395000Y-97795000D03*
%TD*%
D32*
%TO.P,C9,1*%
%TO.N,+5V*%
X143987500Y-86750000D03*
%TO.P,C9,2*%
%TO.N,GND*%
X141012500Y-86750000D03*
%TD*%
D28*
%TO.P,J4,1,Pin_1*%
%TO.N,+5V*%
X145305000Y-122500000D03*
D29*
%TO.P,J4,2,Pin_2*%
X145305000Y-117500000D03*
%TO.P,J4,3,Pin_3*%
%TO.N,GND*%
X145305000Y-112500000D03*
%TO.P,J4,4,Pin_4*%
X145305000Y-107500000D03*
%TD*%
D12*
%TO.P,C7,1*%
%TO.N,+5V*%
X81750000Y-95512500D03*
%TO.P,C7,2*%
%TO.N,GND*%
X81750000Y-98487500D03*
%TD*%
D28*
%TO.P,J2,1,Pin_1*%
%TO.N,Net-(J2-Pin_1)*%
X92000000Y-138305000D03*
D29*
%TO.P,J2,2,Pin_2*%
X97000000Y-138305000D03*
%TO.P,J2,3,Pin_3*%
%TO.N,GND*%
X102000000Y-138305000D03*
%TO.P,J2,4,Pin_4*%
X107000000Y-138305000D03*
%TD*%
D12*
%TO.P,R4,1*%
%TO.N,+3.3V_2*%
X114500000Y-89512500D03*
%TO.P,R4,2*%
%TO.N,OE*%
X114500000Y-92487500D03*
%TD*%
D25*
%TO.P,TP3,1,1*%
%TO.N,+3.3V_2*%
X127000000Y-85000000D03*
%TD*%
D24*
%TO.P,R5,1*%
%TO.N,Net-(U3-A6)*%
X91750000Y-87237500D03*
%TO.P,R5,2*%
%TO.N,GND*%
X91750000Y-84262500D03*
%TD*%
D19*
%TO.P,C11,1*%
%TO.N,+5V*%
X60750000Y-128500000D03*
D20*
%TO.P,C11,2*%
%TO.N,GND*%
X60750000Y-133500000D03*
%TD*%
D19*
%TO.P,C10,1*%
%TO.N,+5V*%
X139250000Y-128632323D03*
D20*
%TO.P,C10,2*%
%TO.N,GND*%
X139250000Y-133632323D03*
%TD*%
D24*
%TO.P,C1,1*%
%TO.N,+5V*%
X57000000Y-68487500D03*
%TO.P,C1,2*%
%TO.N,GND*%
X57000000Y-65512500D03*
%TD*%
D33*
%TO.P,J1,1*%
%TO.N,Net-(J2-Pin_1)*%
X126250000Y-129250000D03*
%TO.P,J1,2*%
%TO.N,GND*%
X126250000Y-135250000D03*
D34*
%TO.P,J1,3*%
%TO.N,N/C*%
X130950000Y-132250000D03*
%TD*%
D24*
%TO.P,R3,1*%
%TO.N,LED1*%
X61500000Y-60987500D03*
%TO.P,R3,2*%
%TO.N,Net-(LED1-AK)*%
X61500000Y-58012500D03*
%TD*%
D35*
%TO.N,GND*%
X92250000Y-82500000D03*
X139400000Y-86400000D03*
X112000000Y-98000000D03*
X79500000Y-89000000D03*
X117750000Y-84500000D03*
X79500000Y-98000000D03*
X58800000Y-65100000D03*
X145500000Y-77000000D03*
X75250000Y-132500000D03*
%TO.N,+5V*%
X140000000Y-84125000D03*
X140000000Y-84875000D03*
X139250000Y-84125000D03*
X139250000Y-84875000D03*
X120500000Y-69250000D03*
%TO.N,BUF_ROW_B*%
X102250000Y-117250000D03*
X102250000Y-114250000D03*
%TO.N,BUF_ROW_C*%
X109400000Y-117400000D03*
X100500000Y-118250000D03*
X100500000Y-114250000D03*
%TO.N,BUF_ROW_D*%
X98750000Y-114250000D03*
X98750000Y-119250000D03*
X110700000Y-117400000D03*
%TO.N,BUF_ROW_E*%
X97000000Y-114250000D03*
X97000000Y-119250000D03*
%TO.N,BUF_P1_STROBE*%
X80400000Y-101300000D03*
%TO.N,OE*%
X87125000Y-84875000D03*
%TO.N,CLOCK*%
X87750000Y-85750000D03*
%TO.N,ROW_E*%
X94250000Y-86000000D03*
%TO.N,STROBE*%
X114000000Y-71250000D03*
%TO.N,P0_G1*%
X129000000Y-76750000D03*
X134750000Y-77250000D03*
%TO.N,SDA*%
X119590000Y-70250000D03*
%TO.N,SCL*%
X116750000Y-70750000D03*
%TO.N,LED1*%
X66750000Y-66750000D03*
%TO.N,LED2*%
X68000000Y-66750000D03*
%TO.N,+3.3V_1*%
X101250000Y-70250000D03*
%TO.N,+3.3V_2*%
X122000000Y-69750000D03*
%TO.N,Net-(J2-Pin_1)*%
X113900000Y-135000000D03*
X113900000Y-134200000D03*
X113100000Y-134200000D03*
X114700000Y-135000000D03*
X113100000Y-135800000D03*
X113900000Y-135800000D03*
X114700000Y-135800000D03*
X114700000Y-134200000D03*
X113100000Y-135000000D03*
%TD*%
D36*
%TO.N,GND*%
X79937500Y-89437500D02*
X79500000Y-89000000D01*
X81750000Y-98562500D02*
X80062500Y-98562500D01*
X53500000Y-65437500D02*
X57000000Y-65437500D01*
D37*
X72780000Y-132050000D02*
X74800000Y-132050000D01*
D36*
X57000000Y-65437500D02*
X58462500Y-65437500D01*
X140937500Y-86750000D02*
X139750000Y-86750000D01*
X91750000Y-83000000D02*
X92250000Y-82500000D01*
X91750000Y-84262500D02*
X91750000Y-83000000D01*
D37*
X74800000Y-132050000D02*
X75250000Y-132500000D01*
D36*
X139750000Y-86750000D02*
X139400000Y-86400000D01*
X112562500Y-98562500D02*
X112000000Y-98000000D01*
X145500000Y-78750000D02*
X145500000Y-77000000D01*
X81750000Y-89437500D02*
X79937500Y-89437500D01*
X114470000Y-98562500D02*
X112562500Y-98562500D01*
X58462500Y-65437500D02*
X58800000Y-65100000D01*
D37*
X119187500Y-84500000D02*
X117750000Y-84500000D01*
D36*
X80062500Y-98562500D02*
X79500000Y-98000000D01*
%TO.N,+5V*%
X144000000Y-90175000D02*
X146425000Y-90175000D01*
D38*
X145000000Y-84500000D02*
X146500000Y-86000000D01*
D36*
X142395000Y-90175000D02*
X142395000Y-95500000D01*
D38*
X142367677Y-62000000D02*
X142367677Y-73000000D01*
X145000000Y-102000000D02*
X139000000Y-108000000D01*
D36*
X61500000Y-68000000D02*
X60000000Y-69500000D01*
X56502500Y-69060000D02*
X57000000Y-68562500D01*
X81750000Y-92562500D02*
X81750000Y-94000000D01*
X120000000Y-68750000D02*
X119750000Y-68750000D01*
D38*
X142400000Y-84500000D02*
X145000000Y-84500000D01*
D36*
X145500000Y-82000000D02*
X142367677Y-82000000D01*
D38*
X146500000Y-86000000D02*
X146500000Y-90250000D01*
D36*
X109395000Y-90175000D02*
X109395000Y-92500000D01*
X142395000Y-97795000D02*
X142395000Y-97895000D01*
D37*
X122130000Y-80540000D02*
X122130000Y-84317500D01*
D38*
X139000000Y-108000000D02*
X139000000Y-116500000D01*
X146500000Y-100500000D02*
X145000000Y-102000000D01*
D36*
X109395000Y-94000000D02*
X109395000Y-95500000D01*
X102875000Y-68000000D02*
X61500000Y-68000000D01*
X142395000Y-90175000D02*
X144000000Y-90175000D01*
X146425000Y-90175000D02*
X146500000Y-90250000D01*
X144062500Y-86750000D02*
X144062500Y-90112500D01*
X142332500Y-95437500D02*
X142395000Y-95500000D01*
X103625000Y-68750000D02*
X102875000Y-68000000D01*
X81750000Y-94000000D02*
X76750000Y-94000000D01*
X109457500Y-95437500D02*
X109395000Y-95500000D01*
D38*
X139625000Y-84500000D02*
X142400000Y-84500000D01*
X142367677Y-84467677D02*
X142400000Y-84500000D01*
D36*
X76750000Y-90175000D02*
X76750000Y-92400000D01*
X114470000Y-95437500D02*
X142332500Y-95437500D01*
X109395000Y-92500000D02*
X109395000Y-94000000D01*
X142395000Y-95500000D02*
X142395000Y-97795000D01*
X60000000Y-75750000D02*
X59500000Y-76250000D01*
X81750000Y-94000000D02*
X109395000Y-94000000D01*
X120500000Y-69250000D02*
X120000000Y-68750000D01*
X119750000Y-68750000D02*
X103625000Y-68750000D01*
X59500000Y-76250000D02*
X56502500Y-76250000D01*
X81750000Y-94000000D02*
X81750000Y-95437500D01*
X114470000Y-95437500D02*
X109457500Y-95437500D01*
D38*
X146500000Y-90250000D02*
X146500000Y-100500000D01*
D36*
X142395000Y-97895000D02*
X142562500Y-98062500D01*
X144062500Y-90112500D02*
X144000000Y-90175000D01*
X76750000Y-94000000D02*
X76750000Y-97795000D01*
X109395000Y-95500000D02*
X109395000Y-97795000D01*
X56502500Y-76250000D02*
X56502500Y-69060000D01*
X60000000Y-69500000D02*
X60000000Y-75750000D01*
D38*
X142367677Y-82000000D02*
X142367677Y-84467677D01*
X142367677Y-73000000D02*
X142367677Y-82000000D01*
D36*
X76750000Y-92400000D02*
X76750000Y-94000000D01*
D37*
X122130000Y-84317500D02*
X122312500Y-84500000D01*
D36*
%TO.N,BUF_P0_OE*%
X104315000Y-109565000D02*
X104315000Y-97795000D01*
X105997500Y-111247500D02*
X104315000Y-109565000D01*
X106110000Y-111247500D02*
X105997500Y-111247500D01*
%TO.N,BUF_P0_B2*%
X124615000Y-99635000D02*
X124615000Y-97795000D01*
X116270000Y-107980000D02*
X124615000Y-99635000D01*
X116270000Y-111247500D02*
X116270000Y-107980000D01*
%TO.N,BUF_ROW_B*%
X113730000Y-115520000D02*
X113730000Y-113787500D01*
X99500000Y-116500000D02*
X102250000Y-116500000D01*
X84800000Y-116500000D02*
X99500000Y-116500000D01*
X83730000Y-113787500D02*
X83730000Y-115430000D01*
X102250000Y-116500000D02*
X112750000Y-116500000D01*
X83730000Y-115430000D02*
X84800000Y-116500000D01*
X102250000Y-114250000D02*
X102250000Y-102250000D01*
X102250000Y-102250000D02*
X99235000Y-99235000D01*
X99235000Y-99235000D02*
X99235000Y-97795000D01*
X112750000Y-116500000D02*
X113730000Y-115520000D01*
X102250000Y-117250000D02*
X102250000Y-116500000D01*
%TO.N,BUF_P0_G1*%
X137315000Y-99185000D02*
X126750000Y-109750000D01*
X126750000Y-109750000D02*
X126750000Y-112750000D01*
X126750000Y-112750000D02*
X125712500Y-113787500D01*
X125712500Y-113787500D02*
X123890000Y-113787500D01*
X137315000Y-97795000D02*
X137315000Y-99185000D01*
%TO.N,BUF_ROW_C*%
X84200000Y-117400000D02*
X100500000Y-117400000D01*
X100500000Y-117400000D02*
X101150000Y-117400000D01*
X96695000Y-99320000D02*
X96695000Y-97795000D01*
X82500000Y-115700000D02*
X84200000Y-117400000D01*
X101750000Y-118000000D02*
X108800000Y-118000000D01*
X101150000Y-117400000D02*
X101750000Y-118000000D01*
X82500000Y-112557500D02*
X82500000Y-115700000D01*
X100500000Y-114250000D02*
X100500000Y-103125000D01*
X81190000Y-111247500D02*
X82500000Y-112557500D01*
X108800000Y-118000000D02*
X109400000Y-117400000D01*
X100500000Y-103125000D02*
X96695000Y-99320000D01*
X100500000Y-118250000D02*
X100500000Y-117400000D01*
%TO.N,BUF_P0_CLOCK*%
X108650000Y-109500000D02*
X108650000Y-111247500D01*
X112250000Y-108000000D02*
X110150000Y-108000000D01*
X119535000Y-100715000D02*
X112250000Y-108000000D01*
X119535000Y-97795000D02*
X119535000Y-100715000D01*
X110150000Y-108000000D02*
X108650000Y-109500000D01*
%TO.N,BUF_ROW_A*%
X111750000Y-115750000D02*
X112500000Y-115000000D01*
X83730000Y-111247500D02*
X85000000Y-112517500D01*
X103250000Y-100750000D02*
X103250000Y-115750000D01*
X85000000Y-115050000D02*
X85700000Y-115750000D01*
X85700000Y-115750000D02*
X101800000Y-115750000D01*
X103250000Y-115750000D02*
X111750000Y-115750000D01*
X101800000Y-115750000D02*
X103250000Y-115750000D01*
X85000000Y-112517500D02*
X85000000Y-115050000D01*
X101775000Y-97795000D02*
X101775000Y-99275000D01*
X112500000Y-115000000D02*
X112500000Y-112477500D01*
X112500000Y-112477500D02*
X113730000Y-111247500D01*
X101775000Y-99275000D02*
X103250000Y-100750000D01*
%TO.N,BUF_ROW_D*%
X83400000Y-118250000D02*
X98750000Y-118250000D01*
X81190000Y-113787500D02*
X81190000Y-116040000D01*
X99375000Y-118250000D02*
X100125000Y-119000000D01*
X81190000Y-116040000D02*
X83400000Y-118250000D01*
X109100000Y-119000000D02*
X110700000Y-117400000D01*
X98750000Y-118250000D02*
X99375000Y-118250000D01*
X94155000Y-99155000D02*
X94155000Y-97795000D01*
X98750000Y-119250000D02*
X98750000Y-118250000D01*
X98750000Y-114250000D02*
X98750000Y-103750000D01*
X100125000Y-119000000D02*
X109100000Y-119000000D01*
X98750000Y-103750000D02*
X94155000Y-99155000D01*
%TO.N,BUF_P0_G2*%
X120100000Y-112497500D02*
X118810000Y-113787500D01*
X120100000Y-108900000D02*
X120100000Y-112497500D01*
X129695000Y-99305000D02*
X120100000Y-108900000D01*
X129695000Y-97795000D02*
X129695000Y-99305000D01*
%TO.N,BUF_P0_STROBE*%
X109900000Y-112537500D02*
X108650000Y-113787500D01*
X110500000Y-108750000D02*
X109900000Y-109350000D01*
X109900000Y-109350000D02*
X109900000Y-112537500D01*
X122075000Y-100150000D02*
X113475000Y-108750000D01*
X113475000Y-108750000D02*
X110500000Y-108750000D01*
X122075000Y-97795000D02*
X122075000Y-100150000D01*
%TO.N,BUF_P0_R2*%
X127155000Y-97795000D02*
X127155000Y-99345000D01*
X118810000Y-107690000D02*
X118810000Y-111247500D01*
X127155000Y-99345000D02*
X118810000Y-107690000D01*
%TO.N,BUF_P0_B1*%
X132235000Y-99265000D02*
X121350000Y-110150000D01*
X121350000Y-110150000D02*
X121350000Y-111247500D01*
X132235000Y-97795000D02*
X132235000Y-99265000D01*
%TO.N,BUF_P0_R1*%
X123890000Y-110110000D02*
X123890000Y-111247500D01*
X134775000Y-99225000D02*
X123890000Y-110110000D01*
X134775000Y-97795000D02*
X134775000Y-99225000D01*
%TO.N,BUF_ROW_E*%
X97000000Y-119250000D02*
X97000000Y-120475000D01*
X91615000Y-99365000D02*
X91615000Y-97795000D01*
X88500000Y-120475000D02*
X92750000Y-120475000D01*
X97000000Y-104750000D02*
X91615000Y-99365000D01*
X92750000Y-120475000D02*
X97000000Y-120475000D01*
X86750000Y-120475000D02*
X92000000Y-120475000D01*
X112000000Y-120475000D02*
X117250000Y-120475000D01*
X97000000Y-114250000D02*
X97000000Y-104750000D01*
X97000000Y-120475000D02*
X112000000Y-120475000D01*
X81500000Y-120475000D02*
X86750000Y-120475000D01*
%TO.N,BUF_P1_B1*%
X61510000Y-102760000D02*
X64000000Y-105250000D01*
X86750000Y-105250000D02*
X91350000Y-109850000D01*
X64000000Y-105250000D02*
X86750000Y-105250000D01*
X61510000Y-97795000D02*
X61510000Y-102760000D01*
X91350000Y-109850000D02*
X91350000Y-111247500D01*
%TO.N,BUF_P1_B2*%
X53890000Y-97795000D02*
X53890000Y-99640000D01*
X85250000Y-107500000D02*
X86270000Y-108520000D01*
X86270000Y-108520000D02*
X86270000Y-111247500D01*
X61750000Y-107500000D02*
X85250000Y-107500000D01*
X53890000Y-99640000D02*
X61750000Y-107500000D01*
%TO.N,BUF_P1_R2*%
X56430000Y-100680000D02*
X62500000Y-106750000D01*
X88810000Y-109810000D02*
X88810000Y-111247500D01*
X85750000Y-106750000D02*
X88810000Y-109810000D01*
X62500000Y-106750000D02*
X85750000Y-106750000D01*
X56430000Y-97795000D02*
X56430000Y-100680000D01*
%TO.N,BUF_P1_R1*%
X64750000Y-104500000D02*
X88500000Y-104500000D01*
X64050000Y-97795000D02*
X64050000Y-103800000D01*
X93890000Y-109890000D02*
X93890000Y-111247500D01*
X64050000Y-103800000D02*
X64750000Y-104500000D01*
X88500000Y-104500000D02*
X93890000Y-109890000D01*
%TO.N,BUF_P1_G2*%
X58970000Y-97795000D02*
X58970000Y-101720000D01*
X90100000Y-109850000D02*
X90100000Y-112497500D01*
X90100000Y-112497500D02*
X88810000Y-113787500D01*
X58970000Y-101720000D02*
X63250000Y-106000000D01*
X63250000Y-106000000D02*
X86250000Y-106000000D01*
X86250000Y-106000000D02*
X90100000Y-109850000D01*
%TO.N,BUF_P1_G1*%
X89500000Y-103750000D02*
X95500000Y-109750000D01*
X66590000Y-97795000D02*
X66590000Y-103090000D01*
X95500000Y-112177500D02*
X93890000Y-113787500D01*
X95500000Y-109750000D02*
X95500000Y-112177500D01*
X66590000Y-103090000D02*
X67250000Y-103750000D01*
X67250000Y-103750000D02*
X89500000Y-103750000D01*
%TO.N,BUF_P1_STROBE*%
X80950000Y-100750000D02*
X83580000Y-100750000D01*
X83580000Y-100750000D02*
X86535000Y-97795000D01*
X80400000Y-101300000D02*
X80950000Y-100750000D01*
%TO.N,OE*%
X112000000Y-92000000D02*
X112000000Y-88500000D01*
X111500000Y-88000000D02*
X106855000Y-88000000D01*
X112487500Y-92487500D02*
X112000000Y-92000000D01*
X86000000Y-86000000D02*
X74250000Y-86000000D01*
X106855000Y-90175000D02*
X106855000Y-88000000D01*
X114487500Y-92500000D02*
X114500000Y-92487500D01*
X112000000Y-88500000D02*
X111500000Y-88000000D01*
X114500000Y-92487500D02*
X112487500Y-92487500D01*
X109430000Y-82805000D02*
X109430000Y-80540000D01*
X71670000Y-88580000D02*
X71670000Y-90175000D01*
X106855000Y-85380000D02*
X109430000Y-82805000D01*
X74250000Y-86000000D02*
X71670000Y-88580000D01*
X106855000Y-88000000D02*
X106855000Y-85380000D01*
X87125000Y-84875000D02*
X86000000Y-86000000D01*
%TO.N,P0_R1*%
X137315000Y-88565000D02*
X137315000Y-90175000D01*
X94190000Y-75310000D02*
X96500000Y-73000000D01*
X133000000Y-84250000D02*
X137315000Y-88565000D01*
X94190000Y-78000000D02*
X94190000Y-75310000D01*
X133000000Y-76000000D02*
X133000000Y-84250000D01*
X96500000Y-73000000D02*
X130000000Y-73000000D01*
X130000000Y-73000000D02*
X133000000Y-76000000D01*
X137175000Y-90175000D02*
X137315000Y-90175000D01*
%TO.N,P1_B2*%
X65750000Y-76000000D02*
X65000000Y-76750000D01*
X71500000Y-76000000D02*
X65750000Y-76000000D01*
X75170000Y-79300000D02*
X72800000Y-79300000D01*
X72250000Y-76750000D02*
X71500000Y-76000000D01*
X65000000Y-76750000D02*
X65000000Y-80000000D01*
X56430000Y-88570000D02*
X56430000Y-90175000D01*
X72250000Y-78750000D02*
X72250000Y-76750000D01*
X76410000Y-80540000D02*
X75170000Y-79300000D01*
X65000000Y-80000000D02*
X56430000Y-88570000D01*
X72800000Y-79300000D02*
X72250000Y-78750000D01*
%TO.N,P1_R1*%
X83500000Y-84500000D02*
X70750000Y-84500000D01*
X66590000Y-88660000D02*
X66590000Y-90175000D01*
X84030000Y-80540000D02*
X84030000Y-83970000D01*
X84030000Y-83970000D02*
X83500000Y-84500000D01*
X70750000Y-84500000D02*
X66590000Y-88660000D01*
%TO.N,P0_R2*%
X133500000Y-85750000D02*
X132000000Y-84250000D01*
X95500000Y-79230000D02*
X94190000Y-80540000D01*
X129500000Y-73750000D02*
X97000000Y-73750000D01*
X133000000Y-92250000D02*
X133500000Y-91750000D01*
X132000000Y-84250000D02*
X132000000Y-76250000D01*
X129695000Y-90175000D02*
X129695000Y-91695000D01*
X97000000Y-73750000D02*
X95500000Y-75250000D01*
X95500000Y-75250000D02*
X95500000Y-79230000D01*
X130250000Y-92250000D02*
X133000000Y-92250000D01*
X133500000Y-91750000D02*
X133500000Y-85750000D01*
X129695000Y-91695000D02*
X130250000Y-92250000D01*
X132000000Y-76250000D02*
X129500000Y-73750000D01*
%TO.N,CLOCK*%
X122075000Y-87825000D02*
X122075000Y-90175000D01*
X74210000Y-87790000D02*
X74210000Y-90175000D01*
X112000000Y-87000000D02*
X121250000Y-87000000D01*
X121250000Y-87000000D02*
X122075000Y-87825000D01*
X109430000Y-78000000D02*
X110750000Y-79320000D01*
X87750000Y-85750000D02*
X86750000Y-86750000D01*
X110750000Y-85750000D02*
X112000000Y-87000000D01*
X86750000Y-86750000D02*
X75250000Y-86750000D01*
X110750000Y-79320000D02*
X110750000Y-85750000D01*
X75250000Y-86750000D02*
X74210000Y-87790000D01*
%TO.N,P1_G1*%
X86570000Y-78000000D02*
X85300000Y-79270000D01*
X69130000Y-88620000D02*
X69130000Y-90175000D01*
X85300000Y-84700000D02*
X84750000Y-85250000D01*
X72500000Y-85250000D02*
X69130000Y-88620000D01*
X85300000Y-79270000D02*
X85300000Y-84700000D01*
X84750000Y-85250000D02*
X72500000Y-85250000D01*
%TO.N,P0_G2*%
X97500000Y-74500000D02*
X129250000Y-74500000D01*
X132235000Y-85485000D02*
X132235000Y-90175000D01*
X129250000Y-74500000D02*
X131250000Y-76500000D01*
X131250000Y-76500000D02*
X131250000Y-84500000D01*
X96730000Y-78000000D02*
X96730000Y-75270000D01*
X96730000Y-75270000D02*
X97500000Y-74500000D01*
X131250000Y-84500000D02*
X132235000Y-85485000D01*
%TO.N,P1_R2*%
X77700000Y-81800000D02*
X77250000Y-82250000D01*
X77250000Y-82250000D02*
X65250000Y-82250000D01*
X65250000Y-82250000D02*
X58970000Y-88530000D01*
X77700000Y-79250000D02*
X77700000Y-81800000D01*
X58970000Y-88530000D02*
X58970000Y-90175000D01*
X78950000Y-78000000D02*
X77700000Y-79250000D01*
%TO.N,ROW_A*%
X105670000Y-84080000D02*
X104315000Y-85435000D01*
X105670000Y-79320000D02*
X105670000Y-84080000D01*
X104350000Y-78000000D02*
X105670000Y-79320000D01*
X104315000Y-85435000D02*
X104315000Y-90175000D01*
%TO.N,ROW_B*%
X101775000Y-85475000D02*
X104350000Y-82900000D01*
X104350000Y-82900000D02*
X104350000Y-80540000D01*
X101775000Y-90175000D02*
X101775000Y-85475000D01*
%TO.N,ROW_C*%
X99235000Y-90175000D02*
X99235000Y-85485000D01*
X99235000Y-85485000D02*
X101810000Y-82910000D01*
X101810000Y-82910000D02*
X101810000Y-80540000D01*
%TO.N,ROW_E*%
X94155000Y-86095000D02*
X94155000Y-90175000D01*
X94250000Y-86000000D02*
X94155000Y-86095000D01*
%TO.N,ROW_D*%
X96730000Y-80540000D02*
X96730000Y-90140000D01*
X96730000Y-90140000D02*
X96695000Y-90175000D01*
%TO.N,STROBE*%
X115770000Y-79260000D02*
X115770000Y-85520000D01*
X95750000Y-71250000D02*
X90400000Y-76600000D01*
X90400000Y-76600000D02*
X90400000Y-81850000D01*
X114000000Y-71250000D02*
X95750000Y-71250000D01*
X124615000Y-88115000D02*
X124615000Y-90175000D01*
X115770000Y-85520000D02*
X116500000Y-86250000D01*
X114510000Y-78000000D02*
X115770000Y-79260000D01*
X89075000Y-83175000D02*
X89075000Y-90175000D01*
X90400000Y-81850000D02*
X89075000Y-83175000D01*
X116500000Y-86250000D02*
X122750000Y-86250000D01*
X122750000Y-86250000D02*
X124615000Y-88115000D01*
%TO.N,P0_B2*%
X129000000Y-75250000D02*
X130500000Y-76750000D01*
X127155000Y-87845000D02*
X127155000Y-90175000D01*
X130500000Y-76750000D02*
X130500000Y-84500000D01*
X130500000Y-84500000D02*
X127155000Y-87845000D01*
X100000000Y-75250000D02*
X129000000Y-75250000D01*
X99270000Y-78000000D02*
X99270000Y-75980000D01*
X99270000Y-75980000D02*
X100000000Y-75250000D01*
%TO.N,P1_B1*%
X82800000Y-83200000D02*
X82250000Y-83750000D01*
X82250000Y-83750000D02*
X69000000Y-83750000D01*
X69000000Y-83750000D02*
X64050000Y-88700000D01*
X64050000Y-88700000D02*
X64050000Y-90175000D01*
X82800000Y-79230000D02*
X82800000Y-83200000D01*
X84030000Y-78000000D02*
X82800000Y-79230000D01*
%TO.N,P1_G2*%
X80200000Y-79290000D02*
X80200000Y-81000000D01*
X61510000Y-88740000D02*
X61510000Y-90175000D01*
X80232500Y-82517500D02*
X79875000Y-82875000D01*
X80200000Y-81000000D02*
X80232500Y-81032500D01*
X80232500Y-81032500D02*
X80232500Y-82517500D01*
X81490000Y-78000000D02*
X80200000Y-79290000D01*
X79750000Y-83000000D02*
X67250000Y-83000000D01*
X67250000Y-83000000D02*
X61510000Y-88740000D01*
%TO.N,P0_G1*%
X128250000Y-76000000D02*
X129000000Y-76750000D01*
X123000000Y-76000000D02*
X128250000Y-76000000D01*
X106890000Y-78000000D02*
X106890000Y-76610000D01*
X139855000Y-88605000D02*
X139855000Y-90175000D01*
X107500000Y-76000000D02*
X113000000Y-76000000D01*
X134750000Y-83500000D02*
X139855000Y-88605000D01*
X106890000Y-76610000D02*
X107500000Y-76000000D01*
X113000000Y-76000000D02*
X123000000Y-76000000D01*
X134750000Y-77250000D02*
X134750000Y-83500000D01*
%TO.N,P0_B1*%
X92900000Y-79290000D02*
X92900000Y-75350000D01*
X134775000Y-91775000D02*
X134775000Y-90175000D01*
X138600000Y-91650000D02*
X138000000Y-92250000D01*
X138000000Y-92250000D02*
X135250000Y-92250000D01*
X135250000Y-92250000D02*
X134775000Y-91775000D01*
X133750000Y-83750000D02*
X138600000Y-88600000D01*
X130500000Y-72250000D02*
X133750000Y-75500000D01*
X91650000Y-80540000D02*
X92900000Y-79290000D01*
X133750000Y-75500000D02*
X133750000Y-83750000D01*
X92900000Y-75350000D02*
X96000000Y-72250000D01*
X138600000Y-88600000D02*
X138600000Y-91650000D01*
X96000000Y-72250000D02*
X130500000Y-72250000D01*
%TO.N,SDA*%
X120090000Y-70750000D02*
X127250000Y-70750000D01*
X119590000Y-70250000D02*
X118840000Y-69500000D01*
X128512500Y-64237500D02*
X132250000Y-64237500D01*
X102500000Y-68750000D02*
X62000000Y-68750000D01*
X60170000Y-81330000D02*
X56502500Y-81330000D01*
X62000000Y-68750000D02*
X60750000Y-70000000D01*
X127750000Y-65000000D02*
X128512500Y-64237500D01*
X127250000Y-70750000D02*
X127750000Y-70250000D01*
X118840000Y-69500000D02*
X103250000Y-69500000D01*
X127750000Y-70250000D02*
X127750000Y-65000000D01*
X103250000Y-69500000D02*
X102500000Y-68750000D01*
X60750000Y-70000000D02*
X60750000Y-80750000D01*
X119590000Y-70250000D02*
X120090000Y-70750000D01*
X60750000Y-80750000D02*
X60170000Y-81330000D01*
%TO.N,SCL*%
X61500000Y-81000000D02*
X59250000Y-83250000D01*
X54500000Y-83250000D02*
X53962500Y-82712500D01*
X59250000Y-83250000D02*
X54500000Y-83250000D01*
X116250000Y-70250000D02*
X102750000Y-70250000D01*
X102000000Y-69500000D02*
X62500000Y-69500000D01*
X61500000Y-70500000D02*
X61500000Y-81000000D01*
X132250000Y-67262500D02*
X128987500Y-67262500D01*
X128500000Y-67750000D02*
X128500000Y-70500000D01*
X102750000Y-70250000D02*
X102000000Y-69500000D01*
X117500000Y-71500000D02*
X116750000Y-70750000D01*
X53962500Y-82712500D02*
X53962500Y-81330000D01*
X62500000Y-69500000D02*
X61500000Y-70500000D01*
X128987500Y-67262500D02*
X128500000Y-67750000D01*
X127500000Y-71500000D02*
X117500000Y-71500000D01*
X116750000Y-70750000D02*
X116250000Y-70250000D01*
X128500000Y-70500000D02*
X127500000Y-71500000D01*
%TO.N,Net-(U3-A6)*%
X91615000Y-90175000D02*
X91615000Y-87372500D01*
X91615000Y-87372500D02*
X91750000Y-87237500D01*
%TO.N,LED1*%
X66750000Y-66750000D02*
X66750000Y-61750000D01*
X65987500Y-60987500D02*
X61500000Y-60987500D01*
X66750000Y-61750000D02*
X65987500Y-60987500D01*
%TO.N,LED2*%
X68000000Y-59750000D02*
X68000000Y-66750000D01*
X55250000Y-58225000D02*
X57025000Y-58225000D01*
X59000000Y-56250000D02*
X64500000Y-56250000D01*
X57025000Y-58225000D02*
X59000000Y-56250000D01*
X64500000Y-56250000D02*
X68000000Y-59750000D01*
%TO.N,Net-(LED1-AK)*%
X57235000Y-60765000D02*
X59987500Y-58012500D01*
X55250000Y-60765000D02*
X57235000Y-60765000D01*
X59987500Y-58012500D02*
X61500000Y-58012500D01*
%TO.N,+3.3V_1*%
X101250000Y-70250000D02*
X63000000Y-70250000D01*
X52250000Y-83500000D02*
X52250000Y-76750000D01*
X52750000Y-76250000D02*
X53962500Y-76250000D01*
X63000000Y-70250000D02*
X62250000Y-71000000D01*
X62250000Y-71000000D02*
X62250000Y-81250000D01*
X59500000Y-84000000D02*
X52750000Y-84000000D01*
X52250000Y-76750000D02*
X52750000Y-76250000D01*
X53962500Y-76250000D02*
X53962500Y-69025000D01*
X62250000Y-81250000D02*
X59500000Y-84000000D01*
X52750000Y-84000000D02*
X52250000Y-83500000D01*
X53962500Y-69025000D02*
X53500000Y-68562500D01*
%TO.N,+3.3V_2*%
X123750000Y-86000000D02*
X125900000Y-88150000D01*
X125900000Y-88150000D02*
X125900000Y-91850000D01*
X127000000Y-85000000D02*
X123750000Y-85000000D01*
X126500000Y-66750000D02*
X123250000Y-66750000D01*
X133762500Y-70237500D02*
X134250000Y-69750000D01*
X134250000Y-61750000D02*
X133762500Y-61262500D01*
X127000000Y-66250000D02*
X126500000Y-66750000D01*
X132250000Y-70237500D02*
X133762500Y-70237500D01*
X123250000Y-78000000D02*
X123750000Y-78500000D01*
X122130000Y-78000000D02*
X123250000Y-78000000D01*
X123750000Y-86000000D02*
X123750000Y-85000000D01*
X125900000Y-91850000D02*
X125250000Y-92500000D01*
X119000000Y-92500000D02*
X116012500Y-89512500D01*
X116012500Y-89512500D02*
X114500000Y-89512500D01*
X123750000Y-85000000D02*
X123750000Y-78500000D01*
X127000000Y-61750000D02*
X127000000Y-66250000D01*
X123250000Y-66750000D02*
X122750000Y-67250000D01*
X122750000Y-67250000D02*
X122000000Y-68000000D01*
X134250000Y-69750000D02*
X134250000Y-61750000D01*
X122000000Y-68000000D02*
X122000000Y-69750000D01*
X127487500Y-61262500D02*
X127000000Y-61750000D01*
X133762500Y-61262500D02*
X132250000Y-61262500D01*
X132250000Y-61262500D02*
X127487500Y-61262500D01*
X125250000Y-92500000D02*
X119000000Y-92500000D01*
D39*
%TO.N,Net-(J2-Pin_1)*%
X113900000Y-135000000D02*
X100305000Y-135000000D01*
X100305000Y-135000000D02*
X97000000Y-138305000D01*
%TD*%
%TA.AperFunction,Conductor*%
%TO.N,+5V*%
G36*
X140202947Y-83701964D02*
G01*
X140494790Y-83896527D01*
X140499773Y-83903966D01*
X140500000Y-83906261D01*
X140500000Y-85093738D01*
X140496573Y-85102011D01*
X140494790Y-85103473D01*
X140205141Y-85296573D01*
X140202948Y-85298035D01*
X140196458Y-85300000D01*
X139004846Y-85300000D01*
X138996573Y-85296573D01*
X138703427Y-85003427D01*
X138700000Y-84995154D01*
X138700000Y-84004846D01*
X138703427Y-83996573D01*
X138996573Y-83703427D01*
X139004846Y-83700000D01*
X140196458Y-83700000D01*
X140202947Y-83701964D01*
G37*
%TD.AperFunction*%
%TD*%
%TA.AperFunction,Conductor*%
%TO.N,Net-(J2-Pin_1)*%
G36*
X115103368Y-133603368D02*
G01*
X115296632Y-133796632D01*
X115300000Y-133804764D01*
X115300000Y-136195236D01*
X115296632Y-136203368D01*
X115103368Y-136396632D01*
X115095236Y-136400000D01*
X112704764Y-136400000D01*
X112696632Y-136396632D01*
X112003368Y-135703368D01*
X112000000Y-135695236D01*
X112000000Y-134304764D01*
X112003368Y-134296632D01*
X112696632Y-133603368D01*
X112704764Y-133600000D01*
X115095236Y-133600000D01*
X115103368Y-133603368D01*
G37*
%TD.AperFunction*%
%TD*%
%TA.AperFunction,Conductor*%
%TO.N,Net-(J2-Pin_1)*%
G36*
X98764352Y-135514352D02*
G01*
X99485648Y-136235648D01*
X99500000Y-136270296D01*
X99500000Y-141479704D01*
X99485648Y-141514352D01*
X98764352Y-142235648D01*
X98729704Y-142250000D01*
X82270296Y-142250000D01*
X82235648Y-142235648D01*
X81514352Y-141514352D01*
X81500000Y-141479704D01*
X81500000Y-136270296D01*
X81514352Y-136235648D01*
X82235648Y-135514352D01*
X82270296Y-135500000D01*
X98729704Y-135500000D01*
X98764352Y-135514352D01*
G37*
%TD.AperFunction*%
%TD*%
%TA.AperFunction,Conductor*%
%TO.N,+5V*%
G36*
X68992148Y-115018954D02*
G01*
X69072930Y-115072930D01*
X70927070Y-116927070D01*
X70981046Y-117007852D01*
X71000000Y-117103140D01*
X71000000Y-120000000D01*
X78000000Y-127000000D01*
X119500000Y-127000000D01*
X119625000Y-126874999D01*
X119750001Y-126750000D01*
X120000000Y-126500000D01*
X120250000Y-126250000D01*
X120250000Y-121603140D01*
X120268954Y-121507852D01*
X120322930Y-121427070D01*
X120927070Y-120822930D01*
X121007852Y-120768954D01*
X121103140Y-120750000D01*
X127750000Y-120750000D01*
X127875000Y-120624999D01*
X128000001Y-120500000D01*
X128250000Y-120250000D01*
X128500000Y-120000000D01*
X128500000Y-117103140D01*
X128518954Y-117007852D01*
X128572930Y-116927070D01*
X130427070Y-115072930D01*
X130507852Y-115018954D01*
X130603140Y-115000000D01*
X147896860Y-115000000D01*
X147992148Y-115018954D01*
X148072930Y-115072930D01*
X149426570Y-116426570D01*
X149480546Y-116507352D01*
X149499500Y-116602640D01*
X149499500Y-136583616D01*
X149480546Y-136678904D01*
X149426570Y-136759686D01*
X149345788Y-136813662D01*
X149250500Y-136832616D01*
X149155212Y-136813662D01*
X149074430Y-136759686D01*
X149053597Y-136736030D01*
X148887372Y-136521286D01*
X148887366Y-136521278D01*
X148621784Y-136241885D01*
X148568814Y-136196412D01*
X148329304Y-135990800D01*
X148329288Y-135990787D01*
X148012922Y-135770590D01*
X148012915Y-135770586D01*
X148012911Y-135770583D01*
X147721878Y-135609046D01*
X147675866Y-135583507D01*
X147321633Y-135431493D01*
X146953830Y-135316095D01*
X146576241Y-135238498D01*
X146576229Y-135238496D01*
X146192758Y-135199501D01*
X146192744Y-135199500D01*
X146192740Y-135199500D01*
X145807260Y-135199500D01*
X145807255Y-135199500D01*
X145807241Y-135199501D01*
X145423770Y-135238496D01*
X145423758Y-135238498D01*
X145046169Y-135316095D01*
X144678366Y-135431493D01*
X144324133Y-135583507D01*
X143987099Y-135770577D01*
X143987077Y-135770590D01*
X143670711Y-135990787D01*
X143670695Y-135990800D01*
X143378223Y-136241878D01*
X143378217Y-136241883D01*
X143378216Y-136241885D01*
X143112634Y-136521278D01*
X143112631Y-136521281D01*
X143112627Y-136521286D01*
X142879522Y-136822433D01*
X142876680Y-136826105D01*
X142828997Y-136902606D01*
X142672770Y-137153248D01*
X142503010Y-137499331D01*
X142369133Y-137860807D01*
X142272513Y-138233975D01*
X142272513Y-138233976D01*
X142272512Y-138233981D01*
X142272512Y-138233982D01*
X142256334Y-138339585D01*
X142214139Y-138615023D01*
X142214138Y-138615028D01*
X142194616Y-138999991D01*
X142194616Y-139000008D01*
X142214138Y-139384971D01*
X142214139Y-139384976D01*
X142214139Y-139384981D01*
X142214140Y-139384984D01*
X142241724Y-139565046D01*
X142272513Y-139766023D01*
X142272513Y-139766024D01*
X142369133Y-140139192D01*
X142503010Y-140500668D01*
X142503013Y-140500675D01*
X142512785Y-140520596D01*
X142672770Y-140846751D01*
X142672772Y-140846755D01*
X142672775Y-140846760D01*
X142876680Y-141173895D01*
X143112634Y-141478722D01*
X143378216Y-141758115D01*
X143378223Y-141758121D01*
X143670695Y-142009199D01*
X143670707Y-142009209D01*
X143723752Y-142046129D01*
X143791134Y-142116121D01*
X143826601Y-142206571D01*
X143824756Y-142303708D01*
X143785878Y-142392745D01*
X143715886Y-142460127D01*
X143625436Y-142495594D01*
X143581507Y-142499500D01*
X99816523Y-142499500D01*
X99721235Y-142480546D01*
X99640453Y-142426570D01*
X99586477Y-142345788D01*
X99567523Y-142250500D01*
X99586477Y-142155212D01*
X99640450Y-142074433D01*
X99843090Y-141871794D01*
X99879249Y-141831541D01*
X99952668Y-141707802D01*
X99967020Y-141673154D01*
X99985024Y-141622120D01*
X100005500Y-141479704D01*
X100005500Y-139380705D01*
X100024454Y-139285417D01*
X100078430Y-139204635D01*
X100159212Y-139150659D01*
X100254500Y-139131705D01*
X100349788Y-139150659D01*
X100430570Y-139204635D01*
X100470141Y-139256207D01*
X100508181Y-139322096D01*
X100508189Y-139322107D01*
X100558325Y-139384976D01*
X100676439Y-139533085D01*
X100874259Y-139716635D01*
X101097226Y-139868651D01*
X101340359Y-139985738D01*
X101598228Y-140065280D01*
X101865071Y-140105500D01*
X101865074Y-140105500D01*
X102134926Y-140105500D01*
X102134929Y-140105500D01*
X102401772Y-140065280D01*
X102659641Y-139985738D01*
X102902775Y-139868651D01*
X103125741Y-139716635D01*
X103323561Y-139533085D01*
X103491815Y-139322102D01*
X103626743Y-139088398D01*
X103725334Y-138837195D01*
X103785383Y-138574103D01*
X103805549Y-138305000D01*
X103785383Y-138035897D01*
X103725334Y-137772805D01*
X103626743Y-137521602D01*
X103491815Y-137287898D01*
X103491813Y-137287895D01*
X103491811Y-137287892D01*
X103323562Y-137076916D01*
X103208446Y-136970104D01*
X103125741Y-136893365D01*
X103125739Y-136893364D01*
X103118911Y-136887028D01*
X103120393Y-136885430D01*
X103067204Y-136822433D01*
X103037706Y-136729864D01*
X103045878Y-136633053D01*
X103090475Y-136546739D01*
X103164709Y-136484062D01*
X103257278Y-136454564D01*
X103285142Y-136453000D01*
X105714858Y-136453000D01*
X105810146Y-136471954D01*
X105890928Y-136525930D01*
X105944904Y-136606712D01*
X105963858Y-136702000D01*
X105944904Y-136797288D01*
X105890928Y-136878070D01*
X105881005Y-136886937D01*
X105881089Y-136887028D01*
X105676437Y-137076916D01*
X105508189Y-137287892D01*
X105508188Y-137287892D01*
X105373257Y-137521601D01*
X105373256Y-137521604D01*
X105274667Y-137772801D01*
X105274663Y-137772812D01*
X105214616Y-138035899D01*
X105194451Y-138305000D01*
X105214616Y-138574100D01*
X105274663Y-138837187D01*
X105274666Y-138837195D01*
X105373257Y-139088398D01*
X105487011Y-139285428D01*
X105508188Y-139322107D01*
X105676437Y-139533083D01*
X105676439Y-139533085D01*
X105874259Y-139716635D01*
X106097226Y-139868651D01*
X106340359Y-139985738D01*
X106598228Y-140065280D01*
X106865071Y-140105500D01*
X106865074Y-140105500D01*
X107134926Y-140105500D01*
X107134929Y-140105500D01*
X107401772Y-140065280D01*
X107659641Y-139985738D01*
X107902775Y-139868651D01*
X108125741Y-139716635D01*
X108323561Y-139533085D01*
X108491815Y-139322102D01*
X108626743Y-139088398D01*
X108725334Y-138837195D01*
X108785383Y-138574103D01*
X108805549Y-138305000D01*
X108785383Y-138035897D01*
X108725334Y-137772805D01*
X108626743Y-137521602D01*
X108491815Y-137287898D01*
X108491813Y-137287895D01*
X108491811Y-137287892D01*
X108323562Y-137076916D01*
X108208446Y-136970104D01*
X108125741Y-136893365D01*
X108125739Y-136893364D01*
X108118911Y-136887028D01*
X108120393Y-136885430D01*
X108067204Y-136822433D01*
X108037706Y-136729864D01*
X108045878Y-136633053D01*
X108090475Y-136546739D01*
X108164709Y-136484062D01*
X108257278Y-136454564D01*
X108285142Y-136453000D01*
X111934976Y-136453000D01*
X112030264Y-136471954D01*
X112111045Y-136525930D01*
X112264020Y-136678904D01*
X112339190Y-136754074D01*
X112379462Y-136790248D01*
X112503204Y-136863661D01*
X112511336Y-136867029D01*
X112562348Y-136885024D01*
X112704764Y-136905500D01*
X112704767Y-136905500D01*
X115095247Y-136905500D01*
X115134847Y-136903377D01*
X115149251Y-136902606D01*
X115288664Y-136867029D01*
X115296796Y-136863661D01*
X115345628Y-136840299D01*
X115460810Y-136754074D01*
X115654074Y-136560810D01*
X115690248Y-136520538D01*
X115763661Y-136396796D01*
X115767029Y-136388664D01*
X115785024Y-136337652D01*
X115805500Y-136195236D01*
X115805500Y-134435771D01*
X123999500Y-134435771D01*
X123999500Y-136064208D01*
X123999501Y-136064216D01*
X124009904Y-136196412D01*
X124064904Y-136414683D01*
X124157993Y-136619626D01*
X124157995Y-136619629D01*
X124157996Y-136619631D01*
X124286177Y-136804649D01*
X124286178Y-136804650D01*
X124286181Y-136804654D01*
X124445346Y-136963819D01*
X124445349Y-136963821D01*
X124445350Y-136963822D01*
X124608590Y-137076915D01*
X124630374Y-137092007D01*
X124835317Y-137185096D01*
X125053588Y-137240096D01*
X125053591Y-137240096D01*
X125053594Y-137240097D01*
X125119685Y-137245298D01*
X125185783Y-137250500D01*
X127314216Y-137250499D01*
X127446412Y-137240096D01*
X127664683Y-137185096D01*
X127869626Y-137092007D01*
X128054654Y-136963819D01*
X128213819Y-136804654D01*
X128342007Y-136619626D01*
X128435096Y-136414683D01*
X128490096Y-136196412D01*
X128500500Y-136064217D01*
X128500499Y-134435784D01*
X128490096Y-134303588D01*
X128435096Y-134085317D01*
X128342007Y-133880374D01*
X128256729Y-133757283D01*
X128213822Y-133695350D01*
X128213821Y-133695349D01*
X128213819Y-133695346D01*
X128054654Y-133536181D01*
X128054650Y-133536178D01*
X128054649Y-133536177D01*
X127869631Y-133407996D01*
X127869629Y-133407995D01*
X127869626Y-133407993D01*
X127732776Y-133345833D01*
X127664686Y-133314905D01*
X127664684Y-133314904D01*
X127664683Y-133314904D01*
X127446412Y-133259904D01*
X127446411Y-133259903D01*
X127446408Y-133259903D01*
X127446405Y-133259902D01*
X127314222Y-133249500D01*
X125185791Y-133249500D01*
X125053587Y-133259904D01*
X124835313Y-133314905D01*
X124682116Y-133384491D01*
X124630374Y-133407993D01*
X124630372Y-133407993D01*
X124630368Y-133407996D01*
X124445350Y-133536177D01*
X124286177Y-133695350D01*
X124157996Y-133880368D01*
X124064905Y-134085313D01*
X124009903Y-134303591D01*
X124009902Y-134303594D01*
X123999500Y-134435771D01*
X115805500Y-134435771D01*
X115805500Y-133804764D01*
X115805500Y-133804752D01*
X115802606Y-133750752D01*
X115802606Y-133750751D01*
X115802606Y-133750749D01*
X115767029Y-133611336D01*
X115763661Y-133603204D01*
X115740299Y-133554372D01*
X115740299Y-133554371D01*
X115654080Y-133439197D01*
X115654076Y-133439193D01*
X115654074Y-133439190D01*
X115460810Y-133245926D01*
X115420538Y-133209752D01*
X115420535Y-133209750D01*
X115296795Y-133136338D01*
X115288670Y-133132973D01*
X115237650Y-133114975D01*
X115148939Y-133102221D01*
X115095236Y-133094500D01*
X112704764Y-133094500D01*
X112704752Y-133094500D01*
X112650752Y-133097393D01*
X112650751Y-133097393D01*
X112511337Y-133132970D01*
X112511330Y-133132973D01*
X112503214Y-133136334D01*
X112503203Y-133136339D01*
X112454371Y-133159700D01*
X112339197Y-133245919D01*
X112339184Y-133245931D01*
X112111045Y-133474070D01*
X112030264Y-133528046D01*
X111934976Y-133547000D01*
X100190641Y-133547000D01*
X100157400Y-133552265D01*
X100144102Y-133554372D01*
X100144101Y-133554372D01*
X99964767Y-133582775D01*
X99964756Y-133582777D01*
X99964755Y-133582778D01*
X99964752Y-133582778D01*
X99964748Y-133582780D01*
X99747251Y-133653448D01*
X99747243Y-133653451D01*
X99747241Y-133653452D01*
X99747237Y-133653453D01*
X99747230Y-133653457D01*
X99543470Y-133757278D01*
X99543463Y-133757282D01*
X99358435Y-133891712D01*
X98328577Y-134921570D01*
X98247795Y-134975546D01*
X98152507Y-134994500D01*
X82270296Y-134994500D01*
X82223011Y-134997034D01*
X82216255Y-134997397D01*
X82076855Y-135032977D01*
X82076842Y-135032981D01*
X82042188Y-135047336D01*
X81993388Y-135070684D01*
X81878207Y-135156909D01*
X81878200Y-135156915D01*
X81426068Y-135609046D01*
X81345287Y-135663022D01*
X81249998Y-135681976D01*
X81154710Y-135663022D01*
X81073932Y-135609048D01*
X80621794Y-135156910D01*
X80594980Y-135132823D01*
X80581545Y-135120754D01*
X80581539Y-135120749D01*
X80457802Y-135047332D01*
X80457796Y-135047329D01*
X80423160Y-135032982D01*
X80372120Y-135014976D01*
X80372119Y-135014975D01*
X80277410Y-135001359D01*
X80229704Y-134994500D01*
X80229701Y-134994500D01*
X76062524Y-134994500D01*
X75967236Y-134975546D01*
X75886455Y-134921570D01*
X75121793Y-134156909D01*
X75081545Y-134120754D01*
X75081539Y-134120749D01*
X74957802Y-134047332D01*
X74957796Y-134047329D01*
X74923160Y-134032982D01*
X74872120Y-134014976D01*
X74872119Y-134014975D01*
X74777410Y-134001359D01*
X74729704Y-133994500D01*
X73663130Y-133994500D01*
X73567842Y-133975546D01*
X73487060Y-133921570D01*
X73433084Y-133840788D01*
X73414130Y-133745500D01*
X73433084Y-133650212D01*
X73487060Y-133569430D01*
X73532409Y-133533572D01*
X73598656Y-133492712D01*
X73722712Y-133368656D01*
X73814814Y-133219334D01*
X73869999Y-133052797D01*
X73869998Y-133052797D01*
X73874275Y-133039893D01*
X73877701Y-133041028D01*
X73905882Y-132975683D01*
X73975568Y-132907985D01*
X74065855Y-132872107D01*
X74110896Y-132868000D01*
X74358033Y-132868000D01*
X74453321Y-132886954D01*
X74534102Y-132940930D01*
X74633066Y-133039893D01*
X74728555Y-133135382D01*
X74862532Y-133224902D01*
X75011398Y-133286564D01*
X75169432Y-133317999D01*
X75169433Y-133318000D01*
X75169434Y-133318000D01*
X75330567Y-133318000D01*
X75330567Y-133317999D01*
X75488602Y-133286564D01*
X75637468Y-133224902D01*
X75771445Y-133135382D01*
X75885382Y-133021445D01*
X75974902Y-132887468D01*
X76036564Y-132738602D01*
X76068000Y-132580566D01*
X76068000Y-132419434D01*
X76036564Y-132261398D01*
X75974902Y-132112532D01*
X75885382Y-131978555D01*
X75321445Y-131414618D01*
X75321441Y-131414615D01*
X75187469Y-131325097D01*
X75187466Y-131325096D01*
X75113036Y-131294266D01*
X75113035Y-131294266D01*
X75038602Y-131263435D01*
X74880566Y-131232000D01*
X74880564Y-131232000D01*
X74110897Y-131232000D01*
X74015609Y-131213046D01*
X73934827Y-131159070D01*
X73880851Y-131078288D01*
X73875105Y-131059834D01*
X73874276Y-131060109D01*
X73842368Y-130963819D01*
X73814814Y-130880666D01*
X73722712Y-130731344D01*
X73598656Y-130607288D01*
X73449334Y-130515186D01*
X73449332Y-130515185D01*
X73449330Y-130515184D01*
X73449332Y-130515184D01*
X73282802Y-130460002D01*
X73282798Y-130460001D01*
X73282797Y-130460001D01*
X73180009Y-130449500D01*
X73180005Y-130449500D01*
X72379993Y-130449500D01*
X72277199Y-130460001D01*
X72110667Y-130515185D01*
X71961346Y-130607286D01*
X71837286Y-130731346D01*
X71745184Y-130880668D01*
X71690002Y-131047197D01*
X71690001Y-131047204D01*
X71679500Y-131149988D01*
X71679500Y-132950006D01*
X71690001Y-133052800D01*
X71745185Y-133219331D01*
X71745186Y-133219334D01*
X71837288Y-133368656D01*
X71961344Y-133492712D01*
X72027589Y-133533572D01*
X72098739Y-133599727D01*
X72139158Y-133688075D01*
X72142690Y-133785166D01*
X72108799Y-133876218D01*
X72042643Y-133947369D01*
X71954295Y-133987788D01*
X71896870Y-133994500D01*
X67770296Y-133994500D01*
X67723011Y-133997034D01*
X67716255Y-133997397D01*
X67576855Y-134032977D01*
X67576842Y-134032981D01*
X67542188Y-134047336D01*
X67493388Y-134070684D01*
X67378208Y-134156908D01*
X66656900Y-134878216D01*
X66620754Y-134918454D01*
X66620749Y-134918460D01*
X66547332Y-135042197D01*
X66547329Y-135042203D01*
X66532982Y-135076839D01*
X66514976Y-135127879D01*
X66514975Y-135127880D01*
X66494500Y-135270299D01*
X66494500Y-141479696D01*
X66497397Y-141533744D01*
X66532977Y-141673144D01*
X66532981Y-141673157D01*
X66547336Y-141707811D01*
X66570684Y-141756611D01*
X66614282Y-141814850D01*
X66656910Y-141871794D01*
X66859549Y-142074433D01*
X66913523Y-142155212D01*
X66932477Y-142250500D01*
X66913523Y-142345788D01*
X66859547Y-142426570D01*
X66778765Y-142480546D01*
X66683477Y-142499500D01*
X56418493Y-142499500D01*
X56323205Y-142480546D01*
X56242423Y-142426570D01*
X56188447Y-142345788D01*
X56169493Y-142250500D01*
X56188447Y-142155212D01*
X56242423Y-142074430D01*
X56276248Y-142046129D01*
X56329292Y-142009209D01*
X56329298Y-142009205D01*
X56621784Y-141758115D01*
X56887366Y-141478722D01*
X57123320Y-141173895D01*
X57327225Y-140846760D01*
X57496987Y-140500675D01*
X57630866Y-140139192D01*
X57727488Y-139766018D01*
X57785860Y-139384984D01*
X57785861Y-139384971D01*
X57805384Y-139000008D01*
X57805384Y-138999991D01*
X57785861Y-138615028D01*
X57785860Y-138615023D01*
X57785860Y-138615016D01*
X57727488Y-138233982D01*
X57677973Y-138042744D01*
X57630866Y-137860807D01*
X57505238Y-137521604D01*
X57496987Y-137499325D01*
X57327225Y-137153240D01*
X57123320Y-136826105D01*
X56887366Y-136521278D01*
X56621784Y-136241885D01*
X56568814Y-136196412D01*
X56329304Y-135990800D01*
X56329288Y-135990787D01*
X56012922Y-135770590D01*
X56012915Y-135770586D01*
X56012911Y-135770583D01*
X55721878Y-135609046D01*
X55675866Y-135583507D01*
X55321633Y-135431493D01*
X54953830Y-135316095D01*
X54576241Y-135238498D01*
X54576229Y-135238496D01*
X54192758Y-135199501D01*
X54192744Y-135199500D01*
X54192740Y-135199500D01*
X53807260Y-135199500D01*
X53807255Y-135199500D01*
X53807241Y-135199501D01*
X53423770Y-135238496D01*
X53423758Y-135238498D01*
X53046169Y-135316095D01*
X52678366Y-135431493D01*
X52324133Y-135583507D01*
X51987099Y-135770577D01*
X51987077Y-135770590D01*
X51670711Y-135990787D01*
X51670695Y-135990800D01*
X51378223Y-136241878D01*
X51378217Y-136241883D01*
X51378216Y-136241885D01*
X51112634Y-136521278D01*
X51112631Y-136521281D01*
X51112627Y-136521286D01*
X50946403Y-136736030D01*
X50873088Y-136799780D01*
X50780958Y-136830621D01*
X50684039Y-136823857D01*
X50597086Y-136780519D01*
X50533336Y-136707204D01*
X50502495Y-136615074D01*
X50500500Y-136583616D01*
X50500500Y-133500000D01*
X59244357Y-133500000D01*
X59264892Y-133747823D01*
X59264894Y-133747831D01*
X59322560Y-133975546D01*
X59325937Y-133988881D01*
X59345281Y-134032980D01*
X59425825Y-134216603D01*
X59425828Y-134216608D01*
X59561830Y-134424778D01*
X59561836Y-134424785D01*
X59730248Y-134607730D01*
X59730252Y-134607733D01*
X59730256Y-134607738D01*
X59730260Y-134607741D01*
X59730261Y-134607742D01*
X59926485Y-134760470D01*
X59926487Y-134760471D01*
X59926491Y-134760474D01*
X60145190Y-134878828D01*
X60214736Y-134902703D01*
X60380378Y-134959569D01*
X60380382Y-134959569D01*
X60380386Y-134959571D01*
X60625665Y-135000500D01*
X60874335Y-135000500D01*
X61119614Y-134959571D01*
X61119618Y-134959569D01*
X61119621Y-134959569D01*
X61239369Y-134918459D01*
X61354810Y-134878828D01*
X61573509Y-134760474D01*
X61769744Y-134607738D01*
X61938164Y-134424785D01*
X62074173Y-134216607D01*
X62174063Y-133988881D01*
X62235108Y-133747821D01*
X62255643Y-133500000D01*
X62235108Y-133252179D01*
X62174063Y-133011119D01*
X62074173Y-132783393D01*
X62020997Y-132702001D01*
X61938169Y-132575221D01*
X61938163Y-132575214D01*
X61769751Y-132392269D01*
X61769747Y-132392265D01*
X61769744Y-132392262D01*
X61769738Y-132392257D01*
X61573514Y-132239529D01*
X61573510Y-132239526D01*
X61573509Y-132239526D01*
X61496502Y-132197852D01*
X61354811Y-132121172D01*
X61119621Y-132040430D01*
X61119610Y-132040428D01*
X60874335Y-131999500D01*
X60625665Y-131999500D01*
X60380389Y-132040428D01*
X60380378Y-132040430D01*
X60145188Y-132121172D01*
X59926485Y-132239529D01*
X59730261Y-132392257D01*
X59730248Y-132392269D01*
X59561836Y-132575214D01*
X59561830Y-132575221D01*
X59425828Y-132783391D01*
X59425825Y-132783396D01*
X59325936Y-133011121D01*
X59325935Y-133011125D01*
X59264894Y-133252168D01*
X59264892Y-133252176D01*
X59244357Y-133500000D01*
X50500500Y-133500000D01*
X50500500Y-128435771D01*
X123999500Y-128435771D01*
X123999500Y-130064208D01*
X124009904Y-130196412D01*
X124064905Y-130414686D01*
X124080719Y-130449501D01*
X124157993Y-130619626D01*
X124157995Y-130619629D01*
X124157996Y-130619631D01*
X124286177Y-130804649D01*
X124286178Y-130804650D01*
X124286181Y-130804654D01*
X124445346Y-130963819D01*
X124445349Y-130963821D01*
X124445350Y-130963822D01*
X124574924Y-131053591D01*
X124630374Y-131092007D01*
X124835317Y-131185096D01*
X125053588Y-131240096D01*
X125053591Y-131240096D01*
X125053594Y-131240097D01*
X125119685Y-131245298D01*
X125185783Y-131250500D01*
X127314216Y-131250499D01*
X127446412Y-131240096D01*
X127662004Y-131185771D01*
X128949500Y-131185771D01*
X128949500Y-133314208D01*
X128953785Y-133368653D01*
X128959904Y-133446412D01*
X129012075Y-133653457D01*
X129014905Y-133664686D01*
X129045833Y-133732776D01*
X129107993Y-133869626D01*
X129107995Y-133869629D01*
X129107996Y-133869631D01*
X129236177Y-134054649D01*
X129236178Y-134054650D01*
X129236181Y-134054654D01*
X129395346Y-134213819D01*
X129395349Y-134213821D01*
X129395350Y-134213822D01*
X129524924Y-134303591D01*
X129580374Y-134342007D01*
X129785317Y-134435096D01*
X130003588Y-134490096D01*
X130003591Y-134490096D01*
X130003594Y-134490097D01*
X130069685Y-134495298D01*
X130135783Y-134500500D01*
X131764216Y-134500499D01*
X131896412Y-134490096D01*
X132114683Y-134435096D01*
X132319626Y-134342007D01*
X132504654Y-134213819D01*
X132663819Y-134054654D01*
X132792007Y-133869626D01*
X132885096Y-133664683D01*
X132893250Y-133632323D01*
X137744357Y-133632323D01*
X137764892Y-133880146D01*
X137764894Y-133880154D01*
X137825935Y-134121197D01*
X137825936Y-134121201D01*
X137925825Y-134348926D01*
X137925828Y-134348931D01*
X138061830Y-134557101D01*
X138061836Y-134557108D01*
X138230248Y-134740053D01*
X138230252Y-134740056D01*
X138230256Y-134740061D01*
X138230260Y-134740064D01*
X138230261Y-134740065D01*
X138426485Y-134892793D01*
X138426487Y-134892794D01*
X138426491Y-134892797D01*
X138645190Y-135011151D01*
X138714736Y-135035026D01*
X138880378Y-135091892D01*
X138880382Y-135091892D01*
X138880386Y-135091894D01*
X139125665Y-135132823D01*
X139374335Y-135132823D01*
X139619614Y-135091894D01*
X139619618Y-135091892D01*
X139619621Y-135091892D01*
X139709077Y-135061181D01*
X139854810Y-135011151D01*
X140073509Y-134892797D01*
X140269744Y-134740061D01*
X140438164Y-134557108D01*
X140574173Y-134348930D01*
X140674063Y-134121204D01*
X140735108Y-133880144D01*
X140755643Y-133632323D01*
X140735108Y-133384502D01*
X140674063Y-133143442D01*
X140574173Y-132915716D01*
X140520997Y-132834324D01*
X140438169Y-132707544D01*
X140438163Y-132707537D01*
X140269751Y-132524592D01*
X140269747Y-132524588D01*
X140269744Y-132524585D01*
X140269738Y-132524580D01*
X140073514Y-132371852D01*
X140073510Y-132371849D01*
X140073509Y-132371849D01*
X139996502Y-132330175D01*
X139854811Y-132253495D01*
X139619621Y-132172753D01*
X139619610Y-132172751D01*
X139374335Y-132131823D01*
X139125665Y-132131823D01*
X138880389Y-132172751D01*
X138880378Y-132172753D01*
X138645188Y-132253495D01*
X138426485Y-132371852D01*
X138230261Y-132524580D01*
X138230248Y-132524592D01*
X138061836Y-132707537D01*
X138061830Y-132707544D01*
X137925828Y-132915714D01*
X137925825Y-132915719D01*
X137825936Y-133143444D01*
X137825935Y-133143448D01*
X137764894Y-133384491D01*
X137764892Y-133384499D01*
X137744357Y-133632323D01*
X132893250Y-133632323D01*
X132940096Y-133446412D01*
X132940665Y-133439190D01*
X132950499Y-133314228D01*
X132950500Y-133314217D01*
X132950499Y-131185784D01*
X132940096Y-131053588D01*
X132885096Y-130835317D01*
X132792007Y-130630374D01*
X132776012Y-130607286D01*
X132663822Y-130445350D01*
X132663821Y-130445349D01*
X132663819Y-130445346D01*
X132504654Y-130286181D01*
X132504650Y-130286178D01*
X132504649Y-130286177D01*
X132319631Y-130157996D01*
X132319629Y-130157995D01*
X132319626Y-130157993D01*
X132182776Y-130095833D01*
X132114686Y-130064905D01*
X132114684Y-130064904D01*
X132114683Y-130064904D01*
X131896412Y-130009904D01*
X131896411Y-130009903D01*
X131896408Y-130009903D01*
X131896405Y-130009902D01*
X131764222Y-129999500D01*
X130135791Y-129999500D01*
X130003587Y-130009904D01*
X129785313Y-130064905D01*
X129631941Y-130134570D01*
X129580374Y-130157993D01*
X129580372Y-130157993D01*
X129580368Y-130157996D01*
X129395350Y-130286177D01*
X129236177Y-130445350D01*
X129107996Y-130630368D01*
X129014905Y-130835313D01*
X128959903Y-131053591D01*
X128959902Y-131053594D01*
X128949500Y-131185771D01*
X127662004Y-131185771D01*
X127664683Y-131185096D01*
X127869626Y-131092007D01*
X128054654Y-130963819D01*
X128213819Y-130804654D01*
X128342007Y-130619626D01*
X128435096Y-130414683D01*
X128490096Y-130196412D01*
X128493120Y-130157996D01*
X128500499Y-130064228D01*
X128500500Y-130064217D01*
X128500499Y-128435784D01*
X128490096Y-128303588D01*
X128435096Y-128085317D01*
X128342007Y-127880374D01*
X128213819Y-127695346D01*
X128054654Y-127536181D01*
X128054650Y-127536178D01*
X128054649Y-127536177D01*
X127869631Y-127407996D01*
X127869629Y-127407995D01*
X127869626Y-127407993D01*
X127732776Y-127345833D01*
X127664686Y-127314905D01*
X127664684Y-127314904D01*
X127664683Y-127314904D01*
X127446412Y-127259904D01*
X127446411Y-127259903D01*
X127446408Y-127259903D01*
X127446405Y-127259902D01*
X127314222Y-127249500D01*
X125185791Y-127249500D01*
X125053587Y-127259904D01*
X124835313Y-127314905D01*
X124681941Y-127384570D01*
X124630374Y-127407993D01*
X124630372Y-127407993D01*
X124630368Y-127407996D01*
X124445350Y-127536177D01*
X124286177Y-127695350D01*
X124157996Y-127880368D01*
X124064905Y-128085313D01*
X124009903Y-128303591D01*
X124009902Y-128303594D01*
X123999500Y-128435771D01*
X50500500Y-128435771D01*
X50500500Y-116602640D01*
X50519454Y-116507352D01*
X50573430Y-116426570D01*
X51927070Y-115072930D01*
X52007852Y-115018954D01*
X52103140Y-115000000D01*
X68896860Y-115000000D01*
X68992148Y-115018954D01*
G37*
%TD.AperFunction*%
%TD*%
%TA.AperFunction,Conductor*%
%TO.N,Net-(Q1-D)*%
G36*
X74764352Y-134514352D02*
G01*
X75750000Y-135500000D01*
X80229704Y-135500000D01*
X80264352Y-135514352D01*
X80985648Y-136235648D01*
X81000000Y-136270296D01*
X81000000Y-141479704D01*
X80985648Y-141514352D01*
X80264352Y-142235648D01*
X80229704Y-142250000D01*
X67770296Y-142250000D01*
X67735648Y-142235648D01*
X67014352Y-141514352D01*
X67000000Y-141479704D01*
X67000000Y-135270296D01*
X67014352Y-135235648D01*
X67735648Y-134514352D01*
X67770296Y-134500000D01*
X74729704Y-134500000D01*
X74764352Y-134514352D01*
G37*
%TD.AperFunction*%
%TD*%
%TA.AperFunction,Conductor*%
%TO.N,GND*%
G36*
X79776868Y-88889020D02*
G01*
X79782356Y-88893740D01*
X80031745Y-89304158D01*
X80033112Y-89313008D01*
X80030019Y-89318507D01*
X79818507Y-89530019D01*
X79810234Y-89533446D01*
X79804158Y-89531745D01*
X79393740Y-89282356D01*
X79388450Y-89275131D01*
X79388992Y-89267914D01*
X79497436Y-89003814D01*
X79503746Y-88997464D01*
X79767914Y-88888993D01*
X79776868Y-88889020D01*
G37*
%TD.AperFunction*%
%TD*%
%TA.AperFunction,Conductor*%
%TO.N,GND*%
G36*
X91982085Y-82388992D02*
G01*
X92106579Y-82440112D01*
X92246184Y-82497436D01*
X92252536Y-82503748D01*
X92252563Y-82503815D01*
X92361006Y-82767913D01*
X92360979Y-82776868D01*
X92356259Y-82782356D01*
X91945841Y-83031745D01*
X91936991Y-83033112D01*
X91931492Y-83030019D01*
X91719980Y-82818507D01*
X91716553Y-82810234D01*
X91718254Y-82804158D01*
X91740278Y-82767913D01*
X91967644Y-82393739D01*
X91974868Y-82388450D01*
X91982085Y-82388992D01*
G37*
%TD.AperFunction*%
%TD*%
%TA.AperFunction,Conductor*%
%TO.N,GND*%
G36*
X139676673Y-86289104D02*
G01*
X139682298Y-86294029D01*
X139853442Y-86588524D01*
X139855026Y-86594403D01*
X139855026Y-86891365D01*
X139851599Y-86899638D01*
X139843326Y-86903065D01*
X139838921Y-86902204D01*
X139296073Y-86681584D01*
X139289699Y-86675294D01*
X139289639Y-86666340D01*
X139289655Y-86666301D01*
X139397148Y-86404507D01*
X139403456Y-86398160D01*
X139667719Y-86289093D01*
X139676673Y-86289104D01*
G37*
%TD.AperFunction*%
%TD*%
%TA.AperFunction,Conductor*%
%TO.N,GND*%
G36*
X112276868Y-97889020D02*
G01*
X112282356Y-97893740D01*
X112531745Y-98304158D01*
X112533112Y-98313008D01*
X112530019Y-98318507D01*
X112318507Y-98530019D01*
X112310234Y-98533446D01*
X112304158Y-98531745D01*
X111893740Y-98282356D01*
X111888450Y-98275131D01*
X111888992Y-98267914D01*
X111997436Y-98003814D01*
X112003746Y-97997464D01*
X112267914Y-97888993D01*
X112276868Y-97889020D01*
G37*
%TD.AperFunction*%
%TD*%
%TA.AperFunction,Conductor*%
%TO.N,GND*%
G36*
X145707358Y-77085638D02*
G01*
X145767937Y-77110950D01*
X145774249Y-77117302D01*
X145774792Y-77124520D01*
X145660928Y-77591074D01*
X145655638Y-77598299D01*
X145649562Y-77600000D01*
X145350438Y-77600000D01*
X145342165Y-77596573D01*
X145339072Y-77591074D01*
X145225207Y-77124520D01*
X145226574Y-77115670D01*
X145232062Y-77110950D01*
X145495490Y-77000883D01*
X145504444Y-77000857D01*
X145707358Y-77085638D01*
G37*
%TD.AperFunction*%
%TD*%
%TA.AperFunction,Conductor*%
%TO.N,GND*%
G36*
X58531987Y-64988971D02*
G01*
X58796494Y-65098140D01*
X58802833Y-65104463D01*
X58802852Y-65104510D01*
X58910245Y-65366060D01*
X58910218Y-65375015D01*
X58903866Y-65381327D01*
X58903588Y-65381437D01*
X58355663Y-65590204D01*
X58346712Y-65589948D01*
X58340564Y-65583437D01*
X58339797Y-65579271D01*
X58339797Y-65282098D01*
X58341569Y-65275908D01*
X58517598Y-64993595D01*
X58524881Y-64988389D01*
X58531987Y-64988971D01*
G37*
%TD.AperFunction*%
%TD*%
%TA.AperFunction,Conductor*%
%TO.N,GND*%
G36*
X79776868Y-97889020D02*
G01*
X79782356Y-97893740D01*
X80031745Y-98304158D01*
X80033112Y-98313008D01*
X80030019Y-98318507D01*
X79818507Y-98530019D01*
X79810234Y-98533446D01*
X79804158Y-98531745D01*
X79393740Y-98282356D01*
X79388450Y-98275131D01*
X79388992Y-98267914D01*
X79497436Y-98003814D01*
X79503746Y-97997464D01*
X79767914Y-97888993D01*
X79776868Y-97889020D01*
G37*
%TD.AperFunction*%
%TD*%
%TA.AperFunction,Conductor*%
%TO.N,+5V*%
G36*
X120195841Y-68718254D02*
G01*
X120606259Y-68967643D01*
X120611549Y-68974868D01*
X120611006Y-68982086D01*
X120502563Y-69246184D01*
X120496251Y-69252536D01*
X120496184Y-69252563D01*
X120232086Y-69361006D01*
X120223131Y-69360979D01*
X120217643Y-69356259D01*
X119968254Y-68945841D01*
X119966887Y-68936991D01*
X119969978Y-68931494D01*
X120181493Y-68719979D01*
X120189765Y-68716553D01*
X120195841Y-68718254D01*
G37*
%TD.AperFunction*%
%TD*%
%TA.AperFunction,Conductor*%
%TO.N,BUF_ROW_B*%
G36*
X102407835Y-113653427D02*
G01*
X102410928Y-113658926D01*
X102524792Y-114125479D01*
X102523425Y-114134329D01*
X102517937Y-114139049D01*
X102254511Y-114249115D01*
X102245556Y-114249142D01*
X102245489Y-114249115D01*
X101982062Y-114139049D01*
X101975750Y-114132697D01*
X101975207Y-114125479D01*
X102089072Y-113658926D01*
X102094362Y-113651701D01*
X102100438Y-113650000D01*
X102399562Y-113650000D01*
X102407835Y-113653427D01*
G37*
%TD.AperFunction*%
%TD*%
%TA.AperFunction,Conductor*%
%TO.N,BUF_ROW_B*%
G36*
X102407835Y-116653427D02*
G01*
X102410928Y-116658926D01*
X102524792Y-117125479D01*
X102523425Y-117134329D01*
X102517937Y-117139049D01*
X102254511Y-117249115D01*
X102245556Y-117249142D01*
X102245489Y-117249115D01*
X101982062Y-117139049D01*
X101975750Y-117132697D01*
X101975207Y-117125479D01*
X102089072Y-116658926D01*
X102094362Y-116651701D01*
X102100438Y-116650000D01*
X102399562Y-116650000D01*
X102407835Y-116653427D01*
G37*
%TD.AperFunction*%
%TD*%
%TA.AperFunction,Conductor*%
%TO.N,BUF_ROW_C*%
G36*
X100657835Y-113653427D02*
G01*
X100660928Y-113658926D01*
X100774792Y-114125479D01*
X100773425Y-114134329D01*
X100767937Y-114139049D01*
X100504511Y-114249115D01*
X100495556Y-114249142D01*
X100495489Y-114249115D01*
X100232062Y-114139049D01*
X100225750Y-114132697D01*
X100225207Y-114125479D01*
X100339072Y-113658926D01*
X100344362Y-113651701D01*
X100350438Y-113650000D01*
X100649562Y-113650000D01*
X100657835Y-113653427D01*
G37*
%TD.AperFunction*%
%TD*%
%TA.AperFunction,Conductor*%
%TO.N,BUF_ROW_C*%
G36*
X109132085Y-117288992D02*
G01*
X109256579Y-117340112D01*
X109396184Y-117397436D01*
X109402536Y-117403748D01*
X109402563Y-117403815D01*
X109511006Y-117667913D01*
X109510979Y-117676868D01*
X109506259Y-117682356D01*
X109095841Y-117931745D01*
X109086991Y-117933112D01*
X109081492Y-117930019D01*
X108869980Y-117718507D01*
X108866553Y-117710234D01*
X108868254Y-117704158D01*
X108890278Y-117667913D01*
X109117644Y-117293739D01*
X109124868Y-117288450D01*
X109132085Y-117288992D01*
G37*
%TD.AperFunction*%
%TD*%
%TA.AperFunction,Conductor*%
%TO.N,BUF_ROW_C*%
G36*
X100657835Y-117653427D02*
G01*
X100660928Y-117658926D01*
X100774792Y-118125479D01*
X100773425Y-118134329D01*
X100767937Y-118139049D01*
X100504511Y-118249115D01*
X100495556Y-118249142D01*
X100495489Y-118249115D01*
X100232062Y-118139049D01*
X100225750Y-118132697D01*
X100225207Y-118125479D01*
X100339072Y-117658926D01*
X100344362Y-117651701D01*
X100350438Y-117650000D01*
X100649562Y-117650000D01*
X100657835Y-117653427D01*
G37*
%TD.AperFunction*%
%TD*%
%TA.AperFunction,Conductor*%
%TO.N,BUF_ROW_D*%
G36*
X110432085Y-117288992D02*
G01*
X110556579Y-117340112D01*
X110696184Y-117397436D01*
X110702536Y-117403748D01*
X110702563Y-117403815D01*
X110811006Y-117667913D01*
X110810979Y-117676868D01*
X110806259Y-117682356D01*
X110395841Y-117931745D01*
X110386991Y-117933112D01*
X110381492Y-117930019D01*
X110169980Y-117718507D01*
X110166553Y-117710234D01*
X110168254Y-117704158D01*
X110190278Y-117667913D01*
X110417644Y-117293739D01*
X110424868Y-117288450D01*
X110432085Y-117288992D01*
G37*
%TD.AperFunction*%
%TD*%
%TA.AperFunction,Conductor*%
%TO.N,BUF_ROW_D*%
G36*
X98907835Y-118653427D02*
G01*
X98910928Y-118658926D01*
X99024792Y-119125479D01*
X99023425Y-119134329D01*
X99017937Y-119139049D01*
X98754511Y-119249115D01*
X98745556Y-119249142D01*
X98745489Y-119249115D01*
X98482062Y-119139049D01*
X98475750Y-119132697D01*
X98475207Y-119125479D01*
X98589072Y-118658926D01*
X98594362Y-118651701D01*
X98600438Y-118650000D01*
X98899562Y-118650000D01*
X98907835Y-118653427D01*
G37*
%TD.AperFunction*%
%TD*%
%TA.AperFunction,Conductor*%
%TO.N,BUF_ROW_D*%
G36*
X98907835Y-113653427D02*
G01*
X98910928Y-113658926D01*
X99024792Y-114125479D01*
X99023425Y-114134329D01*
X99017937Y-114139049D01*
X98754511Y-114249115D01*
X98745556Y-114249142D01*
X98745489Y-114249115D01*
X98482062Y-114139049D01*
X98475750Y-114132697D01*
X98475207Y-114125479D01*
X98589072Y-113658926D01*
X98594362Y-113651701D01*
X98600438Y-113650000D01*
X98899562Y-113650000D01*
X98907835Y-113653427D01*
G37*
%TD.AperFunction*%
%TD*%
%TA.AperFunction,Conductor*%
%TO.N,BUF_ROW_E*%
G36*
X97207358Y-119335638D02*
G01*
X97267937Y-119360950D01*
X97274249Y-119367302D01*
X97274792Y-119374520D01*
X97160928Y-119841074D01*
X97155638Y-119848299D01*
X97149562Y-119850000D01*
X96850438Y-119850000D01*
X96842165Y-119846573D01*
X96839072Y-119841074D01*
X96725207Y-119374520D01*
X96726574Y-119365670D01*
X96732062Y-119360950D01*
X96995490Y-119250883D01*
X97004444Y-119250857D01*
X97207358Y-119335638D01*
G37*
%TD.AperFunction*%
%TD*%
%TA.AperFunction,Conductor*%
%TO.N,BUF_ROW_E*%
G36*
X97157835Y-113653427D02*
G01*
X97160928Y-113658926D01*
X97274792Y-114125479D01*
X97273425Y-114134329D01*
X97267937Y-114139049D01*
X97004511Y-114249115D01*
X96995556Y-114249142D01*
X96995489Y-114249115D01*
X96732062Y-114139049D01*
X96725750Y-114132697D01*
X96725207Y-114125479D01*
X96839072Y-113658926D01*
X96844362Y-113651701D01*
X96850438Y-113650000D01*
X97149562Y-113650000D01*
X97157835Y-113653427D01*
G37*
%TD.AperFunction*%
%TD*%
%TA.AperFunction,Conductor*%
%TO.N,BUF_P1_STROBE*%
G36*
X80718507Y-100769980D02*
G01*
X80930019Y-100981492D01*
X80933446Y-100989765D01*
X80931745Y-100995841D01*
X80682356Y-101406259D01*
X80675131Y-101411549D01*
X80667913Y-101411006D01*
X80403815Y-101302563D01*
X80397463Y-101296251D01*
X80397436Y-101296184D01*
X80288993Y-101032086D01*
X80289020Y-101023131D01*
X80293738Y-101017644D01*
X80704158Y-100768253D01*
X80713008Y-100766887D01*
X80718507Y-100769980D01*
G37*
%TD.AperFunction*%
%TD*%
%TA.AperFunction,Conductor*%
%TO.N,OE*%
G36*
X86857085Y-84763992D02*
G01*
X86981579Y-84815112D01*
X87121184Y-84872436D01*
X87127536Y-84878748D01*
X87127563Y-84878815D01*
X87236006Y-85142913D01*
X87235979Y-85151868D01*
X87231259Y-85157356D01*
X86820841Y-85406745D01*
X86811991Y-85408112D01*
X86806492Y-85405019D01*
X86594980Y-85193507D01*
X86591553Y-85185234D01*
X86593254Y-85179158D01*
X86615278Y-85142913D01*
X86842644Y-84768739D01*
X86849868Y-84763450D01*
X86857085Y-84763992D01*
G37*
%TD.AperFunction*%
%TD*%
%TA.AperFunction,Conductor*%
%TO.N,CLOCK*%
G36*
X87482085Y-85638992D02*
G01*
X87606579Y-85690112D01*
X87746184Y-85747436D01*
X87752536Y-85753748D01*
X87752563Y-85753815D01*
X87861006Y-86017913D01*
X87860979Y-86026868D01*
X87856259Y-86032356D01*
X87445841Y-86281745D01*
X87436991Y-86283112D01*
X87431492Y-86280019D01*
X87219980Y-86068507D01*
X87216553Y-86060234D01*
X87218254Y-86054158D01*
X87240278Y-86017913D01*
X87467644Y-85643739D01*
X87474868Y-85638450D01*
X87482085Y-85638992D01*
G37*
%TD.AperFunction*%
%TD*%
%TA.AperFunction,Conductor*%
%TO.N,ROW_E*%
G36*
X94252178Y-85999910D02*
G01*
X94516002Y-86110141D01*
X94522313Y-86116492D01*
X94522286Y-86125447D01*
X94522129Y-86125805D01*
X94316876Y-86574272D01*
X94310317Y-86580369D01*
X94306237Y-86581103D01*
X94007056Y-86581103D01*
X93998783Y-86577676D01*
X93995393Y-86570331D01*
X93979888Y-86375536D01*
X93951001Y-86012583D01*
X93953761Y-86004066D01*
X93961736Y-85999994D01*
X93962601Y-85999957D01*
X94247636Y-85999007D01*
X94252178Y-85999910D01*
G37*
%TD.AperFunction*%
%TD*%
%TA.AperFunction,Conductor*%
%TO.N,STROBE*%
G36*
X113884329Y-70976574D02*
G01*
X113889049Y-70982062D01*
X113999115Y-71245489D01*
X113999142Y-71254444D01*
X113999115Y-71254511D01*
X113889049Y-71517937D01*
X113882697Y-71524249D01*
X113875479Y-71524792D01*
X113408926Y-71410928D01*
X113401701Y-71405638D01*
X113400000Y-71399562D01*
X113400000Y-71100437D01*
X113403427Y-71092164D01*
X113408924Y-71089072D01*
X113875479Y-70975207D01*
X113884329Y-70976574D01*
G37*
%TD.AperFunction*%
%TD*%
%TA.AperFunction,Conductor*%
%TO.N,P0_G1*%
G36*
X128695841Y-76218254D02*
G01*
X129106259Y-76467643D01*
X129111549Y-76474868D01*
X129111006Y-76482086D01*
X129002563Y-76746184D01*
X128996251Y-76752536D01*
X128996184Y-76752563D01*
X128732086Y-76861006D01*
X128723131Y-76860979D01*
X128717643Y-76856259D01*
X128468254Y-76445841D01*
X128466887Y-76436991D01*
X128469978Y-76431494D01*
X128681493Y-76219979D01*
X128689765Y-76216553D01*
X128695841Y-76218254D01*
G37*
%TD.AperFunction*%
%TD*%
%TA.AperFunction,Conductor*%
%TO.N,P0_G1*%
G36*
X134957358Y-77335638D02*
G01*
X135017937Y-77360950D01*
X135024249Y-77367302D01*
X135024792Y-77374520D01*
X134910928Y-77841074D01*
X134905638Y-77848299D01*
X134899562Y-77850000D01*
X134600438Y-77850000D01*
X134592165Y-77846573D01*
X134589072Y-77841074D01*
X134475207Y-77374520D01*
X134476574Y-77365670D01*
X134482062Y-77360950D01*
X134745490Y-77250883D01*
X134754444Y-77250857D01*
X134957358Y-77335638D01*
G37*
%TD.AperFunction*%
%TD*%
%TA.AperFunction,Conductor*%
%TO.N,SDA*%
G36*
X119285841Y-69718254D02*
G01*
X119696259Y-69967643D01*
X119701549Y-69974868D01*
X119701006Y-69982086D01*
X119592563Y-70246184D01*
X119586251Y-70252536D01*
X119586184Y-70252563D01*
X119322086Y-70361006D01*
X119313131Y-70360979D01*
X119307643Y-70356259D01*
X119058254Y-69945841D01*
X119056887Y-69936991D01*
X119059978Y-69931494D01*
X119271493Y-69719979D01*
X119279765Y-69716553D01*
X119285841Y-69718254D01*
G37*
%TD.AperFunction*%
%TD*%
%TA.AperFunction,Conductor*%
%TO.N,SDA*%
G36*
X119866868Y-70139020D02*
G01*
X119872356Y-70143740D01*
X120121745Y-70554158D01*
X120123112Y-70563008D01*
X120120019Y-70568507D01*
X119908507Y-70780019D01*
X119900234Y-70783446D01*
X119894158Y-70781745D01*
X119483740Y-70532356D01*
X119478450Y-70525131D01*
X119478992Y-70517914D01*
X119587436Y-70253814D01*
X119593746Y-70247464D01*
X119857914Y-70138993D01*
X119866868Y-70139020D01*
G37*
%TD.AperFunction*%
%TD*%
%TA.AperFunction,Conductor*%
%TO.N,SCL*%
G36*
X117026868Y-70639020D02*
G01*
X117032356Y-70643740D01*
X117281745Y-71054158D01*
X117283112Y-71063008D01*
X117280019Y-71068507D01*
X117068507Y-71280019D01*
X117060234Y-71283446D01*
X117054158Y-71281745D01*
X116643740Y-71032356D01*
X116638450Y-71025131D01*
X116638992Y-71017914D01*
X116747436Y-70753814D01*
X116753746Y-70747464D01*
X117017914Y-70638993D01*
X117026868Y-70639020D01*
G37*
%TD.AperFunction*%
%TD*%
%TA.AperFunction,Conductor*%
%TO.N,SCL*%
G36*
X116445841Y-70218254D02*
G01*
X116856259Y-70467643D01*
X116861549Y-70474868D01*
X116861006Y-70482086D01*
X116752563Y-70746184D01*
X116746251Y-70752536D01*
X116746184Y-70752563D01*
X116482086Y-70861006D01*
X116473131Y-70860979D01*
X116467643Y-70856259D01*
X116218254Y-70445841D01*
X116216887Y-70436991D01*
X116219978Y-70431494D01*
X116431493Y-70219979D01*
X116439765Y-70216553D01*
X116445841Y-70218254D01*
G37*
%TD.AperFunction*%
%TD*%
%TA.AperFunction,Conductor*%
%TO.N,LED1*%
G36*
X66907835Y-66153427D02*
G01*
X66910928Y-66158926D01*
X67024792Y-66625479D01*
X67023425Y-66634329D01*
X67017937Y-66639049D01*
X66754511Y-66749115D01*
X66745556Y-66749142D01*
X66745489Y-66749115D01*
X66482062Y-66639049D01*
X66475750Y-66632697D01*
X66475207Y-66625479D01*
X66589072Y-66158926D01*
X66594362Y-66151701D01*
X66600438Y-66150000D01*
X66899562Y-66150000D01*
X66907835Y-66153427D01*
G37*
%TD.AperFunction*%
%TD*%
%TA.AperFunction,Conductor*%
%TO.N,LED2*%
G36*
X68157835Y-66153427D02*
G01*
X68160928Y-66158926D01*
X68274792Y-66625479D01*
X68273425Y-66634329D01*
X68267937Y-66639049D01*
X68004511Y-66749115D01*
X67995556Y-66749142D01*
X67995489Y-66749115D01*
X67732062Y-66639049D01*
X67725750Y-66632697D01*
X67725207Y-66625479D01*
X67839072Y-66158926D01*
X67844362Y-66151701D01*
X67850438Y-66150000D01*
X68149562Y-66150000D01*
X68157835Y-66153427D01*
G37*
%TD.AperFunction*%
%TD*%
%TA.AperFunction,Conductor*%
%TO.N,+3.3V_1*%
G36*
X101134329Y-69976574D02*
G01*
X101139049Y-69982062D01*
X101249115Y-70245489D01*
X101249142Y-70254444D01*
X101249115Y-70254511D01*
X101139049Y-70517937D01*
X101132697Y-70524249D01*
X101125479Y-70524792D01*
X100658926Y-70410928D01*
X100651701Y-70405638D01*
X100650000Y-70399562D01*
X100650000Y-70100437D01*
X100653427Y-70092164D01*
X100658924Y-70089072D01*
X101125479Y-69975207D01*
X101134329Y-69976574D01*
G37*
%TD.AperFunction*%
%TD*%
%TA.AperFunction,Conductor*%
%TO.N,+3.3V_2*%
G36*
X122157835Y-69153427D02*
G01*
X122160928Y-69158926D01*
X122274792Y-69625479D01*
X122273425Y-69634329D01*
X122267937Y-69639049D01*
X122004511Y-69749115D01*
X121995556Y-69749142D01*
X121995489Y-69749115D01*
X121732062Y-69639049D01*
X121725750Y-69632697D01*
X121725207Y-69625479D01*
X121839072Y-69158926D01*
X121844362Y-69151701D01*
X121850438Y-69150000D01*
X122149562Y-69150000D01*
X122157835Y-69153427D01*
G37*
%TD.AperFunction*%
%TD*%
M02*
