%TF.GenerationSoftware,KiCad,Pcbnew,8.0.8*%
%TF.CreationDate,2025-02-10T11:59:03+01:00*%
%TF.ProjectId,HUB75Adapter,48554237-3541-4646-9170-7465722e6b69,V1.0*%
%TF.SameCoordinates,Original*%
%TF.FileFunction,Legend,Bot*%
%TF.FilePolarity,Positive*%
%FSLAX46Y46*%
G04 Gerber Fmt 4.6, Leading zero omitted, Abs format (unit mm)*
G04 Created by KiCad (PCBNEW 8.0.8) date 2025-02-10 11:59:03*
%MOMM*%
%LPD*%
G01*
G04 APERTURE LIST*
%ADD10C,0.250000*%
%ADD11C,0.000000*%
G04 APERTURE END LIST*
D10*
G36*
X106882828Y-56887707D02*
G01*
X107075557Y-57003346D01*
X107191197Y-57196078D01*
X107229667Y-57388428D01*
X107191197Y-57580777D01*
X107075558Y-57773510D01*
X106882826Y-57889149D01*
X106690476Y-57927619D01*
X106498126Y-57889149D01*
X106305394Y-57773510D01*
X106189755Y-57580777D01*
X106151286Y-57388428D01*
X106189755Y-57196078D01*
X106255154Y-57087080D01*
X106375981Y-57087080D01*
X106379439Y-57135729D01*
X106401250Y-57179353D01*
X106438095Y-57211309D01*
X106484366Y-57226733D01*
X106533015Y-57223275D01*
X106555901Y-57214518D01*
X106624748Y-57180095D01*
X106756207Y-57180095D01*
X106806909Y-57205446D01*
X106873458Y-57271995D01*
X106898810Y-57322698D01*
X106898810Y-57454157D01*
X106873458Y-57504860D01*
X106806909Y-57571410D01*
X106756207Y-57596761D01*
X106624748Y-57596761D01*
X106555901Y-57562338D01*
X106533015Y-57553581D01*
X106484366Y-57550123D01*
X106438095Y-57565547D01*
X106401250Y-57597503D01*
X106379439Y-57641127D01*
X106375981Y-57689776D01*
X106391405Y-57736047D01*
X106423361Y-57772892D01*
X106444099Y-57785946D01*
X106539338Y-57833565D01*
X106562223Y-57842322D01*
X106566703Y-57842640D01*
X106570853Y-57844359D01*
X106595239Y-57846761D01*
X106785715Y-57846761D01*
X106810101Y-57844359D01*
X106814249Y-57842640D01*
X106818731Y-57842322D01*
X106841617Y-57833564D01*
X106936854Y-57785946D01*
X106947352Y-57779336D01*
X106950399Y-57778075D01*
X106953830Y-57775259D01*
X106957592Y-57772891D01*
X106959755Y-57770396D01*
X106969341Y-57762530D01*
X107064579Y-57667292D01*
X107072445Y-57657706D01*
X107074940Y-57655543D01*
X107077307Y-57651781D01*
X107080124Y-57648350D01*
X107081386Y-57645302D01*
X107087994Y-57634806D01*
X107135613Y-57539568D01*
X107144371Y-57516682D01*
X107144689Y-57512201D01*
X107146408Y-57508052D01*
X107148810Y-57483666D01*
X107148810Y-57293190D01*
X107146408Y-57268804D01*
X107144689Y-57264654D01*
X107144371Y-57260174D01*
X107135613Y-57237288D01*
X107087994Y-57142050D01*
X107081386Y-57131553D01*
X107080124Y-57128506D01*
X107077307Y-57125074D01*
X107074940Y-57121313D01*
X107072445Y-57119149D01*
X107064579Y-57109564D01*
X106969341Y-57014326D01*
X106959755Y-57006459D01*
X106957592Y-57003965D01*
X106953830Y-57001596D01*
X106950399Y-56998781D01*
X106947352Y-56997519D01*
X106936854Y-56990910D01*
X106841617Y-56943292D01*
X106818731Y-56934534D01*
X106814249Y-56934215D01*
X106810101Y-56932497D01*
X106785715Y-56930095D01*
X106595239Y-56930095D01*
X106570853Y-56932497D01*
X106566703Y-56934215D01*
X106562223Y-56934534D01*
X106539338Y-56943291D01*
X106444099Y-56990910D01*
X106423361Y-57003964D01*
X106391405Y-57040809D01*
X106375981Y-57087080D01*
X106255154Y-57087080D01*
X106305395Y-57003345D01*
X106498126Y-56887706D01*
X106690476Y-56849236D01*
X106882828Y-56887707D01*
G37*
G36*
X91187858Y-57348302D02*
G01*
X91206790Y-57367235D01*
X91232141Y-57417936D01*
X91232141Y-57644633D01*
X91206789Y-57695336D01*
X91187858Y-57714268D01*
X91137157Y-57739619D01*
X91053317Y-57739619D01*
X91002615Y-57714268D01*
X90983683Y-57695336D01*
X90958332Y-57644634D01*
X90958332Y-57417936D01*
X90983682Y-57367234D01*
X91002615Y-57348302D01*
X91053317Y-57322952D01*
X91137157Y-57322952D01*
X91187858Y-57348302D01*
G37*
G36*
X92092620Y-57348302D02*
G01*
X92111552Y-57367235D01*
X92136903Y-57417936D01*
X92136903Y-57644633D01*
X92111551Y-57695336D01*
X92092620Y-57714268D01*
X92041919Y-57739619D01*
X91910713Y-57739619D01*
X91910713Y-57322952D01*
X92041919Y-57322952D01*
X92092620Y-57348302D01*
G37*
G36*
X93902144Y-57348302D02*
G01*
X93921076Y-57367235D01*
X93946427Y-57417936D01*
X93946427Y-57644633D01*
X93921075Y-57695336D01*
X93902144Y-57714268D01*
X93851443Y-57739619D01*
X93767603Y-57739619D01*
X93716901Y-57714268D01*
X93697969Y-57695336D01*
X93672618Y-57644634D01*
X93672618Y-57417936D01*
X93697968Y-57367234D01*
X93716901Y-57348302D01*
X93767603Y-57322952D01*
X93851443Y-57322952D01*
X93902144Y-57348302D01*
G37*
G36*
X99787782Y-57624454D02*
G01*
X99803571Y-57656031D01*
X99803571Y-57692252D01*
X99787781Y-57723831D01*
X99756206Y-57739619D01*
X99577381Y-57739619D01*
X99577381Y-57608666D01*
X99756206Y-57608666D01*
X99787782Y-57624454D01*
G37*
G36*
X104473574Y-57014969D02*
G01*
X104492506Y-57033902D01*
X104524916Y-57098723D01*
X104565476Y-57260960D01*
X104565476Y-57468277D01*
X104524916Y-57630513D01*
X104492505Y-57695336D01*
X104473574Y-57714268D01*
X104422873Y-57739619D01*
X104386652Y-57739619D01*
X104335950Y-57714268D01*
X104317018Y-57695336D01*
X104284607Y-57630515D01*
X104244048Y-57468277D01*
X104244048Y-57260960D01*
X104284607Y-57098722D01*
X104317017Y-57033901D01*
X104335950Y-57014969D01*
X104386652Y-56989619D01*
X104422873Y-56989619D01*
X104473574Y-57014969D01*
G37*
G36*
X97425954Y-55405025D02*
G01*
X97444886Y-55423958D01*
X97477296Y-55488779D01*
X97517856Y-55651016D01*
X97517856Y-55858333D01*
X97477296Y-56020569D01*
X97444885Y-56085392D01*
X97425954Y-56104324D01*
X97375253Y-56129675D01*
X97339032Y-56129675D01*
X97288330Y-56104324D01*
X97269398Y-56085392D01*
X97236987Y-56020571D01*
X97196428Y-55858333D01*
X97196428Y-55651016D01*
X97236987Y-55488778D01*
X97269397Y-55423957D01*
X97288330Y-55405025D01*
X97339032Y-55379675D01*
X97375253Y-55379675D01*
X97425954Y-55405025D01*
G37*
G36*
X91930637Y-54118852D02*
G01*
X91946426Y-54150429D01*
X91946426Y-54158921D01*
X91738898Y-54117415D01*
X91767602Y-54103064D01*
X91899061Y-54103064D01*
X91930637Y-54118852D01*
G37*
G36*
X93854525Y-54128414D02*
G01*
X93873457Y-54147347D01*
X93898808Y-54198048D01*
X93898808Y-54424745D01*
X93873456Y-54475448D01*
X93854525Y-54494380D01*
X93803824Y-54519731D01*
X93719984Y-54519731D01*
X93669282Y-54494380D01*
X93650350Y-54475448D01*
X93624999Y-54424746D01*
X93624999Y-54198048D01*
X93650349Y-54147346D01*
X93669282Y-54128414D01*
X93719984Y-54103064D01*
X93803824Y-54103064D01*
X93854525Y-54128414D01*
G37*
G36*
X96854526Y-54128414D02*
G01*
X96873458Y-54147347D01*
X96898809Y-54198048D01*
X96898809Y-54424745D01*
X96873457Y-54475448D01*
X96854526Y-54494380D01*
X96803825Y-54519731D01*
X96719985Y-54519731D01*
X96669283Y-54494380D01*
X96650351Y-54475448D01*
X96625000Y-54424746D01*
X96625000Y-54198048D01*
X96650350Y-54147346D01*
X96669283Y-54128414D01*
X96719985Y-54103064D01*
X96803825Y-54103064D01*
X96854526Y-54128414D01*
G37*
G36*
X103755953Y-54519731D02*
G01*
X103529510Y-54519731D01*
X103478808Y-54494380D01*
X103459876Y-54475448D01*
X103434525Y-54424746D01*
X103434525Y-54340905D01*
X103459875Y-54290203D01*
X103472286Y-54277793D01*
X103567906Y-54245921D01*
X103755953Y-54245921D01*
X103755953Y-54519731D01*
G37*
G36*
X103755953Y-53995921D02*
G01*
X103577129Y-53995921D01*
X103526427Y-53970570D01*
X103507494Y-53951638D01*
X103482144Y-53900937D01*
X103482144Y-53864715D01*
X103507494Y-53814013D01*
X103526427Y-53795081D01*
X103577129Y-53769731D01*
X103755953Y-53769731D01*
X103755953Y-53995921D01*
G37*
G36*
X107607143Y-58305095D02*
G01*
X89300019Y-58305095D01*
X89300019Y-56840233D01*
X89425019Y-56840233D01*
X89425019Y-56889005D01*
X89443683Y-56934065D01*
X89478171Y-56968553D01*
X89523231Y-56987217D01*
X89547617Y-56989619D01*
X89613347Y-56989619D01*
X89644923Y-57005407D01*
X89660712Y-57036984D01*
X89660712Y-57072952D01*
X89547617Y-57072952D01*
X89523231Y-57075354D01*
X89478171Y-57094018D01*
X89443683Y-57128506D01*
X89425019Y-57173566D01*
X89425019Y-57222338D01*
X89443683Y-57267398D01*
X89478171Y-57301886D01*
X89523231Y-57320550D01*
X89547617Y-57322952D01*
X89660712Y-57322952D01*
X89660712Y-57864619D01*
X89663114Y-57889005D01*
X89681778Y-57934065D01*
X89716266Y-57968553D01*
X89761326Y-57987217D01*
X89810098Y-57987217D01*
X89855158Y-57968553D01*
X89889646Y-57934065D01*
X89908310Y-57889005D01*
X89910712Y-57864619D01*
X89910712Y-57322952D01*
X89928569Y-57322952D01*
X89952955Y-57320550D01*
X89998015Y-57301886D01*
X90023807Y-57276093D01*
X90049600Y-57301886D01*
X90094660Y-57320550D01*
X90119046Y-57322952D01*
X90184776Y-57322952D01*
X90235477Y-57348302D01*
X90254409Y-57367235D01*
X90279760Y-57417936D01*
X90279760Y-57864619D01*
X90282162Y-57889005D01*
X90300826Y-57934065D01*
X90335314Y-57968553D01*
X90380374Y-57987217D01*
X90429146Y-57987217D01*
X90474206Y-57968553D01*
X90508694Y-57934065D01*
X90527358Y-57889005D01*
X90529760Y-57864619D01*
X90529760Y-57388428D01*
X90708332Y-57388428D01*
X90708332Y-57674142D01*
X90710734Y-57698528D01*
X90712452Y-57702676D01*
X90712771Y-57707158D01*
X90721529Y-57730044D01*
X90769147Y-57825281D01*
X90775754Y-57835777D01*
X90777017Y-57838825D01*
X90779834Y-57842258D01*
X90782202Y-57846019D01*
X90784696Y-57848182D01*
X90792562Y-57857767D01*
X90840181Y-57905387D01*
X90849769Y-57913256D01*
X90851931Y-57915749D01*
X90855685Y-57918112D01*
X90859122Y-57920933D01*
X90862175Y-57922197D01*
X90872668Y-57928803D01*
X90967906Y-57976422D01*
X90990792Y-57985180D01*
X90995272Y-57985498D01*
X90999422Y-57987217D01*
X91023808Y-57989619D01*
X91166665Y-57989619D01*
X91191051Y-57987217D01*
X91195199Y-57985498D01*
X91199681Y-57985180D01*
X91222567Y-57976422D01*
X91317804Y-57928804D01*
X91328300Y-57922196D01*
X91331350Y-57920933D01*
X91334783Y-57918114D01*
X91338542Y-57915749D01*
X91340704Y-57913255D01*
X91350292Y-57905387D01*
X91397911Y-57857768D01*
X91405778Y-57848180D01*
X91408271Y-57846019D01*
X91410637Y-57842259D01*
X91413456Y-57838825D01*
X91414718Y-57835776D01*
X91421325Y-57825282D01*
X91468944Y-57730044D01*
X91477702Y-57707158D01*
X91478020Y-57702677D01*
X91479739Y-57698528D01*
X91482141Y-57674142D01*
X91482141Y-57388428D01*
X91479739Y-57364042D01*
X91478020Y-57359892D01*
X91477702Y-57355412D01*
X91468944Y-57332526D01*
X91421325Y-57237288D01*
X91414718Y-57226793D01*
X91413455Y-57223743D01*
X91410636Y-57220308D01*
X91408271Y-57216551D01*
X91405779Y-57214389D01*
X91397910Y-57204801D01*
X91350291Y-57157183D01*
X91340705Y-57149316D01*
X91338542Y-57146822D01*
X91334780Y-57144453D01*
X91331349Y-57141638D01*
X91328302Y-57140376D01*
X91317804Y-57133767D01*
X91222567Y-57086149D01*
X91199681Y-57077391D01*
X91195199Y-57077072D01*
X91191051Y-57075354D01*
X91166665Y-57072952D01*
X91023808Y-57072952D01*
X90999422Y-57075354D01*
X90995272Y-57077072D01*
X90990792Y-57077391D01*
X90967906Y-57086149D01*
X90872668Y-57133768D01*
X90862173Y-57140374D01*
X90859123Y-57141638D01*
X90855688Y-57144456D01*
X90851931Y-57146822D01*
X90849769Y-57149313D01*
X90840181Y-57157183D01*
X90792563Y-57204802D01*
X90784696Y-57214387D01*
X90782202Y-57216551D01*
X90779833Y-57220312D01*
X90777018Y-57223744D01*
X90775756Y-57226790D01*
X90769147Y-57237289D01*
X90721529Y-57332526D01*
X90712771Y-57355412D01*
X90712452Y-57359893D01*
X90710734Y-57364042D01*
X90708332Y-57388428D01*
X90529760Y-57388428D01*
X90529760Y-57197952D01*
X90527358Y-57173566D01*
X90508694Y-57128506D01*
X90474206Y-57094018D01*
X90429146Y-57075354D01*
X90380374Y-57075354D01*
X90335314Y-57094018D01*
X90318850Y-57110481D01*
X90270186Y-57086149D01*
X90247300Y-57077391D01*
X90242818Y-57077072D01*
X90238670Y-57075354D01*
X90214284Y-57072952D01*
X90119046Y-57072952D01*
X90094660Y-57075354D01*
X90049600Y-57094018D01*
X90023807Y-57119810D01*
X89998015Y-57094018D01*
X89952955Y-57075354D01*
X89928569Y-57072952D01*
X89910712Y-57072952D01*
X89910712Y-57007476D01*
X89908310Y-56983090D01*
X89906591Y-56978940D01*
X89906273Y-56974460D01*
X89897515Y-56951574D01*
X89854037Y-56864619D01*
X91660713Y-56864619D01*
X91660713Y-57864619D01*
X91663115Y-57889005D01*
X91681779Y-57934065D01*
X91716267Y-57968553D01*
X91761327Y-57987217D01*
X91810099Y-57987217D01*
X91830824Y-57978632D01*
X91847935Y-57985180D01*
X91852415Y-57985498D01*
X91856565Y-57987217D01*
X91880951Y-57989619D01*
X92071427Y-57989619D01*
X92095813Y-57987217D01*
X92099961Y-57985498D01*
X92104443Y-57985180D01*
X92127329Y-57976422D01*
X92222566Y-57928804D01*
X92233062Y-57922196D01*
X92236112Y-57920933D01*
X92239545Y-57918114D01*
X92243304Y-57915749D01*
X92245466Y-57913255D01*
X92255054Y-57905387D01*
X92302673Y-57857768D01*
X92310540Y-57848180D01*
X92313033Y-57846019D01*
X92315399Y-57842259D01*
X92318218Y-57838825D01*
X92319480Y-57835776D01*
X92326087Y-57825282D01*
X92373706Y-57730044D01*
X92382464Y-57707158D01*
X92382782Y-57702677D01*
X92384501Y-57698528D01*
X92386903Y-57674142D01*
X92386903Y-57388428D01*
X92384501Y-57364042D01*
X92382782Y-57359892D01*
X92382464Y-57355412D01*
X92376876Y-57340809D01*
X92565475Y-57340809D01*
X92565475Y-57864619D01*
X92567877Y-57889005D01*
X92586541Y-57934065D01*
X92621029Y-57968553D01*
X92666089Y-57987217D01*
X92714861Y-57987217D01*
X92759921Y-57968553D01*
X92794409Y-57934065D01*
X92813073Y-57889005D01*
X92815475Y-57864619D01*
X92815475Y-57370317D01*
X92831263Y-57338740D01*
X92862841Y-57322952D01*
X92946681Y-57322952D01*
X92994046Y-57346634D01*
X92994046Y-57864619D01*
X92996448Y-57889005D01*
X93015112Y-57934065D01*
X93049600Y-57968553D01*
X93094660Y-57987217D01*
X93143432Y-57987217D01*
X93188492Y-57968553D01*
X93222980Y-57934065D01*
X93241644Y-57889005D01*
X93244046Y-57864619D01*
X93244046Y-57388428D01*
X93422618Y-57388428D01*
X93422618Y-57674142D01*
X93425020Y-57698528D01*
X93426738Y-57702676D01*
X93427057Y-57707158D01*
X93435815Y-57730044D01*
X93483433Y-57825281D01*
X93490040Y-57835777D01*
X93491303Y-57838825D01*
X93494120Y-57842258D01*
X93496488Y-57846019D01*
X93498982Y-57848182D01*
X93506848Y-57857767D01*
X93554467Y-57905387D01*
X93564055Y-57913256D01*
X93566217Y-57915749D01*
X93569971Y-57918112D01*
X93573408Y-57920933D01*
X93576461Y-57922197D01*
X93586954Y-57928803D01*
X93682192Y-57976422D01*
X93705078Y-57985180D01*
X93709558Y-57985498D01*
X93713708Y-57987217D01*
X93738094Y-57989619D01*
X93880951Y-57989619D01*
X93905337Y-57987217D01*
X93909485Y-57985498D01*
X93913967Y-57985180D01*
X93936853Y-57976422D01*
X94032090Y-57928804D01*
X94042586Y-57922196D01*
X94045636Y-57920933D01*
X94049069Y-57918114D01*
X94052828Y-57915749D01*
X94054990Y-57913255D01*
X94064578Y-57905387D01*
X94112197Y-57857768D01*
X94120064Y-57848180D01*
X94122557Y-57846019D01*
X94124923Y-57842259D01*
X94127742Y-57838825D01*
X94129004Y-57835776D01*
X94135611Y-57825282D01*
X94183230Y-57730044D01*
X94191988Y-57707158D01*
X94192306Y-57702677D01*
X94194025Y-57698528D01*
X94196427Y-57674142D01*
X94196427Y-57388428D01*
X94194025Y-57364042D01*
X94192306Y-57359892D01*
X94191988Y-57355412D01*
X94186400Y-57340809D01*
X94374999Y-57340809D01*
X94374999Y-57864619D01*
X94377401Y-57889005D01*
X94396065Y-57934065D01*
X94430553Y-57968553D01*
X94475613Y-57987217D01*
X94524385Y-57987217D01*
X94569445Y-57968553D01*
X94603933Y-57934065D01*
X94622597Y-57889005D01*
X94624999Y-57864619D01*
X94624999Y-57370317D01*
X94640787Y-57338740D01*
X94672365Y-57322952D01*
X94756205Y-57322952D01*
X94803570Y-57346634D01*
X94803570Y-57864619D01*
X94805972Y-57889005D01*
X94824636Y-57934065D01*
X94859124Y-57968553D01*
X94904184Y-57987217D01*
X94952956Y-57987217D01*
X94998016Y-57968553D01*
X95032504Y-57934065D01*
X95051168Y-57889005D01*
X95053570Y-57864619D01*
X95053570Y-57229937D01*
X95233123Y-57229937D01*
X95236581Y-57278587D01*
X95258393Y-57322210D01*
X95295238Y-57354166D01*
X95341508Y-57369590D01*
X95390158Y-57366132D01*
X95413044Y-57357374D01*
X95481889Y-57322952D01*
X95613348Y-57322952D01*
X95664049Y-57348302D01*
X95682981Y-57367235D01*
X95708332Y-57417936D01*
X95708332Y-57644633D01*
X95682980Y-57695336D01*
X95664049Y-57714268D01*
X95613348Y-57739619D01*
X95481889Y-57739619D01*
X95413044Y-57705197D01*
X95390158Y-57696439D01*
X95341508Y-57692981D01*
X95295238Y-57708405D01*
X95258393Y-57740361D01*
X95236581Y-57783984D01*
X95233123Y-57832634D01*
X95248547Y-57878904D01*
X95280503Y-57915749D01*
X95301240Y-57928803D01*
X95396478Y-57976422D01*
X95419364Y-57985180D01*
X95423844Y-57985498D01*
X95427994Y-57987217D01*
X95452380Y-57989619D01*
X95642856Y-57989619D01*
X95667242Y-57987217D01*
X95671390Y-57985498D01*
X95675872Y-57985180D01*
X95698758Y-57976422D01*
X95793995Y-57928804D01*
X95804491Y-57922196D01*
X95807541Y-57920933D01*
X95810974Y-57918114D01*
X95814733Y-57915749D01*
X95816895Y-57913255D01*
X95826483Y-57905387D01*
X95874102Y-57857768D01*
X95881969Y-57848180D01*
X95884462Y-57846019D01*
X95886828Y-57842259D01*
X95889647Y-57838825D01*
X95890909Y-57835776D01*
X95897516Y-57825282D01*
X95945135Y-57730044D01*
X95953893Y-57707158D01*
X95954211Y-57702677D01*
X95955930Y-57698528D01*
X95958332Y-57674142D01*
X95958332Y-57578904D01*
X96089285Y-57578904D01*
X96089285Y-57674142D01*
X96091687Y-57698528D01*
X96093405Y-57702676D01*
X96093724Y-57707158D01*
X96102482Y-57730044D01*
X96150100Y-57825281D01*
X96156707Y-57835777D01*
X96157970Y-57838825D01*
X96160787Y-57842258D01*
X96163155Y-57846019D01*
X96165649Y-57848182D01*
X96173515Y-57857767D01*
X96221134Y-57905387D01*
X96230722Y-57913256D01*
X96232884Y-57915749D01*
X96236638Y-57918112D01*
X96240075Y-57920933D01*
X96243128Y-57922197D01*
X96253621Y-57928803D01*
X96348859Y-57976422D01*
X96371745Y-57985180D01*
X96376225Y-57985498D01*
X96380375Y-57987217D01*
X96404761Y-57989619D01*
X96642856Y-57989619D01*
X96655199Y-57988403D01*
X96658490Y-57988637D01*
X96662819Y-57987652D01*
X96667242Y-57987217D01*
X96670293Y-57985953D01*
X96682384Y-57983204D01*
X96825241Y-57935586D01*
X96847616Y-57925595D01*
X96884462Y-57893640D01*
X96906274Y-57850016D01*
X96909731Y-57801366D01*
X96894308Y-57755097D01*
X96862352Y-57718251D01*
X96818728Y-57696439D01*
X96770078Y-57692982D01*
X96746184Y-57698415D01*
X96622573Y-57739619D01*
X96434270Y-57739619D01*
X96383568Y-57714268D01*
X96364636Y-57695336D01*
X96339285Y-57644634D01*
X96339285Y-57608412D01*
X96364635Y-57557710D01*
X96383568Y-57538778D01*
X96448389Y-57506368D01*
X96625554Y-57462077D01*
X96627353Y-57461433D01*
X96628253Y-57461370D01*
X96638399Y-57457487D01*
X96648629Y-57453832D01*
X96649353Y-57453295D01*
X96651139Y-57452612D01*
X96746376Y-57404994D01*
X96756874Y-57398384D01*
X96759921Y-57397123D01*
X96763352Y-57394307D01*
X96767114Y-57391939D01*
X96769277Y-57389444D01*
X96778863Y-57381578D01*
X96826482Y-57333960D01*
X96834351Y-57324371D01*
X96836843Y-57322210D01*
X96839208Y-57318452D01*
X96842027Y-57315018D01*
X96843290Y-57311967D01*
X96849897Y-57301473D01*
X96885665Y-57229937D01*
X97804552Y-57229937D01*
X97808010Y-57278587D01*
X97829822Y-57322210D01*
X97866667Y-57354166D01*
X97912937Y-57369590D01*
X97961587Y-57366132D01*
X97984473Y-57357374D01*
X98053318Y-57322952D01*
X98184777Y-57322952D01*
X98235478Y-57348302D01*
X98254410Y-57367235D01*
X98279761Y-57417936D01*
X98279761Y-57644633D01*
X98254409Y-57695336D01*
X98235478Y-57714268D01*
X98184777Y-57739619D01*
X98053318Y-57739619D01*
X97984473Y-57705197D01*
X97961587Y-57696439D01*
X97912937Y-57692981D01*
X97866667Y-57708405D01*
X97829822Y-57740361D01*
X97808010Y-57783984D01*
X97804552Y-57832634D01*
X97819976Y-57878904D01*
X97851932Y-57915749D01*
X97872669Y-57928803D01*
X97967907Y-57976422D01*
X97990793Y-57985180D01*
X97995273Y-57985498D01*
X97999423Y-57987217D01*
X98023809Y-57989619D01*
X98214285Y-57989619D01*
X98238671Y-57987217D01*
X98242819Y-57985498D01*
X98247301Y-57985180D01*
X98270187Y-57976422D01*
X98365424Y-57928804D01*
X98375920Y-57922196D01*
X98378970Y-57920933D01*
X98382403Y-57918114D01*
X98386162Y-57915749D01*
X98388324Y-57913255D01*
X98397912Y-57905387D01*
X98445531Y-57857768D01*
X98453398Y-57848180D01*
X98455891Y-57846019D01*
X98458257Y-57842259D01*
X98461076Y-57838825D01*
X98462338Y-57835776D01*
X98468945Y-57825282D01*
X98516564Y-57730044D01*
X98525322Y-57707158D01*
X98525640Y-57702677D01*
X98527359Y-57698528D01*
X98529761Y-57674142D01*
X98529761Y-57388428D01*
X98527359Y-57364042D01*
X98525640Y-57359892D01*
X98525322Y-57355412D01*
X98516564Y-57332526D01*
X98468945Y-57237288D01*
X98462338Y-57226793D01*
X98461075Y-57223743D01*
X98458256Y-57220308D01*
X98455891Y-57216551D01*
X98453399Y-57214389D01*
X98445530Y-57204801D01*
X98414294Y-57173566D01*
X98567878Y-57173566D01*
X98567878Y-57222338D01*
X98586542Y-57267398D01*
X98621030Y-57301886D01*
X98666090Y-57320550D01*
X98690476Y-57322952D01*
X98756206Y-57322952D01*
X98806907Y-57348302D01*
X98825839Y-57367235D01*
X98851190Y-57417936D01*
X98851190Y-57864619D01*
X98853592Y-57889005D01*
X98872256Y-57934065D01*
X98906744Y-57968553D01*
X98951804Y-57987217D01*
X99000576Y-57987217D01*
X99045636Y-57968553D01*
X99080124Y-57934065D01*
X99098788Y-57889005D01*
X99101190Y-57864619D01*
X99101190Y-57340809D01*
X99327381Y-57340809D01*
X99327381Y-57864619D01*
X99329783Y-57889005D01*
X99348447Y-57934065D01*
X99382935Y-57968553D01*
X99427995Y-57987217D01*
X99476767Y-57987217D01*
X99497492Y-57978632D01*
X99514603Y-57985180D01*
X99519083Y-57985498D01*
X99523233Y-57987217D01*
X99547619Y-57989619D01*
X99785714Y-57989619D01*
X99810100Y-57987217D01*
X99814248Y-57985498D01*
X99818730Y-57985180D01*
X99841616Y-57976422D01*
X99936853Y-57928804D01*
X99940930Y-57926237D01*
X99942857Y-57925595D01*
X99945256Y-57923513D01*
X99957591Y-57915749D01*
X99967857Y-57903911D01*
X99979702Y-57893639D01*
X99987469Y-57881299D01*
X99989547Y-57878904D01*
X99990188Y-57876980D01*
X99992756Y-57872901D01*
X100040375Y-57777662D01*
X100049132Y-57754777D01*
X100049450Y-57750296D01*
X100051169Y-57746147D01*
X100053571Y-57721761D01*
X100053571Y-57626523D01*
X100051169Y-57602137D01*
X100049450Y-57597987D01*
X100049132Y-57593507D01*
X100040374Y-57570621D01*
X99992755Y-57475383D01*
X99990188Y-57471306D01*
X99989547Y-57469381D01*
X99987467Y-57466982D01*
X99979701Y-57454646D01*
X99967860Y-57444376D01*
X99957591Y-57432536D01*
X99945253Y-57424769D01*
X99942856Y-57422690D01*
X99940931Y-57422048D01*
X99936853Y-57419481D01*
X99841616Y-57371863D01*
X99818730Y-57363105D01*
X99814248Y-57362786D01*
X99810100Y-57361068D01*
X99785714Y-57358666D01*
X99583206Y-57358666D01*
X99593169Y-57338740D01*
X99624747Y-57322952D01*
X99756206Y-57322952D01*
X99825050Y-57357374D01*
X99847936Y-57366132D01*
X99896585Y-57369589D01*
X99942856Y-57354166D01*
X99979701Y-57322210D01*
X100001512Y-57278587D01*
X100004970Y-57229937D01*
X99989547Y-57183667D01*
X99957591Y-57146822D01*
X99936853Y-57133767D01*
X99841616Y-57086149D01*
X99818730Y-57077391D01*
X99814248Y-57077072D01*
X99810100Y-57075354D01*
X99785714Y-57072952D01*
X99595238Y-57072952D01*
X99570852Y-57075354D01*
X99566702Y-57077072D01*
X99562222Y-57077391D01*
X99539336Y-57086149D01*
X99444098Y-57133768D01*
X99440021Y-57136334D01*
X99438096Y-57136976D01*
X99435697Y-57139055D01*
X99423361Y-57146822D01*
X99413091Y-57158662D01*
X99401251Y-57168932D01*
X99393484Y-57181269D01*
X99391405Y-57183667D01*
X99390763Y-57185591D01*
X99388196Y-57189670D01*
X99340578Y-57284907D01*
X99331820Y-57307793D01*
X99331501Y-57312274D01*
X99329783Y-57316423D01*
X99327381Y-57340809D01*
X99101190Y-57340809D01*
X99101190Y-57197952D01*
X99098788Y-57173566D01*
X99080124Y-57128506D01*
X99045636Y-57094018D01*
X99000576Y-57075354D01*
X98951804Y-57075354D01*
X98906744Y-57094018D01*
X98890280Y-57110481D01*
X98841616Y-57086149D01*
X98818730Y-57077391D01*
X98814248Y-57077072D01*
X98810100Y-57075354D01*
X98785714Y-57072952D01*
X98690476Y-57072952D01*
X98666090Y-57075354D01*
X98621030Y-57094018D01*
X98586542Y-57128506D01*
X98567878Y-57173566D01*
X98414294Y-57173566D01*
X98397911Y-57157183D01*
X98388325Y-57149316D01*
X98386162Y-57146822D01*
X98382400Y-57144453D01*
X98378969Y-57141638D01*
X98375922Y-57140376D01*
X98365424Y-57133767D01*
X98270187Y-57086149D01*
X98247301Y-57077391D01*
X98242819Y-57077072D01*
X98238671Y-57075354D01*
X98214285Y-57072952D01*
X98023809Y-57072952D01*
X97999423Y-57075354D01*
X97995273Y-57077072D01*
X97990793Y-57077391D01*
X97967907Y-57086149D01*
X97872669Y-57133768D01*
X97851932Y-57146822D01*
X97819976Y-57183667D01*
X97804552Y-57229937D01*
X96885665Y-57229937D01*
X96897516Y-57206235D01*
X96906274Y-57183349D01*
X96906592Y-57178868D01*
X96908311Y-57174719D01*
X96910713Y-57150333D01*
X96910713Y-57055095D01*
X96908311Y-57030709D01*
X96906592Y-57026559D01*
X96906274Y-57022079D01*
X96897516Y-56999193D01*
X96849897Y-56903955D01*
X96843290Y-56893460D01*
X96842027Y-56890410D01*
X96839208Y-56886975D01*
X96836843Y-56883218D01*
X96834351Y-56881056D01*
X96826482Y-56871468D01*
X96819633Y-56864619D01*
X100232143Y-56864619D01*
X100232143Y-57864619D01*
X100234545Y-57889005D01*
X100253209Y-57934065D01*
X100287697Y-57968553D01*
X100332757Y-57987217D01*
X100381529Y-57987217D01*
X100426589Y-57968553D01*
X100461077Y-57934065D01*
X100479741Y-57889005D01*
X100482143Y-57864619D01*
X100482143Y-57428065D01*
X100577203Y-57631765D01*
X100582492Y-57640694D01*
X100583593Y-57643720D01*
X100585552Y-57645860D01*
X100589692Y-57652847D01*
X100603700Y-57665675D01*
X100616533Y-57679688D01*
X100621565Y-57682036D01*
X100625661Y-57685787D01*
X100643511Y-57692278D01*
X100660729Y-57700313D01*
X100666278Y-57700556D01*
X100671498Y-57702455D01*
X100690476Y-57701620D01*
X100709455Y-57702455D01*
X100714674Y-57700556D01*
X100720223Y-57700313D01*
X100737436Y-57692279D01*
X100755292Y-57685787D01*
X100759388Y-57682035D01*
X100764419Y-57679688D01*
X100777249Y-57665677D01*
X100791260Y-57652847D01*
X100795399Y-57645860D01*
X100797359Y-57643720D01*
X100798459Y-57640694D01*
X100803749Y-57631765D01*
X100898809Y-57428064D01*
X100898809Y-57864619D01*
X100901211Y-57889005D01*
X100919875Y-57934065D01*
X100954363Y-57968553D01*
X100999423Y-57987217D01*
X101048195Y-57987217D01*
X101093255Y-57968553D01*
X101127743Y-57934065D01*
X101146407Y-57889005D01*
X101148809Y-57864619D01*
X101148809Y-57436047D01*
X102089286Y-57436047D01*
X102089286Y-57674142D01*
X102091688Y-57698528D01*
X102093406Y-57702676D01*
X102093725Y-57707158D01*
X102102483Y-57730044D01*
X102150101Y-57825281D01*
X102156708Y-57835777D01*
X102157971Y-57838825D01*
X102160788Y-57842258D01*
X102163156Y-57846019D01*
X102165650Y-57848182D01*
X102173516Y-57857767D01*
X102221135Y-57905387D01*
X102230723Y-57913256D01*
X102232885Y-57915749D01*
X102236639Y-57918112D01*
X102240076Y-57920933D01*
X102243129Y-57922197D01*
X102253622Y-57928803D01*
X102348860Y-57976422D01*
X102371746Y-57985180D01*
X102376226Y-57985498D01*
X102380376Y-57987217D01*
X102404762Y-57989619D01*
X102642857Y-57989619D01*
X102667243Y-57987217D01*
X102671391Y-57985498D01*
X102675873Y-57985180D01*
X102698759Y-57976422D01*
X102793996Y-57928804D01*
X102804492Y-57922196D01*
X102807542Y-57920933D01*
X102810975Y-57918114D01*
X102814734Y-57915749D01*
X102816896Y-57913255D01*
X102826484Y-57905387D01*
X102874103Y-57857768D01*
X102889648Y-57838825D01*
X102908312Y-57793766D01*
X102908312Y-57744992D01*
X102889647Y-57699933D01*
X102855159Y-57665446D01*
X102810099Y-57646782D01*
X102761326Y-57646782D01*
X102716266Y-57665447D01*
X102697325Y-57680993D01*
X102664050Y-57714268D01*
X102613349Y-57739619D01*
X102434271Y-57739619D01*
X102383569Y-57714268D01*
X102364637Y-57695336D01*
X102339286Y-57644634D01*
X102339286Y-57465555D01*
X102364636Y-57414853D01*
X102383569Y-57395921D01*
X102434271Y-57370571D01*
X102613349Y-57370571D01*
X102664050Y-57395921D01*
X102697325Y-57429197D01*
X102716267Y-57444742D01*
X102722081Y-57447150D01*
X102726954Y-57451137D01*
X102744446Y-57456414D01*
X102761327Y-57463407D01*
X102767622Y-57463407D01*
X102773648Y-57465225D01*
X102791828Y-57463407D01*
X102810100Y-57463407D01*
X102815914Y-57460998D01*
X102822178Y-57460372D01*
X102838282Y-57451732D01*
X102855160Y-57444742D01*
X102859608Y-57440293D01*
X102865157Y-57437317D01*
X102876731Y-57423170D01*
X102889647Y-57410255D01*
X102892054Y-57404442D01*
X102896042Y-57399569D01*
X102901320Y-57382073D01*
X102908312Y-57365195D01*
X102908312Y-57358900D01*
X102910130Y-57352875D01*
X102910094Y-57328371D01*
X102882766Y-57055095D01*
X103041667Y-57055095D01*
X103041667Y-57150333D01*
X103042882Y-57162676D01*
X103042649Y-57165967D01*
X103043633Y-57170296D01*
X103044069Y-57174719D01*
X103045332Y-57177770D01*
X103048082Y-57189861D01*
X103095700Y-57332718D01*
X103105691Y-57355093D01*
X103108634Y-57358486D01*
X103110353Y-57362636D01*
X103125898Y-57381578D01*
X103483938Y-57739619D01*
X103166667Y-57739619D01*
X103142281Y-57742021D01*
X103097221Y-57760685D01*
X103062733Y-57795173D01*
X103044069Y-57840233D01*
X103044069Y-57889005D01*
X103062733Y-57934065D01*
X103097221Y-57968553D01*
X103142281Y-57987217D01*
X103166667Y-57989619D01*
X103785714Y-57989619D01*
X103810100Y-57987217D01*
X103810101Y-57987217D01*
X103823298Y-57981750D01*
X103855160Y-57968553D01*
X103889648Y-57934065D01*
X103903638Y-57900289D01*
X103908312Y-57889006D01*
X103908312Y-57840232D01*
X103900948Y-57822454D01*
X103889648Y-57795173D01*
X103889642Y-57795167D01*
X103874102Y-57776231D01*
X103343443Y-57245571D01*
X103994048Y-57245571D01*
X103994048Y-57483666D01*
X103994467Y-57487920D01*
X103994196Y-57489742D01*
X103995545Y-57498870D01*
X103996450Y-57508052D01*
X103997154Y-57509753D01*
X103997780Y-57513983D01*
X104045399Y-57704459D01*
X104046042Y-57706258D01*
X104046106Y-57707158D01*
X104049988Y-57717304D01*
X104053644Y-57727534D01*
X104054180Y-57728258D01*
X104054864Y-57730044D01*
X104102482Y-57825281D01*
X104109089Y-57835777D01*
X104110352Y-57838825D01*
X104113169Y-57842258D01*
X104115537Y-57846019D01*
X104118031Y-57848182D01*
X104125897Y-57857767D01*
X104173516Y-57905387D01*
X104183104Y-57913256D01*
X104185266Y-57915749D01*
X104189020Y-57918112D01*
X104192457Y-57920933D01*
X104195510Y-57922197D01*
X104206003Y-57928803D01*
X104301241Y-57976422D01*
X104324127Y-57985180D01*
X104328607Y-57985498D01*
X104332757Y-57987217D01*
X104357143Y-57989619D01*
X104452381Y-57989619D01*
X104476767Y-57987217D01*
X104480915Y-57985498D01*
X104485397Y-57985180D01*
X104508283Y-57976422D01*
X104603520Y-57928804D01*
X104614016Y-57922196D01*
X104617066Y-57920933D01*
X104620499Y-57918114D01*
X104624258Y-57915749D01*
X104626420Y-57913255D01*
X104636008Y-57905387D01*
X104683627Y-57857768D01*
X104691494Y-57848180D01*
X104693987Y-57846019D01*
X104696353Y-57842259D01*
X104699172Y-57838825D01*
X104700434Y-57835776D01*
X104707041Y-57825282D01*
X104754660Y-57730044D01*
X104755343Y-57728258D01*
X104755880Y-57727534D01*
X104759535Y-57717304D01*
X104763418Y-57707158D01*
X104763481Y-57706258D01*
X104764125Y-57704459D01*
X104811744Y-57513983D01*
X104812369Y-57509753D01*
X104813074Y-57508052D01*
X104813978Y-57498872D01*
X104815328Y-57489743D01*
X104815056Y-57487920D01*
X104815476Y-57483666D01*
X104815476Y-57245571D01*
X104815056Y-57241316D01*
X104815328Y-57239494D01*
X104813978Y-57230364D01*
X104813074Y-57221185D01*
X104812369Y-57219483D01*
X104811744Y-57215254D01*
X104771704Y-57055095D01*
X104946429Y-57055095D01*
X104946429Y-57150333D01*
X104947644Y-57162676D01*
X104947411Y-57165967D01*
X104948395Y-57170296D01*
X104948831Y-57174719D01*
X104950094Y-57177770D01*
X104952844Y-57189861D01*
X105000462Y-57332718D01*
X105010453Y-57355093D01*
X105013396Y-57358486D01*
X105015115Y-57362636D01*
X105030660Y-57381578D01*
X105388700Y-57739619D01*
X105071429Y-57739619D01*
X105047043Y-57742021D01*
X105001983Y-57760685D01*
X104967495Y-57795173D01*
X104948831Y-57840233D01*
X104948831Y-57889005D01*
X104967495Y-57934065D01*
X105001983Y-57968553D01*
X105047043Y-57987217D01*
X105071429Y-57989619D01*
X105690476Y-57989619D01*
X105714862Y-57987217D01*
X105714863Y-57987217D01*
X105728060Y-57981750D01*
X105759922Y-57968553D01*
X105794410Y-57934065D01*
X105808400Y-57900289D01*
X105813074Y-57889006D01*
X105813074Y-57840232D01*
X105805710Y-57822454D01*
X105794410Y-57795173D01*
X105794404Y-57795167D01*
X105778864Y-57776231D01*
X105390931Y-57388297D01*
X105898810Y-57388297D01*
X105898835Y-57388428D01*
X105898810Y-57388559D01*
X105901237Y-57412943D01*
X105948856Y-57651037D01*
X105953302Y-57665639D01*
X105953756Y-57668688D01*
X105955086Y-57671497D01*
X105955994Y-57674479D01*
X105957713Y-57677046D01*
X105964242Y-57690835D01*
X106107099Y-57928931D01*
X106121705Y-57948606D01*
X106126642Y-57952264D01*
X106130299Y-57957199D01*
X106149974Y-57971806D01*
X106388069Y-58114663D01*
X106401857Y-58121191D01*
X106404425Y-58122911D01*
X106407406Y-58123818D01*
X106410216Y-58125149D01*
X106413264Y-58125602D01*
X106427867Y-58130049D01*
X106665962Y-58177668D01*
X106690346Y-58180095D01*
X106690477Y-58180069D01*
X106690608Y-58180095D01*
X106714992Y-58177668D01*
X106953086Y-58130049D01*
X106967688Y-58125602D01*
X106970737Y-58125149D01*
X106973546Y-58123818D01*
X106976528Y-58122911D01*
X106979095Y-58121191D01*
X106992884Y-58114663D01*
X107230979Y-57971806D01*
X107250654Y-57957199D01*
X107254310Y-57952264D01*
X107259248Y-57948606D01*
X107273854Y-57928931D01*
X107416711Y-57690835D01*
X107423241Y-57677043D01*
X107424959Y-57674479D01*
X107425865Y-57671501D01*
X107427198Y-57668688D01*
X107427652Y-57665633D01*
X107432097Y-57651038D01*
X107479716Y-57412943D01*
X107482143Y-57388559D01*
X107482117Y-57388428D01*
X107482143Y-57388297D01*
X107479716Y-57363913D01*
X107432097Y-57125818D01*
X107427650Y-57111216D01*
X107427197Y-57108168D01*
X107425867Y-57105359D01*
X107424959Y-57102377D01*
X107423239Y-57099808D01*
X107416711Y-57086021D01*
X107273854Y-56847926D01*
X107259247Y-56828251D01*
X107254313Y-56824595D01*
X107250655Y-56819658D01*
X107230980Y-56805052D01*
X106992884Y-56662194D01*
X106979096Y-56655664D01*
X106976528Y-56653945D01*
X106973547Y-56653037D01*
X106970738Y-56651707D01*
X106967687Y-56651252D01*
X106953086Y-56646807D01*
X106714992Y-56599188D01*
X106690608Y-56596761D01*
X106690477Y-56596786D01*
X106690346Y-56596761D01*
X106665962Y-56599188D01*
X106427867Y-56646807D01*
X106413265Y-56651253D01*
X106410216Y-56651707D01*
X106407406Y-56653037D01*
X106404425Y-56653945D01*
X106401857Y-56655664D01*
X106388069Y-56662193D01*
X106149974Y-56805052D01*
X106130299Y-56819658D01*
X106126641Y-56824593D01*
X106121706Y-56828251D01*
X106107099Y-56847926D01*
X105964242Y-57086021D01*
X105957713Y-57099809D01*
X105955994Y-57102377D01*
X105955086Y-57105358D01*
X105953756Y-57108168D01*
X105953302Y-57111216D01*
X105948856Y-57125819D01*
X105901237Y-57363913D01*
X105898810Y-57388297D01*
X105390931Y-57388297D01*
X105228301Y-57225667D01*
X105196429Y-57130049D01*
X105196429Y-57084603D01*
X105221779Y-57033901D01*
X105240712Y-57014969D01*
X105291414Y-56989619D01*
X105470492Y-56989619D01*
X105521193Y-57014969D01*
X105554468Y-57048245D01*
X105573410Y-57063790D01*
X105618470Y-57082455D01*
X105667243Y-57082455D01*
X105712303Y-57063790D01*
X105746790Y-57029303D01*
X105765455Y-56984243D01*
X105765455Y-56935470D01*
X105746790Y-56890410D01*
X105731245Y-56871468D01*
X105683626Y-56823850D01*
X105674040Y-56815983D01*
X105671877Y-56813489D01*
X105668115Y-56811120D01*
X105664684Y-56808305D01*
X105661637Y-56807043D01*
X105651139Y-56800434D01*
X105555902Y-56752816D01*
X105533016Y-56744058D01*
X105528534Y-56743739D01*
X105524386Y-56742021D01*
X105500000Y-56739619D01*
X105261905Y-56739619D01*
X105237519Y-56742021D01*
X105233369Y-56743739D01*
X105228889Y-56744058D01*
X105206003Y-56752816D01*
X105110765Y-56800435D01*
X105100270Y-56807041D01*
X105097220Y-56808305D01*
X105093785Y-56811123D01*
X105090028Y-56813489D01*
X105087866Y-56815980D01*
X105078278Y-56823850D01*
X105030660Y-56871469D01*
X105022793Y-56881054D01*
X105020299Y-56883218D01*
X105017930Y-56886979D01*
X105015115Y-56890411D01*
X105013853Y-56893457D01*
X105007244Y-56903956D01*
X104959626Y-56999193D01*
X104950868Y-57022079D01*
X104950549Y-57026560D01*
X104948831Y-57030709D01*
X104946429Y-57055095D01*
X104771704Y-57055095D01*
X104764125Y-57024778D01*
X104763481Y-57022978D01*
X104763418Y-57022079D01*
X104759535Y-57011932D01*
X104755880Y-57001703D01*
X104755343Y-57000978D01*
X104754660Y-56999193D01*
X104707041Y-56903955D01*
X104700434Y-56893460D01*
X104699171Y-56890410D01*
X104696352Y-56886975D01*
X104693987Y-56883218D01*
X104691495Y-56881056D01*
X104683626Y-56871468D01*
X104636007Y-56823850D01*
X104626421Y-56815983D01*
X104624258Y-56813489D01*
X104620496Y-56811120D01*
X104617065Y-56808305D01*
X104614018Y-56807043D01*
X104603520Y-56800434D01*
X104508283Y-56752816D01*
X104485397Y-56744058D01*
X104480915Y-56743739D01*
X104476767Y-56742021D01*
X104452381Y-56739619D01*
X104357143Y-56739619D01*
X104332757Y-56742021D01*
X104328607Y-56743739D01*
X104324127Y-56744058D01*
X104301241Y-56752816D01*
X104206003Y-56800435D01*
X104195508Y-56807041D01*
X104192458Y-56808305D01*
X104189023Y-56811123D01*
X104185266Y-56813489D01*
X104183104Y-56815980D01*
X104173516Y-56823850D01*
X104125898Y-56871469D01*
X104118031Y-56881054D01*
X104115537Y-56883218D01*
X104113168Y-56886979D01*
X104110353Y-56890411D01*
X104109091Y-56893457D01*
X104102482Y-56903956D01*
X104054864Y-56999193D01*
X104054180Y-57000978D01*
X104053644Y-57001703D01*
X104049988Y-57011932D01*
X104046106Y-57022079D01*
X104046042Y-57022978D01*
X104045399Y-57024778D01*
X103997780Y-57215254D01*
X103997154Y-57219483D01*
X103996450Y-57221185D01*
X103995545Y-57230366D01*
X103994196Y-57239495D01*
X103994467Y-57241316D01*
X103994048Y-57245571D01*
X103343443Y-57245571D01*
X103323539Y-57225667D01*
X103291667Y-57130049D01*
X103291667Y-57084603D01*
X103317017Y-57033901D01*
X103335950Y-57014969D01*
X103386652Y-56989619D01*
X103565730Y-56989619D01*
X103616431Y-57014969D01*
X103649706Y-57048245D01*
X103668648Y-57063790D01*
X103713708Y-57082455D01*
X103762481Y-57082455D01*
X103807541Y-57063790D01*
X103842028Y-57029303D01*
X103860693Y-56984243D01*
X103860693Y-56935470D01*
X103842028Y-56890410D01*
X103826483Y-56871468D01*
X103778864Y-56823850D01*
X103769278Y-56815983D01*
X103767115Y-56813489D01*
X103763353Y-56811120D01*
X103759922Y-56808305D01*
X103756875Y-56807043D01*
X103746377Y-56800434D01*
X103651140Y-56752816D01*
X103628254Y-56744058D01*
X103623772Y-56743739D01*
X103619624Y-56742021D01*
X103595238Y-56739619D01*
X103357143Y-56739619D01*
X103332757Y-56742021D01*
X103328607Y-56743739D01*
X103324127Y-56744058D01*
X103301241Y-56752816D01*
X103206003Y-56800435D01*
X103195508Y-56807041D01*
X103192458Y-56808305D01*
X103189023Y-56811123D01*
X103185266Y-56813489D01*
X103183104Y-56815980D01*
X103173516Y-56823850D01*
X103125898Y-56871469D01*
X103118031Y-56881054D01*
X103115537Y-56883218D01*
X103113168Y-56886979D01*
X103110353Y-56890411D01*
X103109091Y-56893457D01*
X103102482Y-56903956D01*
X103054864Y-56999193D01*
X103046106Y-57022079D01*
X103045787Y-57026560D01*
X103044069Y-57030709D01*
X103041667Y-57055095D01*
X102882766Y-57055095D01*
X102862475Y-56852181D01*
X102860693Y-56843292D01*
X102860693Y-56840233D01*
X102859504Y-56837362D01*
X102857658Y-56828155D01*
X102849021Y-56812055D01*
X102842029Y-56795173D01*
X102837578Y-56790722D01*
X102834603Y-56785176D01*
X102820461Y-56773605D01*
X102807541Y-56760685D01*
X102801726Y-56758276D01*
X102796855Y-56754291D01*
X102779362Y-56749013D01*
X102762481Y-56742021D01*
X102753135Y-56741100D01*
X102750161Y-56740203D01*
X102747115Y-56740507D01*
X102738095Y-56739619D01*
X102261905Y-56739619D01*
X102237519Y-56742021D01*
X102192459Y-56760685D01*
X102157971Y-56795173D01*
X102139307Y-56840233D01*
X102139307Y-56889005D01*
X102157971Y-56934065D01*
X102192459Y-56968553D01*
X102237519Y-56987217D01*
X102261905Y-56989619D01*
X102624971Y-56989619D01*
X102638066Y-57120571D01*
X102404762Y-57120571D01*
X102380376Y-57122973D01*
X102376226Y-57124691D01*
X102371746Y-57125010D01*
X102348860Y-57133768D01*
X102253622Y-57181387D01*
X102243127Y-57187993D01*
X102240077Y-57189257D01*
X102236642Y-57192075D01*
X102232885Y-57194441D01*
X102230723Y-57196932D01*
X102221135Y-57204802D01*
X102173517Y-57252421D01*
X102165650Y-57262006D01*
X102163156Y-57264170D01*
X102160787Y-57267931D01*
X102157972Y-57271363D01*
X102156710Y-57274409D01*
X102150101Y-57284908D01*
X102102483Y-57380145D01*
X102093725Y-57403031D01*
X102093406Y-57407512D01*
X102091688Y-57411661D01*
X102089286Y-57436047D01*
X101148809Y-57436047D01*
X101148809Y-56864619D01*
X101147230Y-56848591D01*
X101147360Y-56845640D01*
X101146783Y-56844054D01*
X101146407Y-56840233D01*
X101138107Y-56820196D01*
X101130692Y-56799803D01*
X101128809Y-56797747D01*
X101127743Y-56795173D01*
X101112405Y-56779835D01*
X101097752Y-56763835D01*
X101095226Y-56762656D01*
X101093255Y-56760685D01*
X101073216Y-56752384D01*
X101053556Y-56743210D01*
X101050769Y-56743087D01*
X101048195Y-56742021D01*
X101026509Y-56742021D01*
X101004831Y-56741068D01*
X101002210Y-56742021D01*
X100999423Y-56742021D01*
X100979379Y-56750323D01*
X100958994Y-56757736D01*
X100956938Y-56759618D01*
X100954363Y-56760685D01*
X100939020Y-56776027D01*
X100923025Y-56790676D01*
X100921067Y-56793980D01*
X100919875Y-56795173D01*
X100918745Y-56797900D01*
X100910536Y-56811758D01*
X100690475Y-57283315D01*
X100470416Y-56811758D01*
X100462206Y-56797900D01*
X100461077Y-56795173D01*
X100459884Y-56793980D01*
X100457927Y-56790676D01*
X100441926Y-56776022D01*
X100426589Y-56760685D01*
X100424014Y-56759618D01*
X100421959Y-56757736D01*
X100401565Y-56750320D01*
X100381529Y-56742021D01*
X100378743Y-56742021D01*
X100376122Y-56741068D01*
X100354443Y-56742021D01*
X100332757Y-56742021D01*
X100330182Y-56743087D01*
X100327396Y-56743210D01*
X100307735Y-56752384D01*
X100287697Y-56760685D01*
X100285725Y-56762656D01*
X100283200Y-56763835D01*
X100268546Y-56779835D01*
X100253209Y-56795173D01*
X100252142Y-56797747D01*
X100250260Y-56799803D01*
X100242844Y-56820196D01*
X100234545Y-56840233D01*
X100234168Y-56844054D01*
X100233592Y-56845640D01*
X100233721Y-56848591D01*
X100232143Y-56864619D01*
X96819633Y-56864619D01*
X96778863Y-56823850D01*
X96769277Y-56815983D01*
X96767114Y-56813489D01*
X96763352Y-56811120D01*
X96759921Y-56808305D01*
X96756874Y-56807043D01*
X96746376Y-56800434D01*
X96651139Y-56752816D01*
X96628253Y-56744058D01*
X96623771Y-56743739D01*
X96619623Y-56742021D01*
X96595237Y-56739619D01*
X96357142Y-56739619D01*
X96344798Y-56740834D01*
X96341507Y-56740601D01*
X96337177Y-56741585D01*
X96332756Y-56742021D01*
X96329706Y-56743284D01*
X96317613Y-56746034D01*
X96174757Y-56793653D01*
X96152382Y-56803643D01*
X96115536Y-56835598D01*
X96093724Y-56879223D01*
X96090267Y-56927872D01*
X96105690Y-56974141D01*
X96137645Y-57010987D01*
X96181270Y-57032799D01*
X96229919Y-57036256D01*
X96253813Y-57030823D01*
X96377428Y-56989619D01*
X96565729Y-56989619D01*
X96616430Y-57014969D01*
X96635362Y-57033902D01*
X96660713Y-57084603D01*
X96660713Y-57120824D01*
X96635362Y-57171525D01*
X96616430Y-57190458D01*
X96551610Y-57222868D01*
X96374444Y-57267160D01*
X96372644Y-57267803D01*
X96371745Y-57267867D01*
X96361598Y-57271749D01*
X96351369Y-57275405D01*
X96350644Y-57275941D01*
X96348859Y-57276625D01*
X96253621Y-57324244D01*
X96243126Y-57330850D01*
X96240076Y-57332114D01*
X96236641Y-57334932D01*
X96232884Y-57337298D01*
X96230722Y-57339789D01*
X96221134Y-57347659D01*
X96173516Y-57395278D01*
X96165649Y-57404863D01*
X96163155Y-57407027D01*
X96160786Y-57410788D01*
X96157971Y-57414220D01*
X96156709Y-57417266D01*
X96150100Y-57427765D01*
X96102482Y-57523002D01*
X96093724Y-57545888D01*
X96093405Y-57550369D01*
X96091687Y-57554518D01*
X96089285Y-57578904D01*
X95958332Y-57578904D01*
X95958332Y-57388428D01*
X95955930Y-57364042D01*
X95954211Y-57359892D01*
X95953893Y-57355412D01*
X95945135Y-57332526D01*
X95897516Y-57237288D01*
X95890909Y-57226793D01*
X95889646Y-57223743D01*
X95886827Y-57220308D01*
X95884462Y-57216551D01*
X95881970Y-57214389D01*
X95874101Y-57204801D01*
X95826482Y-57157183D01*
X95816896Y-57149316D01*
X95814733Y-57146822D01*
X95810971Y-57144453D01*
X95807540Y-57141638D01*
X95804493Y-57140376D01*
X95793995Y-57133767D01*
X95698758Y-57086149D01*
X95675872Y-57077391D01*
X95671390Y-57077072D01*
X95667242Y-57075354D01*
X95642856Y-57072952D01*
X95452380Y-57072952D01*
X95427994Y-57075354D01*
X95423844Y-57077072D01*
X95419364Y-57077391D01*
X95396478Y-57086149D01*
X95301240Y-57133768D01*
X95280503Y-57146822D01*
X95248547Y-57183667D01*
X95233123Y-57229937D01*
X95053570Y-57229937D01*
X95053570Y-56864619D01*
X95051168Y-56840233D01*
X95032504Y-56795173D01*
X94998016Y-56760685D01*
X94952956Y-56742021D01*
X94904184Y-56742021D01*
X94859124Y-56760685D01*
X94824636Y-56795173D01*
X94805972Y-56840233D01*
X94803570Y-56864619D01*
X94803570Y-57074710D01*
X94785713Y-57072952D01*
X94642856Y-57072952D01*
X94618470Y-57075354D01*
X94614320Y-57077072D01*
X94609840Y-57077391D01*
X94586954Y-57086149D01*
X94491716Y-57133768D01*
X94487639Y-57136334D01*
X94485714Y-57136976D01*
X94483315Y-57139055D01*
X94470979Y-57146822D01*
X94460709Y-57158662D01*
X94448869Y-57168932D01*
X94441102Y-57181269D01*
X94439023Y-57183667D01*
X94438381Y-57185591D01*
X94435814Y-57189670D01*
X94388196Y-57284907D01*
X94379438Y-57307793D01*
X94379119Y-57312274D01*
X94377401Y-57316423D01*
X94374999Y-57340809D01*
X94186400Y-57340809D01*
X94183230Y-57332526D01*
X94135611Y-57237288D01*
X94129004Y-57226793D01*
X94127741Y-57223743D01*
X94124922Y-57220308D01*
X94122557Y-57216551D01*
X94120065Y-57214389D01*
X94112196Y-57204801D01*
X94064577Y-57157183D01*
X94054991Y-57149316D01*
X94052828Y-57146822D01*
X94049066Y-57144453D01*
X94045635Y-57141638D01*
X94042588Y-57140376D01*
X94032090Y-57133767D01*
X93936853Y-57086149D01*
X93913967Y-57077391D01*
X93909485Y-57077072D01*
X93905337Y-57075354D01*
X93880951Y-57072952D01*
X93738094Y-57072952D01*
X93713708Y-57075354D01*
X93709558Y-57077072D01*
X93705078Y-57077391D01*
X93682192Y-57086149D01*
X93586954Y-57133768D01*
X93576459Y-57140374D01*
X93573409Y-57141638D01*
X93569974Y-57144456D01*
X93566217Y-57146822D01*
X93564055Y-57149313D01*
X93554467Y-57157183D01*
X93506849Y-57204802D01*
X93498982Y-57214387D01*
X93496488Y-57216551D01*
X93494119Y-57220312D01*
X93491304Y-57223744D01*
X93490042Y-57226790D01*
X93483433Y-57237289D01*
X93435815Y-57332526D01*
X93427057Y-57355412D01*
X93426738Y-57359893D01*
X93425020Y-57364042D01*
X93422618Y-57388428D01*
X93244046Y-57388428D01*
X93244046Y-57197952D01*
X93241644Y-57173566D01*
X93222980Y-57128506D01*
X93188492Y-57094018D01*
X93143432Y-57075354D01*
X93094660Y-57075354D01*
X93049600Y-57094018D01*
X93049009Y-57094608D01*
X93032091Y-57086149D01*
X93009205Y-57077391D01*
X93004723Y-57077072D01*
X93000575Y-57075354D01*
X92976189Y-57072952D01*
X92833332Y-57072952D01*
X92808946Y-57075354D01*
X92804796Y-57077072D01*
X92800316Y-57077391D01*
X92777430Y-57086149D01*
X92682192Y-57133768D01*
X92678115Y-57136334D01*
X92676190Y-57136976D01*
X92673791Y-57139055D01*
X92661455Y-57146822D01*
X92651185Y-57158662D01*
X92639345Y-57168932D01*
X92631578Y-57181269D01*
X92629499Y-57183667D01*
X92628857Y-57185591D01*
X92626290Y-57189670D01*
X92578672Y-57284907D01*
X92569914Y-57307793D01*
X92569595Y-57312274D01*
X92567877Y-57316423D01*
X92565475Y-57340809D01*
X92376876Y-57340809D01*
X92373706Y-57332526D01*
X92326087Y-57237288D01*
X92319480Y-57226793D01*
X92318217Y-57223743D01*
X92315398Y-57220308D01*
X92313033Y-57216551D01*
X92310541Y-57214389D01*
X92302672Y-57204801D01*
X92255053Y-57157183D01*
X92245467Y-57149316D01*
X92243304Y-57146822D01*
X92239542Y-57144453D01*
X92236111Y-57141638D01*
X92233064Y-57140376D01*
X92222566Y-57133767D01*
X92127329Y-57086149D01*
X92104443Y-57077391D01*
X92099961Y-57077072D01*
X92095813Y-57075354D01*
X92071427Y-57072952D01*
X91910713Y-57072952D01*
X91910713Y-56887851D01*
X93425020Y-56887851D01*
X93425020Y-56936625D01*
X93443685Y-56981684D01*
X93459230Y-57000626D01*
X93506848Y-57048245D01*
X93525790Y-57063790D01*
X93525791Y-57063791D01*
X93547908Y-57072952D01*
X93570850Y-57082455D01*
X93570851Y-57082455D01*
X93619623Y-57082455D01*
X93619624Y-57082455D01*
X93632821Y-57076988D01*
X93664683Y-57063791D01*
X93664688Y-57063785D01*
X93683625Y-57048245D01*
X93731244Y-57000627D01*
X93746789Y-56981685D01*
X93765454Y-56936625D01*
X93765454Y-56887852D01*
X93765454Y-56887851D01*
X93805972Y-56887851D01*
X93805972Y-56936625D01*
X93824637Y-56981684D01*
X93840182Y-57000626D01*
X93887800Y-57048245D01*
X93906742Y-57063790D01*
X93906743Y-57063791D01*
X93928860Y-57072952D01*
X93951802Y-57082455D01*
X93951803Y-57082455D01*
X94000575Y-57082455D01*
X94000576Y-57082455D01*
X94013773Y-57076988D01*
X94045635Y-57063791D01*
X94045640Y-57063785D01*
X94064577Y-57048245D01*
X94112196Y-57000627D01*
X94127741Y-56981685D01*
X94146406Y-56936625D01*
X94146406Y-56887852D01*
X94145190Y-56884915D01*
X94127741Y-56842791D01*
X94112196Y-56823849D01*
X94064577Y-56776231D01*
X94045640Y-56760690D01*
X94045635Y-56760685D01*
X94013773Y-56747487D01*
X94000576Y-56742021D01*
X94000575Y-56742021D01*
X93951802Y-56742021D01*
X93933138Y-56749752D01*
X93906743Y-56760685D01*
X93906742Y-56760686D01*
X93887800Y-56776231D01*
X93840182Y-56823850D01*
X93824638Y-56842791D01*
X93824637Y-56842792D01*
X93805972Y-56887851D01*
X93765454Y-56887851D01*
X93764238Y-56884915D01*
X93746789Y-56842791D01*
X93731244Y-56823849D01*
X93683625Y-56776231D01*
X93664688Y-56760690D01*
X93664683Y-56760685D01*
X93632821Y-56747487D01*
X93619624Y-56742021D01*
X93619623Y-56742021D01*
X93570850Y-56742021D01*
X93552186Y-56749752D01*
X93525791Y-56760685D01*
X93525790Y-56760686D01*
X93506848Y-56776231D01*
X93459230Y-56823850D01*
X93443686Y-56842791D01*
X93443685Y-56842792D01*
X93425020Y-56887851D01*
X91910713Y-56887851D01*
X91910713Y-56864619D01*
X91908311Y-56840233D01*
X91889647Y-56795173D01*
X91855159Y-56760685D01*
X91810099Y-56742021D01*
X91761327Y-56742021D01*
X91716267Y-56760685D01*
X91681779Y-56795173D01*
X91663115Y-56840233D01*
X91660713Y-56864619D01*
X89854037Y-56864619D01*
X89849896Y-56856336D01*
X89847329Y-56852259D01*
X89846688Y-56850334D01*
X89844608Y-56847935D01*
X89836842Y-56835599D01*
X89825001Y-56825329D01*
X89814732Y-56813489D01*
X89802394Y-56805722D01*
X89799997Y-56803643D01*
X89798072Y-56803001D01*
X89793994Y-56800434D01*
X89698757Y-56752816D01*
X89675871Y-56744058D01*
X89671389Y-56743739D01*
X89667241Y-56742021D01*
X89642855Y-56739619D01*
X89547617Y-56739619D01*
X89523231Y-56742021D01*
X89478171Y-56760685D01*
X89443683Y-56795173D01*
X89425019Y-56840233D01*
X89300019Y-56840233D01*
X89300019Y-55635627D01*
X96946428Y-55635627D01*
X96946428Y-55873722D01*
X96946847Y-55877976D01*
X96946576Y-55879798D01*
X96947925Y-55888926D01*
X96948830Y-55898108D01*
X96949534Y-55899809D01*
X96950160Y-55904039D01*
X96997779Y-56094515D01*
X96998422Y-56096314D01*
X96998486Y-56097214D01*
X97002368Y-56107360D01*
X97006024Y-56117590D01*
X97006560Y-56118314D01*
X97007244Y-56120100D01*
X97054862Y-56215337D01*
X97061469Y-56225833D01*
X97062732Y-56228881D01*
X97065549Y-56232314D01*
X97067917Y-56236075D01*
X97070411Y-56238238D01*
X97078277Y-56247823D01*
X97125896Y-56295443D01*
X97135484Y-56303312D01*
X97137646Y-56305805D01*
X97141400Y-56308168D01*
X97144837Y-56310989D01*
X97147890Y-56312253D01*
X97158383Y-56318859D01*
X97253621Y-56366478D01*
X97276507Y-56375236D01*
X97280987Y-56375554D01*
X97285137Y-56377273D01*
X97309523Y-56379675D01*
X97404761Y-56379675D01*
X97429147Y-56377273D01*
X97433295Y-56375554D01*
X97437777Y-56375236D01*
X97460663Y-56366478D01*
X97555900Y-56318860D01*
X97566396Y-56312252D01*
X97569446Y-56310989D01*
X97572879Y-56308170D01*
X97576638Y-56305805D01*
X97578800Y-56303311D01*
X97588388Y-56295443D01*
X97636007Y-56247824D01*
X97643874Y-56238236D01*
X97646367Y-56236075D01*
X97648733Y-56232315D01*
X97651552Y-56228881D01*
X97652814Y-56225832D01*
X97659421Y-56215338D01*
X97675756Y-56182669D01*
X97901210Y-56182669D01*
X97901210Y-56182670D01*
X97901210Y-56182671D01*
X97901210Y-56231444D01*
X97919875Y-56276503D01*
X97919879Y-56276507D01*
X97935420Y-56295444D01*
X97983038Y-56343063D01*
X98001980Y-56358608D01*
X98001981Y-56358609D01*
X98020979Y-56366478D01*
X98047040Y-56377273D01*
X98047041Y-56377273D01*
X98095813Y-56377273D01*
X98095814Y-56377273D01*
X98109011Y-56371806D01*
X98140873Y-56358609D01*
X98140878Y-56358603D01*
X98159815Y-56343063D01*
X98207434Y-56295445D01*
X98222979Y-56276503D01*
X98238497Y-56239040D01*
X98241644Y-56231444D01*
X98241644Y-56230289D01*
X98377401Y-56230289D01*
X98377401Y-56279061D01*
X98396065Y-56324121D01*
X98430553Y-56358609D01*
X98475613Y-56377273D01*
X98499999Y-56379675D01*
X99071427Y-56379675D01*
X99095813Y-56377273D01*
X99140873Y-56358609D01*
X99175361Y-56324121D01*
X99194025Y-56279061D01*
X99194025Y-56230289D01*
X99175361Y-56185229D01*
X99140873Y-56150741D01*
X99095813Y-56132077D01*
X99071427Y-56129675D01*
X98910713Y-56129675D01*
X98910713Y-55598546D01*
X98920287Y-55604573D01*
X99015525Y-55652192D01*
X99038411Y-55660950D01*
X99087060Y-55664407D01*
X99133331Y-55648984D01*
X99170176Y-55617028D01*
X99191987Y-55573405D01*
X99195445Y-55524755D01*
X99180022Y-55478485D01*
X99148066Y-55441640D01*
X99127328Y-55428585D01*
X99050232Y-55390037D01*
X98978091Y-55317896D01*
X98946367Y-55270309D01*
X99233124Y-55270309D01*
X99238557Y-55294203D01*
X99571889Y-56294203D01*
X99581880Y-56316578D01*
X99587730Y-56323324D01*
X99591726Y-56331315D01*
X99603566Y-56341583D01*
X99613835Y-56353424D01*
X99621826Y-56357419D01*
X99628572Y-56363270D01*
X99643437Y-56368225D01*
X99657459Y-56375236D01*
X99666369Y-56375869D01*
X99674841Y-56378693D01*
X99690474Y-56377582D01*
X99706109Y-56378693D01*
X99714580Y-56375869D01*
X99723490Y-56375236D01*
X99737510Y-56368225D01*
X99752378Y-56363270D01*
X99759123Y-56357419D01*
X99767115Y-56353424D01*
X99777386Y-56341580D01*
X99789224Y-56331314D01*
X99793218Y-56323325D01*
X99799070Y-56316578D01*
X99809060Y-56294203D01*
X100142393Y-55294204D01*
X100147826Y-55270310D01*
X100144369Y-55221660D01*
X100122557Y-55178036D01*
X100085711Y-55146080D01*
X100039442Y-55130657D01*
X99990792Y-55134114D01*
X99947168Y-55155926D01*
X99915213Y-55192772D01*
X99905222Y-55215147D01*
X99690474Y-55859390D01*
X99475727Y-55215147D01*
X99465737Y-55192772D01*
X99433782Y-55155926D01*
X99390157Y-55134114D01*
X99341508Y-55130657D01*
X99295239Y-55146080D01*
X99258393Y-55178035D01*
X99236581Y-55221660D01*
X99233124Y-55270309D01*
X98946367Y-55270309D01*
X98889719Y-55185337D01*
X98889663Y-55185269D01*
X98889647Y-55185229D01*
X98889556Y-55185138D01*
X98874194Y-55166379D01*
X98863909Y-55159491D01*
X98855159Y-55150741D01*
X98843846Y-55146055D01*
X98833670Y-55139240D01*
X98821531Y-55136812D01*
X98810099Y-55132077D01*
X98797854Y-55132077D01*
X98785843Y-55129675D01*
X98773701Y-55132077D01*
X98761327Y-55132077D01*
X98750013Y-55136762D01*
X98737998Y-55139140D01*
X98727699Y-55146005D01*
X98716267Y-55150741D01*
X98707608Y-55159400D01*
X98697417Y-55166194D01*
X98690529Y-55176478D01*
X98681779Y-55185229D01*
X98677093Y-55196541D01*
X98670278Y-55206718D01*
X98667850Y-55218856D01*
X98663115Y-55230289D01*
X98660738Y-55254418D01*
X98660713Y-55254545D01*
X98660721Y-55254588D01*
X98660713Y-55254675D01*
X98660713Y-56129675D01*
X98499999Y-56129675D01*
X98475613Y-56132077D01*
X98430553Y-56150741D01*
X98396065Y-56185229D01*
X98377401Y-56230289D01*
X98241644Y-56230289D01*
X98241644Y-56182670D01*
X98222980Y-56137611D01*
X98207435Y-56118668D01*
X98159816Y-56071049D01*
X98140874Y-56055503D01*
X98140873Y-56055502D01*
X98122209Y-56047771D01*
X98095815Y-56036838D01*
X98095813Y-56036838D01*
X98095812Y-56036838D01*
X98047039Y-56036838D01*
X98001979Y-56055503D01*
X97983038Y-56071049D01*
X97935419Y-56118669D01*
X97919874Y-56137611D01*
X97917695Y-56142872D01*
X97901210Y-56182669D01*
X97675756Y-56182669D01*
X97707040Y-56120100D01*
X97707723Y-56118314D01*
X97708260Y-56117590D01*
X97711915Y-56107360D01*
X97715798Y-56097214D01*
X97715861Y-56096314D01*
X97716505Y-56094515D01*
X97764124Y-55904039D01*
X97764749Y-55899809D01*
X97765454Y-55898108D01*
X97766358Y-55888928D01*
X97767708Y-55879799D01*
X97767436Y-55877976D01*
X97767856Y-55873722D01*
X97767856Y-55635627D01*
X97767436Y-55631372D01*
X97767708Y-55629550D01*
X97766358Y-55620420D01*
X97765454Y-55611241D01*
X97764749Y-55609539D01*
X97764124Y-55605310D01*
X97716505Y-55414834D01*
X97715861Y-55413034D01*
X97715798Y-55412135D01*
X97711915Y-55401988D01*
X97708260Y-55391759D01*
X97707723Y-55391034D01*
X97707040Y-55389249D01*
X97659421Y-55294011D01*
X97652814Y-55283516D01*
X97651551Y-55280466D01*
X97648732Y-55277031D01*
X97646367Y-55273274D01*
X97643875Y-55271112D01*
X97636006Y-55261524D01*
X97588387Y-55213906D01*
X97578801Y-55206039D01*
X97576638Y-55203545D01*
X97572876Y-55201176D01*
X97569445Y-55198361D01*
X97566398Y-55197099D01*
X97555900Y-55190490D01*
X97460663Y-55142872D01*
X97437777Y-55134114D01*
X97433295Y-55133795D01*
X97429147Y-55132077D01*
X97404761Y-55129675D01*
X97309523Y-55129675D01*
X97285137Y-55132077D01*
X97280987Y-55133795D01*
X97276507Y-55134114D01*
X97253621Y-55142872D01*
X97158383Y-55190491D01*
X97147888Y-55197097D01*
X97144838Y-55198361D01*
X97141403Y-55201179D01*
X97137646Y-55203545D01*
X97135484Y-55206036D01*
X97125896Y-55213906D01*
X97078278Y-55261525D01*
X97070411Y-55271110D01*
X97067917Y-55273274D01*
X97065548Y-55277035D01*
X97062733Y-55280467D01*
X97061471Y-55283513D01*
X97054862Y-55294012D01*
X97007244Y-55389249D01*
X97006560Y-55391034D01*
X97006024Y-55391759D01*
X97002368Y-55401988D01*
X96998486Y-55412135D01*
X96998422Y-55413034D01*
X96997779Y-55414834D01*
X96950160Y-55605310D01*
X96949534Y-55609539D01*
X96948830Y-55611241D01*
X96947925Y-55620422D01*
X96946576Y-55629551D01*
X96946847Y-55631372D01*
X96946428Y-55635627D01*
X89300019Y-55635627D01*
X89300019Y-53953678D01*
X90758352Y-53953678D01*
X90758352Y-54002450D01*
X90777016Y-54047510D01*
X90811504Y-54081998D01*
X90856564Y-54100662D01*
X90880950Y-54103064D01*
X90946680Y-54103064D01*
X90997381Y-54128414D01*
X91016313Y-54147347D01*
X91041664Y-54198048D01*
X91041664Y-54644731D01*
X91044066Y-54669117D01*
X91062730Y-54714177D01*
X91097218Y-54748665D01*
X91142278Y-54767329D01*
X91191050Y-54767329D01*
X91236110Y-54748665D01*
X91270598Y-54714177D01*
X91289262Y-54669117D01*
X91291664Y-54644731D01*
X91291664Y-54120921D01*
X91470236Y-54120921D01*
X91470236Y-54216159D01*
X91472638Y-54240545D01*
X91477324Y-54251859D01*
X91479701Y-54263873D01*
X91486565Y-54274170D01*
X91491302Y-54285605D01*
X91499961Y-54294264D01*
X91506755Y-54304455D01*
X91517039Y-54311342D01*
X91525790Y-54320093D01*
X91537104Y-54324779D01*
X91547280Y-54331594D01*
X91570721Y-54338732D01*
X91946426Y-54413873D01*
X91946426Y-54472364D01*
X91930636Y-54503943D01*
X91899061Y-54519731D01*
X91767602Y-54519731D01*
X91698757Y-54485309D01*
X91675871Y-54476551D01*
X91627221Y-54473093D01*
X91580951Y-54488517D01*
X91544106Y-54520473D01*
X91522294Y-54564096D01*
X91518836Y-54612746D01*
X91534260Y-54659016D01*
X91566216Y-54695861D01*
X91586953Y-54708915D01*
X91682191Y-54756534D01*
X91705077Y-54765292D01*
X91709557Y-54765610D01*
X91713707Y-54767329D01*
X91738093Y-54769731D01*
X91928569Y-54769731D01*
X91952955Y-54767329D01*
X91957103Y-54765610D01*
X91961585Y-54765292D01*
X91984471Y-54756534D01*
X92079708Y-54708916D01*
X92083785Y-54706349D01*
X92085712Y-54705707D01*
X92088111Y-54703625D01*
X92100446Y-54695861D01*
X92110712Y-54684023D01*
X92122557Y-54673751D01*
X92130324Y-54661411D01*
X92132402Y-54659016D01*
X92133043Y-54657092D01*
X92135611Y-54653013D01*
X92147569Y-54629097D01*
X92280741Y-54629097D01*
X92284199Y-54677747D01*
X92306011Y-54721370D01*
X92342856Y-54753326D01*
X92389126Y-54768750D01*
X92437776Y-54765292D01*
X92460662Y-54756534D01*
X92555899Y-54708916D01*
X92559976Y-54706349D01*
X92561903Y-54705707D01*
X92564302Y-54703625D01*
X92576637Y-54695861D01*
X92586903Y-54684023D01*
X92598748Y-54673751D01*
X92606515Y-54661411D01*
X92608593Y-54659016D01*
X92609234Y-54657092D01*
X92611802Y-54653013D01*
X92623760Y-54629097D01*
X92804551Y-54629097D01*
X92808009Y-54677747D01*
X92829821Y-54721370D01*
X92866666Y-54753326D01*
X92912936Y-54768750D01*
X92961586Y-54765292D01*
X92984472Y-54756534D01*
X93079709Y-54708916D01*
X93083786Y-54706349D01*
X93085713Y-54705707D01*
X93088112Y-54703625D01*
X93100447Y-54695861D01*
X93110713Y-54684023D01*
X93122558Y-54673751D01*
X93130325Y-54661411D01*
X93132403Y-54659016D01*
X93133044Y-54657092D01*
X93135612Y-54653013D01*
X93183231Y-54557774D01*
X93191988Y-54534889D01*
X93192306Y-54530408D01*
X93194025Y-54526259D01*
X93196427Y-54501873D01*
X93196427Y-54168540D01*
X93374999Y-54168540D01*
X93374999Y-54454254D01*
X93377401Y-54478640D01*
X93379119Y-54482788D01*
X93379438Y-54487270D01*
X93388196Y-54510156D01*
X93435814Y-54605393D01*
X93442421Y-54615889D01*
X93443684Y-54618937D01*
X93446501Y-54622370D01*
X93448869Y-54626131D01*
X93451363Y-54628294D01*
X93459229Y-54637879D01*
X93506848Y-54685499D01*
X93516436Y-54693368D01*
X93518598Y-54695861D01*
X93522352Y-54698224D01*
X93525789Y-54701045D01*
X93528842Y-54702309D01*
X93539335Y-54708915D01*
X93634573Y-54756534D01*
X93657459Y-54765292D01*
X93661939Y-54765610D01*
X93666089Y-54767329D01*
X93690475Y-54769731D01*
X93833332Y-54769731D01*
X93857718Y-54767329D01*
X93861866Y-54765610D01*
X93866348Y-54765292D01*
X93889234Y-54756534D01*
X93984471Y-54708916D01*
X93994967Y-54702308D01*
X93998017Y-54701045D01*
X94001450Y-54698226D01*
X94005209Y-54695861D01*
X94007371Y-54693367D01*
X94016959Y-54685499D01*
X94064578Y-54637880D01*
X94072445Y-54628292D01*
X94074938Y-54626131D01*
X94077304Y-54622371D01*
X94080123Y-54618937D01*
X94081385Y-54615888D01*
X94087992Y-54605394D01*
X94135611Y-54510156D01*
X94144369Y-54487270D01*
X94144687Y-54482789D01*
X94146406Y-54478640D01*
X94148808Y-54454254D01*
X94148808Y-54168540D01*
X94146406Y-54144154D01*
X94144687Y-54140004D01*
X94144369Y-54135524D01*
X94135611Y-54112638D01*
X94087992Y-54017400D01*
X94081385Y-54006905D01*
X94080122Y-54003855D01*
X94077303Y-54000420D01*
X94074938Y-53996663D01*
X94072446Y-53994501D01*
X94064577Y-53984913D01*
X94033341Y-53953678D01*
X94186925Y-53953678D01*
X94186925Y-54002450D01*
X94205589Y-54047510D01*
X94240077Y-54081998D01*
X94285137Y-54100662D01*
X94309523Y-54103064D01*
X94375253Y-54103064D01*
X94425954Y-54128414D01*
X94444886Y-54147347D01*
X94470237Y-54198048D01*
X94470237Y-54644731D01*
X94472639Y-54669117D01*
X94491303Y-54714177D01*
X94525791Y-54748665D01*
X94570851Y-54767329D01*
X94619623Y-54767329D01*
X94664683Y-54748665D01*
X94699171Y-54714177D01*
X94717835Y-54669117D01*
X94720237Y-54644731D01*
X94720237Y-53978064D01*
X94717835Y-53953678D01*
X94805973Y-53953678D01*
X94805973Y-54002450D01*
X94824637Y-54047510D01*
X94859125Y-54081998D01*
X94904185Y-54100662D01*
X94928571Y-54103064D01*
X95041666Y-54103064D01*
X95041666Y-54472364D01*
X95025876Y-54503943D01*
X94994301Y-54519731D01*
X94928571Y-54519731D01*
X94904185Y-54522133D01*
X94859125Y-54540797D01*
X94824637Y-54575285D01*
X94805973Y-54620345D01*
X94805973Y-54669117D01*
X94824637Y-54714177D01*
X94859125Y-54748665D01*
X94904185Y-54767329D01*
X94928571Y-54769731D01*
X95023809Y-54769731D01*
X95048195Y-54767329D01*
X95052343Y-54765610D01*
X95056825Y-54765292D01*
X95079711Y-54756534D01*
X95174948Y-54708916D01*
X95179025Y-54706349D01*
X95180952Y-54705707D01*
X95183351Y-54703625D01*
X95195686Y-54695861D01*
X95205952Y-54684023D01*
X95217797Y-54673751D01*
X95225564Y-54661411D01*
X95227642Y-54659016D01*
X95228283Y-54657092D01*
X95230851Y-54653013D01*
X95278470Y-54557774D01*
X95287227Y-54534889D01*
X95287545Y-54530408D01*
X95289264Y-54526259D01*
X95291666Y-54501873D01*
X95291666Y-54120921D01*
X95517857Y-54120921D01*
X95517857Y-54644731D01*
X95520259Y-54669117D01*
X95538923Y-54714177D01*
X95573411Y-54748665D01*
X95618471Y-54767329D01*
X95667243Y-54767329D01*
X95712303Y-54748665D01*
X95746791Y-54714177D01*
X95765455Y-54669117D01*
X95767857Y-54644731D01*
X95767857Y-54150429D01*
X95783645Y-54118852D01*
X95815223Y-54103064D01*
X95899063Y-54103064D01*
X95946428Y-54126746D01*
X95946428Y-54644731D01*
X95948830Y-54669117D01*
X95967494Y-54714177D01*
X96001982Y-54748665D01*
X96047042Y-54767329D01*
X96095814Y-54767329D01*
X96140874Y-54748665D01*
X96175362Y-54714177D01*
X96194026Y-54669117D01*
X96196428Y-54644731D01*
X96196428Y-54168540D01*
X96375000Y-54168540D01*
X96375000Y-54454254D01*
X96377402Y-54478640D01*
X96379120Y-54482788D01*
X96379439Y-54487270D01*
X96388197Y-54510156D01*
X96435815Y-54605393D01*
X96442422Y-54615889D01*
X96443685Y-54618937D01*
X96446502Y-54622370D01*
X96448870Y-54626131D01*
X96451364Y-54628294D01*
X96459230Y-54637879D01*
X96506849Y-54685499D01*
X96516437Y-54693368D01*
X96518599Y-54695861D01*
X96522353Y-54698224D01*
X96525790Y-54701045D01*
X96528843Y-54702309D01*
X96539336Y-54708915D01*
X96634574Y-54756534D01*
X96657460Y-54765292D01*
X96661940Y-54765610D01*
X96666090Y-54767329D01*
X96690476Y-54769731D01*
X96833333Y-54769731D01*
X96857719Y-54767329D01*
X96861867Y-54765610D01*
X96866349Y-54765292D01*
X96889235Y-54756534D01*
X96984472Y-54708916D01*
X96994968Y-54702308D01*
X96998018Y-54701045D01*
X97001451Y-54698226D01*
X97005210Y-54695861D01*
X97007372Y-54693367D01*
X97016960Y-54685499D01*
X97064579Y-54637880D01*
X97072446Y-54628292D01*
X97074939Y-54626131D01*
X97077305Y-54622371D01*
X97080124Y-54618937D01*
X97081386Y-54615888D01*
X97087993Y-54605394D01*
X97135612Y-54510156D01*
X97144370Y-54487270D01*
X97144688Y-54482789D01*
X97146407Y-54478640D01*
X97148809Y-54454254D01*
X97148809Y-54168540D01*
X97146407Y-54144154D01*
X97144688Y-54140004D01*
X97144370Y-54135524D01*
X97135612Y-54112638D01*
X97087993Y-54017400D01*
X97081386Y-54006905D01*
X97080123Y-54003855D01*
X97077304Y-54000420D01*
X97074939Y-53996663D01*
X97072447Y-53994501D01*
X97064578Y-53984913D01*
X97016959Y-53937295D01*
X97007373Y-53929428D01*
X97005210Y-53926934D01*
X97001448Y-53924565D01*
X96998017Y-53921750D01*
X96994970Y-53920488D01*
X96984472Y-53913879D01*
X96889235Y-53866261D01*
X96866349Y-53857503D01*
X96861867Y-53857184D01*
X96857719Y-53855466D01*
X96833333Y-53853064D01*
X96690476Y-53853064D01*
X96666090Y-53855466D01*
X96661940Y-53857184D01*
X96657460Y-53857503D01*
X96634574Y-53866261D01*
X96539336Y-53913880D01*
X96528841Y-53920486D01*
X96525791Y-53921750D01*
X96522356Y-53924568D01*
X96518599Y-53926934D01*
X96516437Y-53929425D01*
X96506849Y-53937295D01*
X96459231Y-53984914D01*
X96451364Y-53994499D01*
X96448870Y-53996663D01*
X96446501Y-54000424D01*
X96443686Y-54003856D01*
X96442424Y-54006902D01*
X96435815Y-54017401D01*
X96388197Y-54112638D01*
X96379439Y-54135524D01*
X96379120Y-54140005D01*
X96377402Y-54144154D01*
X96375000Y-54168540D01*
X96196428Y-54168540D01*
X96196428Y-53978064D01*
X96194026Y-53953678D01*
X96175362Y-53908618D01*
X96140874Y-53874130D01*
X96095814Y-53855466D01*
X96047042Y-53855466D01*
X96001982Y-53874130D01*
X96001391Y-53874720D01*
X95984473Y-53866261D01*
X95961587Y-53857503D01*
X95957105Y-53857184D01*
X95952957Y-53855466D01*
X95928571Y-53853064D01*
X95785714Y-53853064D01*
X95761328Y-53855466D01*
X95757178Y-53857184D01*
X95752698Y-53857503D01*
X95729812Y-53866261D01*
X95634574Y-53913880D01*
X95630497Y-53916446D01*
X95628572Y-53917088D01*
X95626173Y-53919167D01*
X95613837Y-53926934D01*
X95603567Y-53938774D01*
X95591727Y-53949044D01*
X95583960Y-53961381D01*
X95581881Y-53963779D01*
X95581239Y-53965703D01*
X95578672Y-53969782D01*
X95531054Y-54065019D01*
X95522296Y-54087905D01*
X95521977Y-54092386D01*
X95520259Y-54096535D01*
X95517857Y-54120921D01*
X95291666Y-54120921D01*
X95291666Y-54103064D01*
X95309523Y-54103064D01*
X95333909Y-54100662D01*
X95378969Y-54081998D01*
X95413457Y-54047510D01*
X95432121Y-54002450D01*
X95432121Y-53953678D01*
X95413457Y-53908618D01*
X95378969Y-53874130D01*
X95333909Y-53855466D01*
X95309523Y-53853064D01*
X95291666Y-53853064D01*
X95291666Y-53715582D01*
X97282164Y-53715582D01*
X97282164Y-53764356D01*
X97300829Y-53809415D01*
X97335316Y-53843902D01*
X97380375Y-53862567D01*
X97429149Y-53862567D01*
X97474208Y-53843902D01*
X97493150Y-53828357D01*
X97519904Y-53801603D01*
X97615524Y-53769731D01*
X97670193Y-53769731D01*
X97765810Y-53801603D01*
X97825838Y-53861631D01*
X97858249Y-53926454D01*
X97898809Y-54088691D01*
X97898809Y-54200770D01*
X97858249Y-54363006D01*
X97825839Y-54427827D01*
X97765809Y-54487858D01*
X97670193Y-54519731D01*
X97615524Y-54519731D01*
X97519904Y-54487858D01*
X97493151Y-54461105D01*
X97474209Y-54445559D01*
X97429150Y-54426894D01*
X97380377Y-54426894D01*
X97335317Y-54445558D01*
X97300829Y-54480045D01*
X97282164Y-54525104D01*
X97282164Y-54573877D01*
X97300828Y-54618937D01*
X97316373Y-54637879D01*
X97363992Y-54685499D01*
X97382933Y-54701045D01*
X97387086Y-54702765D01*
X97390478Y-54705707D01*
X97412853Y-54715697D01*
X97555709Y-54763316D01*
X97567802Y-54766065D01*
X97570852Y-54767329D01*
X97575273Y-54767764D01*
X97579603Y-54768749D01*
X97582894Y-54768515D01*
X97595238Y-54769731D01*
X97690476Y-54769731D01*
X97702819Y-54768515D01*
X97706110Y-54768749D01*
X97710439Y-54767764D01*
X97714862Y-54767329D01*
X97717913Y-54766065D01*
X97730004Y-54763316D01*
X97872861Y-54715698D01*
X97895236Y-54705707D01*
X97898628Y-54702764D01*
X97902780Y-54701045D01*
X97921722Y-54685500D01*
X98016960Y-54590261D01*
X98024828Y-54580672D01*
X98027320Y-54578512D01*
X98029684Y-54574755D01*
X98032505Y-54571319D01*
X98033769Y-54568267D01*
X98040374Y-54557775D01*
X98087993Y-54462537D01*
X98088676Y-54460751D01*
X98089213Y-54460027D01*
X98092868Y-54449797D01*
X98096751Y-54439651D01*
X98096814Y-54438751D01*
X98097458Y-54436952D01*
X98145077Y-54246476D01*
X98145702Y-54242246D01*
X98146407Y-54240545D01*
X98147311Y-54231365D01*
X98148661Y-54222236D01*
X98148389Y-54220413D01*
X98148809Y-54216159D01*
X98148809Y-54168409D01*
X99089286Y-54168409D01*
X99089294Y-54168452D01*
X99089286Y-54168540D01*
X99089286Y-54359016D01*
X99089294Y-54359103D01*
X99089286Y-54359147D01*
X99090524Y-54371584D01*
X99091688Y-54383402D01*
X99091704Y-54383440D01*
X99091713Y-54383530D01*
X99139332Y-54621626D01*
X99141598Y-54629070D01*
X99143320Y-54636640D01*
X99190938Y-54779497D01*
X99194553Y-54787594D01*
X99197721Y-54795871D01*
X99245339Y-54891108D01*
X99249479Y-54897685D01*
X99253137Y-54904545D01*
X99348375Y-55047402D01*
X99348432Y-55047471D01*
X99348448Y-55047510D01*
X99355699Y-55056346D01*
X99363900Y-55066360D01*
X99363938Y-55066386D01*
X99363993Y-55066452D01*
X99411611Y-55114071D01*
X99430553Y-55129616D01*
X99475613Y-55148281D01*
X99524386Y-55148281D01*
X99569446Y-55129616D01*
X99603933Y-55095129D01*
X99622598Y-55050069D01*
X99622598Y-55001296D01*
X99603933Y-54956236D01*
X99588388Y-54937294D01*
X99549520Y-54898427D01*
X99465465Y-54772343D01*
X99425299Y-54692012D01*
X99382953Y-54564974D01*
X99339286Y-54346637D01*
X99339286Y-54180920D01*
X99382953Y-53962582D01*
X99425299Y-53835544D01*
X99465464Y-53755215D01*
X99549523Y-53629125D01*
X99558303Y-53620345D01*
X99710736Y-53620345D01*
X99710736Y-53669117D01*
X99729400Y-53714177D01*
X99763888Y-53748665D01*
X99808948Y-53767329D01*
X99833334Y-53769731D01*
X100184524Y-53769731D01*
X100184524Y-53995921D01*
X99976191Y-53995921D01*
X99951805Y-53998323D01*
X99906745Y-54016987D01*
X99872257Y-54051475D01*
X99853593Y-54096535D01*
X99853593Y-54145307D01*
X99872257Y-54190367D01*
X99906745Y-54224855D01*
X99951805Y-54243519D01*
X99976191Y-54245921D01*
X100184524Y-54245921D01*
X100184524Y-54519731D01*
X99833334Y-54519731D01*
X99808948Y-54522133D01*
X99763888Y-54540797D01*
X99729400Y-54575285D01*
X99710736Y-54620345D01*
X99710736Y-54669117D01*
X99729400Y-54714177D01*
X99763888Y-54748665D01*
X99808948Y-54767329D01*
X99833334Y-54769731D01*
X100309524Y-54769731D01*
X100333910Y-54767329D01*
X100378970Y-54748665D01*
X100413458Y-54714177D01*
X100432122Y-54669117D01*
X100434524Y-54644731D01*
X100434524Y-53644731D01*
X100432122Y-53620345D01*
X100413458Y-53575285D01*
X100378970Y-53540797D01*
X100333910Y-53522133D01*
X100309524Y-53519731D01*
X99833334Y-53519731D01*
X99808948Y-53522133D01*
X99763888Y-53540797D01*
X99729400Y-53575285D01*
X99710736Y-53620345D01*
X99558303Y-53620345D01*
X99588388Y-53590262D01*
X99603933Y-53571320D01*
X99622598Y-53526260D01*
X99622598Y-53477487D01*
X99622598Y-53477486D01*
X100567879Y-53477486D01*
X100567879Y-53526260D01*
X100586544Y-53571319D01*
X100602089Y-53590261D01*
X100640954Y-53629127D01*
X100725011Y-53755213D01*
X100765178Y-53835548D01*
X100807524Y-53962589D01*
X100851191Y-54180919D01*
X100851191Y-54346637D01*
X100807525Y-54564965D01*
X100765178Y-54692008D01*
X100725011Y-54772343D01*
X100640955Y-54898427D01*
X100602089Y-54937295D01*
X100586544Y-54956237D01*
X100567879Y-55001296D01*
X100567879Y-55050070D01*
X100586544Y-55095129D01*
X100621031Y-55129616D01*
X100666090Y-55148281D01*
X100714864Y-55148281D01*
X100759923Y-55129616D01*
X100778865Y-55114071D01*
X100826484Y-55066453D01*
X100826539Y-55066384D01*
X100826577Y-55066360D01*
X100834392Y-55056816D01*
X100842029Y-55047511D01*
X100842045Y-55047470D01*
X100842102Y-55047402D01*
X100937340Y-54904544D01*
X100940996Y-54897686D01*
X100945137Y-54891109D01*
X100992756Y-54795871D01*
X100995926Y-54787584D01*
X100999538Y-54779497D01*
X101047157Y-54636641D01*
X101048878Y-54629067D01*
X101051145Y-54621626D01*
X101098764Y-54383531D01*
X101098772Y-54383440D01*
X101098789Y-54383402D01*
X101099948Y-54371634D01*
X101101191Y-54359147D01*
X101101182Y-54359103D01*
X101101191Y-54359016D01*
X101101191Y-54216159D01*
X101279763Y-54216159D01*
X101279763Y-54454254D01*
X101282165Y-54478640D01*
X101283883Y-54482788D01*
X101284202Y-54487270D01*
X101292960Y-54510156D01*
X101340578Y-54605393D01*
X101347185Y-54615889D01*
X101348448Y-54618937D01*
X101351265Y-54622370D01*
X101353633Y-54626131D01*
X101356127Y-54628294D01*
X101363993Y-54637879D01*
X101411612Y-54685499D01*
X101421200Y-54693368D01*
X101423362Y-54695861D01*
X101427116Y-54698224D01*
X101430553Y-54701045D01*
X101433606Y-54702309D01*
X101444099Y-54708915D01*
X101539337Y-54756534D01*
X101562223Y-54765292D01*
X101566703Y-54765610D01*
X101570853Y-54767329D01*
X101595239Y-54769731D01*
X101833334Y-54769731D01*
X101857720Y-54767329D01*
X101861868Y-54765610D01*
X101866350Y-54765292D01*
X101889236Y-54756534D01*
X101984473Y-54708916D01*
X101994969Y-54702308D01*
X101998019Y-54701045D01*
X102001452Y-54698226D01*
X102005211Y-54695861D01*
X102007373Y-54693367D01*
X102016961Y-54685499D01*
X102064580Y-54637880D01*
X102080125Y-54618937D01*
X102098789Y-54573878D01*
X102098789Y-54525104D01*
X102080124Y-54480045D01*
X102045636Y-54445558D01*
X102000576Y-54426894D01*
X101951803Y-54426894D01*
X101906743Y-54445559D01*
X101887802Y-54461105D01*
X101854527Y-54494380D01*
X101803826Y-54519731D01*
X101624748Y-54519731D01*
X101574046Y-54494380D01*
X101555114Y-54475448D01*
X101529763Y-54424746D01*
X101529763Y-54245667D01*
X101555113Y-54194965D01*
X101574046Y-54176033D01*
X101624748Y-54150683D01*
X101803826Y-54150683D01*
X101854527Y-54176033D01*
X101887802Y-54209309D01*
X101906744Y-54224854D01*
X101912558Y-54227262D01*
X101917431Y-54231249D01*
X101934923Y-54236526D01*
X101951804Y-54243519D01*
X101958099Y-54243519D01*
X101964125Y-54245337D01*
X101982305Y-54243519D01*
X102000577Y-54243519D01*
X102006391Y-54241110D01*
X102012655Y-54240484D01*
X102028759Y-54231844D01*
X102045637Y-54224854D01*
X102050085Y-54220405D01*
X102055634Y-54217429D01*
X102067208Y-54203282D01*
X102080124Y-54190367D01*
X102082531Y-54184554D01*
X102086519Y-54179681D01*
X102091797Y-54162185D01*
X102098789Y-54145307D01*
X102098789Y-54139012D01*
X102100607Y-54132987D01*
X102100571Y-54108483D01*
X102052952Y-53632293D01*
X102051170Y-53623404D01*
X102051170Y-53621842D01*
X102186638Y-53621842D01*
X102186927Y-53645489D01*
X102186927Y-53669117D01*
X102187224Y-53669835D01*
X102187234Y-53670610D01*
X102194632Y-53693971D01*
X102623203Y-54693970D01*
X102635017Y-54715439D01*
X102669921Y-54749503D01*
X102715206Y-54767617D01*
X102763975Y-54767022D01*
X102808804Y-54747810D01*
X102842868Y-54712905D01*
X102860982Y-54667620D01*
X102860387Y-54618851D01*
X102852989Y-54595491D01*
X102731234Y-54311397D01*
X103184525Y-54311397D01*
X103184525Y-54454254D01*
X103186927Y-54478640D01*
X103188645Y-54482788D01*
X103188964Y-54487270D01*
X103197722Y-54510156D01*
X103245340Y-54605393D01*
X103251947Y-54615889D01*
X103253210Y-54618937D01*
X103256027Y-54622370D01*
X103258395Y-54626131D01*
X103260889Y-54628294D01*
X103268755Y-54637879D01*
X103316374Y-54685499D01*
X103325962Y-54693368D01*
X103328124Y-54695861D01*
X103331878Y-54698224D01*
X103335315Y-54701045D01*
X103338368Y-54702309D01*
X103348861Y-54708915D01*
X103444099Y-54756534D01*
X103466985Y-54765292D01*
X103471465Y-54765610D01*
X103475615Y-54767329D01*
X103500001Y-54769731D01*
X103880953Y-54769731D01*
X103905339Y-54767329D01*
X103950399Y-54748665D01*
X103984887Y-54714177D01*
X104003551Y-54669117D01*
X104005953Y-54644731D01*
X104005953Y-53644731D01*
X104232144Y-53644731D01*
X104232144Y-54454254D01*
X104234546Y-54478640D01*
X104236264Y-54482788D01*
X104236583Y-54487270D01*
X104245341Y-54510156D01*
X104292959Y-54605393D01*
X104299566Y-54615889D01*
X104300829Y-54618937D01*
X104303646Y-54622370D01*
X104306014Y-54626131D01*
X104308508Y-54628294D01*
X104316374Y-54637879D01*
X104363993Y-54685499D01*
X104373581Y-54693368D01*
X104375743Y-54695861D01*
X104379497Y-54698224D01*
X104382934Y-54701045D01*
X104385987Y-54702309D01*
X104396480Y-54708915D01*
X104491718Y-54756534D01*
X104514604Y-54765292D01*
X104519084Y-54765610D01*
X104523234Y-54767329D01*
X104547620Y-54769731D01*
X104738096Y-54769731D01*
X104762482Y-54767329D01*
X104766630Y-54765610D01*
X104771112Y-54765292D01*
X104793998Y-54756534D01*
X104889235Y-54708916D01*
X104899731Y-54702308D01*
X104902781Y-54701045D01*
X104906214Y-54698226D01*
X104909973Y-54695861D01*
X104912135Y-54693367D01*
X104921723Y-54685499D01*
X104969342Y-54637880D01*
X104977209Y-54628292D01*
X104979702Y-54626131D01*
X104982068Y-54622371D01*
X104984887Y-54618937D01*
X104986149Y-54615888D01*
X104992756Y-54605394D01*
X105040375Y-54510156D01*
X105049133Y-54487270D01*
X105049451Y-54482789D01*
X105051170Y-54478640D01*
X105053572Y-54454254D01*
X105053572Y-53644731D01*
X105279763Y-53644731D01*
X105279763Y-54644731D01*
X105282165Y-54669117D01*
X105300829Y-54714177D01*
X105335317Y-54748665D01*
X105380377Y-54767329D01*
X105429149Y-54767329D01*
X105474209Y-54748665D01*
X105508697Y-54714177D01*
X105527361Y-54669117D01*
X105529763Y-54644731D01*
X105529763Y-54245921D01*
X105851191Y-54245921D01*
X105851191Y-54644731D01*
X105853593Y-54669117D01*
X105872257Y-54714177D01*
X105906745Y-54748665D01*
X105951805Y-54767329D01*
X106000577Y-54767329D01*
X106045637Y-54748665D01*
X106080125Y-54714177D01*
X106098789Y-54669117D01*
X106101191Y-54644731D01*
X106101191Y-53644731D01*
X106098789Y-53620345D01*
X106080125Y-53575285D01*
X106045637Y-53540797D01*
X106000577Y-53522133D01*
X105951805Y-53522133D01*
X105906745Y-53540797D01*
X105872257Y-53575285D01*
X105853593Y-53620345D01*
X105851191Y-53644731D01*
X105851191Y-53995921D01*
X105529763Y-53995921D01*
X105529763Y-53644731D01*
X105527361Y-53620345D01*
X105508697Y-53575285D01*
X105474209Y-53540797D01*
X105429149Y-53522133D01*
X105380377Y-53522133D01*
X105335317Y-53540797D01*
X105300829Y-53575285D01*
X105282165Y-53620345D01*
X105279763Y-53644731D01*
X105053572Y-53644731D01*
X105051170Y-53620345D01*
X105032506Y-53575285D01*
X104998018Y-53540797D01*
X104952958Y-53522133D01*
X104904186Y-53522133D01*
X104859126Y-53540797D01*
X104824638Y-53575285D01*
X104805974Y-53620345D01*
X104803572Y-53644731D01*
X104803572Y-54424745D01*
X104778220Y-54475448D01*
X104759289Y-54494380D01*
X104708588Y-54519731D01*
X104577129Y-54519731D01*
X104526427Y-54494380D01*
X104507495Y-54475448D01*
X104482144Y-54424746D01*
X104482144Y-53644731D01*
X104479742Y-53620345D01*
X104461078Y-53575285D01*
X104426590Y-53540797D01*
X104381530Y-53522133D01*
X104332758Y-53522133D01*
X104287698Y-53540797D01*
X104253210Y-53575285D01*
X104234546Y-53620345D01*
X104232144Y-53644731D01*
X104005953Y-53644731D01*
X104003551Y-53620345D01*
X103984887Y-53575285D01*
X103950399Y-53540797D01*
X103905339Y-53522133D01*
X103880953Y-53519731D01*
X103547620Y-53519731D01*
X103523234Y-53522133D01*
X103519084Y-53523851D01*
X103514604Y-53524170D01*
X103491718Y-53532928D01*
X103396480Y-53580547D01*
X103385985Y-53587153D01*
X103382935Y-53588417D01*
X103379500Y-53591235D01*
X103375743Y-53593601D01*
X103373581Y-53596092D01*
X103363993Y-53603962D01*
X103316375Y-53651581D01*
X103308508Y-53661166D01*
X103306014Y-53663330D01*
X103303645Y-53667091D01*
X103300830Y-53670523D01*
X103299568Y-53673569D01*
X103292959Y-53684068D01*
X103245341Y-53779305D01*
X103236583Y-53802191D01*
X103236264Y-53806672D01*
X103234546Y-53810821D01*
X103232144Y-53835207D01*
X103232144Y-53930445D01*
X103234546Y-53954831D01*
X103236264Y-53958979D01*
X103236583Y-53963461D01*
X103245341Y-53986347D01*
X103292959Y-54081584D01*
X103299568Y-54092082D01*
X103300830Y-54095129D01*
X103301085Y-54095440D01*
X103268756Y-54127771D01*
X103260889Y-54137356D01*
X103258395Y-54139520D01*
X103256026Y-54143281D01*
X103253211Y-54146713D01*
X103251949Y-54149759D01*
X103245340Y-54160258D01*
X103197722Y-54255495D01*
X103188964Y-54278381D01*
X103188645Y-54282862D01*
X103186927Y-54287011D01*
X103184525Y-54311397D01*
X102731234Y-54311397D01*
X102499092Y-53769731D01*
X102976191Y-53769731D01*
X103000577Y-53767329D01*
X103045637Y-53748665D01*
X103080125Y-53714177D01*
X103098789Y-53669117D01*
X103098789Y-53620345D01*
X103080125Y-53575285D01*
X103045637Y-53540797D01*
X103000577Y-53522133D01*
X102976191Y-53519731D01*
X102309525Y-53519731D01*
X102285139Y-53522133D01*
X102284420Y-53522430D01*
X102283646Y-53522440D01*
X102261958Y-53531734D01*
X102240079Y-53540797D01*
X102239529Y-53541346D01*
X102238817Y-53541652D01*
X102222311Y-53558564D01*
X102205591Y-53575285D01*
X102205294Y-53576001D01*
X102204752Y-53576557D01*
X102195961Y-53598533D01*
X102186927Y-53620345D01*
X102186927Y-53621119D01*
X102186638Y-53621842D01*
X102051170Y-53621842D01*
X102051170Y-53620345D01*
X102049981Y-53617474D01*
X102048135Y-53608267D01*
X102039498Y-53592167D01*
X102032506Y-53575285D01*
X102028055Y-53570834D01*
X102025080Y-53565288D01*
X102010938Y-53553717D01*
X101998018Y-53540797D01*
X101992203Y-53538388D01*
X101987332Y-53534403D01*
X101969839Y-53529125D01*
X101952958Y-53522133D01*
X101943612Y-53521212D01*
X101940638Y-53520315D01*
X101937592Y-53520619D01*
X101928572Y-53519731D01*
X101452382Y-53519731D01*
X101427996Y-53522133D01*
X101382936Y-53540797D01*
X101348448Y-53575285D01*
X101329784Y-53620345D01*
X101329784Y-53669117D01*
X101348448Y-53714177D01*
X101382936Y-53748665D01*
X101427996Y-53767329D01*
X101452382Y-53769731D01*
X101815448Y-53769731D01*
X101828543Y-53900683D01*
X101595239Y-53900683D01*
X101570853Y-53903085D01*
X101566703Y-53904803D01*
X101562223Y-53905122D01*
X101539337Y-53913880D01*
X101444099Y-53961499D01*
X101433604Y-53968105D01*
X101430554Y-53969369D01*
X101427119Y-53972187D01*
X101423362Y-53974553D01*
X101421200Y-53977044D01*
X101411612Y-53984914D01*
X101363994Y-54032533D01*
X101356127Y-54042118D01*
X101353633Y-54044282D01*
X101351264Y-54048043D01*
X101348449Y-54051475D01*
X101347187Y-54054521D01*
X101340578Y-54065020D01*
X101292960Y-54160257D01*
X101284202Y-54183143D01*
X101283883Y-54187624D01*
X101282165Y-54191773D01*
X101279763Y-54216159D01*
X101101191Y-54216159D01*
X101101191Y-54168540D01*
X101101182Y-54168452D01*
X101101191Y-54168409D01*
X101099948Y-54155921D01*
X101098789Y-54144154D01*
X101098772Y-54144115D01*
X101098764Y-54144025D01*
X101051145Y-53905930D01*
X101048878Y-53898486D01*
X101047157Y-53890916D01*
X100999538Y-53748060D01*
X100995926Y-53739972D01*
X100992756Y-53731686D01*
X100945137Y-53636448D01*
X100940999Y-53629876D01*
X100937341Y-53623013D01*
X100842103Y-53480155D01*
X100842045Y-53480084D01*
X100842029Y-53480045D01*
X100834239Y-53470553D01*
X100826577Y-53461197D01*
X100826541Y-53461173D01*
X100826484Y-53461103D01*
X100778865Y-53413485D01*
X100759923Y-53397940D01*
X100714864Y-53379275D01*
X100666090Y-53379275D01*
X100621031Y-53397940D01*
X100586544Y-53432427D01*
X100567879Y-53477486D01*
X99622598Y-53477486D01*
X99603933Y-53432427D01*
X99569446Y-53397940D01*
X99524386Y-53379275D01*
X99475613Y-53379275D01*
X99430553Y-53397940D01*
X99411611Y-53413485D01*
X99363993Y-53461104D01*
X99363938Y-53461169D01*
X99363900Y-53461196D01*
X99355699Y-53471209D01*
X99348448Y-53480046D01*
X99348432Y-53480084D01*
X99348375Y-53480154D01*
X99253136Y-53623013D01*
X99249478Y-53629873D01*
X99245339Y-53636449D01*
X99197721Y-53731686D01*
X99194553Y-53739962D01*
X99190938Y-53748060D01*
X99143320Y-53890917D01*
X99141598Y-53898486D01*
X99139332Y-53905931D01*
X99091713Y-54144025D01*
X99091704Y-54144115D01*
X99091688Y-54144154D01*
X99090528Y-54155921D01*
X99089286Y-54168409D01*
X98148809Y-54168409D01*
X98148809Y-54073302D01*
X98148389Y-54069047D01*
X98148661Y-54067225D01*
X98147311Y-54058095D01*
X98146407Y-54048916D01*
X98145702Y-54047214D01*
X98145077Y-54042985D01*
X98097458Y-53852509D01*
X98096814Y-53850709D01*
X98096751Y-53849810D01*
X98092868Y-53839663D01*
X98089213Y-53829434D01*
X98088676Y-53828709D01*
X98087993Y-53826924D01*
X98040374Y-53731686D01*
X98033766Y-53721189D01*
X98032504Y-53718142D01*
X98029687Y-53714710D01*
X98027320Y-53710949D01*
X98024825Y-53708785D01*
X98016959Y-53699200D01*
X97921721Y-53603962D01*
X97902779Y-53588417D01*
X97898629Y-53586698D01*
X97895236Y-53583755D01*
X97872861Y-53573764D01*
X97730004Y-53526146D01*
X97717913Y-53523396D01*
X97714862Y-53522133D01*
X97710439Y-53521697D01*
X97706110Y-53520713D01*
X97702819Y-53520946D01*
X97690476Y-53519731D01*
X97595238Y-53519731D01*
X97582894Y-53520946D01*
X97579603Y-53520713D01*
X97575273Y-53521697D01*
X97570852Y-53522133D01*
X97567802Y-53523396D01*
X97555709Y-53526146D01*
X97412853Y-53573765D01*
X97390478Y-53583755D01*
X97387085Y-53586697D01*
X97382934Y-53588417D01*
X97363992Y-53603962D01*
X97316374Y-53651581D01*
X97300829Y-53670523D01*
X97282164Y-53715582D01*
X95291666Y-53715582D01*
X95291666Y-53644731D01*
X95289264Y-53620345D01*
X95270600Y-53575285D01*
X95236112Y-53540797D01*
X95191052Y-53522133D01*
X95142280Y-53522133D01*
X95097220Y-53540797D01*
X95062732Y-53575285D01*
X95044068Y-53620345D01*
X95041666Y-53644731D01*
X95041666Y-53853064D01*
X94928571Y-53853064D01*
X94904185Y-53855466D01*
X94859125Y-53874130D01*
X94824637Y-53908618D01*
X94805973Y-53953678D01*
X94717835Y-53953678D01*
X94699171Y-53908618D01*
X94664683Y-53874130D01*
X94619623Y-53855466D01*
X94570851Y-53855466D01*
X94525791Y-53874130D01*
X94509327Y-53890593D01*
X94460663Y-53866261D01*
X94437777Y-53857503D01*
X94433295Y-53857184D01*
X94429147Y-53855466D01*
X94404761Y-53853064D01*
X94309523Y-53853064D01*
X94285137Y-53855466D01*
X94240077Y-53874130D01*
X94205589Y-53908618D01*
X94186925Y-53953678D01*
X94033341Y-53953678D01*
X94016958Y-53937295D01*
X94007372Y-53929428D01*
X94005209Y-53926934D01*
X94001447Y-53924565D01*
X93998016Y-53921750D01*
X93994969Y-53920488D01*
X93984471Y-53913879D01*
X93889234Y-53866261D01*
X93866348Y-53857503D01*
X93861866Y-53857184D01*
X93857718Y-53855466D01*
X93833332Y-53853064D01*
X93690475Y-53853064D01*
X93666089Y-53855466D01*
X93661939Y-53857184D01*
X93657459Y-53857503D01*
X93634573Y-53866261D01*
X93539335Y-53913880D01*
X93528840Y-53920486D01*
X93525790Y-53921750D01*
X93522355Y-53924568D01*
X93518598Y-53926934D01*
X93516436Y-53929425D01*
X93506848Y-53937295D01*
X93459230Y-53984914D01*
X93451363Y-53994499D01*
X93448869Y-53996663D01*
X93446500Y-54000424D01*
X93443685Y-54003856D01*
X93442423Y-54006902D01*
X93435814Y-54017401D01*
X93388196Y-54112638D01*
X93379438Y-54135524D01*
X93379119Y-54140005D01*
X93377401Y-54144154D01*
X93374999Y-54168540D01*
X93196427Y-54168540D01*
X93196427Y-53644731D01*
X93194025Y-53620345D01*
X93175361Y-53575285D01*
X93140873Y-53540797D01*
X93095813Y-53522133D01*
X93047041Y-53522133D01*
X93001981Y-53540797D01*
X92967493Y-53575285D01*
X92948829Y-53620345D01*
X92946427Y-53644731D01*
X92946427Y-54472364D01*
X92930637Y-54503943D01*
X92872668Y-54532928D01*
X92851931Y-54545982D01*
X92819975Y-54582827D01*
X92804551Y-54629097D01*
X92623760Y-54629097D01*
X92659421Y-54557774D01*
X92668178Y-54534889D01*
X92668496Y-54530408D01*
X92670215Y-54526259D01*
X92672617Y-54501873D01*
X92672617Y-53644731D01*
X92670215Y-53620345D01*
X92651551Y-53575285D01*
X92617063Y-53540797D01*
X92572003Y-53522133D01*
X92523231Y-53522133D01*
X92478171Y-53540797D01*
X92443683Y-53575285D01*
X92425019Y-53620345D01*
X92422617Y-53644731D01*
X92422617Y-54472364D01*
X92406827Y-54503943D01*
X92348858Y-54532928D01*
X92328121Y-54545982D01*
X92296165Y-54582827D01*
X92280741Y-54629097D01*
X92147569Y-54629097D01*
X92183230Y-54557774D01*
X92191987Y-54534889D01*
X92192305Y-54530408D01*
X92194024Y-54526259D01*
X92196426Y-54501873D01*
X92196426Y-54120921D01*
X92194024Y-54096535D01*
X92192305Y-54092385D01*
X92191987Y-54087905D01*
X92183229Y-54065019D01*
X92135610Y-53969781D01*
X92133043Y-53965704D01*
X92132402Y-53963779D01*
X92130322Y-53961380D01*
X92122556Y-53949044D01*
X92110715Y-53938774D01*
X92100446Y-53926934D01*
X92088108Y-53919167D01*
X92085711Y-53917088D01*
X92083786Y-53916446D01*
X92079708Y-53913879D01*
X91984471Y-53866261D01*
X91961585Y-53857503D01*
X91957103Y-53857184D01*
X91952955Y-53855466D01*
X91928569Y-53853064D01*
X91738093Y-53853064D01*
X91713707Y-53855466D01*
X91709557Y-53857184D01*
X91705077Y-53857503D01*
X91682191Y-53866261D01*
X91586953Y-53913880D01*
X91582876Y-53916446D01*
X91580951Y-53917088D01*
X91578552Y-53919167D01*
X91566216Y-53926934D01*
X91555946Y-53938774D01*
X91544106Y-53949044D01*
X91536339Y-53961381D01*
X91534260Y-53963779D01*
X91533618Y-53965703D01*
X91531051Y-53969782D01*
X91483433Y-54065019D01*
X91474675Y-54087905D01*
X91474356Y-54092386D01*
X91472638Y-54096535D01*
X91470236Y-54120921D01*
X91291664Y-54120921D01*
X91291664Y-53978064D01*
X91289262Y-53953678D01*
X91270598Y-53908618D01*
X91236110Y-53874130D01*
X91191050Y-53855466D01*
X91142278Y-53855466D01*
X91097218Y-53874130D01*
X91080754Y-53890593D01*
X91032090Y-53866261D01*
X91009204Y-53857503D01*
X91004722Y-53857184D01*
X91000574Y-53855466D01*
X90976188Y-53853064D01*
X90880950Y-53853064D01*
X90856564Y-53855466D01*
X90811504Y-53874130D01*
X90777016Y-53908618D01*
X90758352Y-53953678D01*
X89300019Y-53953678D01*
X89300019Y-53254275D01*
X107607143Y-53254275D01*
X107607143Y-58305095D01*
G37*
D11*
%TO.C,G\u002A\u002A\u002A*%
G36*
X101548807Y-62688005D02*
G01*
X101727396Y-62942465D01*
X101883578Y-63209377D01*
X102017108Y-63488305D01*
X102127741Y-63778810D01*
X102215230Y-64080456D01*
X102255575Y-64259299D01*
X102286604Y-64436555D01*
X102307558Y-64613540D01*
X102319413Y-64798579D01*
X102323148Y-65000000D01*
X102322734Y-65018504D01*
X102318411Y-65211502D01*
X102297763Y-65470980D01*
X102259771Y-65721503D01*
X102203392Y-65969593D01*
X102127581Y-66221772D01*
X102073891Y-66371403D01*
X101952846Y-66652504D01*
X101810173Y-66921594D01*
X101647073Y-67177556D01*
X101464747Y-67419271D01*
X101264396Y-67645623D01*
X101047221Y-67855494D01*
X100814423Y-68047765D01*
X100567203Y-68221320D01*
X100306762Y-68375040D01*
X100034302Y-68507807D01*
X99751023Y-68618504D01*
X99458126Y-68706014D01*
X99295632Y-68743558D01*
X98991098Y-68794903D01*
X98673620Y-68824617D01*
X98663225Y-68825145D01*
X98601167Y-68826460D01*
X98521586Y-68826050D01*
X98431171Y-68824133D01*
X98336606Y-68820926D01*
X98244579Y-68816648D01*
X98161777Y-68811517D01*
X98094886Y-68805750D01*
X98088197Y-68805035D01*
X97788211Y-68760347D01*
X97491916Y-68691847D01*
X97202065Y-68600521D01*
X96921411Y-68487351D01*
X96652708Y-68353322D01*
X96398709Y-68199418D01*
X96178163Y-68041632D01*
X95937887Y-67841476D01*
X95716075Y-67624699D01*
X95520845Y-67400873D01*
X96555794Y-67400873D01*
X96643719Y-67465826D01*
X96733090Y-67529649D01*
X96976690Y-67682609D01*
X97229565Y-67811846D01*
X97491031Y-67917073D01*
X97760408Y-67998002D01*
X98037012Y-68054344D01*
X98076197Y-68059546D01*
X98156764Y-68066963D01*
X98253227Y-68073002D01*
X98359656Y-68077528D01*
X98470120Y-68080404D01*
X98578690Y-68081493D01*
X98679434Y-68080660D01*
X98766424Y-68077766D01*
X98833728Y-68072677D01*
X98913218Y-68062696D01*
X99185992Y-68012199D01*
X99451251Y-67938023D01*
X99707567Y-67841166D01*
X99953516Y-67722628D01*
X100187671Y-67583407D01*
X100408607Y-67424503D01*
X100614897Y-67246912D01*
X100805116Y-67051635D01*
X100977839Y-66839670D01*
X101131638Y-66612016D01*
X101265089Y-66369671D01*
X101322007Y-66249021D01*
X101396818Y-66068084D01*
X101458075Y-65886484D01*
X101508416Y-65696076D01*
X101550480Y-65488717D01*
X101551305Y-65483995D01*
X101563901Y-65389735D01*
X101573177Y-65276570D01*
X101579094Y-65150744D01*
X101581607Y-65018504D01*
X101580677Y-64886097D01*
X101576259Y-64759769D01*
X101568314Y-64645765D01*
X101556797Y-64550332D01*
X101541722Y-64462663D01*
X101477049Y-64182965D01*
X101388813Y-63913349D01*
X101277193Y-63654251D01*
X101142372Y-63406110D01*
X100984531Y-63169363D01*
X100901151Y-63055638D01*
X100639280Y-63317262D01*
X100377409Y-63578886D01*
X100679768Y-63582334D01*
X100982126Y-63585782D01*
X100982126Y-64693639D01*
X100982126Y-64935929D01*
X100982126Y-66286076D01*
X100560936Y-66286083D01*
X100139747Y-66286090D01*
X100143312Y-65882413D01*
X100146877Y-65478736D01*
X99783210Y-65472021D01*
X99750833Y-65471401D01*
X99631882Y-65468541D01*
X99533806Y-65464860D01*
X99452702Y-65459904D01*
X99384669Y-65453220D01*
X99325806Y-65444352D01*
X99272210Y-65432849D01*
X99219982Y-65418254D01*
X99165219Y-65400115D01*
X99131505Y-65387587D01*
X98992301Y-65319989D01*
X98864520Y-65232035D01*
X98787001Y-65169311D01*
X98631315Y-65325151D01*
X98540614Y-65415941D01*
X98294228Y-65662571D01*
X98294228Y-65974323D01*
X98294228Y-66286076D01*
X97982299Y-66286076D01*
X97670370Y-66286076D01*
X97113082Y-66843475D01*
X96555794Y-67400873D01*
X95520845Y-67400873D01*
X95513495Y-67392446D01*
X95330918Y-67145859D01*
X95169110Y-66886084D01*
X95028842Y-66614264D01*
X94910881Y-66331543D01*
X94815995Y-66039066D01*
X94744955Y-65737976D01*
X94700625Y-65445865D01*
X94678424Y-65141595D01*
X94678896Y-65000000D01*
X95420224Y-65000000D01*
X95420991Y-65120117D01*
X95424484Y-65239886D01*
X95431499Y-65346175D01*
X95442795Y-65445488D01*
X95459136Y-65544327D01*
X95481283Y-65649197D01*
X95509997Y-65766600D01*
X95551849Y-65914112D01*
X95646637Y-66175640D01*
X95765410Y-66429050D01*
X95907514Y-66673021D01*
X96072300Y-66906233D01*
X96093790Y-66933308D01*
X96125765Y-66970860D01*
X96150583Y-66996625D01*
X96164164Y-67006165D01*
X96172987Y-67000031D01*
X96197843Y-66978053D01*
X96235976Y-66942420D01*
X96284944Y-66895560D01*
X96342306Y-66839902D01*
X96405621Y-66777873D01*
X96472446Y-66711902D01*
X96540341Y-66644417D01*
X96606864Y-66577845D01*
X96669573Y-66514615D01*
X96726028Y-66457154D01*
X96773787Y-66407892D01*
X96810408Y-66369254D01*
X96833451Y-66343671D01*
X96840472Y-66333569D01*
X96834512Y-66330840D01*
X96809118Y-66322906D01*
X96771979Y-66313141D01*
X96716988Y-66296965D01*
X96602169Y-66244104D01*
X96496680Y-66168472D01*
X96401599Y-66071275D01*
X96318004Y-65953715D01*
X96246973Y-65816999D01*
X96189583Y-65662329D01*
X96186216Y-65651326D01*
X96174809Y-65612026D01*
X96166455Y-65576891D01*
X96160676Y-65540941D01*
X96156991Y-65499195D01*
X96154923Y-65446672D01*
X96153992Y-65378389D01*
X96153779Y-65308659D01*
X96905265Y-65308659D01*
X96905777Y-65348112D01*
X96915564Y-65470298D01*
X96938156Y-65571369D01*
X96974034Y-65652517D01*
X97023681Y-65714934D01*
X97087579Y-65759812D01*
X97128781Y-65775405D01*
X97191758Y-65788113D01*
X97256395Y-65792141D01*
X97310379Y-65786038D01*
X97372720Y-65763431D01*
X97437264Y-65720216D01*
X97487330Y-65659235D01*
X97523681Y-65579169D01*
X97547077Y-65478699D01*
X97558280Y-65356507D01*
X97559246Y-65325151D01*
X97555397Y-65191432D01*
X97537614Y-65079111D01*
X97505713Y-64987887D01*
X97459508Y-64917459D01*
X97398813Y-64867526D01*
X97323444Y-64837787D01*
X97233215Y-64827941D01*
X97152984Y-64835571D01*
X97076197Y-64862814D01*
X97013961Y-64910185D01*
X96966013Y-64978070D01*
X96932089Y-65066854D01*
X96911928Y-65176922D01*
X96905265Y-65308659D01*
X96153779Y-65308659D01*
X96153720Y-65289367D01*
X96153759Y-65231277D01*
X96154450Y-65152691D01*
X96156272Y-65091716D01*
X96159627Y-65043297D01*
X96164918Y-65002381D01*
X96172548Y-64963912D01*
X96182919Y-64922836D01*
X96218624Y-64810883D01*
X96281842Y-64672681D01*
X96360827Y-64554582D01*
X96455448Y-64456739D01*
X96565578Y-64379303D01*
X96691086Y-64322429D01*
X96708307Y-64316809D01*
X96792936Y-64297198D01*
X96889225Y-64284944D01*
X96988264Y-64280528D01*
X97081140Y-64284432D01*
X97158940Y-64297138D01*
X97272420Y-64336613D01*
X97378085Y-64394535D01*
X97466776Y-64466669D01*
X97535443Y-64535335D01*
X97535443Y-64060326D01*
X97535443Y-63585317D01*
X97914835Y-63585317D01*
X98294228Y-63585317D01*
X98294228Y-64228355D01*
X98294236Y-64256149D01*
X98294502Y-64380455D01*
X98295109Y-64496075D01*
X98296020Y-64600573D01*
X98297200Y-64691517D01*
X98298612Y-64766474D01*
X98300219Y-64823010D01*
X98301985Y-64858691D01*
X98303873Y-64871084D01*
X98305945Y-64870135D01*
X98323087Y-64856286D01*
X98353610Y-64828498D01*
X98393949Y-64790077D01*
X98440542Y-64744327D01*
X98567565Y-64617880D01*
X98567683Y-64614313D01*
X99377246Y-64614313D01*
X99379792Y-64631754D01*
X99387755Y-64660833D01*
X99422151Y-64718755D01*
X99478058Y-64765320D01*
X99553890Y-64799418D01*
X99648060Y-64819935D01*
X99692108Y-64824561D01*
X99757131Y-64828887D01*
X99828835Y-64831618D01*
X99902597Y-64832787D01*
X99973792Y-64832427D01*
X100037796Y-64830572D01*
X100089987Y-64827256D01*
X100125740Y-64822511D01*
X100140432Y-64816372D01*
X100140740Y-64815242D01*
X100142422Y-64794188D01*
X100143556Y-64752258D01*
X100144099Y-64693639D01*
X100144009Y-64622517D01*
X100143243Y-64543081D01*
X100139747Y-64286228D01*
X99908253Y-64282761D01*
X99676759Y-64279293D01*
X99523963Y-64432539D01*
X99470135Y-64486720D01*
X99429410Y-64528767D01*
X99402179Y-64559207D01*
X99386020Y-64581382D01*
X99378516Y-64598637D01*
X99377246Y-64614313D01*
X98567683Y-64614313D01*
X98571562Y-64497067D01*
X98573721Y-64455849D01*
X98596651Y-64301686D01*
X98641657Y-64158231D01*
X98707336Y-64027185D01*
X98792288Y-63910247D01*
X98895108Y-63809119D01*
X99014395Y-63725501D01*
X99148748Y-63661093D01*
X99296762Y-63617596D01*
X99298232Y-63617289D01*
X99357447Y-63606849D01*
X99427133Y-63597276D01*
X99492516Y-63590607D01*
X99599595Y-63582271D01*
X100052936Y-63130619D01*
X100069441Y-63114166D01*
X100157626Y-63025922D01*
X100239695Y-62943249D01*
X100313907Y-62867935D01*
X100378524Y-62801767D01*
X100431809Y-62746535D01*
X100472022Y-62704026D01*
X100497424Y-62676029D01*
X100506278Y-62664331D01*
X100502537Y-62657479D01*
X100482437Y-62636431D01*
X100448854Y-62606675D01*
X100406232Y-62572300D01*
X100263871Y-62468130D01*
X100021646Y-62316144D01*
X99768544Y-62187413D01*
X99505134Y-62082182D01*
X99231986Y-62000697D01*
X98949668Y-61943203D01*
X98944786Y-61942442D01*
X98848114Y-61931132D01*
X98733231Y-61923391D01*
X98606383Y-61919175D01*
X98473816Y-61918444D01*
X98341776Y-61921155D01*
X98216510Y-61927266D01*
X98104264Y-61936735D01*
X98011283Y-61949520D01*
X97750861Y-62005472D01*
X97479448Y-62086790D01*
X97222143Y-62189353D01*
X96978220Y-62313534D01*
X96746957Y-62459705D01*
X96527627Y-62628238D01*
X96319507Y-62819505D01*
X96147679Y-63005092D01*
X95974903Y-63226383D01*
X95824629Y-63460065D01*
X95696975Y-63705932D01*
X95592058Y-63963779D01*
X95509997Y-64233401D01*
X95486203Y-64329862D01*
X95462995Y-64436686D01*
X95445681Y-64536842D01*
X95433503Y-64636791D01*
X95425705Y-64742993D01*
X95421531Y-64861910D01*
X95420224Y-65000000D01*
X94678896Y-65000000D01*
X94679444Y-64835285D01*
X94703664Y-64531340D01*
X94751069Y-64234167D01*
X94758413Y-64198618D01*
X94834391Y-63899172D01*
X94933818Y-63609293D01*
X95057091Y-63328063D01*
X95204606Y-63054565D01*
X95376761Y-62787880D01*
X95466735Y-62665591D01*
X95578154Y-62529348D01*
X95703318Y-62391513D01*
X95846737Y-62246893D01*
X96075448Y-62041450D01*
X96321864Y-61853705D01*
X96581228Y-61688061D01*
X96853083Y-61544736D01*
X97136975Y-61423945D01*
X97432446Y-61325906D01*
X97739041Y-61250833D01*
X98056303Y-61198944D01*
X98077070Y-61196499D01*
X98186201Y-61187141D01*
X98311718Y-61180989D01*
X98446636Y-61178046D01*
X98583972Y-61178317D01*
X98716742Y-61181804D01*
X98837962Y-61188513D01*
X98940648Y-61198446D01*
X99028844Y-61210514D01*
X99346066Y-61269327D01*
X99650940Y-61350701D01*
X99943500Y-61454652D01*
X100223782Y-61581199D01*
X100491820Y-61730358D01*
X100747651Y-61902147D01*
X100991309Y-62096582D01*
X101222829Y-62313681D01*
X101348058Y-62446435D01*
X101529133Y-62664331D01*
X101548807Y-62688005D01*
G37*
G36*
X113675262Y-69989119D02*
G01*
X113654025Y-70061885D01*
X113612496Y-70125383D01*
X113552024Y-70177432D01*
X113473959Y-70215852D01*
X113441760Y-70223430D01*
X113394965Y-70229248D01*
X113345009Y-70231665D01*
X113262565Y-70225571D01*
X113196262Y-70205414D01*
X113144433Y-70170405D01*
X113117653Y-70145247D01*
X113117653Y-70182800D01*
X113117653Y-70220354D01*
X113017094Y-70220354D01*
X112916535Y-70220354D01*
X112916624Y-69909804D01*
X112916936Y-69840268D01*
X112917101Y-69828115D01*
X113117653Y-69828115D01*
X113117653Y-69894687D01*
X113118747Y-69921521D01*
X113128439Y-69974587D01*
X113146625Y-70014224D01*
X113171445Y-70035558D01*
X113176563Y-70037239D01*
X113210653Y-70043344D01*
X113257966Y-70047355D01*
X113310077Y-70048964D01*
X113358562Y-70047861D01*
X113394997Y-70043740D01*
X113441838Y-70025434D01*
X113475870Y-69993859D01*
X113492822Y-69954156D01*
X113490748Y-69910998D01*
X113467704Y-69869057D01*
X113463498Y-69864199D01*
X113451721Y-69852309D01*
X113438145Y-69844169D01*
X113418397Y-69838923D01*
X113388107Y-69835715D01*
X113342904Y-69833689D01*
X113278417Y-69831990D01*
X113117653Y-69828115D01*
X112917101Y-69828115D01*
X112918101Y-69754556D01*
X112920004Y-69675710D01*
X112922514Y-69607930D01*
X112925498Y-69555412D01*
X112928824Y-69522357D01*
X112938911Y-69475234D01*
X112966915Y-69409365D01*
X113011063Y-69357732D01*
X113074173Y-69316339D01*
X113099674Y-69303959D01*
X113131343Y-69291899D01*
X113165568Y-69284230D01*
X113209384Y-69279512D01*
X113269825Y-69276306D01*
X113323185Y-69275130D01*
X113404889Y-69279344D01*
X113471258Y-69292694D01*
X113526895Y-69316304D01*
X113576401Y-69351300D01*
X113596697Y-69369467D01*
X113618070Y-69391090D01*
X113626363Y-69403229D01*
X113626096Y-69404238D01*
X113614697Y-69417437D01*
X113589844Y-69439952D01*
X113556168Y-69467540D01*
X113485974Y-69522688D01*
X113455441Y-69494391D01*
X113450025Y-69489733D01*
X113405990Y-69466386D01*
X113349772Y-69453350D01*
X113288135Y-69450475D01*
X113227844Y-69457614D01*
X113175662Y-69474618D01*
X113138356Y-69501338D01*
X113131418Y-69511170D01*
X113120906Y-69544032D01*
X113117653Y-69594650D01*
X113117653Y-69664322D01*
X113269302Y-69664322D01*
X113273373Y-69664325D01*
X113366325Y-69666780D01*
X113440095Y-69674419D01*
X113498623Y-69688155D01*
X113545854Y-69708901D01*
X113585727Y-69737569D01*
X113622008Y-69774945D01*
X113653518Y-69828142D01*
X113672545Y-69895178D01*
X113674856Y-69909264D01*
X113675084Y-69954156D01*
X113675262Y-69989119D01*
G37*
G36*
X112070657Y-69758966D02*
G01*
X112070642Y-69793533D01*
X112070354Y-69867675D01*
X112069427Y-69923394D01*
X112067513Y-69964461D01*
X112064263Y-69994649D01*
X112059326Y-70017729D01*
X112052355Y-70037473D01*
X112042998Y-70057653D01*
X112037297Y-70068516D01*
X111993036Y-70128583D01*
X111934938Y-70179389D01*
X111870896Y-70213774D01*
X111843367Y-70221767D01*
X111780700Y-70228689D01*
X111713996Y-70224357D01*
X111649964Y-70210003D01*
X111595312Y-70186858D01*
X111556750Y-70156151D01*
X111553330Y-70152180D01*
X111535013Y-70138701D01*
X111524134Y-70147592D01*
X111520541Y-70178947D01*
X111520541Y-70220354D01*
X111425897Y-70220354D01*
X111331253Y-70220354D01*
X111331253Y-69747473D01*
X111526456Y-69747473D01*
X111526559Y-69768729D01*
X111529711Y-69849024D01*
X111537983Y-69910091D01*
X111552350Y-69955276D01*
X111573784Y-69987925D01*
X111603260Y-70011383D01*
X111603513Y-70011533D01*
X111662823Y-70033871D01*
X111727157Y-70037225D01*
X111787623Y-70021125D01*
X111805158Y-70011987D01*
X111835525Y-69988338D01*
X111857161Y-69956120D01*
X111871499Y-69911607D01*
X111879975Y-69851074D01*
X111884023Y-69770796D01*
X111884413Y-69750160D01*
X111881744Y-69659103D01*
X111870559Y-69588201D01*
X111849784Y-69535472D01*
X111818347Y-69498937D01*
X111775174Y-69476613D01*
X111719191Y-69466521D01*
X111697805Y-69465720D01*
X111635604Y-69475205D01*
X111586962Y-69503782D01*
X111550929Y-69551933D01*
X111540378Y-69575559D01*
X111533289Y-69601672D01*
X111529049Y-69635485D01*
X111526993Y-69682314D01*
X111526456Y-69747473D01*
X111331253Y-69747473D01*
X111331253Y-69557350D01*
X111331253Y-68894347D01*
X111422939Y-68897802D01*
X111514625Y-68901258D01*
X111517833Y-69134909D01*
X111518013Y-69147051D01*
X111519618Y-69217290D01*
X111521940Y-69278125D01*
X111524775Y-69325991D01*
X111527920Y-69357324D01*
X111531173Y-69368561D01*
X111540208Y-69364814D01*
X111557541Y-69348932D01*
X111562942Y-69343094D01*
X111599127Y-69317634D01*
X111648845Y-69295553D01*
X111703819Y-69279977D01*
X111755777Y-69274033D01*
X111773459Y-69274281D01*
X111847600Y-69283835D01*
X111910759Y-69309275D01*
X111970450Y-69353378D01*
X112000566Y-69382167D01*
X112024354Y-69410596D01*
X112042108Y-69441653D01*
X112054694Y-69478842D01*
X112062976Y-69525664D01*
X112067820Y-69585624D01*
X112070092Y-69662223D01*
X112070606Y-69750160D01*
X112070657Y-69758966D01*
G37*
G36*
X109880385Y-69999777D02*
G01*
X109857752Y-70065322D01*
X109818320Y-70124687D01*
X109762306Y-70174400D01*
X109689930Y-70210989D01*
X109688988Y-70211324D01*
X109631695Y-70224719D01*
X109563029Y-70230858D01*
X109494043Y-70229358D01*
X109435789Y-70219833D01*
X109432988Y-70219016D01*
X109392539Y-70201461D01*
X109355934Y-70177441D01*
X109320075Y-70147268D01*
X109320075Y-70183811D01*
X109320075Y-70220354D01*
X109225431Y-70220354D01*
X109130787Y-70220354D01*
X109131047Y-69856567D01*
X109131059Y-69842063D01*
X109131089Y-69829949D01*
X109320075Y-69829949D01*
X109320075Y-69888331D01*
X109320075Y-69889097D01*
X109325256Y-69951036D01*
X109341423Y-69994843D01*
X109369826Y-70023923D01*
X109373518Y-70026021D01*
X109403742Y-70035849D01*
X109447430Y-70043910D01*
X109496099Y-70049219D01*
X109541260Y-70050792D01*
X109574430Y-70047646D01*
X109592015Y-70043548D01*
X109625010Y-70036220D01*
X109661254Y-70019896D01*
X109688669Y-69985775D01*
X109698273Y-69939380D01*
X109698036Y-69929773D01*
X109692560Y-69893641D01*
X109677767Y-69867108D01*
X109650823Y-69848824D01*
X109608892Y-69837437D01*
X109549140Y-69831596D01*
X109468733Y-69829949D01*
X109320075Y-69829949D01*
X109131089Y-69829949D01*
X109131326Y-69733359D01*
X109132266Y-69645249D01*
X109134395Y-69574994D01*
X109138231Y-69519854D01*
X109144290Y-69477092D01*
X109153089Y-69443968D01*
X109165143Y-69417742D01*
X109180970Y-69395675D01*
X109201086Y-69375030D01*
X109226009Y-69353065D01*
X109231585Y-69348353D01*
X109267800Y-69321637D01*
X109305279Y-69302824D01*
X109349613Y-69290252D01*
X109406394Y-69282258D01*
X109481211Y-69277179D01*
X109506480Y-69276204D01*
X109596663Y-69278408D01*
X109670019Y-69291229D01*
X109730474Y-69315653D01*
X109781952Y-69352664D01*
X109799877Y-69369606D01*
X109820680Y-69391943D01*
X109828785Y-69404737D01*
X109828599Y-69405595D01*
X109817570Y-69418666D01*
X109792883Y-69440899D01*
X109759252Y-69468004D01*
X109734445Y-69486958D01*
X109707946Y-69505595D01*
X109691614Y-69512548D01*
X109680274Y-69509551D01*
X109668750Y-69498338D01*
X109661772Y-69491554D01*
X109623189Y-69469697D01*
X109572207Y-69456460D01*
X109514646Y-69451612D01*
X109456328Y-69454924D01*
X109403073Y-69466165D01*
X109360703Y-69485106D01*
X109335037Y-69511517D01*
X109330424Y-69523646D01*
X109323182Y-69559609D01*
X109320249Y-69601127D01*
X109320075Y-69662152D01*
X109494574Y-69666399D01*
X109513944Y-69666896D01*
X109581404Y-69669312D01*
X109631164Y-69672746D01*
X109668031Y-69677804D01*
X109696811Y-69685095D01*
X109722310Y-69695228D01*
X109733935Y-69700876D01*
X109798567Y-69745240D01*
X109845310Y-69800783D01*
X109874382Y-69864036D01*
X109886001Y-69931524D01*
X109885355Y-69939380D01*
X109880385Y-69999777D01*
G37*
G36*
X108280407Y-69688456D02*
G01*
X108280924Y-69752842D01*
X108279578Y-69810674D01*
X108272581Y-69890023D01*
X108258333Y-69955947D01*
X108235342Y-70014482D01*
X108202115Y-70071664D01*
X108156134Y-70127652D01*
X108088609Y-70178581D01*
X108003510Y-70215700D01*
X107966235Y-70224477D01*
X107896501Y-70230174D01*
X107820553Y-70226733D01*
X107747620Y-70214761D01*
X107686931Y-70194865D01*
X107675405Y-70189302D01*
X107635441Y-70166630D01*
X107596670Y-70140419D01*
X107563958Y-70114436D01*
X107542175Y-70092447D01*
X107536186Y-70078220D01*
X107536324Y-70077918D01*
X107547357Y-70065672D01*
X107571380Y-70043222D01*
X107603454Y-70015194D01*
X107667318Y-69960932D01*
X107701842Y-69989982D01*
X107742598Y-70015491D01*
X107799837Y-70037149D01*
X107859907Y-70049215D01*
X107912410Y-70048785D01*
X107975083Y-70028181D01*
X108028454Y-69990275D01*
X108066852Y-69939296D01*
X108086216Y-69879204D01*
X108092822Y-69829949D01*
X107800141Y-69829949D01*
X107507461Y-69829949D01*
X107511695Y-69696607D01*
X107512111Y-69683901D01*
X107513001Y-69664322D01*
X107699893Y-69664322D01*
X107896358Y-69664322D01*
X108092822Y-69664322D01*
X108086216Y-69615067D01*
X108078573Y-69580954D01*
X108050078Y-69525952D01*
X108006445Y-69485061D01*
X107951536Y-69460432D01*
X107889210Y-69454216D01*
X107823329Y-69468564D01*
X107811576Y-69473673D01*
X107764179Y-69509046D01*
X107728165Y-69561316D01*
X107706945Y-69625873D01*
X107699893Y-69664322D01*
X107513001Y-69664322D01*
X107514694Y-69627082D01*
X107518876Y-69585615D01*
X107526093Y-69552481D01*
X107537779Y-69520665D01*
X107555370Y-69483150D01*
X107597592Y-69414093D01*
X107660223Y-69349761D01*
X107735750Y-69305120D01*
X107823558Y-69280517D01*
X107923036Y-69276295D01*
X108008023Y-69289289D01*
X108088759Y-69321798D01*
X108156065Y-69373639D01*
X108210291Y-69445089D01*
X108251792Y-69536428D01*
X108258428Y-69556119D01*
X108270247Y-69598177D01*
X108277210Y-69639595D01*
X108278828Y-69664322D01*
X108280407Y-69688456D01*
G37*
G36*
X114560969Y-69007732D02*
G01*
X114560969Y-70220354D01*
X114467031Y-70220354D01*
X114373093Y-70220354D01*
X114369430Y-69903889D01*
X114369211Y-69885250D01*
X114367985Y-69793485D01*
X114366600Y-69721862D01*
X114364827Y-69667395D01*
X114362435Y-69627096D01*
X114359197Y-69597980D01*
X114354882Y-69577058D01*
X114349261Y-69561343D01*
X114342106Y-69547849D01*
X114329449Y-69529555D01*
X114285599Y-69490961D01*
X114232516Y-69469387D01*
X114175405Y-69464766D01*
X114119468Y-69477029D01*
X114069909Y-69506107D01*
X114031929Y-69551933D01*
X114027346Y-69560284D01*
X114020306Y-69575279D01*
X114014948Y-69592288D01*
X114011039Y-69614402D01*
X114008348Y-69644716D01*
X114006643Y-69686320D01*
X114005693Y-69742308D01*
X114005267Y-69815772D01*
X114005132Y-69909804D01*
X114004937Y-70220354D01*
X113904378Y-70220354D01*
X113803820Y-70220354D01*
X113803888Y-69921635D01*
X113803908Y-69898550D01*
X113804663Y-69783497D01*
X113806879Y-69688816D01*
X113811064Y-69611734D01*
X113817723Y-69549477D01*
X113827364Y-69499272D01*
X113840493Y-69458346D01*
X113857618Y-69423923D01*
X113879245Y-69393232D01*
X113905882Y-69363499D01*
X113925624Y-69344326D01*
X113975348Y-69308032D01*
X114030979Y-69286676D01*
X114100771Y-69276578D01*
X114170799Y-69276759D01*
X114243785Y-69292605D01*
X114306614Y-69326499D01*
X114310524Y-69329350D01*
X114337813Y-69348655D01*
X114356894Y-69361224D01*
X114358458Y-69361653D01*
X114362469Y-69356156D01*
X114365633Y-69338998D01*
X114368034Y-69308180D01*
X114369756Y-69261701D01*
X114370882Y-69197563D01*
X114371496Y-69113765D01*
X114371682Y-69008309D01*
X114371682Y-68646661D01*
X114309572Y-68687654D01*
X114280304Y-68705150D01*
X114201533Y-68736177D01*
X114122194Y-68746711D01*
X114045559Y-68737832D01*
X113974902Y-68710623D01*
X113913494Y-68666163D01*
X113864610Y-68605532D01*
X113831520Y-68529811D01*
X113822895Y-68485243D01*
X113816697Y-68422831D01*
X113812976Y-68348631D01*
X113811731Y-68268530D01*
X113811734Y-68268328D01*
X114010853Y-68268328D01*
X114011664Y-68332638D01*
X114015743Y-68399078D01*
X114024228Y-68448530D01*
X114038189Y-68484707D01*
X114058693Y-68511318D01*
X114086810Y-68532075D01*
X114093190Y-68535372D01*
X114132689Y-68546486D01*
X114182602Y-68551376D01*
X114232666Y-68549571D01*
X114272618Y-68540601D01*
X114275797Y-68539239D01*
X114312158Y-68510254D01*
X114340243Y-68461358D01*
X114359360Y-68394887D01*
X114368817Y-68313179D01*
X114367924Y-68218569D01*
X114364608Y-68179573D01*
X114350795Y-68104560D01*
X114327263Y-68049342D01*
X114292599Y-68012117D01*
X114245389Y-67991084D01*
X114184220Y-67984441D01*
X114172380Y-67984641D01*
X114110710Y-67995002D01*
X114064580Y-68021949D01*
X114031747Y-68066690D01*
X114024458Y-68084083D01*
X114017780Y-68111029D01*
X114013609Y-68147606D01*
X114011461Y-68198483D01*
X114010853Y-68268328D01*
X113811734Y-68268328D01*
X113812963Y-68188415D01*
X113816672Y-68114171D01*
X113822858Y-68051685D01*
X113831520Y-68006844D01*
X113835789Y-67993429D01*
X113871820Y-67921959D01*
X113924717Y-67861845D01*
X113989826Y-67818620D01*
X114058820Y-67796966D01*
X114136422Y-67791632D01*
X114214400Y-67802440D01*
X114286111Y-67828452D01*
X114344916Y-67868732D01*
X114371682Y-67893878D01*
X114371682Y-67844493D01*
X114371682Y-67795109D01*
X114466325Y-67795109D01*
X114560969Y-67795109D01*
X114560969Y-68313179D01*
X114560969Y-69007732D01*
G37*
G36*
X112336396Y-69277180D02*
G01*
X112412348Y-69299784D01*
X112478898Y-69341806D01*
X112526130Y-69382235D01*
X112526130Y-69333991D01*
X112526130Y-69285747D01*
X112620773Y-69285747D01*
X112715417Y-69285747D01*
X112715417Y-69753051D01*
X112715417Y-70220354D01*
X112620773Y-70220354D01*
X112526130Y-70220354D01*
X112526130Y-69915269D01*
X112526119Y-69874082D01*
X112525930Y-69789706D01*
X112525318Y-69724507D01*
X112524046Y-69675309D01*
X112521878Y-69638940D01*
X112518577Y-69612226D01*
X112513907Y-69591993D01*
X112507631Y-69575066D01*
X112499511Y-69558273D01*
X112472786Y-69519876D01*
X112426035Y-69483657D01*
X112370970Y-69464942D01*
X112312988Y-69465333D01*
X112257486Y-69486432D01*
X112219537Y-69509571D01*
X112153970Y-69430578D01*
X112141691Y-69415612D01*
X112114433Y-69380950D01*
X112095497Y-69354752D01*
X112088403Y-69341783D01*
X112094500Y-69334722D01*
X112117049Y-69320199D01*
X112150513Y-69303065D01*
X112175934Y-69292545D01*
X112255953Y-69274574D01*
X112336396Y-69277180D01*
G37*
G36*
X110564990Y-69288153D02*
G01*
X110637714Y-69291663D01*
X110733599Y-69587424D01*
X110757277Y-69660281D01*
X110781705Y-69735052D01*
X110803176Y-69800357D01*
X110820611Y-69852933D01*
X110832934Y-69889517D01*
X110839068Y-69906847D01*
X110839386Y-69907549D01*
X110844573Y-69907240D01*
X110853037Y-69890917D01*
X110865245Y-69857187D01*
X110881661Y-69804654D01*
X110902752Y-69731924D01*
X110928984Y-69637601D01*
X110947319Y-69570685D01*
X110968134Y-69494552D01*
X110986415Y-69427508D01*
X111001228Y-69372983D01*
X111011639Y-69334410D01*
X111016715Y-69315221D01*
X111020758Y-69302419D01*
X111028854Y-69293054D01*
X111045470Y-69288074D01*
X111075651Y-69286099D01*
X111124446Y-69285747D01*
X111142787Y-69285862D01*
X111184713Y-69287117D01*
X111213856Y-69289463D01*
X111224779Y-69292533D01*
X111224702Y-69292948D01*
X111220275Y-69307978D01*
X111209709Y-69342201D01*
X111193932Y-69392697D01*
X111173867Y-69456551D01*
X111150441Y-69530844D01*
X111124579Y-69612659D01*
X111097207Y-69699079D01*
X111069251Y-69787185D01*
X111041635Y-69874061D01*
X111015287Y-69956788D01*
X110991131Y-70032450D01*
X110970092Y-70098128D01*
X110953098Y-70150905D01*
X110941073Y-70187864D01*
X110934942Y-70206088D01*
X110934648Y-70206799D01*
X110922355Y-70214891D01*
X110893069Y-70218460D01*
X110843601Y-70217918D01*
X110757843Y-70214439D01*
X110663479Y-69898817D01*
X110660042Y-69887342D01*
X110635518Y-69806558D01*
X110613029Y-69734338D01*
X110593498Y-69673509D01*
X110577849Y-69626901D01*
X110567005Y-69597342D01*
X110561891Y-69587661D01*
X110561661Y-69587897D01*
X110555935Y-69602095D01*
X110544606Y-69635765D01*
X110528601Y-69685961D01*
X110508845Y-69749736D01*
X110486263Y-69824145D01*
X110461783Y-69906240D01*
X110368899Y-70220354D01*
X110282721Y-70220354D01*
X110196543Y-70220354D01*
X110125670Y-69998533D01*
X110112011Y-69955783D01*
X110082476Y-69863324D01*
X110052340Y-69768966D01*
X110022578Y-69675765D01*
X109994164Y-69586774D01*
X109968075Y-69505048D01*
X109945286Y-69433642D01*
X109926771Y-69375611D01*
X109913506Y-69334009D01*
X109906465Y-69311892D01*
X109905970Y-69310327D01*
X109903110Y-69297943D01*
X109906965Y-69290599D01*
X109921769Y-69287238D01*
X109951754Y-69286801D01*
X110001154Y-69288231D01*
X110104436Y-69291663D01*
X110188624Y-69601419D01*
X110189451Y-69604460D01*
X110211812Y-69686093D01*
X110232361Y-69759967D01*
X110250231Y-69823063D01*
X110264560Y-69872362D01*
X110274482Y-69904846D01*
X110279134Y-69917497D01*
X110279611Y-69917387D01*
X110286029Y-69904086D01*
X110298452Y-69871548D01*
X110315914Y-69822532D01*
X110337448Y-69759800D01*
X110362085Y-69686112D01*
X110388861Y-69604231D01*
X110492266Y-69284644D01*
X110564990Y-69288153D01*
G37*
G36*
X108534566Y-69276159D02*
G01*
X108615490Y-69297674D01*
X108689466Y-69339953D01*
X108728552Y-69369765D01*
X108728552Y-69327756D01*
X108728552Y-69285747D01*
X108823195Y-69285747D01*
X108917839Y-69285747D01*
X108917839Y-69753051D01*
X108917839Y-70220354D01*
X108823195Y-70220354D01*
X108728552Y-70220354D01*
X108728533Y-69909804D01*
X108728472Y-69847706D01*
X108728054Y-69765028D01*
X108727086Y-69701147D01*
X108725394Y-69653062D01*
X108722799Y-69617775D01*
X108719125Y-69592283D01*
X108714194Y-69573588D01*
X108707830Y-69558689D01*
X108689081Y-69529485D01*
X108644166Y-69489749D01*
X108589302Y-69467912D01*
X108529649Y-69465589D01*
X108470366Y-69484394D01*
X108424044Y-69508539D01*
X108355737Y-69425509D01*
X108354262Y-69423714D01*
X108322150Y-69383207D01*
X108304284Y-69356500D01*
X108298820Y-69340231D01*
X108303916Y-69331041D01*
X108369945Y-69295840D01*
X108451212Y-69275513D01*
X108534566Y-69276159D01*
G37*
G36*
X115491776Y-68372427D02*
G01*
X115479504Y-68458560D01*
X115457607Y-68529633D01*
X115424932Y-68589378D01*
X115380328Y-68641528D01*
X115353354Y-68665558D01*
X115275272Y-68714627D01*
X115188925Y-68741978D01*
X115113032Y-68748913D01*
X115020910Y-68739059D01*
X114935911Y-68709931D01*
X114861225Y-68663142D01*
X114800042Y-68600302D01*
X114755552Y-68523024D01*
X114749328Y-68505598D01*
X114736533Y-68447352D01*
X114728300Y-68374621D01*
X114726892Y-68343586D01*
X114916921Y-68343586D01*
X114918499Y-68381584D01*
X114922741Y-68409484D01*
X114930289Y-68432723D01*
X114941786Y-68456740D01*
X114971997Y-68499903D01*
X115010342Y-68530680D01*
X115045456Y-68544270D01*
X115104626Y-68552436D01*
X115163310Y-68546134D01*
X115212213Y-68525600D01*
X115236108Y-68508014D01*
X115263317Y-68480365D01*
X115281821Y-68447030D01*
X115293146Y-68403551D01*
X115298821Y-68345469D01*
X115300373Y-68268328D01*
X115299712Y-68214253D01*
X115295563Y-68150390D01*
X115286266Y-68102597D01*
X115270293Y-68066416D01*
X115246118Y-68037388D01*
X115212213Y-68011056D01*
X115181203Y-67995772D01*
X115124616Y-67984650D01*
X115064568Y-67988135D01*
X115010342Y-68006438D01*
X114987752Y-68020020D01*
X114960512Y-68044312D01*
X114941411Y-68076087D01*
X114928968Y-68119364D01*
X114921700Y-68178161D01*
X114918125Y-68256497D01*
X114917365Y-68290054D01*
X114916921Y-68343586D01*
X114726892Y-68343586D01*
X114724628Y-68293691D01*
X114725517Y-68210843D01*
X114730967Y-68132361D01*
X114740979Y-68064530D01*
X114755552Y-68013632D01*
X114761621Y-68000603D01*
X114784362Y-67961142D01*
X114810994Y-67923243D01*
X114831405Y-67899810D01*
X114898239Y-67845637D01*
X114975707Y-67809048D01*
X115059769Y-67790234D01*
X115146382Y-67789385D01*
X115231505Y-67806688D01*
X115311097Y-67842334D01*
X115381116Y-67896513D01*
X115384671Y-67900086D01*
X115427875Y-67952388D01*
X115459339Y-68011369D01*
X115480290Y-68081024D01*
X115491959Y-68165345D01*
X115495575Y-68268328D01*
X115491776Y-68372427D01*
G37*
G36*
X113680400Y-68197303D02*
G01*
X113683742Y-68297363D01*
X113673639Y-68395944D01*
X113650066Y-68488566D01*
X113612997Y-68570748D01*
X113562408Y-68638011D01*
X113543981Y-68655884D01*
X113500729Y-68689529D01*
X113451326Y-68714531D01*
X113387031Y-68735763D01*
X113383535Y-68736723D01*
X113299764Y-68748909D01*
X113210813Y-68744023D01*
X113123203Y-68723563D01*
X113043455Y-68689025D01*
X112978089Y-68641906D01*
X112926598Y-68593256D01*
X112995259Y-68537622D01*
X113010391Y-68525437D01*
X113040691Y-68502491D01*
X113060207Y-68491986D01*
X113074174Y-68491780D01*
X113087829Y-68499728D01*
X113093746Y-68504018D01*
X113164755Y-68542312D01*
X113240134Y-68561607D01*
X113314842Y-68561210D01*
X113383840Y-68540427D01*
X113384572Y-68540071D01*
X113432979Y-68503634D01*
X113468400Y-68450097D01*
X113488033Y-68383675D01*
X113494740Y-68339311D01*
X113199722Y-68339311D01*
X112904705Y-68339311D01*
X112904705Y-68258670D01*
X112904705Y-68257928D01*
X112911306Y-68151884D01*
X113105822Y-68151884D01*
X113105822Y-68185515D01*
X113300729Y-68185515D01*
X113495636Y-68185515D01*
X113488694Y-68147066D01*
X113475655Y-68098960D01*
X113444962Y-68040742D01*
X113402792Y-67999341D01*
X113372378Y-67984342D01*
X113315363Y-67972888D01*
X113254968Y-67976204D01*
X113200576Y-67994516D01*
X113172116Y-68016247D01*
X113139052Y-68057845D01*
X113115071Y-68106184D01*
X113105822Y-68151884D01*
X112911306Y-68151884D01*
X112911335Y-68151412D01*
X112930480Y-68057585D01*
X112961289Y-67980625D01*
X112968216Y-67968435D01*
X113021432Y-67900254D01*
X113088165Y-67847831D01*
X113164591Y-67811714D01*
X113246885Y-67792452D01*
X113331223Y-67790595D01*
X113413780Y-67806691D01*
X113490732Y-67841288D01*
X113558253Y-67894938D01*
X113589952Y-67933054D01*
X113633480Y-68010669D01*
X113663638Y-68100245D01*
X113678364Y-68185515D01*
X113680400Y-68197303D01*
G37*
G36*
X111134425Y-67789194D02*
G01*
X111185556Y-67799218D01*
X111272141Y-67829380D01*
X111339506Y-67873237D01*
X111387587Y-67930725D01*
X111416319Y-68001778D01*
X111425637Y-68086328D01*
X111425015Y-68100575D01*
X111417260Y-68149029D01*
X111403537Y-68191430D01*
X111394606Y-68209215D01*
X111360756Y-68256441D01*
X111315308Y-68292925D01*
X111255380Y-68320103D01*
X111178089Y-68339408D01*
X111080553Y-68352278D01*
X111050101Y-68355338D01*
X110984532Y-68364539D01*
X110938278Y-68376491D01*
X110908192Y-68392655D01*
X110891130Y-68414488D01*
X110883944Y-68443450D01*
X110884039Y-68470253D01*
X110899967Y-68511316D01*
X110936420Y-68540638D01*
X110993408Y-68558228D01*
X111070940Y-68564089D01*
X111155282Y-68557066D01*
X111230142Y-68533782D01*
X111301891Y-68491682D01*
X111354191Y-68454123D01*
X111419620Y-68510021D01*
X111423340Y-68513215D01*
X111454571Y-68541426D01*
X111476667Y-68563835D01*
X111485049Y-68575840D01*
X111483600Y-68581973D01*
X111466141Y-68603152D01*
X111432451Y-68628826D01*
X111387014Y-68656593D01*
X111334312Y-68684052D01*
X111278830Y-68708802D01*
X111225051Y-68728443D01*
X111177457Y-68740572D01*
X111154552Y-68744118D01*
X111059117Y-68748787D01*
X110967303Y-68738018D01*
X110882792Y-68713172D01*
X110809265Y-68675610D01*
X110750404Y-68626693D01*
X110709891Y-68567780D01*
X110705638Y-68557503D01*
X110694266Y-68508424D01*
X110689995Y-68449800D01*
X110693104Y-68391971D01*
X110703873Y-68345278D01*
X110720835Y-68308080D01*
X110752711Y-68262561D01*
X110795060Y-68228081D01*
X110851095Y-68202874D01*
X110924027Y-68185176D01*
X111017070Y-68173220D01*
X111035307Y-68171463D01*
X111108785Y-68162379D01*
X111162217Y-68151335D01*
X111198581Y-68137257D01*
X111220857Y-68119069D01*
X111232024Y-68095699D01*
X111234311Y-68061566D01*
X111219477Y-68025632D01*
X111187979Y-67998205D01*
X111143107Y-67980066D01*
X111088147Y-67971993D01*
X111026389Y-67974767D01*
X110961122Y-67989165D01*
X110895635Y-68015969D01*
X110823522Y-68053161D01*
X110769796Y-67990273D01*
X110768594Y-67988865D01*
X110742099Y-67956407D01*
X110723283Y-67930787D01*
X110716150Y-67917442D01*
X110717089Y-67914168D01*
X110732495Y-67897968D01*
X110762840Y-67876499D01*
X110802969Y-67853139D01*
X110847729Y-67831261D01*
X110890868Y-67816228D01*
X110953377Y-67801689D01*
X111020830Y-67791454D01*
X111084192Y-67786846D01*
X111134425Y-67789194D01*
G37*
G36*
X110576005Y-68323642D02*
G01*
X110569341Y-68406230D01*
X110557287Y-68478610D01*
X110539902Y-68534352D01*
X110499624Y-68602177D01*
X110438032Y-68665084D01*
X110362225Y-68712412D01*
X110276033Y-68741160D01*
X110238707Y-68746144D01*
X110166361Y-68745794D01*
X110092830Y-68735400D01*
X110029902Y-68716159D01*
X109987135Y-68692194D01*
X109933739Y-68650159D01*
X109886281Y-68600993D01*
X109852927Y-68552259D01*
X109846855Y-68539641D01*
X109823486Y-68468343D01*
X109809668Y-68378454D01*
X109805124Y-68268328D01*
X110000326Y-68268328D01*
X110000987Y-68322403D01*
X110005137Y-68386265D01*
X110014434Y-68434058D01*
X110030406Y-68470240D01*
X110054581Y-68499268D01*
X110088486Y-68525600D01*
X110119175Y-68540651D01*
X110175326Y-68551726D01*
X110235414Y-68548779D01*
X110290173Y-68531537D01*
X110291942Y-68530642D01*
X110328429Y-68505094D01*
X110354816Y-68469272D01*
X110372246Y-68419992D01*
X110381864Y-68354072D01*
X110384816Y-68268328D01*
X110384382Y-68212765D01*
X110382335Y-68166399D01*
X110377842Y-68132647D01*
X110370072Y-68105630D01*
X110358198Y-68079465D01*
X110350510Y-68065704D01*
X110310513Y-68020063D01*
X110256960Y-67993196D01*
X110188590Y-67984397D01*
X110187236Y-67984401D01*
X110121601Y-67995270D01*
X110067255Y-68026912D01*
X110024627Y-68079081D01*
X110023489Y-68081038D01*
X110013403Y-68101823D01*
X110006699Y-68125841D01*
X110002722Y-68158194D01*
X110000816Y-68203989D01*
X110000326Y-68268328D01*
X109805124Y-68268328D01*
X109805563Y-68228262D01*
X109811516Y-68134762D01*
X109825498Y-68058431D01*
X109848871Y-67995137D01*
X109882993Y-67940746D01*
X109929226Y-67891125D01*
X109936660Y-67884416D01*
X110015722Y-67828941D01*
X110101210Y-67796103D01*
X110192105Y-67786163D01*
X110287388Y-67799382D01*
X110357661Y-67823666D01*
X110436803Y-67870845D01*
X110499658Y-67934269D01*
X110544771Y-68012732D01*
X110547556Y-68019796D01*
X110563054Y-68078923D01*
X110572922Y-68153559D01*
X110577219Y-68237275D01*
X110576783Y-68268328D01*
X110576005Y-68323642D01*
G37*
G36*
X109547811Y-67797589D02*
G01*
X109645412Y-67801025D01*
X109645351Y-68150023D01*
X109645349Y-68162186D01*
X109645252Y-68260052D01*
X109644884Y-68337545D01*
X109644047Y-68397623D01*
X109642543Y-68443248D01*
X109640174Y-68477379D01*
X109636743Y-68502977D01*
X109632051Y-68523002D01*
X109625903Y-68540414D01*
X109618099Y-68558174D01*
X109601975Y-68589357D01*
X109548897Y-68658516D01*
X109480324Y-68709876D01*
X109396973Y-68742838D01*
X109355659Y-68748397D01*
X109290174Y-68743895D01*
X109221774Y-68727501D01*
X109158959Y-68701437D01*
X109110231Y-68667923D01*
X109083466Y-68642778D01*
X109083466Y-68692162D01*
X109083466Y-68741546D01*
X108988822Y-68741546D01*
X108894178Y-68741546D01*
X108894178Y-68268328D01*
X108894178Y-67795109D01*
X108988116Y-67795109D01*
X109082054Y-67795109D01*
X109085718Y-68111574D01*
X109085952Y-68131412D01*
X109087423Y-68230997D01*
X109089541Y-68310214D01*
X109092870Y-68371866D01*
X109097973Y-68418754D01*
X109105413Y-68453678D01*
X109115754Y-68479440D01*
X109129558Y-68498840D01*
X109147389Y-68514681D01*
X109169811Y-68529763D01*
X109190851Y-68539957D01*
X109241097Y-68550713D01*
X109296302Y-68549976D01*
X109347640Y-68538299D01*
X109386285Y-68516231D01*
X109401948Y-68500951D01*
X109416970Y-68482516D01*
X109428515Y-68461001D01*
X109437037Y-68433466D01*
X109442991Y-68396972D01*
X109446831Y-68348579D01*
X109449011Y-68285346D01*
X109449986Y-68204334D01*
X109450210Y-68102603D01*
X109450210Y-67794152D01*
X109547811Y-67797589D01*
G37*
G36*
X107742432Y-67797788D02*
G01*
X107828007Y-67826057D01*
X107905802Y-67870248D01*
X107971299Y-67928465D01*
X108019981Y-67998812D01*
X108043456Y-68055022D01*
X108066387Y-68149425D01*
X108075477Y-68251703D01*
X108070729Y-68355124D01*
X108052147Y-68452951D01*
X108019733Y-68538450D01*
X107972261Y-68607651D01*
X107906363Y-68667517D01*
X107827556Y-68713227D01*
X107740708Y-68741244D01*
X107676828Y-68750391D01*
X107608523Y-68748277D01*
X107536513Y-68731512D01*
X107514160Y-68723790D01*
X107447776Y-68693009D01*
X107386533Y-68654166D01*
X107339597Y-68612788D01*
X107325543Y-68595617D01*
X107324506Y-68581811D01*
X107339597Y-68562786D01*
X107346129Y-68555936D01*
X107373680Y-68530213D01*
X107405671Y-68503295D01*
X107449208Y-68468767D01*
X107503725Y-68507194D01*
X107518650Y-68517345D01*
X107552558Y-68535582D01*
X107588655Y-68545280D01*
X107637644Y-68549850D01*
X107703218Y-68547823D01*
X107765569Y-68529895D01*
X107814442Y-68494072D01*
X107852105Y-68439185D01*
X107857223Y-68428813D01*
X107869865Y-68397934D01*
X107877258Y-68365882D01*
X107880689Y-68325174D01*
X107881441Y-68268328D01*
X107880392Y-68213780D01*
X107876441Y-68169368D01*
X107868450Y-68134757D01*
X107855275Y-68102701D01*
X107845832Y-68085047D01*
X107803444Y-68033760D01*
X107747126Y-68001211D01*
X107675789Y-67986698D01*
X107602670Y-67988417D01*
X107539141Y-68007145D01*
X107487731Y-68043992D01*
X107453639Y-68078083D01*
X107384225Y-68014746D01*
X107314812Y-67951409D01*
X107343705Y-67920354D01*
X107352544Y-67911338D01*
X107408462Y-67867144D01*
X107476936Y-67828596D01*
X107548720Y-67801072D01*
X107566007Y-67796597D01*
X107653593Y-67787336D01*
X107742432Y-67797788D01*
G37*
G36*
X107260978Y-68208867D02*
G01*
X107263404Y-68293177D01*
X107259435Y-68373318D01*
X107248816Y-68440202D01*
X107224528Y-68515150D01*
X107178569Y-68598331D01*
X107116943Y-68663953D01*
X107039993Y-68711673D01*
X106948067Y-68741143D01*
X106942431Y-68742254D01*
X106840288Y-68750070D01*
X106739334Y-68735615D01*
X106643832Y-68699951D01*
X106558046Y-68644136D01*
X106545781Y-68633604D01*
X106524625Y-68612761D01*
X106516256Y-68600157D01*
X106516314Y-68599701D01*
X106525948Y-68586856D01*
X106548881Y-68563994D01*
X106580494Y-68535744D01*
X106644732Y-68480864D01*
X106687550Y-68509921D01*
X106694270Y-68514323D01*
X106734317Y-68536604D01*
X106772446Y-68552865D01*
X106791105Y-68557726D01*
X106842983Y-68562888D01*
X106898870Y-68559942D01*
X106949766Y-68549720D01*
X106986675Y-68533054D01*
X107016134Y-68502854D01*
X107043941Y-68459392D01*
X107064353Y-68412690D01*
X107072287Y-68372295D01*
X107072287Y-68339311D01*
X106781164Y-68339311D01*
X106490041Y-68339311D01*
X106494770Y-68206218D01*
X106495054Y-68198485D01*
X106495769Y-68185515D01*
X106680810Y-68185515D01*
X106876549Y-68185515D01*
X107072287Y-68185515D01*
X107072287Y-68153758D01*
X107068099Y-68125256D01*
X107050261Y-68078764D01*
X107023293Y-68034474D01*
X106992546Y-68002533D01*
X106992153Y-68002250D01*
X106950141Y-67983997D01*
X106889202Y-67974878D01*
X106875291Y-67974131D01*
X106835092Y-67974673D01*
X106805670Y-67982009D01*
X106777165Y-67998189D01*
X106752298Y-68018016D01*
X106711271Y-68072316D01*
X106688595Y-68141150D01*
X106680810Y-68185515D01*
X106495769Y-68185515D01*
X106498615Y-68133919D01*
X106504294Y-68085924D01*
X106513141Y-68048082D01*
X106526206Y-68013973D01*
X106556647Y-67959119D01*
X106615788Y-67890281D01*
X106688645Y-67837865D01*
X106771822Y-67803593D01*
X106861923Y-67789184D01*
X106955552Y-67796362D01*
X106995232Y-67806460D01*
X107076394Y-67843899D01*
X107145030Y-67900461D01*
X107199504Y-67974596D01*
X107238183Y-68064751D01*
X107252416Y-68129473D01*
X107255035Y-68153758D01*
X107260978Y-68208867D01*
G37*
G36*
X112341503Y-67792071D02*
G01*
X112409630Y-67804454D01*
X112469645Y-67827620D01*
X112514579Y-67860475D01*
X112532190Y-67877810D01*
X112550165Y-67887643D01*
X112559163Y-67876162D01*
X112561621Y-67842431D01*
X112561621Y-67795109D01*
X112656265Y-67795109D01*
X112750909Y-67795109D01*
X112750909Y-68268328D01*
X112750909Y-68741546D01*
X112657123Y-68741546D01*
X112563338Y-68741546D01*
X112559522Y-68425081D01*
X112558662Y-68356009D01*
X112557454Y-68275947D01*
X112556023Y-68214385D01*
X112554106Y-68168296D01*
X112551436Y-68134653D01*
X112547750Y-68110426D01*
X112542783Y-68092587D01*
X112536270Y-68078110D01*
X112527945Y-68063966D01*
X112518642Y-68050070D01*
X112480644Y-68011988D01*
X112432007Y-67990895D01*
X112367914Y-67984397D01*
X112326569Y-67986588D01*
X112294994Y-67995806D01*
X112266501Y-68015249D01*
X112261199Y-68019726D01*
X112243518Y-68035621D01*
X112229637Y-68051713D01*
X112219032Y-68070935D01*
X112211180Y-68096219D01*
X112205558Y-68130497D01*
X112201640Y-68176702D01*
X112198903Y-68237768D01*
X112196823Y-68316626D01*
X112194877Y-68416209D01*
X112188962Y-68735631D01*
X112090566Y-68739080D01*
X111992170Y-68742529D01*
X111995922Y-68390081D01*
X111996070Y-68376297D01*
X111997200Y-68278138D01*
X111998396Y-68200305D01*
X111999885Y-68139835D01*
X112001894Y-68093763D01*
X112004652Y-68059125D01*
X112008384Y-68032956D01*
X112013320Y-68012292D01*
X112019685Y-67994169D01*
X112027707Y-67975623D01*
X112034596Y-67961532D01*
X112077065Y-67899597D01*
X112132379Y-67846617D01*
X112193226Y-67809912D01*
X112208771Y-67804043D01*
X112272227Y-67791569D01*
X112341503Y-67792071D01*
G37*
G36*
X108369452Y-67810288D02*
G01*
X108438291Y-67848644D01*
X108490585Y-67888561D01*
X108494222Y-67844793D01*
X108497858Y-67801025D01*
X108595459Y-67797589D01*
X108693060Y-67794152D01*
X108693060Y-68268328D01*
X108693060Y-68742503D01*
X108595459Y-68739067D01*
X108497858Y-68735631D01*
X108491943Y-68410293D01*
X108491022Y-68360231D01*
X108489097Y-68269282D01*
X108486772Y-68197840D01*
X108483493Y-68143077D01*
X108478706Y-68102166D01*
X108471857Y-68072280D01*
X108462389Y-68050591D01*
X108449750Y-68034271D01*
X108433385Y-68020495D01*
X108412738Y-68006433D01*
X108381333Y-67992741D01*
X108330029Y-67985074D01*
X108275737Y-67988698D01*
X108228547Y-68003759D01*
X108191105Y-68023121D01*
X108145664Y-67971225D01*
X108127168Y-67949732D01*
X108098232Y-67914817D01*
X108077138Y-67887811D01*
X108054051Y-67856293D01*
X108093458Y-67831938D01*
X108135050Y-67810930D01*
X108212012Y-67791149D01*
X108292086Y-67791028D01*
X108369452Y-67810288D01*
G37*
G36*
X111062454Y-60767824D02*
G01*
X111167516Y-60767928D01*
X111252400Y-60768239D01*
X111319339Y-60768866D01*
X111370569Y-60769918D01*
X111408322Y-60771506D01*
X111434833Y-60773739D01*
X111452335Y-60776726D01*
X111463062Y-60780577D01*
X111469249Y-60785401D01*
X111473129Y-60791309D01*
X111473634Y-60792439D01*
X111479173Y-60812442D01*
X111488315Y-60852608D01*
X111500512Y-60910243D01*
X111515215Y-60982650D01*
X111531875Y-61067137D01*
X111549943Y-61161008D01*
X111568872Y-61261570D01*
X111572111Y-61278922D01*
X111590991Y-61378099D01*
X111609045Y-61469795D01*
X111625714Y-61551377D01*
X111640436Y-61620210D01*
X111652651Y-61673659D01*
X111661797Y-61709091D01*
X111667314Y-61723870D01*
X111670963Y-61726627D01*
X111694563Y-61739226D01*
X111735444Y-61758235D01*
X111790069Y-61782222D01*
X111854901Y-61809757D01*
X111926401Y-61839412D01*
X112001032Y-61869757D01*
X112075256Y-61899361D01*
X112145536Y-61926794D01*
X112208334Y-61950628D01*
X112260112Y-61969432D01*
X112297332Y-61981776D01*
X112316457Y-61986230D01*
X112328005Y-61983470D01*
X112353970Y-61971225D01*
X112393394Y-61948540D01*
X112447402Y-61914704D01*
X112517120Y-61869010D01*
X112603672Y-61810747D01*
X112708183Y-61739206D01*
X112722036Y-61729666D01*
X112818693Y-61663131D01*
X112897979Y-61608698D01*
X112961768Y-61565203D01*
X113011933Y-61531479D01*
X113050349Y-61506358D01*
X113078888Y-61488675D01*
X113099425Y-61477263D01*
X113113834Y-61470957D01*
X113123987Y-61468588D01*
X113131759Y-61468992D01*
X113139024Y-61471001D01*
X113149393Y-61477691D01*
X113175276Y-61499653D01*
X113213134Y-61534526D01*
X113260742Y-61580044D01*
X113315878Y-61633943D01*
X113376317Y-61693959D01*
X113439836Y-61757828D01*
X113504211Y-61823286D01*
X113567217Y-61888068D01*
X113626631Y-61949912D01*
X113680230Y-62006552D01*
X113725789Y-62055724D01*
X113761084Y-62095164D01*
X113783892Y-62122609D01*
X113791989Y-62135794D01*
X113791876Y-62136684D01*
X113783721Y-62153971D01*
X113763722Y-62188095D01*
X113733351Y-62236765D01*
X113694084Y-62297692D01*
X113647392Y-62368584D01*
X113594751Y-62447151D01*
X113537634Y-62531103D01*
X113489888Y-62601156D01*
X113431361Y-62688269D01*
X113380998Y-62764737D01*
X113339904Y-62828828D01*
X113309182Y-62878812D01*
X113289939Y-62912958D01*
X113283279Y-62929536D01*
X113285732Y-62942365D01*
X113296506Y-62975830D01*
X113314525Y-63024464D01*
X113338337Y-63084891D01*
X113366484Y-63153734D01*
X113397512Y-63227616D01*
X113429965Y-63303159D01*
X113462388Y-63376986D01*
X113493327Y-63445719D01*
X113521325Y-63505983D01*
X113544928Y-63554399D01*
X113562680Y-63587590D01*
X113573126Y-63602180D01*
X113588158Y-63607388D01*
X113624194Y-63616454D01*
X113678115Y-63628552D01*
X113747128Y-63643095D01*
X113828437Y-63659495D01*
X113919249Y-63677164D01*
X114016768Y-63695514D01*
X114107752Y-63712501D01*
X114199389Y-63729931D01*
X114281836Y-63745942D01*
X114352275Y-63759974D01*
X114407889Y-63771464D01*
X114445860Y-63779849D01*
X114463368Y-63784569D01*
X114489986Y-63795906D01*
X114489986Y-64268113D01*
X114489986Y-64283856D01*
X114489910Y-64399585D01*
X114489641Y-64494108D01*
X114489086Y-64569611D01*
X114488151Y-64628279D01*
X114486742Y-64672299D01*
X114484763Y-64703856D01*
X114482123Y-64725138D01*
X114478725Y-64738330D01*
X114474476Y-64745619D01*
X114469283Y-64749190D01*
X114453552Y-64753276D01*
X114417210Y-64761167D01*
X114363061Y-64772288D01*
X114293849Y-64786092D01*
X114212321Y-64802033D01*
X114121221Y-64819562D01*
X114023294Y-64838131D01*
X113973124Y-64847615D01*
X113863248Y-64868751D01*
X113774301Y-64886506D01*
X113704562Y-64901273D01*
X113652314Y-64913442D01*
X113615839Y-64923404D01*
X113593418Y-64931550D01*
X113583333Y-64938272D01*
X113574665Y-64954411D01*
X113558659Y-64989705D01*
X113537083Y-65040217D01*
X113511263Y-65102572D01*
X113482527Y-65173402D01*
X113452202Y-65249332D01*
X113421616Y-65326993D01*
X113392094Y-65403013D01*
X113364965Y-65474019D01*
X113341556Y-65536641D01*
X113323194Y-65587507D01*
X113311205Y-65623245D01*
X113306918Y-65640484D01*
X113308123Y-65645517D01*
X113320371Y-65670512D01*
X113345068Y-65712625D01*
X113381269Y-65770371D01*
X113428031Y-65842262D01*
X113484411Y-65926813D01*
X113549465Y-66022537D01*
X113603391Y-66101745D01*
X113654744Y-66178195D01*
X113700136Y-66246818D01*
X113738063Y-66305293D01*
X113767018Y-66351297D01*
X113785495Y-66382507D01*
X113791989Y-66396601D01*
X113791451Y-66398293D01*
X113779341Y-66414772D01*
X113752655Y-66445468D01*
X113713198Y-66488461D01*
X113662775Y-66541836D01*
X113603193Y-66603676D01*
X113536257Y-66672062D01*
X113463773Y-66745078D01*
X113444263Y-66764575D01*
X113372678Y-66835723D01*
X113306538Y-66900864D01*
X113247712Y-66958196D01*
X113198068Y-67005920D01*
X113159474Y-67042238D01*
X113133798Y-67065348D01*
X113122908Y-67073451D01*
X113111073Y-67067276D01*
X113081919Y-67049113D01*
X113037780Y-67020458D01*
X112980921Y-66982812D01*
X112913608Y-66937674D01*
X112838105Y-66886546D01*
X112756680Y-66830927D01*
X112677952Y-66777317D01*
X112601260Y-66725886D01*
X112532265Y-66680419D01*
X112473312Y-66642427D01*
X112426744Y-66613420D01*
X112394908Y-66594909D01*
X112380148Y-66588402D01*
X112374890Y-66589365D01*
X112349440Y-66598988D01*
X112309455Y-66617291D01*
X112259259Y-66642239D01*
X112203177Y-66671793D01*
X112179309Y-66684527D01*
X112125223Y-66711966D01*
X112078811Y-66733595D01*
X112044382Y-66747471D01*
X112026242Y-66751648D01*
X112025579Y-66751488D01*
X112019012Y-66745880D01*
X112009433Y-66731591D01*
X111996256Y-66707295D01*
X111978894Y-66671668D01*
X111956761Y-66623384D01*
X111929272Y-66561118D01*
X111895839Y-66483544D01*
X111855876Y-66389337D01*
X111808798Y-66277173D01*
X111754018Y-66145725D01*
X111690950Y-65993669D01*
X111657857Y-65913618D01*
X111607087Y-65790308D01*
X111559536Y-65674210D01*
X111515938Y-65567153D01*
X111477031Y-65470966D01*
X111443548Y-65387477D01*
X111416225Y-65318515D01*
X111395799Y-65265907D01*
X111383004Y-65231482D01*
X111378575Y-65217069D01*
X111382133Y-65207914D01*
X111404694Y-65183351D01*
X111448054Y-65147540D01*
X111512219Y-65100474D01*
X111532584Y-65085848D01*
X111655166Y-64985450D01*
X111756080Y-64878451D01*
X111836701Y-64762928D01*
X111898405Y-64636956D01*
X111942568Y-64498613D01*
X111953877Y-64435632D01*
X111961144Y-64356053D01*
X111963714Y-64269886D01*
X111961577Y-64184574D01*
X111954725Y-64107560D01*
X111943147Y-64046285D01*
X111943116Y-64046170D01*
X111901804Y-63919319D01*
X111850582Y-63808659D01*
X111785826Y-63707574D01*
X111703913Y-63609448D01*
X111684123Y-63588725D01*
X111573180Y-63491758D01*
X111452003Y-63414562D01*
X111322917Y-63357135D01*
X111188244Y-63319478D01*
X111050308Y-63301592D01*
X110911431Y-63303476D01*
X110773937Y-63325130D01*
X110640150Y-63366554D01*
X110512392Y-63427749D01*
X110392987Y-63508713D01*
X110284257Y-63609448D01*
X110284181Y-63609531D01*
X110202284Y-63707656D01*
X110137540Y-63808746D01*
X110086328Y-63919418D01*
X110045023Y-64046285D01*
X110033869Y-64104378D01*
X110026802Y-64180839D01*
X110024452Y-64265935D01*
X110026808Y-64352225D01*
X110033861Y-64432265D01*
X110045602Y-64498613D01*
X110051169Y-64520253D01*
X110097879Y-64656616D01*
X110162336Y-64780895D01*
X110245916Y-64895016D01*
X110349996Y-65000901D01*
X110475951Y-65100474D01*
X110516014Y-65129375D01*
X110568007Y-65169856D01*
X110599199Y-65199086D01*
X110609595Y-65217069D01*
X110607842Y-65223651D01*
X110598089Y-65250806D01*
X110580430Y-65296828D01*
X110555601Y-65359888D01*
X110524336Y-65438159D01*
X110487371Y-65529811D01*
X110445441Y-65633016D01*
X110399283Y-65745947D01*
X110349630Y-65866774D01*
X110297220Y-65993669D01*
X110288523Y-66014670D01*
X110226566Y-66163970D01*
X110172822Y-66292833D01*
X110126703Y-66402585D01*
X110087623Y-66494552D01*
X110054997Y-66570059D01*
X110028238Y-66630431D01*
X110006759Y-66676993D01*
X109989975Y-66711070D01*
X109977299Y-66733989D01*
X109968146Y-66747073D01*
X109961928Y-66751648D01*
X109956599Y-66751206D01*
X109931122Y-66742735D01*
X109891157Y-66725380D01*
X109841011Y-66701085D01*
X109784993Y-66671793D01*
X109761384Y-66659153D01*
X109707210Y-66631256D01*
X109660709Y-66608807D01*
X109626205Y-66593843D01*
X109608022Y-66588402D01*
X109594185Y-66594414D01*
X109562979Y-66612479D01*
X109516950Y-66641100D01*
X109458441Y-66678765D01*
X109389799Y-66723965D01*
X109313367Y-66775189D01*
X109231490Y-66830927D01*
X109151957Y-66885262D01*
X109076300Y-66936513D01*
X109008785Y-66981811D01*
X108951675Y-67019653D01*
X108907234Y-67048541D01*
X108877727Y-67066974D01*
X108865419Y-67073451D01*
X108864518Y-67073226D01*
X108850041Y-67062470D01*
X108821762Y-67037195D01*
X108781872Y-66999621D01*
X108732566Y-66951964D01*
X108676038Y-66896444D01*
X108614482Y-66835278D01*
X108550091Y-66770685D01*
X108485060Y-66704883D01*
X108421581Y-66640091D01*
X108361850Y-66578526D01*
X108308059Y-66522408D01*
X108262403Y-66473953D01*
X108227076Y-66435381D01*
X108204270Y-66408910D01*
X108196181Y-66396758D01*
X108202262Y-66383378D01*
X108220369Y-66352660D01*
X108249005Y-66307075D01*
X108286662Y-66248946D01*
X108331835Y-66180598D01*
X108383018Y-66104354D01*
X108438705Y-66022537D01*
X108467002Y-65981100D01*
X108528530Y-65889884D01*
X108580989Y-65810465D01*
X108623434Y-65744329D01*
X108654922Y-65692963D01*
X108674509Y-65657852D01*
X108681252Y-65640484D01*
X108677604Y-65625334D01*
X108666179Y-65590941D01*
X108648274Y-65541153D01*
X108625216Y-65479341D01*
X108598334Y-65408877D01*
X108568954Y-65333132D01*
X108538404Y-65255478D01*
X108508009Y-65179287D01*
X108479099Y-65107930D01*
X108452999Y-65044778D01*
X108431038Y-64993203D01*
X108414541Y-64956578D01*
X108404837Y-64938272D01*
X108402175Y-64935730D01*
X108387364Y-64928486D01*
X108359531Y-64919661D01*
X108316955Y-64908863D01*
X108257921Y-64895703D01*
X108180708Y-64879788D01*
X108083599Y-64860728D01*
X107964876Y-64838131D01*
X107868134Y-64819788D01*
X107776932Y-64802243D01*
X107695268Y-64786279D01*
X107625885Y-64772445D01*
X107571531Y-64761287D01*
X107534950Y-64753352D01*
X107518887Y-64749190D01*
X107518197Y-64748878D01*
X107513124Y-64744969D01*
X107508985Y-64737075D01*
X107505685Y-64723010D01*
X107503131Y-64700586D01*
X107501227Y-64667619D01*
X107499881Y-64621923D01*
X107498997Y-64561310D01*
X107498483Y-64483594D01*
X107498243Y-64386591D01*
X107498184Y-64268113D01*
X107498184Y-63795906D01*
X107524802Y-63784569D01*
X107540382Y-63780306D01*
X107577009Y-63772160D01*
X107631477Y-63760869D01*
X107700969Y-63746998D01*
X107782666Y-63731106D01*
X107873750Y-63713758D01*
X107971402Y-63695514D01*
X108062641Y-63678364D01*
X108153983Y-63660632D01*
X108236008Y-63644130D01*
X108305922Y-63629446D01*
X108360929Y-63617167D01*
X108398235Y-63607883D01*
X108415045Y-63602180D01*
X108421795Y-63593651D01*
X108437664Y-63565287D01*
X108459788Y-63520759D01*
X108486712Y-63463447D01*
X108516980Y-63396726D01*
X108549137Y-63323975D01*
X108581728Y-63248570D01*
X108613297Y-63173889D01*
X108642390Y-63103308D01*
X108667551Y-63040205D01*
X108687325Y-62987957D01*
X108700257Y-62949942D01*
X108704891Y-62929536D01*
X108701242Y-62919082D01*
X108685196Y-62889380D01*
X108657381Y-62843386D01*
X108618902Y-62782831D01*
X108570865Y-62709444D01*
X108514375Y-62624958D01*
X108450536Y-62531103D01*
X108442922Y-62519984D01*
X108386303Y-62436602D01*
X108334351Y-62358902D01*
X108288540Y-62289173D01*
X108250343Y-62229708D01*
X108221236Y-62182796D01*
X108202690Y-62150728D01*
X108196181Y-62135794D01*
X108201031Y-62126989D01*
X108220650Y-62102625D01*
X108253269Y-62065744D01*
X108296663Y-62018611D01*
X108348609Y-61963489D01*
X108406882Y-61902642D01*
X108469259Y-61838335D01*
X108533515Y-61772832D01*
X108597428Y-61708397D01*
X108658773Y-61647294D01*
X108715326Y-61591786D01*
X108764864Y-61544140D01*
X108805163Y-61506617D01*
X108833998Y-61481483D01*
X108849147Y-61471001D01*
X108850122Y-61470692D01*
X108857347Y-61468825D01*
X108865321Y-61468713D01*
X108875919Y-61471525D01*
X108891014Y-61478426D01*
X108912479Y-61490582D01*
X108942189Y-61509160D01*
X108982018Y-61535327D01*
X109033838Y-61570249D01*
X109099524Y-61615091D01*
X109180949Y-61671021D01*
X109279987Y-61739206D01*
X109321552Y-61767763D01*
X109422506Y-61836410D01*
X109505412Y-61891577D01*
X109570973Y-61933709D01*
X109619892Y-61963253D01*
X109652873Y-61980652D01*
X109670620Y-61986353D01*
X109675860Y-61985492D01*
X109701880Y-61977641D01*
X109744615Y-61962740D01*
X109800496Y-61942189D01*
X109865957Y-61917388D01*
X109937427Y-61889737D01*
X110011341Y-61860634D01*
X110084130Y-61831480D01*
X110152226Y-61803674D01*
X110212060Y-61778616D01*
X110260067Y-61757705D01*
X110292676Y-61742341D01*
X110294933Y-61741181D01*
X110304876Y-61735444D01*
X110313547Y-61727946D01*
X110321501Y-61716537D01*
X110329297Y-61699065D01*
X110337490Y-61673381D01*
X110346635Y-61637333D01*
X110357291Y-61588771D01*
X110370012Y-61525543D01*
X110385356Y-61445498D01*
X110403878Y-61346487D01*
X110426134Y-61226359D01*
X110441695Y-61143168D01*
X110459103Y-61052297D01*
X110475198Y-60970563D01*
X110489401Y-60900796D01*
X110501137Y-60845824D01*
X110509826Y-60808479D01*
X110514891Y-60791589D01*
X110517087Y-60787842D01*
X110522011Y-60782540D01*
X110530480Y-60778267D01*
X110544730Y-60774912D01*
X110566996Y-60772364D01*
X110599513Y-60770512D01*
X110644516Y-60769246D01*
X110704239Y-60768454D01*
X110780919Y-60768025D01*
X110876789Y-60767849D01*
X110994085Y-60767816D01*
X111062454Y-60767824D01*
G37*
G36*
X86619694Y-69043737D02*
G01*
X86962722Y-69044036D01*
X87335189Y-69044481D01*
X90200357Y-69048302D01*
X90204292Y-69740411D01*
X90208227Y-70432519D01*
X87318616Y-70432519D01*
X84429005Y-70432519D01*
X84429005Y-69753609D01*
X84429009Y-69723917D01*
X84429209Y-69562498D01*
X84429763Y-69428533D01*
X84430743Y-69319618D01*
X84432218Y-69233353D01*
X84434260Y-69167333D01*
X84436940Y-69119159D01*
X84440328Y-69086426D01*
X84444496Y-69066734D01*
X84449513Y-69057679D01*
X84451111Y-69056998D01*
X84467735Y-69054858D01*
X84502366Y-69052916D01*
X84555821Y-69051169D01*
X84628914Y-69049613D01*
X84722465Y-69048244D01*
X84837288Y-69047059D01*
X84974201Y-69046054D01*
X85134020Y-69045224D01*
X85317561Y-69044567D01*
X85525643Y-69044079D01*
X85759080Y-69043756D01*
X86018690Y-69043593D01*
X86305289Y-69043588D01*
X86619694Y-69043737D01*
G37*
G36*
X88578663Y-61446416D02*
G01*
X88605409Y-61481606D01*
X88649996Y-61514451D01*
X88717759Y-61551191D01*
X88756713Y-61572233D01*
X88861290Y-61644345D01*
X88949977Y-61728993D01*
X89015593Y-61819703D01*
X89019378Y-61826397D01*
X89044570Y-61868102D01*
X89063766Y-61888697D01*
X89065124Y-61890154D01*
X89089665Y-61898803D01*
X89126817Y-61900297D01*
X89144195Y-61900736D01*
X89181757Y-61905220D01*
X89200398Y-61912986D01*
X89205364Y-61929540D01*
X89210011Y-61970470D01*
X89212415Y-62024933D01*
X89212590Y-62084187D01*
X89210552Y-62139490D01*
X89206317Y-62182099D01*
X89199898Y-62203273D01*
X89197444Y-62205093D01*
X89169778Y-62213346D01*
X89122320Y-62219741D01*
X89063745Y-62223020D01*
X88944729Y-62225550D01*
X88934446Y-62391761D01*
X88931174Y-62449247D01*
X88928602Y-62506624D01*
X88927648Y-62546424D01*
X88928532Y-62562342D01*
X88932524Y-62558893D01*
X88954794Y-62536381D01*
X88995256Y-62494304D01*
X89052386Y-62434278D01*
X89124662Y-62357921D01*
X89210561Y-62266847D01*
X89308558Y-62162672D01*
X89417131Y-62047014D01*
X89534756Y-61921487D01*
X89659911Y-61787708D01*
X89791071Y-61647292D01*
X89865665Y-61567413D01*
X89994625Y-61429501D01*
X90117201Y-61298650D01*
X90231810Y-61176534D01*
X90336873Y-61064830D01*
X90430807Y-60965215D01*
X90512030Y-60879363D01*
X90578962Y-60808952D01*
X90630021Y-60755657D01*
X90663625Y-60721153D01*
X90678194Y-60707118D01*
X90679257Y-60706358D01*
X90692481Y-60698680D01*
X90700689Y-60701836D01*
X90705073Y-60720680D01*
X90706827Y-60760068D01*
X90707147Y-60824856D01*
X90707147Y-60963349D01*
X89827781Y-61904575D01*
X89735380Y-62003528D01*
X89605730Y-62142551D01*
X89482849Y-62274524D01*
X89368282Y-62397778D01*
X89263574Y-62510640D01*
X89170273Y-62611442D01*
X89089922Y-62698512D01*
X89024069Y-62770179D01*
X88974258Y-62824772D01*
X88942036Y-62860622D01*
X88928949Y-62876057D01*
X88927449Y-62879498D01*
X88924223Y-62894263D01*
X88920785Y-62920314D01*
X88917078Y-62958838D01*
X88913046Y-63011017D01*
X88908632Y-63078036D01*
X88906487Y-63114757D01*
X88903781Y-63161079D01*
X88898435Y-63261332D01*
X88892538Y-63379977D01*
X88886034Y-63518199D01*
X88878866Y-63677182D01*
X88870978Y-63858111D01*
X88862314Y-64062170D01*
X88852817Y-64290544D01*
X88842431Y-64544416D01*
X88831100Y-64824970D01*
X88818766Y-65133392D01*
X88805374Y-65470865D01*
X88804510Y-65493334D01*
X88802012Y-65577920D01*
X88802042Y-65638988D01*
X88804910Y-65681989D01*
X88810924Y-65712378D01*
X88820394Y-65735606D01*
X88829965Y-65749034D01*
X88859629Y-65784180D01*
X88883536Y-65810899D01*
X88905939Y-65835938D01*
X88966241Y-65901435D01*
X89037880Y-65977793D01*
X89118198Y-66062137D01*
X89204542Y-66151591D01*
X89275114Y-66224227D01*
X89471029Y-66425961D01*
X89647064Y-66607374D01*
X89804161Y-66769453D01*
X89943264Y-66913188D01*
X90065319Y-67039566D01*
X90171269Y-67149576D01*
X90262057Y-67244206D01*
X90338629Y-67324444D01*
X90401928Y-67391279D01*
X90452899Y-67445699D01*
X90492485Y-67488692D01*
X90521630Y-67521246D01*
X90541280Y-67544351D01*
X90552377Y-67558993D01*
X90555867Y-67566163D01*
X90553774Y-67574800D01*
X90536997Y-67604639D01*
X90508915Y-67640867D01*
X90493975Y-67656661D01*
X90461714Y-67683663D01*
X90438029Y-67694341D01*
X90437305Y-67694335D01*
X90431629Y-67693609D01*
X90424474Y-67690688D01*
X90414447Y-67684173D01*
X90400150Y-67672667D01*
X90380189Y-67654773D01*
X90353167Y-67629091D01*
X90317689Y-67594226D01*
X90272359Y-67548777D01*
X90215782Y-67491349D01*
X90146562Y-67420542D01*
X90063304Y-67334960D01*
X89964611Y-67233204D01*
X89849088Y-67113876D01*
X89715339Y-66975579D01*
X89561969Y-66816914D01*
X89482384Y-66734613D01*
X89371146Y-66619715D01*
X89265504Y-66510753D01*
X89167660Y-66409988D01*
X89079815Y-66319684D01*
X89004172Y-66242103D01*
X88942931Y-66179508D01*
X88898296Y-66134162D01*
X88872466Y-66108326D01*
X88789759Y-66027552D01*
X88781093Y-66078070D01*
X88779852Y-66087795D01*
X88776621Y-66129179D01*
X88772978Y-66193406D01*
X88769172Y-66275353D01*
X88765450Y-66369896D01*
X88762060Y-66471910D01*
X88761766Y-66481496D01*
X88757489Y-66595151D01*
X88752360Y-66692271D01*
X88746629Y-66769424D01*
X88740547Y-66823180D01*
X88734366Y-66850111D01*
X88725936Y-66863981D01*
X88710918Y-66875783D01*
X88684793Y-66883356D01*
X88641183Y-66888384D01*
X88573707Y-66892555D01*
X88430375Y-66900119D01*
X88426138Y-67093437D01*
X88421901Y-67286756D01*
X88221909Y-67282538D01*
X88021918Y-67278320D01*
X88014354Y-67089219D01*
X88006790Y-66900119D01*
X87454616Y-66895903D01*
X87330384Y-66895163D01*
X87211154Y-66894871D01*
X87104059Y-66895029D01*
X87012723Y-66895614D01*
X86940770Y-66896603D01*
X86891824Y-66897971D01*
X86869508Y-66899696D01*
X86854464Y-66907533D01*
X86823311Y-66939287D01*
X86790395Y-66988417D01*
X86761611Y-67035913D01*
X86688619Y-67131854D01*
X86605299Y-67206625D01*
X86505077Y-67266636D01*
X86498302Y-67269982D01*
X86451358Y-67292580D01*
X86413878Y-67307723D01*
X86377919Y-67316884D01*
X86335536Y-67321531D01*
X86278785Y-67323137D01*
X86199722Y-67323173D01*
X86160320Y-67322977D01*
X86089532Y-67321573D01*
X86037971Y-67317915D01*
X85997995Y-67310872D01*
X85961960Y-67299311D01*
X85922223Y-67282103D01*
X85835368Y-67229823D01*
X85747201Y-67153109D01*
X85669103Y-67061357D01*
X85608531Y-66962170D01*
X85604039Y-66952965D01*
X85579455Y-66897540D01*
X85564369Y-66848290D01*
X85555911Y-66793075D01*
X85551209Y-66719758D01*
X85550411Y-66695551D01*
X85550423Y-66692615D01*
X85894794Y-66692615D01*
X85909722Y-66774202D01*
X85945727Y-66849231D01*
X86002933Y-66912776D01*
X86081466Y-66959909D01*
X86134913Y-66974831D01*
X86209086Y-66981837D01*
X86282968Y-66977606D01*
X86342704Y-66962025D01*
X86354574Y-66956362D01*
X86423136Y-66906964D01*
X86479246Y-66838920D01*
X86517223Y-66760697D01*
X86531388Y-66680762D01*
X86531353Y-66674102D01*
X86516773Y-66581846D01*
X86478920Y-66500653D01*
X86422245Y-66433688D01*
X86351201Y-66384118D01*
X86270242Y-66355109D01*
X86183820Y-66349828D01*
X86096387Y-66371439D01*
X86043352Y-66399201D01*
X85975222Y-66457761D01*
X85927669Y-66529468D01*
X85900818Y-66609395D01*
X85894794Y-66692615D01*
X85550423Y-66692615D01*
X85550685Y-66626715D01*
X85554303Y-66566362D01*
X85560735Y-66525336D01*
X85563797Y-66513852D01*
X85570860Y-66481832D01*
X85571143Y-66468969D01*
X85567312Y-66472471D01*
X85545439Y-66494857D01*
X85505893Y-66536214D01*
X85450568Y-66594535D01*
X85381361Y-66667811D01*
X85300166Y-66754034D01*
X85208878Y-66851197D01*
X85109392Y-66957292D01*
X85003604Y-67070309D01*
X84928121Y-67150901D01*
X84804856Y-67281832D01*
X84700201Y-67391968D01*
X84613086Y-67482388D01*
X84542439Y-67554175D01*
X84487190Y-67608409D01*
X84446269Y-67646171D01*
X84418604Y-67668542D01*
X84403126Y-67676603D01*
X84399444Y-67676909D01*
X84361544Y-67666969D01*
X84321801Y-67640305D01*
X84290450Y-67605518D01*
X84277725Y-67571210D01*
X84282149Y-67563805D01*
X84305117Y-67535372D01*
X84346338Y-67487690D01*
X84404297Y-67422423D01*
X84477478Y-67341231D01*
X84564366Y-67245779D01*
X84663445Y-67137727D01*
X84773201Y-67018739D01*
X84892117Y-66890477D01*
X85018678Y-66754603D01*
X85151370Y-66612780D01*
X85237364Y-66520963D01*
X85366850Y-66382297D01*
X85489508Y-66250454D01*
X85603789Y-66127121D01*
X85666019Y-66059658D01*
X85959951Y-66059658D01*
X85961313Y-66059303D01*
X85981831Y-66052725D01*
X86017451Y-66040748D01*
X86033940Y-66034481D01*
X86063931Y-66013527D01*
X86075177Y-65981182D01*
X86073573Y-65954143D01*
X86058755Y-65947750D01*
X86031891Y-65966202D01*
X85994782Y-66008878D01*
X85984080Y-66023109D01*
X85965291Y-66049560D01*
X85959951Y-66059658D01*
X85666019Y-66059658D01*
X85708147Y-66013988D01*
X85801034Y-65912742D01*
X85870603Y-65836378D01*
X86259556Y-65836378D01*
X86261043Y-65870774D01*
X86278835Y-65943724D01*
X86306232Y-65981182D01*
X86318461Y-65997902D01*
X86382075Y-66036833D01*
X86407350Y-66047635D01*
X86468372Y-66073914D01*
X86527808Y-66099714D01*
X86603260Y-66143778D01*
X86681366Y-66210453D01*
X86749497Y-66289268D01*
X86798835Y-66371387D01*
X86817237Y-66418885D01*
X86841125Y-66500271D01*
X86862602Y-66594602D01*
X86877288Y-66680762D01*
X86879222Y-66692108D01*
X86885481Y-66692567D01*
X86918357Y-66693246D01*
X86977005Y-66693874D01*
X87058702Y-66694439D01*
X87160724Y-66694928D01*
X87280346Y-66695331D01*
X87414845Y-66695633D01*
X87561498Y-66695824D01*
X87717579Y-66695890D01*
X88555409Y-66695890D01*
X88564357Y-66586212D01*
X88565075Y-66576777D01*
X88568363Y-66521750D01*
X88572063Y-66444499D01*
X88575905Y-66351455D01*
X88579621Y-66249050D01*
X88582938Y-66143716D01*
X88592571Y-65810899D01*
X88240689Y-65447826D01*
X88225562Y-65432216D01*
X88124588Y-65327917D01*
X88017593Y-65217252D01*
X87909997Y-65105835D01*
X87807220Y-64999281D01*
X87714681Y-64903204D01*
X87637799Y-64823220D01*
X87628486Y-64813531D01*
X87543696Y-64726716D01*
X87473197Y-64657222D01*
X87418426Y-64606386D01*
X87380818Y-64575548D01*
X87361809Y-64566044D01*
X87349773Y-64575328D01*
X87318729Y-64604756D01*
X87271211Y-64652108D01*
X87209371Y-64715121D01*
X87135366Y-64791534D01*
X87051349Y-64879084D01*
X86959476Y-64975509D01*
X86861901Y-65078547D01*
X86760779Y-65185935D01*
X86658265Y-65295410D01*
X86556513Y-65404712D01*
X86457679Y-65511577D01*
X86363916Y-65613744D01*
X86330400Y-65651343D01*
X86293344Y-65698899D01*
X86271865Y-65739875D01*
X86261942Y-65782843D01*
X86259556Y-65836378D01*
X85870603Y-65836378D01*
X85880904Y-65825071D01*
X85946209Y-65752664D01*
X85995402Y-65697209D01*
X86026936Y-65660395D01*
X86039265Y-65643909D01*
X86040881Y-65633773D01*
X86041553Y-65596332D01*
X86039733Y-65532565D01*
X86035388Y-65441928D01*
X86028485Y-65323878D01*
X86018992Y-65177871D01*
X86006876Y-65003362D01*
X85992105Y-64799808D01*
X85974645Y-64566664D01*
X85967847Y-64476929D01*
X85954509Y-64300437D01*
X85941740Y-64130910D01*
X85929758Y-63971246D01*
X85918777Y-63824347D01*
X85909014Y-63693113D01*
X85900684Y-63580446D01*
X85894005Y-63489245D01*
X85889192Y-63422412D01*
X85886460Y-63382846D01*
X85883928Y-63348788D01*
X85877614Y-63286973D01*
X85870453Y-63238838D01*
X85863561Y-63212656D01*
X85863165Y-63211904D01*
X85855816Y-63203165D01*
X85847985Y-63199493D01*
X86064045Y-63199493D01*
X86071521Y-63272260D01*
X86072648Y-63284771D01*
X86076173Y-63328462D01*
X86081556Y-63398105D01*
X86088598Y-63491041D01*
X86097102Y-63604610D01*
X86106869Y-63736153D01*
X86117702Y-63883009D01*
X86129403Y-64042519D01*
X86141774Y-64212023D01*
X86154616Y-64388862D01*
X86162986Y-64504170D01*
X86175327Y-64673357D01*
X86186971Y-64832016D01*
X86197736Y-64977691D01*
X86207435Y-65107925D01*
X86215886Y-65220262D01*
X86222905Y-65312246D01*
X86228306Y-65381421D01*
X86231907Y-65425330D01*
X86233522Y-65441517D01*
X86239736Y-65436907D01*
X86264170Y-65413194D01*
X86304824Y-65371810D01*
X86359257Y-65315366D01*
X86425025Y-65246470D01*
X86499686Y-65167735D01*
X86580796Y-65081769D01*
X86665914Y-64991185D01*
X86752597Y-64898591D01*
X86838401Y-64806599D01*
X86920885Y-64717818D01*
X86997606Y-64634860D01*
X87066120Y-64560335D01*
X87123986Y-64496853D01*
X87168761Y-64447024D01*
X87198001Y-64413460D01*
X87209264Y-64398769D01*
X87209288Y-64398688D01*
X87201428Y-64384958D01*
X87522269Y-64384958D01*
X87524889Y-64390947D01*
X87530855Y-64398688D01*
X87544952Y-64416977D01*
X87582850Y-64460904D01*
X87636451Y-64520402D01*
X87703619Y-64593145D01*
X87782221Y-64676809D01*
X87870124Y-64769069D01*
X87965192Y-64867599D01*
X87978608Y-64881415D01*
X88119962Y-65026473D01*
X88244408Y-65153196D01*
X88351406Y-65261051D01*
X88440414Y-65349503D01*
X88510890Y-65418019D01*
X88562294Y-65466067D01*
X88594083Y-65493112D01*
X88605716Y-65498621D01*
X88606258Y-65490914D01*
X88607999Y-65456072D01*
X88610753Y-65395762D01*
X88614406Y-65312769D01*
X88618843Y-65209877D01*
X88623952Y-65089870D01*
X88629616Y-64955535D01*
X88635723Y-64809656D01*
X88642156Y-64655018D01*
X88648803Y-64494405D01*
X88655549Y-64330603D01*
X88662280Y-64166396D01*
X88668880Y-64004569D01*
X88675237Y-63847908D01*
X88681235Y-63699197D01*
X88686760Y-63561222D01*
X88691698Y-63436766D01*
X88695935Y-63328615D01*
X88699355Y-63239553D01*
X88701846Y-63172367D01*
X88703293Y-63129839D01*
X88703580Y-63114757D01*
X88701088Y-63116604D01*
X88681739Y-63135747D01*
X88645126Y-63173653D01*
X88593468Y-63227938D01*
X88528984Y-63296215D01*
X88453893Y-63376098D01*
X88370415Y-63465200D01*
X88280769Y-63561135D01*
X88187174Y-63661518D01*
X88091850Y-63763961D01*
X87997015Y-63866078D01*
X87904889Y-63965484D01*
X87817691Y-64059792D01*
X87737640Y-64146616D01*
X87666956Y-64223570D01*
X87607857Y-64288267D01*
X87562564Y-64338322D01*
X87533294Y-64371347D01*
X87522269Y-64384958D01*
X87201428Y-64384958D01*
X87200397Y-64383158D01*
X87172847Y-64349263D01*
X87129333Y-64299985D01*
X87072549Y-64238307D01*
X87005188Y-64167208D01*
X86929947Y-64089671D01*
X86893547Y-64052556D01*
X86790858Y-63947622D01*
X86677906Y-63831938D01*
X86562373Y-63713383D01*
X86451940Y-63599838D01*
X86354288Y-63499180D01*
X86064045Y-63199493D01*
X85847985Y-63199493D01*
X85841913Y-63196646D01*
X85817508Y-63192028D01*
X85778648Y-63188992D01*
X85721385Y-63187218D01*
X85641768Y-63186388D01*
X85535846Y-63186182D01*
X85528003Y-63186180D01*
X85411573Y-63185474D01*
X85323080Y-63183425D01*
X85260358Y-63179913D01*
X85221240Y-63174820D01*
X85203562Y-63168028D01*
X85196985Y-63151576D01*
X85191739Y-63113060D01*
X85188141Y-63050744D01*
X85186071Y-62962486D01*
X85185408Y-62846141D01*
X85185413Y-62828840D01*
X85185975Y-62717275D01*
X85187352Y-62664264D01*
X85359381Y-62664264D01*
X85359381Y-62813010D01*
X85359635Y-62860340D01*
X85361566Y-62914525D01*
X85366332Y-62948831D01*
X85375026Y-62969607D01*
X85388746Y-62983201D01*
X85404759Y-62990762D01*
X85448665Y-63000003D01*
X85506325Y-63004931D01*
X85568996Y-63005575D01*
X85627933Y-63001968D01*
X85674390Y-62994139D01*
X85699624Y-62982119D01*
X85703937Y-62976038D01*
X85713437Y-62934380D01*
X85703639Y-62879896D01*
X85677134Y-62818881D01*
X85636517Y-62757627D01*
X85584381Y-62702427D01*
X85563096Y-62684583D01*
X85532106Y-62665874D01*
X85497079Y-62658927D01*
X85445026Y-62659767D01*
X85359381Y-62664264D01*
X85187352Y-62664264D01*
X85188191Y-62631976D01*
X85193083Y-62569432D01*
X85201676Y-62526133D01*
X85214992Y-62498567D01*
X85234053Y-62483225D01*
X85259884Y-62476594D01*
X85293507Y-62475163D01*
X85354506Y-62475163D01*
X85313308Y-62425997D01*
X85309378Y-62421530D01*
X85284783Y-62395081D01*
X85241631Y-62349614D01*
X85181807Y-62287085D01*
X85107196Y-62209449D01*
X85019679Y-62118662D01*
X84921143Y-62016679D01*
X84813470Y-61905455D01*
X84698545Y-61786946D01*
X84578252Y-61663107D01*
X83884395Y-60949383D01*
X83884395Y-60819718D01*
X83884439Y-60808168D01*
X83886715Y-60745170D01*
X83892097Y-60704488D01*
X83900109Y-60690053D01*
X83901557Y-60690110D01*
X83906927Y-60691436D01*
X83914470Y-60695555D01*
X83925532Y-60703822D01*
X83941457Y-60717594D01*
X83963590Y-60738227D01*
X83993274Y-60767080D01*
X84031855Y-60805507D01*
X84080676Y-60854866D01*
X84141083Y-60916513D01*
X84214419Y-60991806D01*
X84302030Y-61082100D01*
X84405258Y-61188753D01*
X84525450Y-61313121D01*
X84663949Y-61456560D01*
X84822100Y-61620428D01*
X84825244Y-61623686D01*
X84952801Y-61755538D01*
X85074979Y-61881220D01*
X85190049Y-61998989D01*
X85296283Y-62107105D01*
X85391951Y-62203826D01*
X85475326Y-62287411D01*
X85544677Y-62356119D01*
X85598278Y-62408209D01*
X85634398Y-62441940D01*
X85651309Y-62455571D01*
X85653479Y-62456506D01*
X85698513Y-62468963D01*
X85748928Y-62474481D01*
X85805658Y-62475163D01*
X85805658Y-62376831D01*
X85803459Y-62315041D01*
X85793766Y-62271219D01*
X85772043Y-62242934D01*
X85733752Y-62226854D01*
X85674359Y-62219648D01*
X85589327Y-62217986D01*
X85576094Y-62217949D01*
X85572029Y-62217826D01*
X86002323Y-62217826D01*
X86002932Y-62289764D01*
X86003621Y-62313814D01*
X86006384Y-62369822D01*
X86010860Y-62444528D01*
X86016631Y-62531131D01*
X86023283Y-62622824D01*
X86043026Y-62883946D01*
X86097707Y-62934380D01*
X86162609Y-62994241D01*
X86201185Y-63029818D01*
X86274687Y-63097471D01*
X86329896Y-63147790D01*
X86369568Y-63182977D01*
X86396459Y-63205235D01*
X86413323Y-63216766D01*
X86422918Y-63219775D01*
X86427998Y-63216462D01*
X86431319Y-63209031D01*
X86434917Y-63204344D01*
X86445391Y-63199512D01*
X86464999Y-63195667D01*
X86496382Y-63192730D01*
X86542180Y-63190623D01*
X86605032Y-63189268D01*
X86687579Y-63188586D01*
X86792460Y-63188500D01*
X86922315Y-63188930D01*
X87079785Y-63189799D01*
X87719357Y-63193746D01*
X87719357Y-63382846D01*
X87719357Y-63571947D01*
X87222451Y-63579511D01*
X86725545Y-63587075D01*
X87032443Y-63904764D01*
X87052834Y-63925841D01*
X87130301Y-64005332D01*
X87200812Y-64076796D01*
X87261577Y-64137464D01*
X87309803Y-64184569D01*
X87342700Y-64215344D01*
X87357476Y-64227021D01*
X87361010Y-64225157D01*
X87382734Y-64205906D01*
X87421883Y-64167652D01*
X87476349Y-64112641D01*
X87544022Y-64043119D01*
X87622793Y-63961334D01*
X87710552Y-63869532D01*
X87805190Y-63769959D01*
X87904599Y-63664863D01*
X88006669Y-63556489D01*
X88109290Y-63447085D01*
X88210354Y-63338896D01*
X88307751Y-63234170D01*
X88399372Y-63135153D01*
X88483108Y-63044092D01*
X88556849Y-62963233D01*
X88618487Y-62894823D01*
X88665911Y-62841109D01*
X88697013Y-62804336D01*
X88709684Y-62786752D01*
X88713065Y-62768969D01*
X88717361Y-62723832D01*
X88721396Y-62658576D01*
X88724834Y-62578848D01*
X88727339Y-62490291D01*
X88732936Y-62225550D01*
X87367629Y-62221688D01*
X86002323Y-62217826D01*
X85572029Y-62217826D01*
X85495529Y-62215511D01*
X85441330Y-62209408D01*
X85415354Y-62199833D01*
X85409063Y-62188693D01*
X85400541Y-62152044D01*
X85397201Y-62103845D01*
X85395646Y-62064769D01*
X85386173Y-62024818D01*
X85365396Y-61997228D01*
X85333283Y-61961148D01*
X85303848Y-61900297D01*
X85786652Y-61900297D01*
X86958494Y-61900297D01*
X86999279Y-61900291D01*
X87183206Y-61900110D01*
X87357827Y-61899693D01*
X87520812Y-61899058D01*
X87669836Y-61898226D01*
X87802570Y-61897218D01*
X87916686Y-61896052D01*
X88009857Y-61894748D01*
X88079755Y-61893327D01*
X88124052Y-61891809D01*
X88140421Y-61890212D01*
X88143080Y-61882329D01*
X88146902Y-61849102D01*
X88149277Y-61801965D01*
X88566528Y-61801965D01*
X88566528Y-61892733D01*
X88683770Y-61897152D01*
X88697766Y-61897587D01*
X88750289Y-61897371D01*
X88787123Y-61894233D01*
X88801012Y-61888697D01*
X88801011Y-61888499D01*
X88789126Y-61864627D01*
X88758843Y-61830787D01*
X88717316Y-61793012D01*
X88671696Y-61757335D01*
X88629134Y-61729791D01*
X88596784Y-61716412D01*
X88582000Y-61715777D01*
X88571864Y-61725157D01*
X88570571Y-61732986D01*
X88567477Y-61751710D01*
X88566528Y-61801965D01*
X88149277Y-61801965D01*
X88149529Y-61796954D01*
X88150506Y-61732986D01*
X88150345Y-61695110D01*
X88148687Y-61638577D01*
X88144456Y-61603685D01*
X88136698Y-61584691D01*
X88124462Y-61575851D01*
X88102649Y-61570421D01*
X88056642Y-61562995D01*
X87995140Y-61555148D01*
X87924644Y-61547486D01*
X87851655Y-61540612D01*
X87782676Y-61535131D01*
X87724207Y-61531648D01*
X87682751Y-61530768D01*
X87664808Y-61533096D01*
X87663729Y-61534412D01*
X87654851Y-61558937D01*
X87648577Y-61597736D01*
X87643716Y-61650684D01*
X87152055Y-61650684D01*
X86660393Y-61650684D01*
X86655559Y-61608594D01*
X86650651Y-61583514D01*
X86636132Y-61571792D01*
X86602611Y-61574480D01*
X86589721Y-61576617D01*
X86543324Y-61584318D01*
X86481164Y-61594639D01*
X86413026Y-61605956D01*
X86316200Y-61624641D01*
X86183237Y-61659247D01*
X86063201Y-61701084D01*
X85960425Y-61748343D01*
X85879241Y-61799216D01*
X85823980Y-61851893D01*
X85786652Y-61900297D01*
X85303848Y-61900297D01*
X85301196Y-61894814D01*
X85292376Y-61823818D01*
X85306174Y-61754848D01*
X85341944Y-61694590D01*
X85399039Y-61649734D01*
X85425628Y-61639222D01*
X85493730Y-61631109D01*
X85564726Y-61642559D01*
X85625910Y-61672307D01*
X85669934Y-61704855D01*
X85765882Y-61636389D01*
X85868783Y-61569878D01*
X85993326Y-61507820D01*
X86128682Y-61460391D01*
X86280933Y-61425519D01*
X86456164Y-61401129D01*
X86520706Y-61393945D01*
X86580317Y-61386463D01*
X86622728Y-61380167D01*
X86630649Y-61378380D01*
X86826802Y-61378380D01*
X86826802Y-61431328D01*
X86826802Y-61484276D01*
X87155837Y-61488353D01*
X87484872Y-61492430D01*
X87484872Y-61431328D01*
X87484872Y-61370225D01*
X87155837Y-61374303D01*
X86826802Y-61378380D01*
X86630649Y-61378380D01*
X86641483Y-61375936D01*
X86644559Y-61371560D01*
X86650478Y-61344312D01*
X86652829Y-61302379D01*
X86653783Y-61275032D01*
X86662365Y-61239386D01*
X86682501Y-61219848D01*
X86691719Y-61217145D01*
X86732295Y-61212752D01*
X86801962Y-61209620D01*
X86899964Y-61207767D01*
X87025543Y-61207211D01*
X87177944Y-61207969D01*
X87643716Y-61211971D01*
X87651280Y-61272483D01*
X87658844Y-61332995D01*
X87855509Y-61342165D01*
X87861504Y-61342448D01*
X87939965Y-61346843D01*
X88010971Y-61351984D01*
X88066928Y-61357254D01*
X88100242Y-61362036D01*
X88131162Y-61366972D01*
X88147035Y-61358744D01*
X88153191Y-61330174D01*
X88158070Y-61287611D01*
X88354735Y-61287611D01*
X88551400Y-61287611D01*
X88559265Y-61365779D01*
X88564425Y-61402641D01*
X88573756Y-61431328D01*
X88578663Y-61446416D01*
G37*
G36*
X86275090Y-66471627D02*
G01*
X86333746Y-66498232D01*
X86340790Y-66503489D01*
X86390252Y-66558945D01*
X86418866Y-66627248D01*
X86424408Y-66699924D01*
X86404654Y-66768499D01*
X86403095Y-66771423D01*
X86370589Y-66817022D01*
X86329086Y-66857512D01*
X86289756Y-66881871D01*
X86267495Y-66887852D01*
X86204410Y-66891662D01*
X86138365Y-66882556D01*
X86085141Y-66862060D01*
X86084275Y-66861522D01*
X86030763Y-66811929D01*
X85998891Y-66748193D01*
X85988625Y-66677185D01*
X85999928Y-66605776D01*
X86032764Y-66540838D01*
X86087097Y-66489242D01*
X86136257Y-66468838D01*
X86205112Y-66461678D01*
X86275090Y-66471627D01*
G37*
%TD*%
M02*
