%TF.GenerationSoftware,KiCad,Pcbnew,8.0.8*%
%TF.CreationDate,2025-02-10T12:16:24+01:00*%
%TF.ProjectId,HUB75Adapter,48554237-3541-4646-9170-7465722e6b69,V1.0*%
%TF.SameCoordinates,Original*%
%TF.FileFunction,Soldermask,Top*%
%TF.FilePolarity,Negative*%
%FSLAX46Y46*%
G04 Gerber Fmt 4.6, Leading zero omitted, Abs format (unit mm)*
G04 Created by KiCad (PCBNEW 8.0.8) date 2025-02-10 12:16:24*
%MOMM*%
%LPD*%
G01*
G04 APERTURE LIST*
G04 Aperture macros list*
%AMRoundRect*
0 Rectangle with rounded corners*
0 $1 Rounding radius*
0 $2 $3 $4 $5 $6 $7 $8 $9 X,Y pos of 4 corners*
0 Add a 4 corners polygon primitive as box body*
4,1,4,$2,$3,$4,$5,$6,$7,$8,$9,$2,$3,0*
0 Add four circle primitives for the rounded corners*
1,1,$1+$1,$2,$3*
1,1,$1+$1,$4,$5*
1,1,$1+$1,$6,$7*
1,1,$1+$1,$8,$9*
0 Add four rect primitives between the rounded corners*
20,1,$1+$1,$2,$3,$4,$5,0*
20,1,$1+$1,$4,$5,$6,$7,0*
20,1,$1+$1,$6,$7,$8,$9,0*
20,1,$1+$1,$8,$9,$2,$3,0*%
G04 Aperture macros list end*
%ADD10RoundRect,0.250000X-0.350000X0.850000X-0.350000X-0.850000X0.350000X-0.850000X0.350000X0.850000X0*%
%ADD11RoundRect,0.250000X-2.650000X2.950000X-2.650000X-2.950000X2.650000X-2.950000X2.650000X2.950000X0*%
%ADD12RoundRect,0.250001X-0.624999X0.462499X-0.624999X-0.462499X0.624999X-0.462499X0.624999X0.462499X0*%
%ADD13RoundRect,0.250000X-0.600000X0.600000X-0.600000X-0.600000X0.600000X-0.600000X0.600000X0.600000X0*%
%ADD14C,1.700000*%
%ADD15C,2.750000*%
%ADD16RoundRect,0.102000X0.800000X0.754000X-0.800000X0.754000X-0.800000X-0.754000X0.800000X-0.754000X0*%
%ADD17C,1.804000*%
%ADD18R,1.700000X1.700000*%
%ADD19O,1.700000X1.700000*%
%ADD20R,2.000000X2.000000*%
%ADD21C,2.000000*%
%ADD22RoundRect,0.250001X-0.462499X-0.624999X0.462499X-0.624999X0.462499X0.624999X-0.462499X0.624999X0*%
%ADD23R,1.600000X2.400000*%
%ADD24O,1.600000X2.400000*%
%ADD25RoundRect,0.250001X0.624999X-0.462499X0.624999X0.462499X-0.624999X0.462499X-0.624999X-0.462499X0*%
%ADD26C,1.000000*%
%ADD27R,4.240000X3.810000*%
%ADD28RoundRect,0.250000X0.600000X0.600000X-0.600000X0.600000X-0.600000X-0.600000X0.600000X-0.600000X0*%
%ADD29R,2.600000X2.600000*%
%ADD30C,2.600000*%
%ADD31R,1.800000X1.400000*%
%ADD32O,1.800000X1.400000*%
%ADD33RoundRect,0.250001X0.462499X0.624999X-0.462499X0.624999X-0.462499X-0.624999X0.462499X-0.624999X0*%
%ADD34RoundRect,0.750000X1.000000X-0.750000X1.000000X0.750000X-1.000000X0.750000X-1.000000X-0.750000X0*%
%ADD35RoundRect,0.750000X0.750000X-1.000000X0.750000X1.000000X-0.750000X1.000000X-0.750000X-1.000000X0*%
G04 APERTURE END LIST*
D10*
%TO.C,Q1*%
X72780000Y-132050000D03*
D11*
X70500000Y-138350000D03*
D10*
X68220000Y-132050000D03*
%TD*%
D12*
%TO.C,R2*%
X132250000Y-67262500D03*
X132250000Y-70237500D03*
%TD*%
D13*
%TO.C,J6*%
X123890000Y-111247500D03*
D14*
X123890000Y-113787500D03*
X121350000Y-111247500D03*
X121350000Y-113787500D03*
X118810000Y-111247500D03*
X118810000Y-113787500D03*
X116270000Y-111247500D03*
X116270000Y-113787500D03*
X113730000Y-111247500D03*
X113730000Y-113787500D03*
X111190000Y-111247500D03*
X111190000Y-113787500D03*
X108650000Y-111247500D03*
X108650000Y-113787500D03*
X106110000Y-111247500D03*
X106110000Y-113787500D03*
%TD*%
D15*
%TO.C,U1*%
X127000000Y-79270000D03*
X127000000Y-56270000D03*
X69000000Y-79270000D03*
X69000000Y-56270000D03*
D16*
X122130000Y-78000000D03*
D17*
X122130000Y-80540000D03*
X119590000Y-78000000D03*
X119590000Y-80540000D03*
X117050000Y-78000000D03*
X117050000Y-80540000D03*
X114510000Y-78000000D03*
X114510000Y-80540000D03*
X111970000Y-78000000D03*
X111970000Y-80540000D03*
X109430000Y-78000000D03*
X109430000Y-80540000D03*
X106890000Y-78000000D03*
X106890000Y-80540000D03*
X104350000Y-78000000D03*
X104350000Y-80540000D03*
X101810000Y-78000000D03*
X101810000Y-80540000D03*
X99270000Y-78000000D03*
X99270000Y-80540000D03*
X96730000Y-78000000D03*
X96730000Y-80540000D03*
X94190000Y-78000000D03*
X94190000Y-80540000D03*
X91650000Y-78000000D03*
X91650000Y-80540000D03*
X89110000Y-78000000D03*
X89110000Y-80540000D03*
X86570000Y-78000000D03*
X86570000Y-80540000D03*
X84030000Y-78000000D03*
X84030000Y-80540000D03*
X81490000Y-78000000D03*
X81490000Y-80540000D03*
X78950000Y-78000000D03*
X78950000Y-80540000D03*
X76410000Y-78000000D03*
X76410000Y-80540000D03*
X73870000Y-78000000D03*
X73870000Y-80540000D03*
%TD*%
D12*
%TO.C,C8*%
X114470000Y-95512500D03*
X114470000Y-98487500D03*
%TD*%
D18*
%TO.C,J10*%
X86750000Y-120475000D03*
D19*
X86750000Y-123015000D03*
X86750000Y-125555000D03*
%TD*%
D20*
%TO.C,C4*%
X142367677Y-73000000D03*
D21*
X137367677Y-73000000D03*
%TD*%
D22*
%TO.C,C2*%
X119262500Y-84500000D03*
X122237500Y-84500000D03*
%TD*%
D23*
%TO.C,U3*%
X109395000Y-90175000D03*
D24*
X106855000Y-90175000D03*
X104315000Y-90175000D03*
X101775000Y-90175000D03*
X99235000Y-90175000D03*
X96695000Y-90175000D03*
X94155000Y-90175000D03*
X91615000Y-90175000D03*
X89075000Y-90175000D03*
X86535000Y-90175000D03*
X86535000Y-97795000D03*
X89075000Y-97795000D03*
X91615000Y-97795000D03*
X94155000Y-97795000D03*
X96695000Y-97795000D03*
X99235000Y-97795000D03*
X101775000Y-97795000D03*
X104315000Y-97795000D03*
X106855000Y-97795000D03*
X109395000Y-97795000D03*
%TD*%
D25*
%TO.C,R1*%
X132250000Y-64237500D03*
X132250000Y-61262500D03*
%TD*%
%TO.C,C6*%
X81750000Y-92487500D03*
X81750000Y-89512500D03*
%TD*%
D18*
%TO.C,J8*%
X117250000Y-120475000D03*
D19*
X117250000Y-123015000D03*
X117250000Y-125555000D03*
%TD*%
D26*
%TO.C,TP2*%
X145500000Y-78750000D03*
%TD*%
%TO.C,TP1*%
X145500000Y-82000000D03*
%TD*%
D18*
%TO.C,J9*%
X112000000Y-120475000D03*
D19*
X112000000Y-123015000D03*
X112000000Y-125555000D03*
%TD*%
D27*
%TO.C,F1*%
X84185000Y-138250000D03*
X77815000Y-138250000D03*
%TD*%
D28*
%TO.C,J3*%
X56502500Y-81330000D03*
D14*
X53962500Y-81330000D03*
X56502500Y-78790000D03*
X53962500Y-78790000D03*
X56502500Y-76250000D03*
X53962500Y-76250000D03*
%TD*%
D20*
%TO.C,C5*%
X142367677Y-62000000D03*
D21*
X137367677Y-62000000D03*
%TD*%
D12*
%TO.C,C3*%
X53500000Y-65512500D03*
X53500000Y-68487500D03*
%TD*%
D18*
%TO.C,J11*%
X81500000Y-120475000D03*
D19*
X81500000Y-123015000D03*
X81500000Y-125555000D03*
%TD*%
D29*
%TO.C,J5*%
X54695000Y-107500000D03*
D30*
X54695000Y-112500000D03*
X54695000Y-117500000D03*
X54695000Y-122500000D03*
%TD*%
D13*
%TO.C,J7*%
X93890000Y-111247500D03*
D14*
X93890000Y-113787500D03*
X91350000Y-111247500D03*
X91350000Y-113787500D03*
X88810000Y-111247500D03*
X88810000Y-113787500D03*
X86270000Y-111247500D03*
X86270000Y-113787500D03*
X83730000Y-111247500D03*
X83730000Y-113787500D03*
X81190000Y-111247500D03*
X81190000Y-113787500D03*
X78650000Y-111247500D03*
X78650000Y-113787500D03*
X76110000Y-111247500D03*
X76110000Y-113787500D03*
%TD*%
D23*
%TO.C,U2*%
X76750000Y-90175000D03*
D24*
X74210000Y-90175000D03*
X71670000Y-90175000D03*
X69130000Y-90175000D03*
X66590000Y-90175000D03*
X64050000Y-90175000D03*
X61510000Y-90175000D03*
X58970000Y-90175000D03*
X56430000Y-90175000D03*
X53890000Y-90175000D03*
X53890000Y-97795000D03*
X56430000Y-97795000D03*
X58970000Y-97795000D03*
X61510000Y-97795000D03*
X64050000Y-97795000D03*
X66590000Y-97795000D03*
X69130000Y-97795000D03*
X71670000Y-97795000D03*
X74210000Y-97795000D03*
X76750000Y-97795000D03*
%TD*%
D31*
%TO.C,LED1*%
X55250000Y-58225000D03*
D32*
X55250000Y-60765000D03*
%TD*%
D23*
%TO.C,U4*%
X142395000Y-90175000D03*
D24*
X139855000Y-90175000D03*
X137315000Y-90175000D03*
X134775000Y-90175000D03*
X132235000Y-90175000D03*
X129695000Y-90175000D03*
X127155000Y-90175000D03*
X124615000Y-90175000D03*
X122075000Y-90175000D03*
X119535000Y-90175000D03*
X119535000Y-97795000D03*
X122075000Y-97795000D03*
X124615000Y-97795000D03*
X127155000Y-97795000D03*
X129695000Y-97795000D03*
X132235000Y-97795000D03*
X134775000Y-97795000D03*
X137315000Y-97795000D03*
X139855000Y-97795000D03*
X142395000Y-97795000D03*
%TD*%
D33*
%TO.C,C9*%
X143987500Y-86750000D03*
X141012500Y-86750000D03*
%TD*%
D29*
%TO.C,J4*%
X145305000Y-122500000D03*
D30*
X145305000Y-117500000D03*
X145305000Y-112500000D03*
X145305000Y-107500000D03*
%TD*%
D12*
%TO.C,C7*%
X81750000Y-95512500D03*
X81750000Y-98487500D03*
%TD*%
D29*
%TO.C,J2*%
X92000000Y-138305000D03*
D30*
X97000000Y-138305000D03*
X102000000Y-138305000D03*
X107000000Y-138305000D03*
%TD*%
D12*
%TO.C,R4*%
X114500000Y-89512500D03*
X114500000Y-92487500D03*
%TD*%
D26*
%TO.C,TP3*%
X127000000Y-85000000D03*
%TD*%
D25*
%TO.C,R5*%
X91750000Y-87237500D03*
X91750000Y-84262500D03*
%TD*%
D20*
%TO.C,C11*%
X60750000Y-128500000D03*
D21*
X60750000Y-133500000D03*
%TD*%
D20*
%TO.C,C10*%
X139250000Y-128632323D03*
D21*
X139250000Y-133632323D03*
%TD*%
D25*
%TO.C,C1*%
X57000000Y-68487500D03*
X57000000Y-65512500D03*
%TD*%
D34*
%TO.C,J1*%
X126250000Y-129250000D03*
X126250000Y-135250000D03*
D35*
X130950000Y-132250000D03*
%TD*%
D25*
%TO.C,R3*%
X61500000Y-60987500D03*
X61500000Y-58012500D03*
%TD*%
M02*
